<?xml version="1.0" encoding="UTF-8" standalone="no"?>
<!-- Generator: Adobe Illustrator 24.0.0, SVG Export Plug-In . SVG Version: 6.00 Build 0)  -->

<svg
   xmlns:dc="http://purl.org/dc/elements/1.1/"
   xmlns:cc="http://creativecommons.org/ns#"
   xmlns:rdf="http://www.w3.org/1999/02/22-rdf-syntax-ns#"
   xmlns:svg="http://www.w3.org/2000/svg"
   xmlns="http://www.w3.org/2000/svg"
   xmlns:xlink="http://www.w3.org/1999/xlink"
   xmlns:sodipodi="http://sodipodi.sourceforge.net/DTD/sodipodi-0.dtd"
   xmlns:inkscape="http://www.inkscape.org/namespaces/inkscape"
   version="1.1"
   x="0px"
   y="0px"
   viewBox="0 0 100 94.612"
   xml:space="preserve"
   id="svg577"
   sodipodi:docname="icon-weds.svg"
   width="100"
   height="94.612"
   inkscape:version="0.92.5 (2060ec1f9f, 2020-04-08)"><metadata
   id="metadata583"><rdf:RDF><cc:Work
       rdf:about=""><dc:format>image/svg+xml</dc:format><dc:type
         rdf:resource="http://purl.org/dc/dcmitype/StillImage" /><dc:title></dc:title></cc:Work></rdf:RDF></metadata><defs
   id="defs581">
	
	
		
	
	
	
	
<clipPath
   id="SVGID_2_"><use
     height="100%"
     width="100%"
     y="0"
     x="0"
     id="use284"
     style="overflow:visible"
     xlink:href="#SVGID_1_" /></clipPath><linearGradient
   y2="379.30249"
   x2="275.86041"
   y1="379.30249"
   x1="252.3468"
   gradientUnits="userSpaceOnUse"
   id="SVGID_3_"><stop
     id="stop289"
     style="stop-color:#5CA1A5"
     offset="0" /><stop
     id="stop291"
     style="stop-color:#B8DCE8"
     offset="1" /></linearGradient><linearGradient
   y2="219.776"
   x2="449.19171"
   y1="219.776"
   x1="401.8934"
   gradientUnits="userSpaceOnUse"
   id="SVGID_4_"><stop
     id="stop308"
     style="stop-color:#F0C68C"
     offset="0" /><stop
     id="stop310"
     style="stop-color:#DC9270"
     offset="1" /></linearGradient><linearGradient
   gradientTransform="matrix(0.9922,-0.1634,0.17,1.0322,7.6187,612.1043)"
   y2="-357.32599"
   x2="496.616"
   y1="-337.63031"
   x1="445.7356"
   gradientUnits="userSpaceOnUse"
   id="SVGID_5_"><stop
     id="stop325"
     style="stop-color:#F0C68C"
     offset="0" /><stop
     id="stop327"
     style="stop-color:#DC9270"
     offset="1" /></linearGradient><linearGradient
   y2="180.9808"
   x2="444.978"
   y1="198.11349"
   x1="415.55429"
   gradientUnits="userSpaceOnUse"
   id="SVGID_6_"><stop
     id="stop332"
     style="stop-color:#F0C68C"
     offset="0" /><stop
     id="stop334"
     style="stop-color:#DC9270"
     offset="1" /></linearGradient><linearGradient
   y2="250.94431"
   x2="476.74689"
   y1="472.73941"
   x1="379.53699"
   gradientUnits="userSpaceOnUse"
   id="SVGID_7_"><stop
     id="stop353"
     style="stop-color:#5CA1A5"
     offset="0" /><stop
     id="stop355"
     style="stop-color:#B8DCE8"
     offset="1" /></linearGradient><linearGradient
   y2="181.8219"
   x2="429.56201"
   y1="415.9968"
   x1="351.06769"
   gradientUnits="userSpaceOnUse"
   id="SVGID_8_"><stop
     id="stop364"
     style="stop-color:#D77223"
     offset="0" /><stop
     id="stop366"
     style="stop-color:#EDDE38"
     offset="1" /></linearGradient><linearGradient
   y2="245.14079"
   x2="404.76401"
   y1="207.1508"
   x1="477.95059"
   gradientUnits="userSpaceOnUse"
   id="SVGID_9_"><stop
     id="stop373"
     style="stop-color:#5CA1A5"
     offset="0" /><stop
     id="stop375"
     style="stop-color:#B8DCE8"
     offset="1" /></linearGradient><linearGradient
   y2="172.83279"
   x2="470.3685"
   y1="441.22"
   x1="380.4064"
   gradientUnits="userSpaceOnUse"
   id="SVGID_10_"><stop
     id="stop382"
     style="stop-color:#DB8A27"
     offset="0" /><stop
     id="stop384"
     style="stop-color:#EDDE38"
     offset="1" /></linearGradient><linearGradient
   y2="215.8208"
   x2="316.40811"
   y1="282.3035"
   x1="339.8725"
   gradientUnits="userSpaceOnUse"
   id="SVGID_11_"><stop
     id="stop395"
     style="stop-color:#F0C68C"
     offset="0" /><stop
     id="stop397"
     style="stop-color:#DC9270"
     offset="1" /></linearGradient><linearGradient
   y2="312.31461"
   x2="377.13699"
   y1="312.31461"
   x1="261.90939"
   gradientUnits="userSpaceOnUse"
   id="SVGID_12_"><stop
     id="stop406"
     style="stop-color:#A20278"
     offset="7.626490e-03" /><stop
     id="stop408"
     style="stop-color:#C66BB3"
     offset="1" /></linearGradient><linearGradient
   y2="397.76239"
   x2="344.22821"
   y1="449.9057"
   x1="301.76871"
   gradientUnits="userSpaceOnUse"
   id="SVGID_13_"><stop
     id="stop413"
     style="stop-color:#F0C68C"
     offset="0" /><stop
     id="stop415"
     style="stop-color:#DC9270"
     offset="1" /></linearGradient><linearGradient
   y2="265.0777"
   x2="358.90479"
   y1="265.0777"
   x1="301.61081"
   gradientUnits="userSpaceOnUse"
   id="SVGID_14_"><stop
     id="stop422"
     style="stop-color:#D77223"
     offset="0" /><stop
     id="stop424"
     style="stop-color:#EDDE38"
     offset="1" /></linearGradient><linearGradient
   y2="284.56009"
   x2="364.74139"
   y1="284.56009"
   x1="346.58441"
   gradientUnits="userSpaceOnUse"
   id="SVGID_15_"><stop
     id="stop429"
     style="stop-color:#D77223"
     offset="0" /><stop
     id="stop431"
     style="stop-color:#EDDE38"
     offset="1" /></linearGradient><linearGradient
   y2="164.3073"
   x2="333.36929"
   y1="211.459"
   x1="371.7486"
   gradientUnits="userSpaceOnUse"
   id="SVGID_16_"><stop
     id="stop438"
     style="stop-color:#F0C68C"
     offset="0" /><stop
     id="stop440"
     style="stop-color:#DC9270"
     offset="1" /></linearGradient><linearGradient
   gradientTransform="matrix(0.9774,0.2112,-0.2112,0.9774,111.3272,-772.6847)"
   y2="885.49078"
   x2="417.46429"
   y1="885.49078"
   x1="405.3689"
   gradientUnits="userSpaceOnUse"
   id="SVGID_17_"><stop
     id="stop451"
     style="stop-color:#F0C68C"
     offset="0" /><stop
     id="stop453"
     style="stop-color:#DC9270"
     offset="1" /></linearGradient><linearGradient
   y2="351.72699"
   x2="345.83939"
   y1="351.72699"
   x1="246.3949"
   gradientUnits="userSpaceOnUse"
   id="SVGID_18_"><stop
     id="stop474"
     style="stop-color:#5CA1A5"
     offset="0" /><stop
     id="stop476"
     style="stop-color:#B8DCE8"
     offset="1" /></linearGradient><linearGradient
   y2="372.80249"
   x2="314.64319"
   y1="326.99081"
   x1="407.38361"
   gradientUnits="userSpaceOnUse"
   id="SVGID_19_"><stop
     id="stop485"
     style="stop-color:#F0C68C"
     offset="0" /><stop
     id="stop487"
     style="stop-color:#DC9270"
     offset="1" /></linearGradient><linearGradient
   y2="334.9808"
   x2="397.42401"
   y1="334.9808"
   x1="365.8587"
   gradientUnits="userSpaceOnUse"
   id="SVGID_20_"><stop
     id="stop492"
     style="stop-color:#A20278"
     offset="7.626490e-03" /><stop
     id="stop494"
     style="stop-color:#C66BB3"
     offset="1" /></linearGradient><linearGradient
   y2="344.33871"
   x2="386.43671"
   y1="344.33871"
   x1="360.92371"
   gradientUnits="userSpaceOnUse"
   id="SVGID_21_"><stop
     id="stop499"
     style="stop-color:#D77223"
     offset="0" /><stop
     id="stop501"
     style="stop-color:#EDDE38"
     offset="1" /></linearGradient><linearGradient
   y2="323.72061"
   x2="399.65881"
   y1="323.72061"
   x1="382.71219"
   gradientUnits="userSpaceOnUse"
   id="SVGID_22_"><stop
     id="stop506"
     style="stop-color:#D77223"
     offset="0" /><stop
     id="stop508"
     style="stop-color:#EDDE38"
     offset="1" /></linearGradient><linearGradient
   y2="346.9584"
   x2="332.3829"
   y1="293.51541"
   x1="261.49661"
   gradientUnits="userSpaceOnUse"
   id="SVGID_23_"><stop
     id="stop531"
     style="stop-color:#A20278"
     offset="7.626490e-03" /><stop
     id="stop533"
     style="stop-color:#C66BB3"
     offset="1" /></linearGradient><linearGradient
   y2="400.60159"
   x2="345.8544"
   y1="412.569"
   x1="299.4353"
   gradientUnits="userSpaceOnUse"
   id="SVGID_24_"><stop
     id="stop540"
     style="stop-color:#F0C68C"
     offset="0" /><stop
     id="stop542"
     style="stop-color:#DC9270"
     offset="1" /></linearGradient><linearGradient
   gradientTransform="matrix(1,-0.0034,0.0034,1,-1.2387,13.0993)"
   y2="301.5777"
   x2="465.6781"
   y1="475.88351"
   x1="279.64001"
   gradientUnits="userSpaceOnUse"
   id="SVGID_25_"><stop
     id="stop557"
     style="stop-color:#5CA1A5"
     offset="0" /><stop
     id="stop559"
     style="stop-color:#B8DCE8"
     offset="1" /></linearGradient><path
   inkscape:connector-curvature="0"
   d="m 516.75,227.16 c -6.41,-50.28 -47.77,-34.64 -47.77,-34.64 3.53,-10.41 8.89,-18.8 9.16,-30.39 0.28,-11.67 -3.17,-23.5 -10.19,-32.89 -12.22,-16.33 -34.56,-24.36 -54.38,-19.53 -14.43,3.51 -25.04,3.92 -36.45,-7.04 -2.12,-2.04 -3.98,-4.34 -5.49,-6.88 -1.19,-2 -1.84,-4.65 -3.4,-6.38 -3.36,5.06 -5.3,9.5 -9.84,13.71 -4.77,4.42 -10.63,7.5 -16.56,10.05 -16.06,6.9 -33.28,10.99 -49.76,16.78 -41.36,14.53 -25.05,62.57 -25.05,62.57 0,0 -41.36,-15.64 -47.77,34.64 -6.41,50.28 18.06,194.98 18.06,194.98 20.38,11.98 47.45,14.04 70.71,15.61 12.01,0.81 24.05,1.13 36.09,1.11 26.09,-0.04 52.45,0.65 78.31,-0.77 24.94,-1.37 54.4,-3.09 76.27,-15.95 0,-0.01 24.47,-144.7 18.06,-194.98 z"
   id="SVGID_1_" /></defs><sodipodi:namedview
   pagecolor="#ffffff"
   bordercolor="#666666"
   borderopacity="1"
   objecttolerance="10"
   gridtolerance="10"
   guidetolerance="10"
   inkscape:pageopacity="0"
   inkscape:pageshadow="2"
   inkscape:window-width="1920"
   inkscape:window-height="1025"
   id="namedview579"
   showgrid="false"
   inkscape:zoom="8.0084865"
   inkscape:cx="32.384742"
   inkscape:cy="35.689555"
   inkscape:window-x="0"
   inkscape:window-y="0"
   inkscape:window-maximized="1"
   inkscape:current-layer="svg577" />
<style
   type="text/css"
   id="style2">
	.st0{display:none;}
	.st1{display:inline;}
	.st2{fill:#577AF8;}
	.st3{opacity:0.9;fill:#FFFFFF;enable-background:new    ;}
	.st4{fill:#F0F0F0;}
	.st5{fill:#EBEBEB;}
	.st6{fill:#F5F5F5;}
	.st7{fill:#FAFAFA;}
	.st8{opacity:0.5;}
	.st9{fill:#5D238A;}
	.st10{opacity:0.4;fill:#FFFFFF;}
	.st11{opacity:0.6;fill:#FFFFFF;}
	.st12{opacity:0.2;}
	.st13{opacity:0.2;fill:#FFFFFF;}
	.st14{fill:#4F1774;}
	.st15{fill:#EDDE38;}
	.st16{fill:#E6C232;}
	.st17{fill:#CBD9E3;}
	.st18{fill:#BBCBD7;}
	.st19{clip-path:url(#SVGID_2_);}
	.st20{fill:#3C0059;}
	.st21{fill:url(#SVGID_3_);}
	.st22{fill:#A5BECE;}
	.st23{fill:url(#SVGID_4_);}
	.st24{fill:#BA6B51;}
	.st25{fill:url(#SVGID_5_);}
	.st26{fill:url(#SVGID_6_);}
	.st27{fill:#A2C8D0;}
	.st28{fill:url(#SVGID_7_);}
	.st29{fill:url(#SVGID_8_);}
	.st30{fill:url(#SVGID_9_);}
	.st31{fill:url(#SVGID_10_);}
	.st32{fill:url(#SVGID_11_);}
	.st33{fill:url(#SVGID_12_);}
	.st34{fill:url(#SVGID_13_);}
	.st35{fill:url(#SVGID_14_);}
	.st36{fill:url(#SVGID_15_);}
	.st37{fill:url(#SVGID_16_);}
	.st38{fill:url(#SVGID_17_);}
	.st39{fill:url(#SVGID_18_);}
	.st40{fill:url(#SVGID_19_);}
	.st41{fill:url(#SVGID_20_);}
	.st42{fill:url(#SVGID_21_);}
	.st43{fill:url(#SVGID_22_);}
	.st44{fill:url(#SVGID_23_);}
	.st45{fill:url(#SVGID_24_);}
	.st46{fill:url(#SVGID_25_);}
	.st47{opacity:0.29;fill:#F4FAFF;}
</style>
<g
   id="Background_Complete"
   transform="translate(0,-405.388)">
</g>
<g
   id="Background_Simple"
   class="st0"
   style="display:none"
   transform="translate(0,-405.388)">
	<g
   class="st1"
   id="g9"
   style="display:inline">
		<path
   class="st2"
   d="m 263.5,85.94 c 53.1,-21.32 90.38,30.07 100.44,66.06 10.06,35.99 34.92,46.08 57.81,33.25 22.88,-12.83 61.86,-66.21 111.05,-22.23 C 582,207 513.73,316.45 408.53,328.24 349.68,334.84 265,312.07 235.32,224.58 217.64,172.45 221.01,103 263.5,85.94 Z"
   id="path5"
   inkscape:connector-curvature="0"
   style="fill:#577af8" />
		<path
   class="st3"
   d="m 263.5,85.94 c 53.1,-21.32 90.38,30.07 100.44,66.06 10.06,35.99 34.92,46.08 57.81,33.25 22.88,-12.83 61.86,-66.21 111.05,-22.23 C 582,207 513.73,316.45 408.53,328.24 349.68,334.84 265,312.07 235.32,224.58 217.64,172.45 221.01,103 263.5,85.94 Z"
   id="path7"
   inkscape:connector-curvature="0"
   style="opacity:0.9;fill:#ffffff;enable-background:new" />
	</g>
</g>
<g
   id="Shadow_1_"
   transform="translate(0,-405.388)">
</g>

<g
   id="Character_2"
   transform="translate(0,-405.388)">
</g>
<g
   id="Character_1"
   transform="translate(0,-405.388)">
</g>
<g
   transform="matrix(0.26870595,0,0,0.26870595,-50.764566,-23.347938)"
   id="g572"><path
     style="fill:#4f1774"
     inkscape:connector-curvature="0"
     id="path267"
     d="M 518.41,224.64 C 511.93,174.36 470.1,190 470.1,190 c 0,0 16.49,-48.05 -25.33,-62.57 -16.91,-5.87 -34.64,-9.97 -51.08,-17.1 -5.93,-2.57 -11.77,-5.7 -16.48,-10.18 -2.15,-2.04 -4.03,-4.34 -5.55,-6.88 -1.2,-2 -1.86,-4.65 -3.44,-6.38 -3.4,5.06 -5.36,9.5 -9.95,13.71 -4.82,4.42 -10.75,7.5 -16.75,10.05 -16.24,6.9 -33.66,10.99 -50.32,16.78 -41.8,14.53 -25.31,62.57 -25.31,62.57 0,0 -41.83,-15.64 -48.31,34.64 -6.48,50.28 18.26,194.98 18.26,194.98 20.61,11.98 47.98,14.04 71.5,15.61 12.14,0.81 24.32,1.13 36.49,1.11 26.38,-0.04 53.04,0.65 79.18,-0.77 25.21,-1.37 55.01,-3.09 77.13,-15.95 0.01,0 24.75,-144.7 18.27,-194.98 z"
     class="st14" /><g
     id="g273"><path
       style="fill:#edde38"
       inkscape:connector-curvature="0"
       id="path269"
       d="m 520.89,300.34 c 3.17,-21.11 10.77,-40.23 15.96,-51.49 -2.78,-0.71 -5.9,-0.15 -8.44,1.27 -3.25,1.81 -5.69,4.78 -7.73,7.88 -5.3,8.06 -8.75,17.82 -16.62,23.4 -4.97,3.52 -11.12,4.9 -16.61,7.55 -14.03,6.77 -23.12,22.62 -21.87,38.15 0.83,10.33 5.76,20.61 3.26,30.67 -2.49,10.02 -11.58,16.74 -17.93,24.88 -10.6,13.6 -13.62,32.76 -7.7,48.96 0,0 24.69,0.33 47.51,-4.66 1.73,-15.67 15.7,-40.5 20.13,-52.31 5.01,-13.4 5.01,-40.78 10.04,-74.3 z"
       class="st15" /><path
       style="fill:#e6c232"
       inkscape:connector-curvature="0"
       id="path271"
       d="m 533.54,371.42 c -1.68,-6.05 -4.73,-12.25 -3.05,-18.29 1.83,-6.55 8.46,-10.29 14.16,-14 5.5,-3.58 10.76,-7.89 13.87,-13.67 3.11,-5.78 3.68,-13.27 0.04,-18.73 -2.91,-4.35 -7.97,-6.83 -11.17,-10.97 -6.79,-8.81 -3.13,-21.31 -2.88,-32.43 0.12,-5.13 -1.03,-11.01 -5.46,-13.6 -0.69,-0.41 -1.44,-0.68 -2.2,-0.88 -5.19,11.26 -12.79,30.37 -15.96,51.49 -5.03,33.52 -5.03,60.9 -10.06,74.3 -4.43,11.82 -18.4,36.64 -20.13,52.31 11.28,-2.47 17.33,-4.82 29.62,-11.53 14.12,-7.68 17.52,-28.52 13.22,-44 z"
       class="st16" /></g><g
     id="g279"><path
       style="fill:#cbd9e3"
       inkscape:connector-curvature="0"
       id="path275"
       d="m 274.74,362.48 c -1.55,-2.25 -3.34,-4.35 -4.51,-6.82 -3.78,-7.99 0.69,-19.26 -0.51,-28.09 -0.97,-7.14 -3.84,-14.26 -9.23,-19.05 -10.34,-9.18 -26.5,-7.8 -31.32,-23.18 -1.15,-3.67 -1.31,-7.58 -2.1,-11.35 -0.79,-3.77 -2.38,-7.63 -5.56,-9.8 -3.02,-2.07 -7.07,-2.2 -10.52,-0.9 1.09,11.92 3.79,31.36 10.45,49.91 10.61,29.61 22.91,74.86 22.91,76.54 0,1.24 1.02,24.24 1.55,36.16 12.86,2.2 25.88,3.15 25.88,3.15 5.25,-10.42 9.48,-21.53 10.62,-33.14 1.14,-11.63 -1.03,-23.83 -7.66,-33.43 z"
       class="st17" /><path
       style="fill:#bbcbd7"
       inkscape:connector-curvature="0"
       id="path277"
       d="m 221.44,313.19 c -6.65,-18.56 -9.35,-37.99 -10.45,-49.91 -0.43,0.16 -0.86,0.35 -1.27,0.55 -3.68,1.86 -6.43,5.23 -8.28,8.92 -1.68,3.35 -2.72,7.04 -2.87,10.78 -0.53,13.73 5.44,23.2 -4.27,35.15 -6.6,8.12 -6.9,17.68 -2.13,27.05 4.13,8.11 10.78,14.62 15.91,22.15 2.17,3.19 4.1,6.66 4.7,10.46 1.04,6.6 -2.33,12.69 -0.46,19.25 1.69,5.93 5.05,12.63 9.56,16.85 6.33,5.93 15.35,10.39 23.93,11.32 0.11,-11.97 -1.45,-24.03 -1.45,-36.03 -0.01,-1.67 -12.3,-46.93 -22.92,-76.54 z"
       class="st18" /></g><g
     id="g570"><defs
       id="defs282"><path
         inkscape:connector-curvature="0"
         d="m 516.75,227.16 c -6.41,-50.28 -47.77,-34.64 -47.77,-34.64 3.53,-10.41 8.89,-18.8 9.16,-30.39 0.28,-11.67 -3.17,-23.5 -10.19,-32.89 -12.22,-16.33 -34.56,-24.36 -54.38,-19.53 -14.43,3.51 -25.04,3.92 -36.45,-7.04 -2.12,-2.04 -3.98,-4.34 -5.49,-6.88 -1.19,-2 -1.84,-4.65 -3.4,-6.38 -3.36,5.06 -5.3,9.5 -9.84,13.71 -4.77,4.42 -10.63,7.5 -16.56,10.05 -16.06,6.9 -33.28,10.99 -49.76,16.78 -41.36,14.53 -25.05,62.57 -25.05,62.57 0,0 -41.36,-15.64 -47.77,34.64 -6.41,50.28 18.06,194.98 18.06,194.98 20.38,11.98 47.45,14.04 70.71,15.61 12.01,0.81 24.05,1.13 36.09,1.11 26.09,-0.04 52.45,0.65 78.31,-0.77 24.94,-1.37 54.4,-3.09 76.27,-15.95 0,-0.01 24.47,-144.7 18.06,-194.98 z"
         id="path1516" /></defs><clipPath
       id="clipPath968"><use
         height="100%"
         width="100%"
         y="0"
         x="0"
         id="use966"
         style="overflow:visible"
         xlink:href="#SVGID_1_" /></clipPath><g
       id="g568"
       clip-path="url(#SVGID_2_)"
       class="st19"><g
         id="g298"><path
           style="fill:#3c0059"
           inkscape:connector-curvature="0"
           id="path287"
           d="m 252.35,270.36 c 0,0 0.74,40.78 2.98,56.99 2.23,16.2 -19.55,107.82 -19.55,107.82 l 57.54,8.38 -2.79,-75.98 -15.08,-93.86 v -12.85 z"
           class="st20" /><linearGradient
           y2="379.30249"
           x2="275.86041"
           y1="379.30249"
           x1="252.3468"
           gradientUnits="userSpaceOnUse"
           id="linearGradient975"><stop
             id="stop971"
             style="stop-color:#5CA1A5"
             offset="0" /><stop
             id="stop973"
             style="stop-color:#B8DCE8"
             offset="1" /></linearGradient><path
           inkscape:connector-curvature="0"
           style="fill:url(#SVGID_3_)"
           id="path294"
           d="m 253.84,317.66 c 0,0 2.61,17.88 4.84,24.95 2.23,7.08 6.33,55.5 6.33,55.5 0,0 -2.23,38.36 -2.61,39.85 -0.37,1.49 11.55,2.98 11.55,2.98 0,0 2.23,-43.58 1.86,-54.01 -0.36,-10.42 -19.36,-56.98 -21.97,-69.27 z"
           class="st21" /><path
           style="fill:#4f1774"
           inkscape:connector-curvature="0"
           id="path296"
           d="m 246.61,436.75 c 0.9,-5.07 2.45,-13.08 4.63,-22.25 3.72,-15.64 4.84,-35.01 4.1,-59.59 -0.15,-4.87 -0.47,-8.88 -0.9,-12.2 -4.09,31.19 -18.66,92.47 -18.66,92.47 z"
           class="st14" /></g><g
         id="g306"><path
           style="fill:#a5bece"
           inkscape:connector-curvature="0"
           id="path300"
           d="m 337.92,136.37 c 0,0 27.46,0.84 36.79,24.3 6.26,15.75 2.07,43.02 -2.59,59.78 -4.19,15.07 -16.04,51.96 -23.3,54.75 -6.22,-10.61 -14.53,-34.08 -14.53,-34.08 l 21.76,-33.52 6.74,-35.76 -3.11,-18.44 z"
           class="st22" /><path
           style="fill:#3c0059"
           inkscape:connector-curvature="0"
           id="path302"
           d="m 363.34,195.31 c 0,0 16.2,40.78 -7.82,82.68 -20.11,-20.67 -29.61,-34.64 -29.61,-34.64 l 1.12,-20.67 29.61,-35.76 z"
           class="st20" /><polygon
           style="fill:#3c0059"
           id="polygon304"
           points="290.16,247.55 302.45,173.24 322.56,196.43 303.29,255.37 "
           class="st20" /></g><g
         id="g317"><linearGradient
           y2="219.776"
           x2="449.19171"
           y1="219.776"
           x1="401.8934"
           gradientUnits="userSpaceOnUse"
           id="linearGradient988"><stop
             id="stop984"
             style="stop-color:#F0C68C"
             offset="0" /><stop
             id="stop986"
             style="stop-color:#DC9270"
             offset="1" /></linearGradient><path
           inkscape:connector-curvature="0"
           style="fill:url(#SVGID_4_)"
           id="path313"
           d="m 419.77,185.26 -17.88,71.51 c 0,0 21.34,5.3 46.93,-10.06 2.79,-1.68 -11.17,-64.81 -11.17,-64.81 z"
           class="st23" /><path
           style="fill:#ba6b51"
           inkscape:connector-curvature="0"
           id="path315"
           d="m 437.65,181.9 -17.88,3.35 -8.07,32.3 c 0.99,-0.06 1.99,-0.32 2.94,-0.62 6.8,-2.16 12.79,-6.44 17.75,-11.56 3.01,-3.11 5.67,-6.52 8.14,-10.08 -1.65,-7.84 -2.88,-13.39 -2.88,-13.39 z"
           class="st24" /></g><g
         id="g349"><g
           id="g323"><path
             style="fill:#a5bece"
             inkscape:connector-curvature="0"
             id="path319"
             d="m 403.36,140.93 c 0,0 -17.19,16.52 -10.16,36.91 5.35,15.51 17.65,6.95 17.65,6.95 l 6.95,-40.65 z"
             class="st22" /><path
             style="fill:#a5bece"
             inkscape:connector-curvature="0"
             id="path321"
             d="m 392.29,160.05 c 0.65,-0.79 0.46,-2 -0.06,-2.88 -0.53,-0.88 -1.33,-1.56 -1.94,-2.38 -1.94,-2.6 -1.68,-6.39 0,-9.17 1.67,-2.78 4.51,-4.67 7.47,-5.99 3.16,-1.4 6.56,-2.25 10.01,-2.49 0.48,-0.03 1.01,-0.04 1.39,0.26 0.65,0.51 0.47,1.52 0.22,2.31 -2.55,8.19 -5.1,16.38 -7.65,24.58 z"
             class="st22" /></g><g
           id="g343"><g
             id="g339"><linearGradient
               gradientTransform="matrix(0.9922,-0.1634,0.17,1.0322,7.6187,612.1043)"
               y2="-357.32599"
               x2="496.616"
               y1="-337.63031"
               x1="445.7356"
               gradientUnits="userSpaceOnUse"
               id="linearGradient1000"><stop
                 id="stop996"
                 style="stop-color:#F0C68C"
                 offset="0" /><stop
                 id="stop998"
                 style="stop-color:#DC9270"
                 offset="1" /></linearGradient><path
               inkscape:connector-curvature="0"
               style="fill:url(#SVGID_5_)"
               id="path330"
               d="m 409.16,152.67 c -3.58,2 -8.43,5.24 -11.5,7.4 -2.55,12.38 -7.23,38.17 5.18,45.25 7.56,4.32 34.43,-8.52 42.69,-32.85 0,0.01 -21.06,-13.09 -36.37,-19.8 z"
               class="st25" /><linearGradient
               y2="180.9808"
               x2="444.978"
               y1="198.11349"
               x1="415.55429"
               gradientUnits="userSpaceOnUse"
               id="linearGradient1007"><stop
                 id="stop1003"
                 style="stop-color:#F0C68C"
                 offset="0" /><stop
                 id="stop1005"
                 style="stop-color:#DC9270"
                 offset="1" /></linearGradient><path
               inkscape:connector-curvature="0"
               style="fill:url(#SVGID_6_)"
               id="path337"
               d="m 435.68,186.21 c 0,0 6.36,4.77 13.01,-0.31 6.65,-5.09 0.74,-13.21 -5.89,-10.85 z"
               class="st26" /></g><path
             style="fill:#3c0059"
             inkscape:connector-curvature="0"
             id="path341"
             d="m 425.92,160.86 c 0,0 8.19,12.66 9.31,16.02 1.12,3.35 -2.23,10.8 -2.23,10.8 l 12.54,-15.2 z"
             class="st20" /></g><path
           style="fill:#cbd9e3"
           inkscape:connector-curvature="0"
           id="path345"
           d="m 449.92,119.87 c 18.9,8.01 26.49,26.37 16.97,39.52 -27.65,-21.01 -69.12,-30.96 -69.12,-30.96 0,0 9.4,-15.48 38.15,-12.16 5.17,0.59 9.86,1.84 14,3.6"
           class="st17" /><path
           style="fill:#bbcbd7"
           inkscape:connector-curvature="0"
           id="path347"
           d="m 400.42,147.09 c 0,0 37.98,22.47 44.93,30.49 6.95,8.02 6.95,8.02 6.95,8.02 0,0 11.23,-11.77 17.65,-22.47 6.42,-10.7 -10.7,-25.68 -20.33,-29.96 -11.59,-5.15 -51.7,-18.24 -58.33,-1.01 -2.82,7.35 2.61,12.46 9.13,14.93 z"
           class="st18" /></g><g
         id="g391"><g
           id="g360"><path
             style="fill:#a2c8d0"
             inkscape:connector-curvature="0"
             id="path351"
             d="m 393.51,250.06 c 0,0 -10.06,1.12 -40.78,41.9 -26.82,42.46 -31.29,53.63 -31.29,53.63 l 44.14,7.26 z"
             class="st27" /><linearGradient
             y2="250.94431"
             x2="476.74689"
             y1="472.73941"
             x1="379.53699"
             gradientUnits="userSpaceOnUse"
             id="linearGradient1021"><stop
               id="stop1017"
               style="stop-color:#5CA1A5"
               offset="0" /><stop
               id="stop1019"
               style="stop-color:#B8DCE8"
               offset="1" /></linearGradient><path
             inkscape:connector-curvature="0"
             style="fill:url(#SVGID_7_)"
             id="path358"
             d="m 357.2,326.04 c 0,0 14.53,-54.19 29.05,-70.39 14.53,-16.2 40.22,-17.88 52.52,-20.11 12.29,-2.23 50.84,0 55.87,40.22 5.03,40.22 -8.94,163.13 -8.94,163.13 l -139.67,11.73 z"
             class="st28" /></g><g
           id="g371"><path
             style="fill:#edde38"
             inkscape:connector-curvature="0"
             id="path362"
             d="m 413.63,208.72 c 0,0 -17.88,9.5 -24.58,19 -6.7,9.5 -3.91,12.85 -3.91,12.85 0,0 -4.47,6.15 -10.06,13.97 -5.59,7.82 -11.17,48.6 -11.73,50.28 -0.56,1.68 -3.91,87.71 -3.91,87.71 l -1.68,21.79 21.23,1.12 c 0,0 7.82,-104.47 15.08,-139.11 7.26,-34.64 15.64,-50.28 15.64,-50.28 z"
             class="st15" /><linearGradient
             y2="181.8219"
             x2="429.56201"
             y1="415.9968"
             x1="351.06769"
             gradientUnits="userSpaceOnUse"
             id="linearGradient1030"><stop
               id="stop1026"
               style="stop-color:#D77223"
               offset="0" /><stop
               id="stop1028"
               style="stop-color:#EDDE38"
               offset="1" /></linearGradient><path
             inkscape:connector-curvature="0"
             style="fill:url(#SVGID_8_)"
             id="path369"
             d="m 407.81,230.12 c -20.88,14.2 -36.08,45.36 -41.61,58.01 -1.56,8.8 -2.62,15.99 -2.85,16.68 -0.56,1.68 -3.91,87.71 -3.91,87.71 l -0.45,5.84 1.57,7.57 18.44,9.5 c 0,0 7.82,-104.47 15.08,-139.11 5.14,-24.54 10.84,-39.54 13.73,-46.2 z"
             class="st29" /></g><linearGradient
           y2="245.14079"
           x2="404.76401"
           y1="207.1508"
           x1="477.95059"
           gradientUnits="userSpaceOnUse"
           id="linearGradient1038"><stop
             id="stop1034"
             style="stop-color:#5CA1A5"
             offset="0" /><stop
             id="stop1036"
             style="stop-color:#B8DCE8"
             offset="1" /></linearGradient><path
           inkscape:connector-curvature="0"
           style="fill:url(#SVGID_9_)"
           id="path378"
           d="m 397.98,227.71 c 0,0 40.78,-11.73 56.43,-10.61 1.12,17.88 1.68,22.35 1.68,22.35 0,0 -34.64,5.03 -55.31,8.38 z"
           class="st30" /><g
           id="g389"><path
             style="fill:#edde38"
             inkscape:connector-curvature="0"
             id="path380"
             d="m 477.56,245.29 c 2.37,-2.33 3.87,-4.71 3.87,-7.04 0,-3.75 -2.07,-7.24 -4.69,-9.92 -2.96,-3.04 -6.7,-5.32 -10.76,-6.56 -1.01,-0.31 -2.11,-0.6 -2.8,-1.39 -0.73,-0.84 -0.84,-2.03 -1.08,-3.12 -1.02,-4.53 -4.83,-7.89 -8.77,-10.35 -3.94,-2.46 -8.28,-4.43 -11.53,-7.75 -13.21,33.03 -39.11,60.22 -49.4,94.5 -1.68,5.59 -16.76,56.43 -17.32,66.48 -0.56,10.06 -2.23,56.43 -2.23,56.43 l 43.58,18.44 c 0,0 1.68,-77.66 2.23,-96.09 0.56,-18.44 31.29,-76.54 31.29,-76.54 5.54,-3.54 20.5,-10.09 27.61,-17.09 z"
             class="st15" /><linearGradient
             y2="172.83279"
             x2="470.3685"
             y1="441.22"
             x1="380.4064"
             gradientUnits="userSpaceOnUse"
             id="linearGradient1046"><stop
               id="stop1042"
               style="stop-color:#DB8A27"
               offset="0" /><stop
               id="stop1044"
               style="stop-color:#EDDE38"
               offset="1" /></linearGradient><path
             inkscape:connector-curvature="0"
             style="fill:url(#SVGID_10_)"
             id="path387"
             d="m 437.65,253.97 c -2.79,-5.59 10.06,-25.7 10.06,-25.7 0,0 -7.82,3.35 -30.17,35.2 -16.17,23.04 -32.92,65.96 -40.95,87.94 -0.86,3.86 -1.41,6.93 -1.51,8.71 -0.56,10.06 -2.23,56.43 -2.23,56.43 l 43.58,18.44 c 0,0 6.7,-82.13 7.26,-100.56 0.56,-18.44 26.26,-72.07 26.26,-72.07 5.55,-3.51 20.51,-10.06 27.62,-17.07 2.37,-2.33 3.87,-4.71 3.87,-7.04 0,-3.75 -2.07,-7.24 -4.69,-9.92 -27.41,0.04 -36.31,31.23 -39.1,25.64 z"
             class="st31" /></g></g><path
         style="fill:#edde38"
         inkscape:connector-curvature="0"
         id="path393"
         d="m 351.39,231.58 c -0.36,0 -0.71,0.03 -1.06,0.08 0.51,-0.99 0.81,-2.15 0.81,-3.39 0,-3.23 -1.98,-5.91 -4.56,-6.39 1.08,-1.18 1.77,-2.89 1.77,-4.78 0,-3.58 -2.42,-6.48 -5.4,-6.48 -2.98,0 -5.4,2.9 -5.4,6.48 0,3.23 1.98,5.91 4.56,6.39 -1.08,1.18 -1.77,2.89 -1.77,4.78 0,3.32 2.08,6.05 4.77,6.43 -1.61,1.93 -2.6,4.59 -2.6,7.54 0,5.89 3.98,10.66 8.88,10.66 4.9,0 8.88,-4.77 8.88,-10.66 0,-5.88 -3.97,-10.66 -8.88,-10.66 z"
         class="st15" /><g
         id="g404"><linearGradient
           y2="215.8208"
           x2="316.40811"
           y1="282.3035"
           x1="339.8725"
           gradientUnits="userSpaceOnUse"
           id="linearGradient1056"><stop
             id="stop1052"
             style="stop-color:#F0C68C"
             offset="0" /><stop
             id="stop1054"
             style="stop-color:#DC9270"
             offset="1" /></linearGradient><path
           inkscape:connector-curvature="0"
           style="fill:url(#SVGID_11_)"
           id="path400"
           d="m 341,206.48 3.35,75.98 c 0,0 -30.73,-11.17 -44.14,-33.52 19.55,-50.84 25.14,-69.28 25.14,-69.28 z"
           class="st32" /><path
           style="fill:#ba6b51"
           inkscape:connector-curvature="0"
           id="path402"
           d="m 341,206.48 -15.64,-26.82 c 0,0 -1.55,5.1 -5.85,17.31 0.11,0.9 0.23,1.8 0.38,2.69 1.35,7.91 4.63,15.62 10.16,21.43 2.67,2.8 5.9,5.17 9.6,6.28 0.74,0.22 1.51,0.37 2.28,0.48 z"
           class="st24" /></g><g
         id="g420"><linearGradient
           y2="312.31461"
           x2="377.13699"
           y1="312.31461"
           x1="261.90939"
           gradientUnits="userSpaceOnUse"
           id="linearGradient1065"><stop
             id="stop1061"
             style="stop-color:#A20278"
             offset="7.626490e-03" /><stop
             id="stop1063"
             style="stop-color:#C66BB3"
             offset="1" /></linearGradient><path
           inkscape:connector-curvature="0"
           style="fill:url(#SVGID_12_)"
           id="path411"
           d="m 328.15,383.03 c 19.72,0.92 38.68,1.08 48.86,-4.77 0.19,-23.36 0.22,-44.83 -0.25,-48.87 -1.12,-9.5 -6.15,-40.78 -12.29,-53.63 C 361.72,270 350.31,260.97 346,256 c -8.36,9.8 -26.07,4.75 -35.1,-1.43 -4.5,-3.07 -7.22,-4.73 -9.74,-9.54 l -12.66,-3.91 c 0,0 -20.86,16.57 -23.09,29.98 -2.23,13.41 -4.28,42.09 -3.17,43.76 1.12,1.68 19.55,55.87 22.35,62.57 0.62,1.5 0.91,3.38 0.97,5.86 8.1,-0.42 25.19,-1.07 42.59,-0.26 z"
           class="st33" /><linearGradient
           y2="397.76239"
           x2="344.22821"
           y1="449.9057"
           x1="301.76871"
           gradientUnits="userSpaceOnUse"
           id="linearGradient1072"><stop
             id="stop1068"
             style="stop-color:#F0C68C"
             offset="0" /><stop
             id="stop1070"
             style="stop-color:#DC9270"
             offset="1" /></linearGradient><path
           inkscape:connector-curvature="0"
           style="fill:url(#SVGID_13_)"
           id="path418"
           d="m 282.34,438.89 c 34.64,22.35 93.86,6.15 93.86,6.15 0,0 0.55,-35.13 0.81,-66.78 -10.18,5.84 -29.14,5.68 -48.86,4.77 -17.4,-0.81 -34.49,-0.15 -42.6,0.27 0.21,8.61 -2.35,24.34 -3.21,55.59 z"
           class="st34" /></g><g
         id="g436"><linearGradient
           y2="265.0777"
           x2="358.90479"
           y1="265.0777"
           x1="301.61081"
           gradientUnits="userSpaceOnUse"
           id="linearGradient1080"><stop
             id="stop1076"
             style="stop-color:#D77223"
             offset="0" /><stop
             id="stop1078"
             style="stop-color:#EDDE38"
             offset="1" /></linearGradient><path
           inkscape:connector-curvature="0"
           style="fill:url(#SVGID_14_)"
           id="path427"
           d="m 301.61,245.03 c 0,0 17.88,15.64 27.38,16.2 9.5,0.56 17.01,-5.24 17.01,-5.24 0,0 7.85,7.19 11.76,11.94 3.91,4.75 -2.23,15.08 -17.6,17.04 -15.36,1.96 -28.77,-16.76 -33.24,-22.07 -4.47,-5.3 -5.31,-17.87 -5.31,-17.87 z"
           class="st35" /><linearGradient
           y2="284.56009"
           x2="364.74139"
           y1="284.56009"
           x1="346.58441"
           gradientUnits="userSpaceOnUse"
           id="linearGradient1087"><stop
             id="stop1083"
             style="stop-color:#D77223"
             offset="0" /><stop
             id="stop1085"
             style="stop-color:#EDDE38"
             offset="1" /></linearGradient><ellipse
           style="fill:url(#SVGID_15_)"
           id="ellipse434"
           ry="9.9200001"
           rx="9.0799999"
           cy="284.56"
           cx="355.66"
           class="st36" /></g><g
         id="g468"><linearGradient
           y2="164.3073"
           x2="333.36929"
           y1="211.459"
           x1="371.7486"
           gradientUnits="userSpaceOnUse"
           id="linearGradient1095"><stop
             id="stop1091"
             style="stop-color:#F0C68C"
             offset="0" /><stop
             id="stop1093"
             style="stop-color:#DC9270"
             offset="1" /></linearGradient><path
           inkscape:connector-curvature="0"
           style="fill:url(#SVGID_16_)"
           id="path443"
           d="m 369.49,177.43 c 0,0 -0.14,25.4 -8.94,35.76 -8.01,9.42 -26.05,-7.62 -32.38,-12.45 -2.76,-2.11 -7.33,-6.23 -7.4,-10.07 -0.06,-3.01 2.8,-7.81 3.77,-10.73 2.45,-7.35 4.76,-14.74 7.29,-22.06 l 33.13,1.04 c 0.01,0 5.05,7.64 4.53,18.51 z"
           class="st37" /><g
           id="g449"><path
             style="fill:#3c0059"
             inkscape:connector-curvature="0"
             id="path445"
             d="m 346.58,141.12 c 0,0 7.82,6.7 10.61,19 l 11.17,9.22 c 0,0 3.74,-3.56 0,-12.57 -4.74,-11.46 -21.78,-15.65 -21.78,-15.65 z"
             class="st20" /><path
             style="fill:#3c0059"
             inkscape:connector-curvature="0"
             id="path447"
             d="m 358.32,161.23 c 0,0 -15.56,3.33 -15.64,3.35 -2.3,0.49 -3.76,6.28 -4.54,8 -1.75,3.87 -3.57,7.7 -5.47,11.5 0.57,-4 1.14,-8.01 1.71,-12.01 -4.01,2.13 -7.71,5.37 -9.04,9.72 -0.62,2.04 -0.69,4.2 -1.18,6.28 -0.48,2.07 -1.51,4.19 -3.41,5.17 -3.33,1.72 -6.13,-1.92 -8.05,-4.1 -3.67,-4.16 -6.57,-9.35 -6.34,-15.05 0.56,-13.97 6.7,-19.55 12.85,-25.7 6.15,-6.15 21.23,-11.73 28.49,-6.15 7.26,5.58 10.62,18.99 10.62,18.99 z"
             class="st20" /></g><g
           id="g460"><linearGradient
             gradientTransform="matrix(0.9774,0.2112,-0.2112,0.9774,111.3272,-772.6847)"
             y2="885.49078"
             x2="417.46429"
             y1="885.49078"
             x1="405.3689"
             gradientUnits="userSpaceOnUse"
             id="linearGradient1105"><stop
               id="stop1101"
               style="stop-color:#F0C68C"
               offset="0" /><stop
               id="stop1103"
               style="stop-color:#DC9270"
               offset="1" /></linearGradient><path
             inkscape:connector-curvature="0"
             style="fill:url(#SVGID_17_)"
             id="path456"
             d="m 324.77,189.81 c 0,0 -5.8,-1.77 -4.06,-12.2 1.74,-10.44 12.07,-8.2 13.51,-5.32 z"
             class="st38" /><path
             style="fill:#edde38"
             inkscape:connector-curvature="0"
             id="path458"
             d="m 325.91,193.64 c 0,-5.86 -3.13,-10.61 -6.98,-10.61 -3.85,0 -6.98,4.75 -6.98,10.61 0,2.07 0.4,4 1.07,5.63 -2.8,0.36 -4.98,3.21 -4.98,6.66 0,1.67 0.51,3.19 1.35,4.36 -2.09,0.97 -3.58,3.4 -3.58,6.25 0,1.88 0.65,3.58 1.69,4.8 -2.61,1.86 -4.37,5.26 -4.37,9.17 0,5.89 3.98,10.66 8.88,10.66 4.9,0 8.88,-4.77 8.88,-10.66 0,-4.31 -2.13,-8.01 -5.2,-9.69 0.8,-1.16 1.29,-2.65 1.29,-4.28 0,-1.67 -0.51,-3.19 -1.35,-4.36 2.09,-0.97 3.58,-3.4 3.58,-6.25 0,-0.58 -0.07,-1.14 -0.18,-1.68 3.81,-0.08 6.88,-4.8 6.88,-10.61 z"
             class="st15" /></g><g
           id="g466"><path
             style="fill:#edde38"
             inkscape:connector-curvature="0"
             id="path462"
             d="m 356.71,160.22 c -2.98,-14.37 -10.3,-18.62 -10.37,-18.66 l 0.48,-0.87 c 0.32,0.18 7.78,4.47 10.86,19.33 z"
             class="st15" /><path
             style="fill:#edde38"
             inkscape:connector-curvature="0"
             id="path464"
             d="m 360.55,166.54 c 0,3.78 -1.5,6.84 -3.35,6.84 -1.85,0 -3.35,-3.06 -3.35,-6.84 0,-3.78 1.5,-6.84 3.35,-6.84 1.85,0 3.35,3.06 3.35,6.84 z"
             class="st15" /></g></g><path
         style="fill:#bbcbd7"
         inkscape:connector-curvature="0"
         id="path470"
         d="m 346.58,141.12 c 0,0 -25.14,2.23 -39.11,32.96 -5.59,29.05 -7.26,74.86 -7.26,74.86 l -31.29,5.59 c 0,0 0,-53.07 16.76,-86.6 16.77,-33.51 43.59,-41.34 60.9,-26.81 z"
         class="st18" /><g
         id="g483"><path
           style="fill:#3c0059"
           inkscape:connector-curvature="0"
           id="path472"
           d="m 288.48,241.12 c 0,0 16.76,3.35 25.7,11.73 5.23,4.9 10.6,9.69 16.07,14.33 11.11,9.43 15.14,25.07 20.5,38.06 4.23,10.26 8.61,20.49 12.6,30.85 2.79,7.26 5.59,111.18 5.59,111.18 0,0 -17.32,4.47 -42.46,3.35 2.79,-96.65 -1.12,-124.03 -3.35,-136.88 -2.23,-12.85 -10.06,-35.76 -15.64,-40.78 -5.59,-5.03 -12.85,-8.94 -21.79,-8.94 -8.94,0 -22.91,2.79 -27.93,4.47 -5.03,1.68 -5.03,1.68 -5.03,1.68 0,0 20.66,-23.46 35.74,-29.05 z"
           class="st20" /><linearGradient
           y2="351.72699"
           x2="345.83939"
           y1="351.72699"
           x1="246.3949"
           gradientUnits="userSpaceOnUse"
           id="linearGradient1120"><stop
             id="stop1116"
             style="stop-color:#5CA1A5"
             offset="0" /><stop
             id="stop1118"
             style="stop-color:#B8DCE8"
             offset="1" /></linearGradient><path
           inkscape:connector-curvature="0"
           style="fill:url(#SVGID_18_)"
           id="path479"
           d="m 344.35,409.66 c -0.74,-18.25 1.49,-46.56 1.49,-46.56 0,0 -3.35,-33.52 -12.29,-60.34 -8.94,-26.82 -14.9,-37.99 -33.52,-46.93 -10.99,-5.27 -23.79,-3.03 -32.75,-0.22 -8.22,7.37 -14.56,14.56 -14.56,14.56 0,0 0,0 5.03,-1.68 5.03,-1.68 19,-4.47 27.93,-4.47 8.94,0 16.2,3.91 21.79,8.94 5.59,5.03 13.41,27.93 15.64,40.78 2.23,12.85 6.15,40.22 3.35,136.88 6.99,0.31 13.37,0.19 18.94,-0.15 -0.12,-7.7 -0.47,-26.62 -1.05,-40.81 z"
           class="st39" /><path
           style="fill:#4f1774"
           inkscape:connector-curvature="0"
           id="path481"
           d="m 288.48,241.12 c -5.46,2.02 -11.64,6.39 -17.32,11.13 11.22,-1.11 29.25,-0.51 41.53,11.78 19,18.99 28.44,35.88 38.06,41.22 -5.35,-12.99 -9.39,-28.63 -20.5,-38.06 -5.47,-4.64 -10.84,-9.43 -16.07,-14.33 -8.94,-8.39 -25.7,-11.74 -25.7,-11.74 z"
           class="st14" /></g><g
         id="g538"><g
           id="g529"><linearGradient
             y2="372.80249"
             x2="314.64319"
             y1="326.99081"
             x1="407.38361"
             gradientUnits="userSpaceOnUse"
             id="linearGradient1129"><stop
               id="stop1125"
               style="stop-color:#F0C68C"
               offset="0" /><stop
               id="stop1127"
               style="stop-color:#DC9270"
               offset="1" /></linearGradient><path
             inkscape:connector-curvature="0"
             style="fill:url(#SVGID_19_)"
             id="path490"
             d="m 329.82,345.97 4.47,10.8 55.12,-42.46 c 0,0 0.37,-13.04 0,-14.53 3.35,2.23 2.98,5.59 2.98,5.59 0,0 8.19,-14.15 12.66,-18.99 4.47,-4.84 8.94,2.23 8.94,2.23 l -6.33,14.15 7.82,-8.57 c 0,0 -0.37,6.7 -8.19,13.78 0,0 2.23,13.04 -4.1,17.13 -6.33,4.1 -6.33,4.1 -6.33,4.1 0,0 -17.51,36.87 -28.31,50.65 -10.8,13.78 -25.7,24.95 -36.87,21.97 -8.28,-3.29 -25.73,-11.11 -36.5,-33.89 z"
             class="st40" /><g
             id="g513"><linearGradient
               y2="334.9808"
               x2="397.42401"
               y1="334.9808"
               x1="365.8587"
               gradientUnits="userSpaceOnUse"
               id="linearGradient1136"><stop
                 id="stop1132"
                 style="stop-color:#A20278"
                 offset="7.626490e-03" /><stop
                 id="stop1134"
                 style="stop-color:#C66BB3"
                 offset="1" /></linearGradient><path
               inkscape:connector-curvature="0"
               style="fill:url(#SVGID_20_)"
               id="path497"
               d="m 383.46,317.66 13.97,13.13 c 0,0 -7.64,14.8 -10.99,21.51 l -20.58,-21.51 z"
               class="st41" /><linearGradient
               y2="344.33871"
               x2="386.43671"
               y1="344.33871"
               x1="360.92371"
               gradientUnits="userSpaceOnUse"
               id="linearGradient1143"><stop
                 id="stop1139"
                 style="stop-color:#D77223"
                 offset="0" /><stop
                 id="stop1141"
                 style="stop-color:#EDDE38"
                 offset="1" /></linearGradient><polygon
               style="fill:url(#SVGID_21_)"
               id="polygon504"
               points="360.92,334.98 365.86,330.79 386.44,352.3 383.46,357.89 "
               class="st42" /><linearGradient
               y2="323.72061"
               x2="399.65881"
               y1="323.72061"
               x1="382.71219"
               gradientUnits="userSpaceOnUse"
               id="linearGradient1150"><stop
                 id="stop1146"
                 style="stop-color:#D77223"
                 offset="0" /><stop
                 id="stop1148"
                 style="stop-color:#EDDE38"
                 offset="1" /></linearGradient><polygon
               style="fill:url(#SVGID_22_)"
               id="polygon511"
               points="382.71,317.88 386.26,314.87 399.66,328.56 397.52,332.57 "
               class="st43" /></g><g
             id="g527"><path
               style="fill:#3c0059"
               inkscape:connector-curvature="0"
               id="path515"
               d="m 406.76,288.15 c 0.65,-0.98 1.41,-1.91 2,-2.91 0.3,-0.51 -0.44,-1.13 -0.84,-0.65 -0.73,0.87 -1.31,1.9 -1.91,2.87 -0.62,1 -1.21,2.02 -1.78,3.05 -0.57,1.03 -1.13,2.07 -1.6,3.16 -0.47,1.09 -0.87,2.21 -1.34,3.3 -0.04,0.1 0.1,0.19 0.15,0.09 0.51,-1.05 1.15,-2.06 1.76,-3.05 0.59,-0.98 1.15,-1.97 1.74,-2.95 0.58,-0.99 1.19,-1.96 1.82,-2.91 z"
               class="st20" /><path
               style="fill:#3c0059"
               inkscape:connector-curvature="0"
               id="path517"
               d="m 409.52,289.09 c 0.51,-0.95 1.1,-1.91 1.46,-2.92 0.2,-0.55 -0.65,-1.08 -1.02,-0.6 -0.66,0.85 -1.14,1.87 -1.61,2.83 -0.51,1.03 -1.02,2.06 -1.48,3.11 -0.43,0.99 -0.83,1.99 -1.23,3 -0.2,0.51 -0.41,1.02 -0.6,1.54 -0.19,0.54 -0.27,0.97 -0.32,1.52 0,0.05 0.06,0.07 0.09,0.04 0.36,-0.42 0.63,-0.78 0.89,-1.28 0.24,-0.46 0.47,-0.92 0.71,-1.38 0.51,-0.98 1.04,-1.95 1.56,-2.93 0.52,-0.96 1.02,-1.95 1.55,-2.93 z"
               class="st20" /><path
               style="fill:#3c0059"
               inkscape:connector-curvature="0"
               id="path519"
               d="m 409.42,297.66 c 0.46,-1 0.88,-2.01 1.34,-3.01 0.45,-0.97 0.87,-1.94 1.31,-2.91 0.22,-0.48 0.44,-0.97 0.67,-1.45 0.23,-0.48 0.57,-0.99 0.65,-1.52 0.09,-0.55 -0.58,-1.12 -1.04,-0.6 -0.39,0.44 -0.57,1.02 -0.81,1.55 -0.22,0.49 -0.43,0.98 -0.64,1.47 -0.43,0.99 -0.85,1.99 -1.22,3.01 -0.38,1.03 -0.77,2.07 -1.09,3.12 -0.15,0.51 -0.28,1.02 -0.42,1.54 -0.15,0.59 -0.19,1.21 -0.39,1.78 -0.03,0.08 0.11,0.12 0.13,0.04 0.19,-0.56 0.55,-1.05 0.81,-1.59 0.24,-0.48 0.48,-0.95 0.7,-1.43 z"
               class="st20" /><path
               style="fill:#3c0059"
               inkscape:connector-curvature="0"
               id="path521"
               d="m 415.71,295.86 c -0.17,-0.27 -0.48,-0.33 -0.75,-0.2 -0.5,0.24 -0.59,0.88 -0.75,1.37 -0.17,0.49 -0.35,0.98 -0.55,1.46 -0.43,1.02 -0.95,1.99 -1.5,2.94 -1.1,1.89 -2.46,3.65 -3.91,5.27 -0.14,0.16 0.04,0.44 0.23,0.3 1.9,-1.3 3.45,-2.95 4.74,-4.86 0.63,-0.94 1.17,-1.94 1.63,-2.97 0.24,-0.53 0.46,-1.07 0.66,-1.62 0.2,-0.52 0.54,-1.16 0.2,-1.69 z"
               class="st20" /><path
               style="fill:#3c0059"
               inkscape:connector-curvature="0"
               id="path523"
               d="m 394.22,301.68 c -0.18,-0.07 -0.35,0 -0.46,0.15 -0.24,0.31 -0.47,0.62 -0.67,0.96 -0.19,0.31 -0.34,0.64 -0.49,0.97 -0.16,0.33 -0.33,0.66 -0.45,1.01 -0.12,0.37 -0.26,0.73 -0.41,1.1 -0.08,0.18 0.15,0.32 0.27,0.16 0.23,-0.32 0.46,-0.62 0.72,-0.92 0.25,-0.29 0.44,-0.62 0.65,-0.93 0.21,-0.32 0.42,-0.62 0.59,-0.96 0.18,-0.35 0.33,-0.72 0.47,-1.09 0.06,-0.18 -0.07,-0.39 -0.22,-0.45 z"
               class="st20" /><path
               style="fill:#3c0059"
               inkscape:connector-curvature="0"
               id="path525"
               d="m 334.79,355.46 c -0.01,-0.12 -0.01,-0.25 -0.03,-0.37 -0.12,-0.96 -1.38,-0.97 -1.5,0 -0.01,0.08 -0.01,0.17 -0.02,0.25 -0.29,0.29 -0.52,0.7 -0.73,1.01 -1.05,1.58 -2.07,3.19 -3.03,4.82 -0.95,1.59 -1.85,3.21 -2.68,4.87 -0.41,0.81 -0.8,1.62 -1.15,2.45 -0.18,0.43 -0.37,0.87 -0.53,1.31 -0.18,0.49 -0.21,1 -0.37,1.5 -0.04,0.13 0.15,0.2 0.21,0.09 0.39,-0.65 0.9,-1.21 1.29,-1.88 0.38,-0.66 0.77,-1.31 1.14,-1.97 0.69,-1.25 1.41,-2.48 2.14,-3.7 0.73,-1.22 1.49,-2.43 2.27,-3.62 0.42,-0.63 0.84,-1.27 1.28,-1.89 0.06,-0.08 0.12,-0.17 0.18,-0.25 0,0.05 0,0.1 0.01,0.14 0.03,1.01 0.07,2.01 0.14,3.01 0.14,2.04 0.43,4.1 0.45,6.15 0,0.2 0.31,0.2 0.31,0 0.02,-2.05 0.31,-4.1 0.45,-6.15 0.07,-1 0.11,-2.01 0.14,-3.01 0.02,-0.58 0.06,-1.18 0.06,-1.78 0.16,-0.32 0.14,-0.69 -0.03,-0.98 z"
               class="st20" /></g></g><linearGradient
           y2="346.9584"
           x2="332.3829"
           y1="293.51541"
           x1="261.49661"
           gradientUnits="userSpaceOnUse"
           id="linearGradient1166"><stop
             id="stop1162"
             style="stop-color:#A20278"
             offset="7.626490e-03" /><stop
             id="stop1164"
             style="stop-color:#C66BB3"
             offset="1" /></linearGradient><path
           inkscape:connector-curvature="0"
           style="fill:url(#SVGID_23_)"
           id="path536"
           d="m 267.25,265.89 c 0,0 -13.41,9.31 -11.73,33.33 1.68,24.02 28.49,61.45 41.34,75.42 18.99,-12.29 37.99,-22.91 37.99,-22.91 0,0 -8.94,-34.64 -18.44,-61.45 -9.49,-26.81 -35,-33.33 -49.16,-24.39 z"
           class="st44" /></g><g
         id="g566"><linearGradient
           y2="400.60159"
           x2="345.8544"
           y1="412.569"
           x1="299.4353"
           gradientUnits="userSpaceOnUse"
           id="linearGradient1174"><stop
             id="stop1170"
             style="stop-color:#F0C68C"
             offset="0" /><stop
             id="stop1172"
             style="stop-color:#DC9270"
             offset="1" /></linearGradient><path
           inkscape:connector-curvature="0"
           style="fill:url(#SVGID_24_)"
           id="path545"
           d="m 328.15,399.79 -11.17,2.23 c 0,0 -18.44,-6.7 -18.99,-3.35 -0.56,3.35 7.26,6.7 7.26,6.7 0,0 -12.85,9.5 -17.88,10.61 -9.53,2.12 4.21,9.98 8.38,11.17 7.82,2.23 20.67,-9.5 20.67,-9.5 l 11.73,-1.68 z"
           class="st45" /><g
           id="g553"><path
             style="fill:#3c0059"
             inkscape:connector-curvature="0"
             id="path547"
             d="m 297.85,414.86 c -3.7,1.87 -7.55,3.42 -11.51,4.63 -0.97,0.3 -0.56,1.83 0.42,1.53 4.09,-1.26 8.07,-2.86 11.89,-4.79 0.91,-0.46 0.11,-1.83 -0.8,-1.37 z"
             class="st20" /><path
             style="fill:#3c0059"
             inkscape:connector-curvature="0"
             id="path549"
             d="m 300.41,417.79 c -3.41,2.12 -7.03,3.87 -10.82,5.19 -0.96,0.34 -0.55,1.87 0.42,1.53 3.92,-1.37 7.68,-3.16 11.2,-5.35 0.87,-0.54 0.07,-1.91 -0.8,-1.37 z"
             class="st20" /><path
             style="fill:#3c0059"
             inkscape:connector-curvature="0"
             id="path551"
             d="m 303.51,420.89 c -3.1,1.99 -6.41,3.62 -9.88,4.84 -0.96,0.34 -0.55,1.87 0.42,1.53 3.6,-1.26 7.05,-2.94 10.26,-5 0.86,-0.55 0.07,-1.93 -0.8,-1.37 z"
             class="st20" /></g><path
           style="fill:#3c0059"
           inkscape:connector-curvature="0"
           id="path555"
           d="m 324.16,416.19 c -1.25,-0.21 -2.7,0.1 -3.96,0.2 -1.17,0.09 -2.34,0.15 -3.51,0.28 -1.15,0.14 -1.75,0.73 -2.51,1.54 -0.84,0.9 -1.69,1.79 -2.59,2.63 -3.67,3.46 -8.4,6.4 -13.6,6.45 -0.03,0 -0.03,0.04 0,0.05 2.47,0.42 4.52,0.29 6.89,-0.53 2.19,-0.76 4.14,-1.84 6,-3.21 0.93,-0.69 1.82,-1.42 2.68,-2.19 0.85,-0.76 1.74,-1.95 2.75,-2.47 1.04,-0.53 2.68,-0.38 3.83,-0.48 1.34,-0.11 2.9,-0.03 4.17,-0.46 1,-0.34 0.9,-1.63 -0.15,-1.81 z"
           class="st20" /><linearGradient
           gradientTransform="matrix(1,-0.0034,0.0034,1,-1.2387,13.0993)"
           y2="301.5777"
           x2="465.6781"
           y1="475.88351"
           x1="279.64001"
           gradientUnits="userSpaceOnUse"
           id="linearGradient1186"><stop
             id="stop1182"
             style="stop-color:#5CA1A5"
             offset="0" /><stop
             id="stop1184"
             style="stop-color:#B8DCE8"
             offset="1" /></linearGradient><path
           inkscape:connector-curvature="0"
           style="fill:url(#SVGID_25_)"
           id="path562"
           d="m 487.65,256.14 c -5.99,-9.14 -15.32,-14.01 -28.75,-6.39 -18.93,10.74 -28.18,48.23 -34.16,73.41 -5.98,25.18 -9.23,40.84 -9.23,40.84 l -92.51,35.24 1.24,19.55 c 0,0 60.37,4.64 98.3,-4.55 27.75,-6.72 45.01,-36.12 58.13,-59.04 8.1,-14.14 11.81,-33.22 14.04,-49.26 2.29,-16.51 2.42,-35.33 -7.06,-49.8 z"
           class="st46" /><path
           style="opacity:0.28999999;fill:#f4faff"
           inkscape:connector-curvature="0"
           id="path564"
           d="m 458.9,249.75 c -18.93,10.74 -28.18,48.23 -34.16,73.41 -5.98,25.18 -9.23,40.84 -9.23,40.84 l -92.51,35.24 0.58,9.05 c 16.82,-4.42 84.49,-22.41 100.12,-29.73 -2.79,-7.26 -2.79,-7.26 -2.79,-7.26 7.82,1.68 12.29,2.79 12.29,2.79 18.95,-33.28 49.15,-106.92 39.86,-128.01 -4.11,-0.41 -8.81,0.63 -14.16,3.67 z"
           class="st47" /></g></g></g></g></svg>