<?xml version="1.0" encoding="utf-8"?>
<!-- Generator: Adobe Illustrator 24.0.0, SVG Export Plug-In . SVG Version: 6.00 Build 0)  -->
<svg version="1.1"
	 id="svg30313" xmlns:cc="http://creativecommons.org/ns#" xmlns:dc="http://purl.org/dc/elements/1.1/" xmlns:rdf="http://www.w3.org/1999/02/22-rdf-syntax-ns#" xmlns:svg="http://www.w3.org/2000/svg"
	 xmlns="http://www.w3.org/2000/svg" xmlns:xlink="http://www.w3.org/1999/xlink" x="0px" y="0px" viewBox="0 0 522 628.1"
	 style="enable-background:new 0 0 522 628.1;" xml:space="preserve">
<style type="text/css">
	.st0{clip-path:url(#SVGID_2_);fill:url(#path812_1_);}
	.st1{clip-path:url(#SVGID_4_);fill:url(#path836_1_);}
	.st2{clip-path:url(#SVGID_6_);fill:url(#path860_1_);}
	.st3{clip-path:url(#SVGID_8_);fill:url(#path884_1_);}
	.st4{clip-path:url(#SVGID_10_);fill:url(#path908_1_);}
	.st5{clip-path:url(#SVGID_12_);fill:url(#path932_1_);}
	.st6{clip-path:url(#SVGID_14_);fill:url(#path956_1_);}
	.st7{clip-path:url(#SVGID_16_);fill:url(#path980_1_);}
	.st8{clip-path:url(#SVGID_18_);fill:url(#path1004_1_);}
	.st9{clip-path:url(#SVGID_20_);fill:url(#path1028_1_);}
	.st10{clip-path:url(#SVGID_22_);fill:url(#path1052_1_);}
	.st11{clip-path:url(#SVGID_24_);fill:url(#path1076_1_);}
	.st12{clip-path:url(#SVGID_26_);fill:url(#path1100_1_);}
	.st13{clip-path:url(#SVGID_28_);fill:url(#path1124_1_);}
	.st14{clip-path:url(#SVGID_30_);fill:url(#path214_1_);}
	.st15{clip-path:url(#SVGID_32_);fill:url(#path1532_1_);}
	.st16{clip-path:url(#SVGID_34_);fill:url(#path1556_1_);}
	.st17{clip-path:url(#SVGID_36_);fill:url(#path1580_1_);}
	.st18{clip-path:url(#SVGID_38_);fill:url(#path1604_1_);}
	.st19{clip-path:url(#SVGID_40_);fill:url(#path1628_1_);}
	.st20{clip-path:url(#SVGID_42_);fill:url(#path1652_1_);}
	.st21{clip-path:url(#SVGID_44_);fill:url(#path1676_1_);}
	.st22{clip-path:url(#SVGID_46_);fill:url(#path310_1_);}
	.st23{clip-path:url(#SVGID_48_);fill:url(#path334_1_);}
	.st24{clip-path:url(#SVGID_50_);fill:url(#path1148_1_);}
	.st25{clip-path:url(#SVGID_52_);fill:url(#path1172_1_);}
	.st26{clip-path:url(#SVGID_54_);fill:url(#path1196_1_);}
	.st27{clip-path:url(#SVGID_56_);fill:url(#path1220_1_);}
	.st28{clip-path:url(#SVGID_58_);fill:url(#path1244_1_);}
	.st29{clip-path:url(#SVGID_60_);fill:url(#path1268_1_);}
	.st30{clip-path:url(#SVGID_62_);fill:url(#path1292_1_);}
	.st31{clip-path:url(#SVGID_64_);fill:url(#path1316_1_);}
	.st32{clip-path:url(#SVGID_66_);fill:url(#path1340_1_);}
	.st33{clip-path:url(#SVGID_68_);fill:url(#path1364_1_);}
	.st34{clip-path:url(#SVGID_70_);fill:url(#path1388_1_);}
	.st35{clip-path:url(#SVGID_72_);fill:url(#path1412_1_);}
	.st36{clip-path:url(#SVGID_74_);fill:url(#path1436_1_);}
	.st37{clip-path:url(#SVGID_76_);fill:url(#path1460_1_);}
	.st38{clip-path:url(#SVGID_78_);fill:url(#path1484_1_);}
	.st39{clip-path:url(#SVGID_80_);fill:url(#path1508_1_);}
	.st40{clip-path:url(#SVGID_82_);fill:url(#path190_1_);}
	.st41{clip-path:url(#SVGID_84_);fill:url(#path238_1_);}
	.st42{clip-path:url(#SVGID_86_);fill:url(#path262_1_);}
	.st43{clip-path:url(#SVGID_88_);fill:url(#path286_1_);}
	.st44{clip-path:url(#SVGID_90_);fill:url(#path358_1_);}
</style>
<g>
	<g>
		<g>
			<defs>
				<path id="SVGID_1_" d="M42.7,251c-0.2,0-0.4,0-0.6,0.1l0,0c-3.4,0.6-5.2,4.6-3.6,7.9l0,0l5,10.5l4.1-10.8
					c1.3-3.4-0.8-7.3-4.3-7.5l0,0c-0.1,0-0.3,0-0.4,0l0,0C42.8,251,42.7,251,42.7,251"/>
			</defs>
			<clipPath id="SVGID_2_">
				<use xlink:href="#SVGID_1_"  style="overflow:visible;"/>
			</clipPath>
			
				<linearGradient id="path812_1_" gradientUnits="userSpaceOnUse" x1="185.8393" y1="388.8824" x2="186.8393" y2="388.8824" gradientTransform="matrix(44.7175 1519.7367 1519.7367 -44.7175 -599271.5 -264961.9688)">
				<stop  offset="0" style="stop-color:#E9AC45"/>
				<stop  offset="9.134790e-02" style="stop-color:#E9AC45"/>
				<stop  offset="0.48" style="stop-color:#BC8735"/>
				<stop  offset="1" style="stop-color:#784E3D"/>
			</linearGradient>
			<path id="path812" class="st0" d="M42.7,251c-0.2,0-0.4,0-0.6,0.1l0,0c-3.4,0.6-5.2,4.6-3.6,7.9l0,0l5,10.5l4.1-10.8
				c1.3-3.4-0.8-7.3-4.3-7.5l0,0c-0.1,0-0.3,0-0.4,0l0,0C42.8,251,42.7,251,42.7,251"/>
		</g>
		<g>
			<defs>
				<path id="SVGID_3_" d="M43.9,280.9c-0.2,0-0.4,0-0.6,0.1l0,0c-3.4,0.5-5.2,4.6-3.7,7.8l0,0l5,10.5l4.2-10.8
					c1.3-3.3-0.8-7.3-4.2-7.6l0,0c-0.1,0-0.3,0-0.4,0l0,0C44,280.9,44,280.9,43.9,280.9"/>
			</defs>
			<clipPath id="SVGID_4_">
				<use xlink:href="#SVGID_3_"  style="overflow:visible;"/>
			</clipPath>
			
				<linearGradient id="path836_1_" gradientUnits="userSpaceOnUse" x1="185.8393" y1="388.8823" x2="186.8393" y2="388.8823" gradientTransform="matrix(44.7153 1519.6625 1519.6625 -44.7153 -599241.875 -264949.0313)">
				<stop  offset="0" style="stop-color:#E9AC45"/>
				<stop  offset="9.134790e-02" style="stop-color:#E9AC45"/>
				<stop  offset="0.48" style="stop-color:#BC8735"/>
				<stop  offset="1" style="stop-color:#784E3D"/>
			</linearGradient>
			<path id="path836" class="st1" d="M43.9,280.9c-0.2,0-0.4,0-0.6,0.1l0,0c-3.4,0.5-5.2,4.6-3.7,7.8l0,0l5,10.5l4.2-10.8
				c1.3-3.3-0.8-7.3-4.2-7.6l0,0c-0.1,0-0.3,0-0.4,0l0,0C44,280.9,44,280.9,43.9,280.9"/>
		</g>
		<g>
			<defs>
				<path id="SVGID_5_" d="M44.9,310.8c-0.2,0-0.4,0-0.6,0.1l0,0c-3.4,0.5-5.2,4.6-3.7,7.8l0,0l4.9,10.5l4.3-10.8
					c1.3-3.3-0.7-7.3-4.2-7.6l0,0c-0.2,0-0.3,0-0.5,0l0,0C45,310.8,45,310.8,44.9,310.8"/>
			</defs>
			<clipPath id="SVGID_6_">
				<use xlink:href="#SVGID_5_"  style="overflow:visible;"/>
			</clipPath>
			
				<linearGradient id="path860_1_" gradientUnits="userSpaceOnUse" x1="185.8393" y1="388.8823" x2="186.8393" y2="388.8823" gradientTransform="matrix(44.7167 1519.7085 1519.7085 -44.7167 -599259.9375 -264957.0625)">
				<stop  offset="0" style="stop-color:#E9AC45"/>
				<stop  offset="9.134790e-02" style="stop-color:#E9AC45"/>
				<stop  offset="0.48" style="stop-color:#BC8735"/>
				<stop  offset="1" style="stop-color:#784E3D"/>
			</linearGradient>
			<path id="path860" class="st2" d="M44.9,310.8c-0.2,0-0.4,0-0.6,0.1l0,0c-3.4,0.5-5.2,4.6-3.7,7.8l0,0l4.9,10.5l4.3-10.8
				c1.3-3.3-0.7-7.3-4.2-7.6l0,0c-0.2,0-0.3,0-0.5,0l0,0C45,310.8,45,310.8,44.9,310.8"/>
		</g>
		<g>
			<defs>
				<path id="SVGID_7_" d="M45.8,340.7c-0.2,0-0.4,0-0.6,0.1l0,0c-3.4,0.5-5.2,4.5-3.8,7.8l0,0l4.8,10.5l4.3-10.8
					c1.3-3.3-0.7-7.3-4.1-7.6l0,0c-0.2,0-0.4,0-0.5,0l0,0C45.8,340.7,45.8,340.7,45.8,340.7"/>
			</defs>
			<clipPath id="SVGID_8_">
				<use xlink:href="#SVGID_7_"  style="overflow:visible;"/>
			</clipPath>
			
				<linearGradient id="path884_1_" gradientUnits="userSpaceOnUse" x1="185.8393" y1="388.8824" x2="186.8393" y2="388.8824" gradientTransform="matrix(44.7194 1519.8013 1519.8013 -44.7194 -599296.625 -264973.2813)">
				<stop  offset="0" style="stop-color:#E9AC45"/>
				<stop  offset="9.134790e-02" style="stop-color:#E9AC45"/>
				<stop  offset="0.48" style="stop-color:#BC8735"/>
				<stop  offset="1" style="stop-color:#784E3D"/>
			</linearGradient>
			<path id="path884" class="st3" d="M45.8,340.7c-0.2,0-0.4,0-0.6,0.1l0,0c-3.4,0.5-5.2,4.5-3.8,7.8l0,0l4.8,10.5l4.3-10.8
				c1.3-3.3-0.7-7.3-4.1-7.6l0,0c-0.2,0-0.4,0-0.5,0l0,0C45.8,340.7,45.8,340.7,45.8,340.7"/>
		</g>
		<g>
			<defs>
				<path id="SVGID_9_" d="M46.4,370.5c-0.2,0-0.4,0-0.6,0.1l0,0c-3.4,0.5-5.3,4.5-3.8,7.8l0,0l4.7,10.6l4.4-10.7
					c1.4-3.3-0.6-7.3-4.1-7.6l0,0C46.9,370.6,46.7,370.5,46.4,370.5L46.4,370.5C46.4,370.5,46.4,370.5,46.4,370.5"/>
			</defs>
			<clipPath id="SVGID_10_">
				<use xlink:href="#SVGID_9_"  style="overflow:visible;"/>
			</clipPath>
			
				<linearGradient id="path908_1_" gradientUnits="userSpaceOnUse" x1="185.8393" y1="388.8824" x2="186.8393" y2="388.8824" gradientTransform="matrix(44.7207 1519.8455 1519.8455 -44.7207 -599314.3125 -264981)">
				<stop  offset="0" style="stop-color:#E9AC45"/>
				<stop  offset="9.134790e-02" style="stop-color:#E9AC45"/>
				<stop  offset="0.48" style="stop-color:#BC8735"/>
				<stop  offset="1" style="stop-color:#784E3D"/>
			</linearGradient>
			<path id="path908" class="st4" d="M46.4,370.5c-0.2,0-0.4,0-0.6,0.1l0,0c-3.4,0.5-5.3,4.5-3.8,7.8l0,0l4.7,10.6l4.4-10.7
				c1.4-3.3-0.6-7.3-4.1-7.6l0,0C46.9,370.6,46.7,370.5,46.4,370.5L46.4,370.5C46.4,370.5,46.4,370.5,46.4,370.5"/>
		</g>
		<g>
			<defs>
				<path id="SVGID_11_" d="M46.9,400.4c-0.2,0-0.4,0-0.6,0l0,0c-3.4,0.5-5.3,4.5-3.8,7.7l0,0l4.7,10.6l4.5-10.7
					c1.4-3.3-0.6-7.3-4-7.7l0,0C47.3,400.5,47.1,400.4,46.9,400.4L46.9,400.4C46.9,400.4,46.9,400.4,46.9,400.4"/>
			</defs>
			<clipPath id="SVGID_12_">
				<use xlink:href="#SVGID_11_"  style="overflow:visible;"/>
			</clipPath>
			
				<linearGradient id="path932_1_" gradientUnits="userSpaceOnUse" x1="185.8393" y1="388.8823" x2="186.8393" y2="388.8823" gradientTransform="matrix(44.7166 1519.7054 1519.7054 -44.7166 -599259.5 -264956.5)">
				<stop  offset="0" style="stop-color:#E9AC45"/>
				<stop  offset="9.134790e-02" style="stop-color:#E9AC45"/>
				<stop  offset="0.48" style="stop-color:#BC8735"/>
				<stop  offset="1" style="stop-color:#784E3D"/>
			</linearGradient>
			<path id="path932" class="st5" d="M46.9,400.4c-0.2,0-0.4,0-0.6,0l0,0c-3.4,0.5-5.3,4.5-3.8,7.7l0,0l4.7,10.6l4.5-10.7
				c1.4-3.3-0.6-7.3-4-7.7l0,0C47.3,400.5,47.1,400.4,46.9,400.4L46.9,400.4C46.9,400.4,46.9,400.4,46.9,400.4"/>
		</g>
		<g>
			<defs>
				<path id="SVGID_13_" d="M47.1,430.3c-0.2,0-0.4,0-0.6,0l0,0c-3.4,0.4-5.3,4.4-3.9,7.7l0,0l4.6,10.6l4.6-10.7
					c1.4-3.3-0.5-7.3-4-7.7l0,0C47.6,430.4,47.4,430.3,47.1,430.3L47.1,430.3C47.1,430.3,47.1,430.3,47.1,430.3"/>
			</defs>
			<clipPath id="SVGID_14_">
				<use xlink:href="#SVGID_13_"  style="overflow:visible;"/>
			</clipPath>
			
				<linearGradient id="path956_1_" gradientUnits="userSpaceOnUse" x1="185.8393" y1="388.8824" x2="186.8393" y2="388.8824" gradientTransform="matrix(44.7184 1519.7672 1519.7672 -44.7184 -599284.5625 -264967.2813)">
				<stop  offset="0" style="stop-color:#E9AC45"/>
				<stop  offset="9.134790e-02" style="stop-color:#E9AC45"/>
				<stop  offset="0.48" style="stop-color:#BC8735"/>
				<stop  offset="1" style="stop-color:#784E3D"/>
			</linearGradient>
			<path id="path956" class="st6" d="M47.1,430.3c-0.2,0-0.4,0-0.6,0l0,0c-3.4,0.4-5.3,4.4-3.9,7.7l0,0l4.6,10.6l4.6-10.7
				c1.4-3.3-0.5-7.3-4-7.7l0,0C47.6,430.4,47.4,430.3,47.1,430.3L47.1,430.3C47.1,430.3,47.1,430.3,47.1,430.3"/>
		</g>
		<g>
			<defs>
				<path id="SVGID_15_" d="M46.6,460.3c-3.4,0.4-5.3,4.4-4,7.7l0,0l4.5,10.7l4.6-10.6c1.4-3.3-0.5-7.3-3.9-7.7l0,0
					c-0.2,0-0.4,0-0.6,0l0,0C47,460.2,46.8,460.3,46.6,460.3"/>
			</defs>
			<clipPath id="SVGID_16_">
				<use xlink:href="#SVGID_15_"  style="overflow:visible;"/>
			</clipPath>
			
				<linearGradient id="path980_1_" gradientUnits="userSpaceOnUse" x1="185.8393" y1="388.8824" x2="186.8393" y2="388.8824" gradientTransform="matrix(44.7181 1519.7567 1519.7567 -44.7181 -599281.25 -264965.4375)">
				<stop  offset="0" style="stop-color:#E9AC45"/>
				<stop  offset="9.134790e-02" style="stop-color:#E9AC45"/>
				<stop  offset="0.48" style="stop-color:#BC8735"/>
				<stop  offset="1" style="stop-color:#784E3D"/>
			</linearGradient>
			<path id="path980" class="st7" d="M46.6,460.3c-3.4,0.4-5.3,4.4-4,7.7l0,0l4.5,10.7l4.6-10.6c1.4-3.3-0.5-7.3-3.9-7.7l0,0
				c-0.2,0-0.4,0-0.6,0l0,0C47,460.2,46.8,460.3,46.6,460.3"/>
		</g>
		<g>
			<defs>
				<path id="SVGID_17_" d="M46.4,490.2c-3.4,0.4-5.4,4.4-4,7.7l0,0l4.5,10.7l4.7-10.6c1.5-3.3-0.4-7.3-3.9-7.7l0,0
					c-0.2,0-0.4,0-0.6,0l0,0h0c0,0,0,0,0,0l0,0C46.8,490.1,46.6,490.2,46.4,490.2"/>
			</defs>
			<clipPath id="SVGID_18_">
				<use xlink:href="#SVGID_17_"  style="overflow:visible;"/>
			</clipPath>
			
				<linearGradient id="path1004_1_" gradientUnits="userSpaceOnUse" x1="185.8393" y1="388.8823" x2="186.8393" y2="388.8823" gradientTransform="matrix(44.7171 1519.7239 1519.7239 -44.7171 -599269.3125 -264959.6563)">
				<stop  offset="0" style="stop-color:#E9AC45"/>
				<stop  offset="9.134790e-02" style="stop-color:#E9AC45"/>
				<stop  offset="0.48" style="stop-color:#BC8735"/>
				<stop  offset="1" style="stop-color:#784E3D"/>
			</linearGradient>
			<path id="path1004" class="st8" d="M46.4,490.2c-3.4,0.4-5.4,4.4-4,7.7l0,0l4.5,10.7l4.7-10.6c1.5-3.3-0.4-7.3-3.9-7.7l0,0
				c-0.2,0-0.4,0-0.6,0l0,0h0c0,0,0,0,0,0l0,0C46.8,490.1,46.6,490.2,46.4,490.2"/>
		</g>
		<g>
			<defs>
				<path id="SVGID_19_" d="M46.1,520.1c-3.5,0.4-5.4,4.3-4.1,7.6l0,0l4.4,10.7l4.8-10.6c1.5-3.3-0.4-7.3-3.8-7.8l0,0
					c-0.2,0-0.4,0-0.6,0l0,0c0,0-0.1,0-0.1,0l0,0C46.5,520,46.3,520.1,46.1,520.1"/>
			</defs>
			<clipPath id="SVGID_20_">
				<use xlink:href="#SVGID_19_"  style="overflow:visible;"/>
			</clipPath>
			
				<linearGradient id="path1028_1_" gradientUnits="userSpaceOnUse" x1="185.8393" y1="388.8824" x2="186.8393" y2="388.8824" gradientTransform="matrix(44.7176 1519.7399 1519.7399 -44.7176 -599276.875 -264962.4063)">
				<stop  offset="0" style="stop-color:#E9AC45"/>
				<stop  offset="9.134790e-02" style="stop-color:#E9AC45"/>
				<stop  offset="0.48" style="stop-color:#BC8735"/>
				<stop  offset="1" style="stop-color:#784E3D"/>
			</linearGradient>
			<path id="path1028" class="st9" d="M46.1,520.1c-3.5,0.4-5.4,4.3-4.1,7.6l0,0l4.4,10.7l4.8-10.6c1.5-3.3-0.4-7.3-3.8-7.8l0,0
				c-0.2,0-0.4,0-0.6,0l0,0c0,0-0.1,0-0.1,0l0,0C46.5,520,46.3,520.1,46.1,520.1"/>
		</g>
		<g>
			<defs>
				<path id="SVGID_21_" d="M45.6,550c-3.5,0.3-5.5,4.3-4.1,7.6l0,0l4.3,10.8l4.8-10.6c1.5-3.3-0.3-7.3-3.8-7.8l0,0
					c-0.2,0-0.4,0-0.6-0.1l0,0c0,0-0.1,0-0.1,0l0,0C46,549.9,45.8,550,45.6,550"/>
			</defs>
			<clipPath id="SVGID_22_">
				<use xlink:href="#SVGID_21_"  style="overflow:visible;"/>
			</clipPath>
			
				<linearGradient id="path1052_1_" gradientUnits="userSpaceOnUse" x1="185.8393" y1="388.8824" x2="186.8393" y2="388.8824" gradientTransform="matrix(44.7183 1519.7618 1519.7618 -44.7183 -599286.9375 -264966.2188)">
				<stop  offset="0" style="stop-color:#E9AC45"/>
				<stop  offset="9.134790e-02" style="stop-color:#E9AC45"/>
				<stop  offset="0.48" style="stop-color:#BC8735"/>
				<stop  offset="1" style="stop-color:#784E3D"/>
			</linearGradient>
			<path id="path1052" class="st10" d="M45.6,550c-3.5,0.3-5.5,4.3-4.1,7.6l0,0l4.3,10.8l4.8-10.6c1.5-3.3-0.3-7.3-3.8-7.8l0,0
				c-0.2,0-0.4,0-0.6-0.1l0,0c0,0-0.1,0-0.1,0l0,0C46,549.9,45.8,550,45.6,550"/>
		</g>
		<g>
			<defs>
				<path id="SVGID_23_" d="M44.9,579.9c-3.5,0.3-5.5,4.3-4.2,7.6l0,0l4.3,10.8l4.9-10.5c1.5-3.3-0.3-7.3-3.7-7.8l0,0
					c-0.2,0-0.4-0.1-0.6-0.1l0,0c-0.1,0-0.1,0-0.2,0l0,0C45.2,579.8,45.1,579.8,44.9,579.9"/>
			</defs>
			<clipPath id="SVGID_24_">
				<use xlink:href="#SVGID_23_"  style="overflow:visible;"/>
			</clipPath>
			
				<linearGradient id="path1076_1_" gradientUnits="userSpaceOnUse" x1="185.8393" y1="388.8824" x2="186.8393" y2="388.8824" gradientTransform="matrix(44.7183 1519.7616 1519.7616 -44.7183 -599288.5 -264966.125)">
				<stop  offset="0" style="stop-color:#E9AC45"/>
				<stop  offset="9.134790e-02" style="stop-color:#E9AC45"/>
				<stop  offset="0.48" style="stop-color:#BC8735"/>
				<stop  offset="1" style="stop-color:#784E3D"/>
			</linearGradient>
			<path id="path1076" class="st11" d="M44.9,579.9c-3.5,0.3-5.5,4.3-4.2,7.6l0,0l4.3,10.8l4.9-10.5c1.5-3.3-0.3-7.3-3.7-7.8l0,0
				c-0.2,0-0.4-0.1-0.6-0.1l0,0c-0.1,0-0.1,0-0.2,0l0,0C45.2,579.8,45.1,579.8,44.9,579.9"/>
		</g>
		<g>
			<defs>
				<path id="SVGID_25_" d="M44,609.7c-3.5,0.3-5.5,4.2-4.2,7.6l0,0l4.2,10.8l4.9-10.5c1.5-3.2-0.3-7.3-3.7-7.8l0,0
					c-0.2,0-0.4-0.1-0.6-0.1l0,0c-0.1,0-0.1,0-0.2,0l0,0C44.3,609.7,44.2,609.7,44,609.7"/>
			</defs>
			<clipPath id="SVGID_26_">
				<use xlink:href="#SVGID_25_"  style="overflow:visible;"/>
			</clipPath>
			
				<linearGradient id="path1100_1_" gradientUnits="userSpaceOnUse" x1="185.8393" y1="388.8823" x2="186.8393" y2="388.8823" gradientTransform="matrix(44.7159 1519.6818 1519.6818 -44.7159 -599258.8125 -264952.0938)">
				<stop  offset="0" style="stop-color:#E9AC45"/>
				<stop  offset="9.134790e-02" style="stop-color:#E9AC45"/>
				<stop  offset="0.48" style="stop-color:#BC8735"/>
				<stop  offset="1" style="stop-color:#784E3D"/>
			</linearGradient>
			<path id="path1100" class="st12" d="M44,609.7c-3.5,0.3-5.5,4.2-4.2,7.6l0,0l4.2,10.8l4.9-10.5c1.5-3.2-0.3-7.3-3.7-7.8l0,0
				c-0.2,0-0.4-0.1-0.6-0.1l0,0c-0.1,0-0.1,0-0.2,0l0,0C44.3,609.7,44.2,609.7,44,609.7"/>
		</g>
		<g>
			<defs>
				<path id="SVGID_27_" d="M44.8,627.5c13,0.1,13.2-20.1,0.2-20.2l0,0c0,0-0.1,0-0.1,0l0,0C31.9,607.3,31.8,627.4,44.8,627.5"/>
			</defs>
			<clipPath id="SVGID_28_">
				<use xlink:href="#SVGID_27_"  style="overflow:visible;"/>
			</clipPath>
			
				<linearGradient id="path1124_1_" gradientUnits="userSpaceOnUse" x1="185.8393" y1="388.8824" x2="186.8393" y2="388.8824" gradientTransform="matrix(44.7176 1519.7378 1519.7378 -44.7176 -599280.5625 -264961.9063)">
				<stop  offset="0" style="stop-color:#E9AC45"/>
				<stop  offset="9.134790e-02" style="stop-color:#E9AC45"/>
				<stop  offset="0.48" style="stop-color:#BC8735"/>
				<stop  offset="1" style="stop-color:#784E3D"/>
			</linearGradient>
			<path id="path1124" class="st13" d="M44.8,627.5c13,0.1,13.2-20.1,0.2-20.2l0,0c0,0-0.1,0-0.1,0l0,0
				C31.9,607.3,31.8,627.4,44.8,627.5"/>
		</g>
	</g>
	<g>
		<g>
			<defs>
				<path id="SVGID_29_" d="M277.8,171.5l1.8,7.7c1.2-0.5,2.3-1.1,3.5-1.6l0,0l-2.8-12C279.6,167.7,278.8,169.6,277.8,171.5"/>
			</defs>
			<clipPath id="SVGID_30_">
				<use xlink:href="#SVGID_29_"  style="overflow:visible;"/>
			</clipPath>
			
				<linearGradient id="path214_1_" gradientUnits="userSpaceOnUse" x1="185.4966" y1="389.6469" x2="186.4966" y2="389.6469" gradientTransform="matrix(369.4579 0 0 -369.4579 -68463.1016 144130.5781)">
				<stop  offset="0" style="stop-color:#FFC322"/>
				<stop  offset="9.134790e-02" style="stop-color:#FFC322"/>
				<stop  offset="0.48" style="stop-color:#EAAE20"/>
				<stop  offset="1" style="stop-color:#C77A3E"/>
			</linearGradient>
			<path id="path214" class="st14" d="M277.8,171.5l1.8,7.7c1.2-0.5,2.3-1.1,3.5-1.6l0,0l-2.8-12
				C279.6,167.7,278.8,169.6,277.8,171.5"/>
		</g>
		<g>
			<defs>
				<path id="SVGID_31_" d="M303.2,140.6c-3.2,0.4-5,4.1-3.7,7.2l0,0l4.3,10l4.3-10c1.4-3.1-0.5-6.9-3.7-7.2l0,0c-0.2,0-0.4,0-0.6,0
					l0,0C303.6,140.6,303.4,140.6,303.2,140.6"/>
			</defs>
			<clipPath id="SVGID_32_">
				<use xlink:href="#SVGID_31_"  style="overflow:visible;"/>
			</clipPath>
			
				<linearGradient id="path1532_1_" gradientUnits="userSpaceOnUse" x1="185.8288" y1="388.8747" x2="186.8288" y2="388.8747" gradientTransform="matrix(41.9884 1426.9874 1426.9874 -41.9884 -562429 -249068.3438)">
				<stop  offset="0" style="stop-color:#E9AC45"/>
				<stop  offset="9.134790e-02" style="stop-color:#E9AC45"/>
				<stop  offset="0.48" style="stop-color:#BC8735"/>
				<stop  offset="1" style="stop-color:#784E3D"/>
			</linearGradient>
			<path id="path1532" class="st15" d="M303.2,140.6c-3.2,0.4-5,4.1-3.7,7.2l0,0l4.3,10l4.3-10c1.4-3.1-0.5-6.9-3.7-7.2l0,0
				c-0.2,0-0.4,0-0.6,0l0,0C303.6,140.6,303.4,140.6,303.2,140.6"/>
		</g>
		<g>
			<defs>
				<path id="SVGID_33_" d="M303.1,168.7c-3.2,0.4-5.1,4.1-3.8,7.2l0,0l4.2,10l4.4-10c1.4-3.1-0.4-6.9-3.6-7.3l0,0
					c-0.2,0-0.4,0-0.6,0l0,0h0c0,0,0,0,0,0l0,0C303.4,168.6,303.3,168.7,303.1,168.7"/>
			</defs>
			<clipPath id="SVGID_34_">
				<use xlink:href="#SVGID_33_"  style="overflow:visible;"/>
			</clipPath>
			
				<linearGradient id="path1556_1_" gradientUnits="userSpaceOnUse" x1="185.8288" y1="388.8747" x2="186.8288" y2="388.8747" gradientTransform="matrix(41.9869 1426.9357 1426.9357 -41.9869 -562409.5625 -249059.2656)">
				<stop  offset="0" style="stop-color:#E9AC45"/>
				<stop  offset="9.134790e-02" style="stop-color:#E9AC45"/>
				<stop  offset="0.48" style="stop-color:#BC8735"/>
				<stop  offset="1" style="stop-color:#784E3D"/>
			</linearGradient>
			<path id="path1556" class="st16" d="M303.1,168.7c-3.2,0.4-5.1,4.1-3.8,7.2l0,0l4.2,10l4.4-10c1.4-3.1-0.4-6.9-3.6-7.3l0,0
				c-0.2,0-0.4,0-0.6,0l0,0h0c0,0,0,0,0,0l0,0C303.4,168.6,303.3,168.7,303.1,168.7"/>
		</g>
		<g>
			<defs>
				<path id="SVGID_35_" d="M302.8,196.7c-3.2,0.3-5.1,4.1-3.8,7.2l0,0l4.1,10.1l4.5-9.9c1.4-3.1-0.4-6.9-3.6-7.3l0,0
					c-0.2,0-0.4,0-0.6,0l0,0c0,0,0,0-0.1,0l0,0C303.1,196.7,302.9,196.7,302.8,196.7"/>
			</defs>
			<clipPath id="SVGID_36_">
				<use xlink:href="#SVGID_35_"  style="overflow:visible;"/>
			</clipPath>
			
				<linearGradient id="path1580_1_" gradientUnits="userSpaceOnUse" x1="185.8288" y1="388.8747" x2="186.8288" y2="388.8747" gradientTransform="matrix(41.9872 1426.9478 1426.9478 -41.9872 -562415.4375 -249061.3438)">
				<stop  offset="0" style="stop-color:#E9AC45"/>
				<stop  offset="9.134790e-02" style="stop-color:#E9AC45"/>
				<stop  offset="0.48" style="stop-color:#BC8735"/>
				<stop  offset="1" style="stop-color:#784E3D"/>
			</linearGradient>
			<path id="path1580" class="st17" d="M302.8,196.7c-3.2,0.3-5.1,4.1-3.8,7.2l0,0l4.1,10.1l4.5-9.9c1.4-3.1-0.4-6.9-3.6-7.3l0,0
				c-0.2,0-0.4,0-0.6,0l0,0c0,0,0,0-0.1,0l0,0C303.1,196.7,302.9,196.7,302.8,196.7"/>
		</g>
		<g>
			<defs>
				<path id="SVGID_37_" d="M302.3,224.8c-3.2,0.3-5.1,4-3.9,7.2l0,0l4.1,10.1l4.5-9.9c1.4-3.1-0.3-6.9-3.5-7.3l0,0
					c-0.2,0-0.4,0-0.6,0l0,0c0,0-0.1,0-0.1,0l0,0C302.6,224.8,302.5,224.8,302.3,224.8"/>
			</defs>
			<clipPath id="SVGID_38_">
				<use xlink:href="#SVGID_37_"  style="overflow:visible;"/>
			</clipPath>
			
				<linearGradient id="path1604_1_" gradientUnits="userSpaceOnUse" x1="185.8288" y1="388.8747" x2="186.8288" y2="388.8747" gradientTransform="matrix(41.9861 1426.9098 1426.9098 -41.9861 -562401.8125 -249054.6719)">
				<stop  offset="0" style="stop-color:#E9AC45"/>
				<stop  offset="9.134790e-02" style="stop-color:#E9AC45"/>
				<stop  offset="0.48" style="stop-color:#BC8735"/>
				<stop  offset="1" style="stop-color:#784E3D"/>
			</linearGradient>
			<path id="path1604" class="st18" d="M302.3,224.8c-3.2,0.3-5.1,4-3.9,7.2l0,0l4.1,10.1l4.5-9.9c1.4-3.1-0.3-6.9-3.5-7.3l0,0
				c-0.2,0-0.4,0-0.6,0l0,0c0,0-0.1,0-0.1,0l0,0C302.6,224.8,302.5,224.8,302.3,224.8"/>
		</g>
		<g>
			<defs>
				<path id="SVGID_39_" d="M301.6,252.9c-3.2,0.3-5.1,4-3.9,7.1l0,0l4,10.1l4.6-9.9c1.4-3.1-0.3-6.9-3.5-7.3l0,0
					c-0.2,0-0.4,0-0.6-0.1l0,0c0,0-0.1,0-0.1,0l0,0C301.9,252.9,301.8,252.9,301.6,252.9"/>
			</defs>
			<clipPath id="SVGID_40_">
				<use xlink:href="#SVGID_39_"  style="overflow:visible;"/>
			</clipPath>
			
				<linearGradient id="path1628_1_" gradientUnits="userSpaceOnUse" x1="185.8288" y1="388.8747" x2="186.8288" y2="388.8747" gradientTransform="matrix(41.9857 1426.8953 1426.8953 -41.9857 -562397.625 -249052.0781)">
				<stop  offset="0" style="stop-color:#E9AC45"/>
				<stop  offset="9.134790e-02" style="stop-color:#E9AC45"/>
				<stop  offset="0.48" style="stop-color:#BC8735"/>
				<stop  offset="1" style="stop-color:#784E3D"/>
			</linearGradient>
			<path id="path1628" class="st19" d="M301.6,252.9c-3.2,0.3-5.1,4-3.9,7.1l0,0l4,10.1l4.6-9.9c1.4-3.1-0.3-6.9-3.5-7.3l0,0
				c-0.2,0-0.4,0-0.6-0.1l0,0c0,0-0.1,0-0.1,0l0,0C301.9,252.9,301.8,252.9,301.6,252.9"/>
		</g>
		<g>
			<defs>
				<path id="SVGID_41_" d="M300.8,280.9c-3.2,0.3-5.2,4-3.9,7.1l0,0l4,10.1l4.6-9.8c1.4-3-0.2-6.9-3.5-7.4l0,0
					c-0.2,0-0.4-0.1-0.6-0.1l0,0c-0.1,0-0.1,0-0.2,0l0,0C301.1,280.9,300.9,280.9,300.8,280.9"/>
			</defs>
			<clipPath id="SVGID_42_">
				<use xlink:href="#SVGID_41_"  style="overflow:visible;"/>
			</clipPath>
			
				<linearGradient id="path1652_1_" gradientUnits="userSpaceOnUse" x1="185.8288" y1="388.8747" x2="186.8288" y2="388.8747" gradientTransform="matrix(41.9865 1426.9208 1426.9208 -41.9865 -562409.375 -249056.5)">
				<stop  offset="0" style="stop-color:#E9AC45"/>
				<stop  offset="9.134790e-02" style="stop-color:#E9AC45"/>
				<stop  offset="0.48" style="stop-color:#BC8735"/>
				<stop  offset="1" style="stop-color:#784E3D"/>
			</linearGradient>
			<path id="path1652" class="st20" d="M300.8,280.9c-3.2,0.3-5.2,4-3.9,7.1l0,0l4,10.1l4.6-9.8c1.4-3-0.2-6.9-3.5-7.4l0,0
				c-0.2,0-0.4-0.1-0.6-0.1l0,0c-0.1,0-0.1,0-0.2,0l0,0C301.1,280.9,300.9,280.9,300.8,280.9"/>
		</g>
		<g>
			<defs>
				<path id="SVGID_43_" d="M301.5,297.7c12.2,0.1,12.4-18.9,0.2-19l0,0c0,0-0.1,0-0.1,0l0,0C289.4,278.7,289.3,297.6,301.5,297.7"
					/>
			</defs>
			<clipPath id="SVGID_44_">
				<use xlink:href="#SVGID_43_"  style="overflow:visible;"/>
			</clipPath>
			
				<linearGradient id="path1676_1_" gradientUnits="userSpaceOnUse" x1="185.8288" y1="388.8747" x2="186.8288" y2="388.8747" gradientTransform="matrix(41.9869 1426.936 1426.936 -41.9869 -562415.0625 -249059.1719)">
				<stop  offset="0" style="stop-color:#E9AC45"/>
				<stop  offset="9.134790e-02" style="stop-color:#E9AC45"/>
				<stop  offset="0.48" style="stop-color:#BC8735"/>
				<stop  offset="1" style="stop-color:#784E3D"/>
			</linearGradient>
			<path id="path1676" class="st21" d="M301.5,297.7c12.2,0.1,12.4-18.9,0.2-19l0,0c0,0-0.1,0-0.1,0l0,0
				C289.4,278.7,289.3,297.6,301.5,297.7"/>
		</g>
	</g>
	<g>
		<g>
			<defs>
				<path id="SVGID_45_" d="M160.3,18.2l0.5-0.5l-0.2-0.5C160.5,17.6,160.4,17.9,160.3,18.2"/>
			</defs>
			<clipPath id="SVGID_46_">
				<use xlink:href="#SVGID_45_"  style="overflow:visible;"/>
			</clipPath>
			
				<linearGradient id="path310_1_" gradientUnits="userSpaceOnUse" x1="185.8943" y1="389.1359" x2="186.8943" y2="389.1359" gradientTransform="matrix(1759.1416 0 0 -1759.1416 -327896.2813 684562.8125)">
				<stop  offset="0" style="stop-color:#FFC322"/>
				<stop  offset="9.134790e-02" style="stop-color:#FFC322"/>
				<stop  offset="0.48" style="stop-color:#EAAE20"/>
				<stop  offset="1" style="stop-color:#C77A3E"/>
			</linearGradient>
			<path id="path310" class="st22" d="M160.3,18.2l0.5-0.5l-0.2-0.5C160.5,17.6,160.4,17.9,160.3,18.2"/>
		</g>
		<g>
			<defs>
				<path id="SVGID_47_" d="M160.3,154.3l0.5-0.5l-0.2-0.5C160.5,153.7,160.4,154,160.3,154.3"/>
			</defs>
			<clipPath id="SVGID_48_">
				<use xlink:href="#SVGID_47_"  style="overflow:visible;"/>
			</clipPath>
			
				<linearGradient id="path334_1_" gradientUnits="userSpaceOnUse" x1="185.894" y1="389.1362" x2="186.894" y2="389.1362" gradientTransform="matrix(1755.3207 0 0 -1755.3207 -327183.3438 683212.5625)">
				<stop  offset="0" style="stop-color:#FFC322"/>
				<stop  offset="9.134790e-02" style="stop-color:#FFC322"/>
				<stop  offset="0.48" style="stop-color:#EAAE20"/>
				<stop  offset="1" style="stop-color:#C77A3E"/>
			</linearGradient>
			<path id="path334" class="st23" d="M160.3,154.3l0.5-0.5l-0.2-0.5C160.5,153.7,160.4,154,160.3,154.3"/>
		</g>
		<g>
			<defs>
				<path id="SVGID_49_" d="M158.3,0.6c-0.2,0-0.4,0-0.6,0.1l0,0c-3.4,0.6-5.1,4.7-3.5,7.9l0,0l5.2,10.4l4-10.9
					c1.2-3.4-0.9-7.3-4.4-7.5l0,0c-0.1,0-0.2,0-0.3,0l0,0C158.5,0.6,158.4,0.6,158.3,0.6"/>
			</defs>
			<clipPath id="SVGID_50_">
				<use xlink:href="#SVGID_49_"  style="overflow:visible;"/>
			</clipPath>
			
				<linearGradient id="path1148_1_" gradientUnits="userSpaceOnUse" x1="185.8399" y1="388.8828" x2="186.8399" y2="388.8828" gradientTransform="matrix(44.891 1525.6316 1525.6316 -44.891 -601479.375 -266182.0625)">
				<stop  offset="0" style="stop-color:#E9AC45"/>
				<stop  offset="9.134790e-02" style="stop-color:#E9AC45"/>
				<stop  offset="0.48" style="stop-color:#BC8735"/>
				<stop  offset="1" style="stop-color:#784E3D"/>
			</linearGradient>
			<path id="path1148" class="st24" d="M158.3,0.6c-0.2,0-0.4,0-0.6,0.1l0,0c-3.4,0.6-5.1,4.7-3.5,7.9l0,0l5.2,10.4l4-10.9
				c1.2-3.4-0.9-7.3-4.4-7.5l0,0c-0.1,0-0.2,0-0.3,0l0,0C158.5,0.6,158.4,0.6,158.3,0.6"/>
		</g>
		<g>
			<defs>
				<path id="SVGID_51_" d="M159.9,30.6c-0.2,0-0.4,0-0.6,0.1l0,0c-3.4,0.6-5.2,4.7-3.6,7.9l0,0l5.1,10.5l4.1-10.9
					c1.3-3.4-0.9-7.3-4.3-7.5l0,0c-0.1,0-0.2,0-0.4,0l0,0C160.1,30.6,160,30.6,159.9,30.6"/>
			</defs>
			<clipPath id="SVGID_52_">
				<use xlink:href="#SVGID_51_"  style="overflow:visible;"/>
			</clipPath>
			
				<linearGradient id="path1172_1_" gradientUnits="userSpaceOnUse" x1="185.8399" y1="388.8828" x2="186.8399" y2="388.8828" gradientTransform="matrix(44.8886 1525.5498 1525.5498 -44.8886 -601446.4375 -266167.7813)">
				<stop  offset="0" style="stop-color:#E9AC45"/>
				<stop  offset="9.134790e-02" style="stop-color:#E9AC45"/>
				<stop  offset="0.48" style="stop-color:#BC8735"/>
				<stop  offset="1" style="stop-color:#784E3D"/>
			</linearGradient>
			<path id="path1172" class="st25" d="M159.9,30.6c-0.2,0-0.4,0-0.6,0.1l0,0c-3.4,0.6-5.2,4.7-3.6,7.9l0,0l5.1,10.5l4.1-10.9
				c1.3-3.4-0.9-7.3-4.3-7.5l0,0c-0.1,0-0.2,0-0.4,0l0,0C160.1,30.6,160,30.6,159.9,30.6"/>
		</g>
		<g>
			<defs>
				<path id="SVGID_53_" d="M161.4,60.6c-0.2,0-0.4,0-0.6,0.1l0,0c-3.4,0.6-5.2,4.7-3.6,7.9l0,0l5,10.5l4.1-10.9
					c1.3-3.4-0.8-7.3-4.3-7.6l0,0c-0.1,0-0.3,0-0.4,0l0,0C161.5,60.6,161.4,60.6,161.4,60.6"/>
			</defs>
			<clipPath id="SVGID_54_">
				<use xlink:href="#SVGID_53_"  style="overflow:visible;"/>
			</clipPath>
			
				<linearGradient id="path1196_1_" gradientUnits="userSpaceOnUse" x1="185.8399" y1="388.8828" x2="186.8399" y2="388.8828" gradientTransform="matrix(44.8889 1525.562 1525.562 -44.8889 -601450.75 -266169.9375)">
				<stop  offset="0" style="stop-color:#E9AC45"/>
				<stop  offset="9.134790e-02" style="stop-color:#E9AC45"/>
				<stop  offset="0.48" style="stop-color:#BC8735"/>
				<stop  offset="1" style="stop-color:#784E3D"/>
			</linearGradient>
			<path id="path1196" class="st26" d="M161.4,60.6c-0.2,0-0.4,0-0.6,0.1l0,0c-3.4,0.6-5.2,4.7-3.6,7.9l0,0l5,10.5l4.1-10.9
				c1.3-3.4-0.8-7.3-4.3-7.6l0,0c-0.1,0-0.3,0-0.4,0l0,0C161.5,60.6,161.4,60.6,161.4,60.6"/>
		</g>
		<g>
			<defs>
				<path id="SVGID_55_" d="M162.6,90.5c-0.2,0-0.4,0-0.6,0.1l0,0c-3.4,0.6-5.2,4.6-3.7,7.9l0,0l5,10.5l4.2-10.9
					c1.3-3.4-0.8-7.3-4.2-7.6l0,0c-0.1,0-0.3,0-0.4,0l0,0C162.7,90.5,162.7,90.5,162.6,90.5"/>
			</defs>
			<clipPath id="SVGID_56_">
				<use xlink:href="#SVGID_55_"  style="overflow:visible;"/>
			</clipPath>
			
				<linearGradient id="path1220_1_" gradientUnits="userSpaceOnUse" x1="185.8399" y1="388.8828" x2="186.8399" y2="388.8828" gradientTransform="matrix(44.8885 1525.549 1525.549 -44.8885 -601445.25 -266167.6563)">
				<stop  offset="0" style="stop-color:#E9AC45"/>
				<stop  offset="9.134790e-02" style="stop-color:#E9AC45"/>
				<stop  offset="0.48" style="stop-color:#BC8735"/>
				<stop  offset="1" style="stop-color:#784E3D"/>
			</linearGradient>
			<path id="path1220" class="st27" d="M162.6,90.5c-0.2,0-0.4,0-0.6,0.1l0,0c-3.4,0.6-5.2,4.6-3.7,7.9l0,0l5,10.5l4.2-10.9
				c1.3-3.4-0.8-7.3-4.2-7.6l0,0c-0.1,0-0.3,0-0.4,0l0,0C162.7,90.5,162.7,90.5,162.6,90.5"/>
		</g>
		<g>
			<defs>
				<path id="SVGID_57_" d="M163.6,120.5c-0.2,0-0.4,0-0.6,0.1l0,0c-3.4,0.5-5.2,4.6-3.7,7.8l0,0l4.9,10.6l4.3-10.8
					c1.3-3.3-0.7-7.3-4.2-7.6l0,0c-0.2,0-0.3,0-0.5,0l0,0C163.7,120.5,163.7,120.5,163.6,120.5"/>
			</defs>
			<clipPath id="SVGID_58_">
				<use xlink:href="#SVGID_57_"  style="overflow:visible;"/>
			</clipPath>
			
				<linearGradient id="path1244_1_" gradientUnits="userSpaceOnUse" x1="185.8399" y1="388.8828" x2="186.8399" y2="388.8828" gradientTransform="matrix(44.8904 1525.6111 1525.6111 -44.8904 -601469.625 -266178.5313)">
				<stop  offset="0" style="stop-color:#E9AC45"/>
				<stop  offset="9.134790e-02" style="stop-color:#E9AC45"/>
				<stop  offset="0.48" style="stop-color:#BC8735"/>
				<stop  offset="1" style="stop-color:#784E3D"/>
			</linearGradient>
			<path id="path1244" class="st28" d="M163.6,120.5c-0.2,0-0.4,0-0.6,0.1l0,0c-3.4,0.5-5.2,4.6-3.7,7.8l0,0l4.9,10.6l4.3-10.8
				c1.3-3.3-0.7-7.3-4.2-7.6l0,0c-0.2,0-0.3,0-0.5,0l0,0C163.7,120.5,163.7,120.5,163.6,120.5"/>
		</g>
		<g>
			<defs>
				<path id="SVGID_59_" d="M164.5,150.5c-0.2,0-0.4,0-0.6,0.1l0,0c-3.4,0.5-5.3,4.6-3.8,7.8l0,0l4.8,10.6l4.4-10.8
					c1.3-3.3-0.7-7.3-4.2-7.6l0,0c-0.2,0-0.3,0-0.5,0l0,0C164.5,150.5,164.5,150.5,164.5,150.5"/>
			</defs>
			<clipPath id="SVGID_60_">
				<use xlink:href="#SVGID_59_"  style="overflow:visible;"/>
			</clipPath>
			
				<linearGradient id="path1268_1_" gradientUnits="userSpaceOnUse" x1="185.8399" y1="388.8828" x2="186.8399" y2="388.8828" gradientTransform="matrix(44.8896 1525.5854 1525.5854 -44.8896 -601459.625 -266174.0313)">
				<stop  offset="0" style="stop-color:#E9AC45"/>
				<stop  offset="9.134790e-02" style="stop-color:#E9AC45"/>
				<stop  offset="0.48" style="stop-color:#BC8735"/>
				<stop  offset="1" style="stop-color:#784E3D"/>
			</linearGradient>
			<path id="path1268" class="st29" d="M164.5,150.5c-0.2,0-0.4,0-0.6,0.1l0,0c-3.4,0.5-5.3,4.6-3.8,7.8l0,0l4.8,10.6l4.4-10.8
				c1.3-3.3-0.7-7.3-4.2-7.6l0,0c-0.2,0-0.3,0-0.5,0l0,0C164.5,150.5,164.5,150.5,164.5,150.5"/>
		</g>
		<g>
			<defs>
				<path id="SVGID_61_" d="M165.1,180.6c-0.2,0-0.4,0-0.6,0.1l0,0c-3.5,0.5-5.3,4.5-3.8,7.8l0,0l4.8,10.6l4.4-10.8
					c1.4-3.3-0.6-7.3-4.1-7.7l0,0C165.6,180.6,165.4,180.6,165.1,180.6L165.1,180.6C165.2,180.6,165.2,180.6,165.1,180.6"/>
			</defs>
			<clipPath id="SVGID_62_">
				<use xlink:href="#SVGID_61_"  style="overflow:visible;"/>
			</clipPath>
			
				<linearGradient id="path1292_1_" gradientUnits="userSpaceOnUse" x1="185.8399" y1="388.8828" x2="186.8399" y2="388.8828" gradientTransform="matrix(44.8909 1525.6307 1525.6307 -44.8909 -601477.75 -266181.9375)">
				<stop  offset="0" style="stop-color:#E9AC45"/>
				<stop  offset="9.134790e-02" style="stop-color:#E9AC45"/>
				<stop  offset="0.48" style="stop-color:#BC8735"/>
				<stop  offset="1" style="stop-color:#784E3D"/>
			</linearGradient>
			<path id="path1292" class="st30" d="M165.1,180.6c-0.2,0-0.4,0-0.6,0.1l0,0c-3.5,0.5-5.3,4.5-3.8,7.8l0,0l4.8,10.6l4.4-10.8
				c1.4-3.3-0.6-7.3-4.1-7.7l0,0C165.6,180.6,165.4,180.6,165.1,180.6L165.1,180.6C165.2,180.6,165.2,180.6,165.1,180.6"/>
		</g>
		<g>
			<defs>
				<path id="SVGID_63_" d="M165.6,210.6c-0.2,0-0.4,0-0.6,0l0,0c-3.5,0.5-5.3,4.5-3.9,7.8l0,0l4.7,10.6l4.5-10.7
					c1.4-3.3-0.6-7.3-4.1-7.7l0,0C166,210.6,165.8,210.6,165.6,210.6L165.6,210.6C165.6,210.6,165.6,210.6,165.6,210.6"/>
			</defs>
			<clipPath id="SVGID_64_">
				<use xlink:href="#SVGID_63_"  style="overflow:visible;"/>
			</clipPath>
			
				<linearGradient id="path1316_1_" gradientUnits="userSpaceOnUse" x1="185.8399" y1="388.8828" x2="186.8399" y2="388.8828" gradientTransform="matrix(44.8867 1525.4868 1525.4868 -44.8867 -601421.4375 -266156.7813)">
				<stop  offset="0" style="stop-color:#E9AC45"/>
				<stop  offset="9.134790e-02" style="stop-color:#E9AC45"/>
				<stop  offset="0.48" style="stop-color:#BC8735"/>
				<stop  offset="1" style="stop-color:#784E3D"/>
			</linearGradient>
			<path id="path1316" class="st31" d="M165.6,210.6c-0.2,0-0.4,0-0.6,0l0,0c-3.5,0.5-5.3,4.5-3.9,7.8l0,0l4.7,10.6l4.5-10.7
				c1.4-3.3-0.6-7.3-4.1-7.7l0,0C166,210.6,165.8,210.6,165.6,210.6L165.6,210.6C165.6,210.6,165.6,210.6,165.6,210.6"/>
		</g>
		<g>
			<defs>
				<path id="SVGID_65_" d="M165.8,240.6c-0.2,0-0.4,0-0.6,0l0,0c-3.5,0.4-5.3,4.5-3.9,7.7l0,0l4.6,10.7l4.6-10.7
					c1.4-3.3-0.5-7.3-4-7.7l0,0C166.3,240.6,166.1,240.6,165.8,240.6L165.8,240.6C165.9,240.6,165.9,240.6,165.8,240.6"/>
			</defs>
			<clipPath id="SVGID_66_">
				<use xlink:href="#SVGID_65_"  style="overflow:visible;"/>
			</clipPath>
			
				<linearGradient id="path1340_1_" gradientUnits="userSpaceOnUse" x1="185.8399" y1="388.8828" x2="186.8399" y2="388.8828" gradientTransform="matrix(44.8886 1525.5499 1525.5499 -44.8886 -601447 -266167.7813)">
				<stop  offset="0" style="stop-color:#E9AC45"/>
				<stop  offset="9.134790e-02" style="stop-color:#E9AC45"/>
				<stop  offset="0.48" style="stop-color:#BC8735"/>
				<stop  offset="1" style="stop-color:#784E3D"/>
			</linearGradient>
			<path id="path1340" class="st32" d="M165.8,240.6c-0.2,0-0.4,0-0.6,0l0,0c-3.5,0.4-5.3,4.5-3.9,7.7l0,0l4.6,10.7l4.6-10.7
				c1.4-3.3-0.5-7.3-4-7.7l0,0C166.3,240.6,166.1,240.6,165.8,240.6L165.8,240.6C165.9,240.6,165.9,240.6,165.8,240.6"/>
		</g>
		<g>
			<defs>
				<path id="SVGID_67_" d="M165.3,270.6c-3.5,0.4-5.4,4.4-4,7.7l0,0l4.6,10.7l4.6-10.7c1.4-3.3-0.5-7.3-3.9-7.7l0,0
					c-0.2,0-0.4,0-0.6,0l0,0C165.7,270.6,165.5,270.6,165.3,270.6"/>
			</defs>
			<clipPath id="SVGID_68_">
				<use xlink:href="#SVGID_67_"  style="overflow:visible;"/>
			</clipPath>
			
				<linearGradient id="path1364_1_" gradientUnits="userSpaceOnUse" x1="185.8399" y1="388.8828" x2="186.8399" y2="388.8828" gradientTransform="matrix(44.8888 1525.5566 1525.5566 -44.8888 -601450.4375 -266168.9375)">
				<stop  offset="0" style="stop-color:#E9AC45"/>
				<stop  offset="9.134790e-02" style="stop-color:#E9AC45"/>
				<stop  offset="0.48" style="stop-color:#BC8735"/>
				<stop  offset="1" style="stop-color:#784E3D"/>
			</linearGradient>
			<path id="path1364" class="st33" d="M165.3,270.6c-3.5,0.4-5.4,4.4-4,7.7l0,0l4.6,10.7l4.6-10.7c1.4-3.3-0.5-7.3-3.9-7.7l0,0
				c-0.2,0-0.4,0-0.6,0l0,0C165.7,270.6,165.5,270.6,165.3,270.6"/>
		</g>
		<g>
			<defs>
				<path id="SVGID_69_" d="M165.2,300.6c-3.5,0.4-5.4,4.4-4,7.7l0,0l4.5,10.7l4.7-10.7c1.5-3.3-0.4-7.3-3.9-7.8l0,0
					c-0.2,0-0.4,0-0.6,0l0,0c0,0,0,0,0,0l0,0C165.6,300.6,165.4,300.6,165.2,300.6"/>
			</defs>
			<clipPath id="SVGID_70_">
				<use xlink:href="#SVGID_69_"  style="overflow:visible;"/>
			</clipPath>
			
				<linearGradient id="path1388_1_" gradientUnits="userSpaceOnUse" x1="185.8399" y1="388.8828" x2="186.8399" y2="388.8828" gradientTransform="matrix(44.8874 1525.5101 1525.5101 -44.8874 -601433.1875 -266160.7813)">
				<stop  offset="0" style="stop-color:#E9AC45"/>
				<stop  offset="9.134790e-02" style="stop-color:#E9AC45"/>
				<stop  offset="0.48" style="stop-color:#BC8735"/>
				<stop  offset="1" style="stop-color:#784E3D"/>
			</linearGradient>
			<path id="path1388" class="st34" d="M165.2,300.6c-3.5,0.4-5.4,4.4-4,7.7l0,0l4.5,10.7l4.7-10.7c1.5-3.3-0.4-7.3-3.9-7.8l0,0
				c-0.2,0-0.4,0-0.6,0l0,0c0,0,0,0,0,0l0,0C165.6,300.6,165.4,300.6,165.2,300.6"/>
		</g>
		<g>
			<defs>
				<path id="SVGID_71_" d="M164.8,330.7c-3.5,0.4-5.5,4.4-4.1,7.7l0,0l4.4,10.8l4.8-10.6c1.5-3.3-0.4-7.3-3.8-7.8l0,0
					c-0.2,0-0.4,0-0.6,0l0,0c0,0,0,0-0.1,0l0,0C165.2,330.6,165,330.6,164.8,330.7"/>
			</defs>
			<clipPath id="SVGID_72_">
				<use xlink:href="#SVGID_71_"  style="overflow:visible;"/>
			</clipPath>
			
				<linearGradient id="path1412_1_" gradientUnits="userSpaceOnUse" x1="185.8399" y1="388.8828" x2="186.8399" y2="388.8828" gradientTransform="matrix(44.8905 1525.6158 1525.6158 -44.8905 -601476.125 -266179.2188)">
				<stop  offset="0" style="stop-color:#E9AC45"/>
				<stop  offset="9.134790e-02" style="stop-color:#E9AC45"/>
				<stop  offset="0.48" style="stop-color:#BC8735"/>
				<stop  offset="1" style="stop-color:#784E3D"/>
			</linearGradient>
			<path id="path1412" class="st35" d="M164.8,330.7c-3.5,0.4-5.5,4.4-4.1,7.7l0,0l4.4,10.8l4.8-10.6c1.5-3.3-0.4-7.3-3.8-7.8l0,0
				c-0.2,0-0.4,0-0.6,0l0,0c0,0,0,0-0.1,0l0,0C165.2,330.6,165,330.6,164.8,330.7"/>
		</g>
		<g>
			<defs>
				<path id="SVGID_73_" d="M164.3,360.7c-3.5,0.3-5.5,4.3-4.1,7.6l0,0l4.4,10.8l4.8-10.6c1.5-3.3-0.3-7.3-3.8-7.8l0,0
					c-0.2,0-0.4,0-0.6-0.1l0,0c0,0-0.1,0-0.1,0l0,0C164.7,360.6,164.5,360.6,164.3,360.7"/>
			</defs>
			<clipPath id="SVGID_74_">
				<use xlink:href="#SVGID_73_"  style="overflow:visible;"/>
			</clipPath>
			
				<linearGradient id="path1436_1_" gradientUnits="userSpaceOnUse" x1="185.8399" y1="388.8828" x2="186.8399" y2="388.8828" gradientTransform="matrix(44.8885 1525.5474 1525.5474 -44.8885 -601450.5 -266167.2188)">
				<stop  offset="0" style="stop-color:#E9AC45"/>
				<stop  offset="9.134790e-02" style="stop-color:#E9AC45"/>
				<stop  offset="0.48" style="stop-color:#BC8735"/>
				<stop  offset="1" style="stop-color:#784E3D"/>
			</linearGradient>
			<path id="path1436" class="st36" d="M164.3,360.7c-3.5,0.3-5.5,4.3-4.1,7.6l0,0l4.4,10.8l4.8-10.6c1.5-3.3-0.3-7.3-3.8-7.8l0,0
				c-0.2,0-0.4,0-0.6-0.1l0,0c0,0-0.1,0-0.1,0l0,0C164.7,360.6,164.5,360.6,164.3,360.7"/>
		</g>
		<g>
			<defs>
				<path id="SVGID_75_" d="M163.6,390.7c-3.5,0.3-5.5,4.3-4.2,7.6l0,0l4.3,10.8l4.9-10.6c1.5-3.3-0.3-7.3-3.7-7.8l0,0
					c-0.2,0-0.4-0.1-0.6-0.1l0,0c-0.1,0-0.1,0-0.2,0l0,0C163.9,390.6,163.8,390.7,163.6,390.7"/>
			</defs>
			<clipPath id="SVGID_76_">
				<use xlink:href="#SVGID_75_"  style="overflow:visible;"/>
			</clipPath>
			
				<linearGradient id="path1460_1_" gradientUnits="userSpaceOnUse" x1="185.8399" y1="388.8828" x2="186.8399" y2="388.8828" gradientTransform="matrix(44.8881 1525.5338 1525.5338 -44.8881 -601446.8125 -266164.7813)">
				<stop  offset="0" style="stop-color:#E9AC45"/>
				<stop  offset="9.134790e-02" style="stop-color:#E9AC45"/>
				<stop  offset="0.48" style="stop-color:#BC8735"/>
				<stop  offset="1" style="stop-color:#784E3D"/>
			</linearGradient>
			<path id="path1460" class="st37" d="M163.6,390.7c-3.5,0.3-5.5,4.3-4.2,7.6l0,0l4.3,10.8l4.9-10.6c1.5-3.3-0.3-7.3-3.7-7.8l0,0
				c-0.2,0-0.4-0.1-0.6-0.1l0,0c-0.1,0-0.1,0-0.2,0l0,0C163.9,390.6,163.8,390.7,163.6,390.7"/>
		</g>
		<g>
			<defs>
				<path id="SVGID_77_" d="M162.7,420.7c-3.5,0.3-5.5,4.2-4.2,7.6l0,0l4.2,10.9l5-10.5c1.5-3.3-0.3-7.3-3.7-7.9l0,0
					c-0.2,0-0.4-0.1-0.6-0.1l0,0c-0.1,0-0.1,0-0.2,0l0,0C163,420.7,162.9,420.7,162.7,420.7"/>
			</defs>
			<clipPath id="SVGID_78_">
				<use xlink:href="#SVGID_77_"  style="overflow:visible;"/>
			</clipPath>
			
				<linearGradient id="path1484_1_" gradientUnits="userSpaceOnUse" x1="185.8399" y1="388.8828" x2="186.8399" y2="388.8828" gradientTransform="matrix(44.8894 1525.5784 1525.5784 -44.8894 -601466.1875 -266172.5313)">
				<stop  offset="0" style="stop-color:#E9AC45"/>
				<stop  offset="9.134790e-02" style="stop-color:#E9AC45"/>
				<stop  offset="0.48" style="stop-color:#BC8735"/>
				<stop  offset="1" style="stop-color:#784E3D"/>
			</linearGradient>
			<path id="path1484" class="st38" d="M162.7,420.7c-3.5,0.3-5.5,4.2-4.2,7.6l0,0l4.2,10.9l5-10.5c1.5-3.3-0.3-7.3-3.7-7.9l0,0
				c-0.2,0-0.4-0.1-0.6-0.1l0,0c-0.1,0-0.1,0-0.2,0l0,0C163,420.7,162.9,420.7,162.7,420.7"/>
		</g>
		<g>
			<defs>
				<path id="SVGID_79_" d="M163.5,438.5c13.1,0.1,13.3-20.2,0.2-20.3l0,0c0,0-0.1,0-0.1,0l0,0C150.6,418.2,150.5,438.4,163.5,438.5
					"/>
			</defs>
			<clipPath id="SVGID_80_">
				<use xlink:href="#SVGID_79_"  style="overflow:visible;"/>
			</clipPath>
			
				<linearGradient id="path1508_1_" gradientUnits="userSpaceOnUse" x1="185.8399" y1="388.8828" x2="186.8399" y2="388.8828" gradientTransform="matrix(44.8889 1525.5621 1525.5621 -44.8889 -601459.4375 -266169.6875)">
				<stop  offset="0" style="stop-color:#E9AC45"/>
				<stop  offset="9.134790e-02" style="stop-color:#E9AC45"/>
				<stop  offset="0.48" style="stop-color:#BC8735"/>
				<stop  offset="1" style="stop-color:#784E3D"/>
			</linearGradient>
			<path id="path1508" class="st39" d="M163.5,438.5c13.1,0.1,13.3-20.2,0.2-20.3l0,0c0,0-0.1,0-0.1,0l0,0
				C150.6,418.2,150.5,438.4,163.5,438.5"/>
		</g>
	</g>
	<g>
		<defs>
			<path id="SVGID_81_" d="M0,0v400.6C130.9,168.7,463.3,241.9,522,0l0,0H0z"/>
		</defs>
		<clipPath id="SVGID_82_">
			<use xlink:href="#SVGID_81_"  style="overflow:visible;"/>
		</clipPath>
		
			<linearGradient id="path190_1_" gradientUnits="userSpaceOnUse" x1="185.2183" y1="388.9133" x2="186.2183" y2="388.9133" gradientTransform="matrix(201.5586 328.1189 328.1189 -201.5586 -164851.2188 17538.6309)">
			<stop  offset="0" style="stop-color:#EE2960"/>
			<stop  offset="8.226570e-02" style="stop-color:#EE2960"/>
			<stop  offset="1" style="stop-color:#7A1B58"/>
		</linearGradient>
		<path id="path190" class="st40" d="M0,0v400.6C130.9,168.7,463.3,241.9,522,0l0,0H0z"/>
	</g>
	<g>
		<defs>
			<path id="SVGID_83_" d="M0,324.9l17.8,5.1c0.9-1.1,1.8-2.1,2.7-3.2l0,0L0,321V324.9z"/>
		</defs>
		<clipPath id="SVGID_84_">
			<use xlink:href="#SVGID_83_"  style="overflow:visible;"/>
		</clipPath>
		
			<linearGradient id="path238_1_" gradientUnits="userSpaceOnUse" x1="185.894" y1="389.1361" x2="186.894" y2="389.1361" gradientTransform="matrix(1755.431 0 0 -1755.431 -327203.9063 683427.1875)">
			<stop  offset="0" style="stop-color:#FFC322"/>
			<stop  offset="9.134790e-02" style="stop-color:#FFC322"/>
			<stop  offset="0.48" style="stop-color:#EAAE20"/>
			<stop  offset="1" style="stop-color:#C77A3E"/>
		</linearGradient>
		<path id="path238" class="st41" d="M0,324.9l17.8,5.1c0.9-1.1,1.8-2.1,2.7-3.2l0,0L0,321V324.9z"/>
	</g>
	<g>
		<defs>
			<path id="SVGID_85_" d="M468.6,0l-7.1,7.7l-13.3-4.2l0.8-3.5h-3.9l-1.4,6.1l11.4,3.5l-32,7.9c-0.3-0.5-0.6-0.9-0.9-1.4l0,0
				L439.8,0h-5.6l-14.5,13.4c-1.3-1.1-2.9-1.9-4.5-2.5l0,0l3-10.9h-3.9l-2.8,10.2c-0.2,0-0.4,0-0.6,0l0,0c-0.3,0-0.6,0-0.9,0l0,0
				L407.5,0h-3.9l2.6,11c-1.7,0.6-3.2,1.4-4.5,2.6l0,0L391.2,3.1c-0.1,0.2-0.3,0.3-0.5,0.4l0,0c0.2-1.2,0.4-2.3,0.6-3.5l0,0h-3.8
				c-0.7,4.1-1.7,8.1-3.1,12l0,0l-6.6-8.1l3.8-3.9h-5.3l-1.6,1.6L368.8,0h-14.1l14.1,3.9L356.6,8l3,11.5L339.6,0h-5.4L361,26.2
				l-4.3,15.3c-1.7,0.3-3.4,0.8-5.1,1.3l0,0c-4.2-8.8-10.3-16.5-17.7-22.8l0,0l-4.7-17.5c0.7-0.3,1.3-0.6,2-1l0,0
				c0.7-0.4,1.3-0.9,1.9-1.5l0,0h-23.3L304,5.4c-2.6-0.5-5.2-0.9-7.8-1.2l0,0l-9.1,0l0.1-0.1l-0.2-0.2c0-0.4,0-0.9,0-1.3l0,0
				c0-0.9-0.1-1.7-0.1-2.6l0,0h-8.6l3.5,3.9l-12.9,12L232.6,4.8c0.1-0.7,0.2-1.5,0.2-2.2l0,0c0-0.9-0.1-1.7-0.3-2.6l0,0h-3.9
				c0.2,0.8,0.4,1.7,0.4,2.6l0,0c0,5.6-4.6,10.2-10.2,10.2l0,0c-5.6,0-10.2-4.6-10.2-10.2l0,0c0-0.9,0.2-1.8,0.4-2.6l0,0H205
				c-0.2,0.8-0.3,1.7-0.3,2.6l0,0c0,0.9,0.1,1.7,0.2,2.6l0,0l-21,6c-6.3-3.7-13.3-6.3-20.7-7.8l0,0c0.1-1.1,0.2-2.2,0.2-3.4l0,0h-7
				l-11,10.2L112,0h-6.9c-1.3,4.1-5.2,7.2-9.7,7.2l0,0c-4.6,0-8.4-3-9.7-7.2l0,0h-5.8l-7.7,2.2c1.3,0.9,2.6,1.9,3.8,2.8l0,0l6.9-2
				c0.1,0.3,0.3,0.6,0.5,0.9l0,0l-4.4,3.7c0.9,0.9,1.8,1.7,2.7,2.7l0,0l4-3.4c1.4,1.3,3,2.4,4.8,3.1l0,0l-2.3,7.1
				c-4.5-5.2-9.8-9.7-15.7-13.3l0,0l-0.2-0.9l-0.9,0.2c-2-1.2-4-2.2-6.1-3.1l0,0H54c4,1.1,8,2.6,11.6,4.4l0,0L51,7.9L47.9,0h-4.1
				l3.8,9.6l-10.8,9.8l-9.8-9.8L30.4,0h-4l-2.7,7.8l-14.5-4C12.5,2.2,15.9,1,19.5,0l0,0H8.6C7.2,0.7,5.8,1.3,4.4,2l0,0
				c0-0.3,0-0.5,0-0.8l0,0H2.2v2.1C1.4,3.8,0.7,4.3,0,4.7l0,0v4.5c0.4-0.3,0.7-0.5,1.1-0.8l0,0L0,12.2v32.4l4.3-1.3L1.5,30.8
				l23.7,23.5c-0.3,0.5-0.6,0.9-0.8,1.4l0,0L0,48.8v3.9l23.1,6.6c-0.2,0.9-0.3,1.9-0.3,2.9l0,0c0,0.9,0.1,1.7,0.2,2.6l0,0L0,71.3
				v3.9l24.2-6.9c0.1,0.3,0.3,0.6,0.5,0.9l0,0L0.3,90l3.2-9.8l-3.5-1v16l27-23.1c1.4,1.3,3,2.4,4.8,3.1l0,0L20.4,111l-18.1,3.6
				l-2.3-11v16.2c9,5.8,19.3,9.5,30.5,10.5l0,0c-9.6,0.9-18.6,3.8-26.7,8.2l0,0l-0.9-0.2l-0.3,0.9c-0.9,0.5-1.8,1.2-2.7,1.7l0,0v4.5
				c0.4-0.3,0.7-0.5,1.1-0.8l0,0L0,148.3v32.4l4.3-1.3l-2.8-12.5l23.7,23.5c-0.3,0.5-0.6,0.9-0.8,1.4l0,0l-24.4-7v3.9l23.1,6.6
				c-0.2,0.9-0.3,1.9-0.3,2.9l0,0c0,0.9,0.1,1.7,0.2,2.6l0,0l-23,6.6v3.9l24.2-6.9c0.1,0.3,0.3,0.6,0.5,0.9l0,0L0.3,226.1l3.2-9.8
				l-3.5-1v16l27-23.1c1.4,1.3,3,2.4,4.8,3.1l0,0l-11.3,35.7l-18.1,3.6l-2.3-11v16.2c9,5.8,19.3,9.5,30.5,10.5l0,0
				c-9.6,0.9-18.6,3.8-26.7,8.2l0,0l-0.9-0.2l-0.3,0.9c-0.9,0.5-1.8,1.2-2.7,1.7l0,0v4.5c0.4-0.3,0.7-0.5,1.1-0.8l0,0L0,284.4v32.4
				l4.3-1.3L1.5,303l21.3,21.1c0.8-0.9,1.7-1.9,2.5-2.8l0,0L0.4,296.6l5.1-17.7l17.8,4.9l7.5,31.7c1-1.1,2.1-2.1,3.1-3.2l0,0
				l-5.7-24l8.5,8.5l9.6-8.7l-4.7,17.1c1.7-1.6,3.4-3.1,5.2-4.6l0,0l4.6-16.8l18-4.2l0.6,2.4c0.1-0.1,0.2-0.2,0.3-0.2l0,0
				c1.7-1.3,3.4-2.5,5.1-3.8l0,0c-1-0.7-2-1.4-3-2l0,0l-0.2-0.9l-0.9,0.2c-8.4-4.9-17.9-8.1-28.1-9l0,0c7.2-0.7,14.1-2.5,20.5-5.2
				l0,0l18.1,5.2c0,0.1,0,0.1,0,0.2l0,0c1.4-0.4,2.8-0.7,4.2-1.1l0,0c1.5-3.8,5.2-6.5,9.5-6.5l0,0c1.8,0,3.4,0.5,4.8,1.3l0,0
				c1.1-0.8,2.3-1.6,3.4-2.3l0,0c-1.2-0.8-2.4-1.6-3.9-2l0,0l10.3-37.2l17.6-4.1c0.1,0.1,0.3,0.2,0.5,0.3l0,0l4.4,17.5l-24.3,22.4
				c6.6-4.5,13.3-9,20.1-13.4l0,0l3.1-2.8l-0.2,1c1.5-1,3-2,4.6-2.9l0,0l0.5-1.9l3.2-0.4c3.5-2.2,7-4.3,10.4-6.4l0,0
				c-0.8-1-1.6-2.1-2.5-3.1l0,0l1.4-4.3c0.4,0,0.9,0.1,1.3,0.1l0,0c0.3,0,0.5,0,0.8,0l0,0l1.2,6c1.1-0.7,2.3-1.4,3.4-2.1l0,0
				l-0.9-4.6c1.8-0.6,3.4-1.6,4.8-2.8l0,0l3.1,3.3c1.1-0.7,2.2-1.3,3.3-2l0,0l-4-4.2c0.4-0.6,0.7-1.1,1-1.7l0,0l8.8,2.7
				c1.5-0.9,3-1.7,4.5-2.6l0,0l-12.2-3.7c0.1-0.7,0.2-1.5,0.2-2.2l0,0c0-1.1-0.1-2.1-0.4-3.2l0,0l37.1-9.1l3.1,3.4
				c1.2-0.6,2.4-1.1,3.5-1.7l0,0l-3.4-3.8l5.6-6.1c0.1,0.3,0.2,0.6,0.3,0.9l0,0l1.4-1.1c0.8,2.4,1.4,4.8,2,7.3l0,0
				c1.2-0.6,2.3-1.1,3.5-1.7l0,0c-0.6-2.8-1.4-5.5-2.3-8.1l0,0l2.5-2l7.1,6.6c2-0.9,4.1-1.8,6.1-2.8l0,0l-6.6-33.1
				c1.8-0.6,3.4-1.6,4.8-2.8l0,0l24.5,26.1c1.7-0.7,3.3-1.4,4.9-2.1l0,0l-1.8-12.9l13.3-3.9l7.9,9.2c1.9-0.7,3.8-1.4,5.7-2.1l0,0
				c2.4-6.1,3.9-12.6,4.4-19.4l0,0c1-0.1,2.1-0.1,3.1-0.1l0,0c2.1,0,4.2,0.1,6.2,0.3l0,0l4.6,11.7l-1.4,1.3
				c5.4-1.9,10.8-3.8,16.2-5.7l0,0l-11.4,2.7l-3.7-9.4c6.3,1,12.4,3,17.9,5.8l0,0c1.7-0.6,3.3-1.1,5-1.6l0,0
				c-8.2-4.6-17.3-7.6-27.1-8.5l0,0c16.6-1.5,31.4-9,42.4-20.2l0,0l19-5.4c0.1,0.3,0.3,0.6,0.5,0.9l0,0l-19.4,16.6
				c0,0.5,0.1,1.1,0.1,1.6l0,0c0,1.1-0.1,2.2-0.1,3.3l0,0l21.7-18.6c1.4,1.3,3,2.4,4.8,3.1l0,0l-4.7,14.8c1.5-0.5,3-1.1,4.5-1.6l0,0
				l3.9-12.4c0.4,0,0.9,0.1,1.3,0.1l0,0c0.3,0,0.5,0,0.8,0l0,0l1.9,9.5c1.2-0.4,2.4-0.9,3.6-1.3l0,0l-1.8-8.9
				c1.8-0.6,3.4-1.6,4.8-2.8l0,0l7.2,7.7c1.3-0.5,2.5-1,3.8-1.5l0,0l-8.5-9c0.4-0.6,0.7-1.1,1-1.7l0,0l19,5.8
				c1.7-0.8,3.4-1.6,5.1-2.4l0,0l-23-7c0.1-0.7,0.2-1.5,0.2-2.2l0,0c0-1.1-0.1-2.1-0.4-3.2l0,0l37.1-9.1l7.7,8.4c1-0.8,2-1.5,3-2.3
				l0,0l-7.6-8.2l6.9-7.5c1.6,4.4,2.7,9.1,3.3,13.8l0,0c1.2-0.8,2.3-1.6,3.5-2.5l0,0c-0.5-3.4-1.3-6.8-2.4-10.1l0,0
				c25.1-9.7,43.1-33.8,43.8-62.1l0,0l0.2-0.2l-0.2-0.2c0-0.4,0-0.9,0-1.3l0,0c0-8.5-1.6-16.7-4.5-24.2l0,0L468.6,0z M308.4,6.5
				l6.5-6.1c1.5,1.2,3.1,2.1,4.9,2.6l0,0l-1.9,7C314.9,8.6,311.7,7.4,308.4,6.5 M148.7,12.5l11-10.2c-0.5,6.3-2,12.4-4.2,18.1l0,0
				L148.7,12.5z M464.7,9.8l6.9-7.5c2.2,6,3.5,12.4,3.7,19l0,0L464.7,9.8z M107.1,4.5c0.4-0.6,0.7-1.1,1-1.7l0,0l31.5,9.6L128,15.7
				l1.9,13L107.1,4.5z M325.6,3.4l3.4,12.8c-1.1-0.8-2.3-1.6-3.5-2.3l0,0l-0.2-0.9l-0.9,0.2c-0.9-0.6-1.9-1.1-2.9-1.6l0,0l2.2-8.1
				c0.1,0,0.2,0,0.2,0l0,0C324.5,3.5,325,3.5,325.6,3.4 M364.7,24l-3.5-13.5L374.6,6l8.2,10c-1.6,3.6-3.6,7.1-5.8,10.3l0,0L364.7,24
				z M2.3,26.3C3.1,21.6,3.6,16.8,4,12l0,0l1.5-5.3l17.8,4.9L32.2,49c-1.7,0.6-3.2,1.4-4.5,2.6l0,0L2.3,26.3z M387.3,14.6
				c1-2.5,1.8-5,2.5-7.6l0,0l9.4,9.3c-0.3,0.5-0.6,0.9-0.8,1.4l0,0L387.3,14.6z M162.2,11.1c0.3-1.3,0.5-2.6,0.7-4l0,0
				c5.6,1.1,11,3,16,5.5l0,0L164.2,16L162.2,11.1z M107.2,46.8l-7.3-36.7c1.8-0.6,3.4-1.6,4.8-2.8l0,0l25.7,27.4l-5.7,17.5
				L107.2,46.8z M41.1,48.9l10.3-37.2l18-4.2l4.5,17.9l-28.2,26C44.3,50.2,42.8,49.4,41.1,48.9 M283.9,23.3
				c1.6-4.9,2.5-10.1,2.9-15.4l0,0c1.1-0.1,2.5-0.2,3.1-0.2l0,0c2.1,0,4.2,0.1,6.2,0.3l0,0l4.6,11.7L290,29.4L283.9,23.3z
				 M272.1,18.1l11-10.2c-0.5,6.3-2,12.4-4.2,18.1l0,0L272.1,18.1z M230.5,10.1c0.4-0.6,0.7-1.1,1-1.7l0,0L263,18l-11.6,3.4l1.9,13
				L230.5,10.1z M300.4,8.5c6.5,1.1,12.7,3.1,18.4,6l0,0L304.2,18L300.4,8.5z M188.3,13.8l17.9-5.1c0.1,0.3,0.3,0.6,0.5,0.9l0,0
				l-11.3,9.7C193.1,17.3,190.8,15.5,188.3,13.8 M73.7,9.2c5.3,3.7,10.1,8.2,14,13.3l0,0l-10.4,1.3L73.7,9.2z M102.3,42.6
				c-2.4-8.1-6.3-15.6-11.3-22.1l0,0l3.1-9.7c0.4,0,0.9,0.1,1.3,0.1l0,0c0.3,0,0.5,0,0.8,0l0,0l6.4,32L102.3,42.6z M424.7,26.4
				c0.1-0.7,0.2-1.5,0.2-2.2l0,0c0-1.1-0.1-2.1-0.4-3.2l0,0l37.1-9.1L474,25.5l-12.9,12L424.7,26.4z M198.1,21.9l10.9-9.3
				c1.4,1.3,3,2.4,4.8,3.1l0,0l-5.9,18.5C205.1,29.7,201.8,25.6,198.1,21.9 M230.6,52.5l-7.4-36.7c1.8-0.6,3.4-1.6,4.8-2.8l0,0
				l25.7,27.4L248,58L230.6,52.5z M400.6,24.2c0-5.7,4.6-10.2,10.2-10.2l0,0c5.6,0,10.2,4.6,10.2,10.2l0,0c0,5.6-4.6,10.2-10.2,10.2
				l0,0C405.2,34.5,400.6,29.9,400.6,24.2 M134.2,32.5l-2-14l13.3-3.9l8.4,9.8c-1.7,3.6-3.7,7-6,10.3l0,0L134.2,32.5z M154.3,57
				l10.3-37.2l18-4.2l4.5,17.9l-28.2,26C157.5,58.4,155.9,57.6,154.3,57 M46.3,15.9l-8.9,32.3c-0.2,0-0.4,0-0.6,0l0,0
				c-0.3,0-0.6,0-0.9,0l0,0l-7.6-32.1l8.5,8.5L46.3,15.9z M210.4,38.6l7-22c0.4,0,0.9,0.1,1.3,0.1l0,0c0.3,0,0.5,0,0.8,0l0,0l6.4,32
				l-9-8.4l-4.1,3.3C212,41.8,211.2,40.2,210.4,38.6 M186.8,17.4c5.3,3.7,10.1,8.2,14,13.3l0,0L190.5,32L186.8,17.4z M294.3,58.9
				l10.3-37.2l18-4.2l4.5,17.9l-28.2,26C297.5,60.3,295.9,59.5,294.3,58.9 M385.8,18.1l11.3,3.2c-0.2,0.9-0.3,1.9-0.3,2.9l0,0
				c0,0.9,0.1,1.7,0.2,2.6l0,0l-20.2,5.8C380.5,28.1,383.5,23.2,385.8,18.1 M0.4,24.4l1.8-6.2v7.9L0.4,24.4z M326.8,19.3
				c5.3,3.7,10.1,8.2,14,13.3l0,0L330.5,34L326.8,19.3z M257.6,38.1l-2-14l13.3-3.9l8.4,9.8c-1.7,3.6-3.7,7-6,10.3l0,0L257.6,38.1z
				 M145.8,42.9c4.5-4.9,8.2-10.5,11.1-16.6l0,0l2.5-2.3l-8.9,32.3c-0.2,0-0.4,0-0.6,0l0,0c-0.3,0-0.6,0-0.9,0l0,0L145.8,42.9z
				 M299.5,26l-8.9,32.3c-0.2,0-0.4,0-0.6,0l0,0c-0.3,0-0.6,0-0.9,0l0,0L282,28.5c0.2-0.4,0.3-0.9,0.5-1.3l0,0l7.5,7.5L299.5,26z
				 M74.2,41.5l3.2-13.8L90.3,26c2.2,3.3,4.1,6.7,5.7,10.4l0,0l-8.4,9.2L74.2,41.5z M364.5,27.8l10,1.9c-3.1,4-6.8,7.6-11,10.8l0,0
				c-0.9,0.1-1.8,0.2-2.7,0.3l0,0L364.5,27.8z M464.2,39.8l11-10.2c-0.5,6.3-2,12.4-4.2,18.1l0,0L464.2,39.8z M422.6,31.8
				c0.4-0.6,0.7-1.1,1-1.7l0,0l31.5,9.6L443.5,43l1.9,13L422.6,31.8z M371.6,38.4l26.6-8.1c0.1,0.3,0.3,0.6,0.5,0.9l0,0l-12.7,10.8
				c-3.1-0.7-6.3-1.3-9.6-1.6l0,0h-7.1C370.1,39.8,370.9,39.1,371.6,38.4 M48.2,54.1l24.5-22.5L69.7,44l11.4,3.5l-32,7.9
				C48.8,55,48.5,54.5,48.2,54.1 M268.5,49.4c4.3-4.6,8-9.7,10.9-15.3l0,0l5.9,25c-1.7,0.6-3.2,1.4-4.5,2.6l0,0L268.5,49.4z
				 M187.4,49.6l3.2-13.8l12.8-1.7c1,1.5,2,3.1,2.9,4.7l0,0l0,0.1c0.9,1.6,1.7,3.2,2.4,4.9l0,0l0-0.1c0.1,0.3,0.3,0.5,0.4,0.8l0,0
				l-8.4,9.2L187.4,49.6z M390.5,43.3l10.6-9c1.4,1.3,3,2.4,4.8,3.1l0,0l-3.5,11C398.6,46.2,394.6,44.6,390.5,43.3 M430.6,76.6
				c-2.8-5.3-6.3-10.1-10.3-14.5l0,0l-4.9-24.6c1.8-0.6,3.4-1.6,4.8-2.8l0,0l25.7,27.4l-5.7,17.5L430.6,76.6z M327.4,51.5l3.2-13.8
				l12.8-1.7c2.2,3.3,4.1,6.7,5.7,10.4l0,0l-8.5,9.2L327.4,51.5z M133.9,36.2l11.3,1.7c-3.9,4.8-8.6,8.9-13.7,12.4l0,0l-0.8-0.8
				c-0.5,0.4-1,0.8-1.5,1.2l0,0L133.9,36.2z M405.7,50.2L405.7,50.2l3.8-12c0.4,0,0.9,0.1,1.3,0.1l0,0c0.3,0,0.5,0,0.8,0l0,0
				l3.9,19.2C412.4,54.7,409.2,52.3,405.7,50.2 M161.4,62.2l24.5-22.5l-2.9,12.5l11.4,3.5l-32,7.9C162,63.1,161.7,62.7,161.4,62.2
				 M90.7,47.8l6.9-7.5c1.8,4.9,2.9,10,3.4,15.3l0,0l-0.3,0.8c0.1,0.8,0,1.6,0.1,2.4l0,0L90.7,47.8z M301.4,64.2l24.5-22.5
				l-2.9,12.5l11.4,3.5l-32,7.9C302,65.1,301.7,64.6,301.4,64.2 M449.7,59.8l-2-14l13.3-3.9l8.4,9.8c-1.7,3.6-3.7,7-6,10.3l0,0
				L449.7,59.8z M257.3,41.9l11.3,1.7c-4.7,5.6-10.2,10.5-16.5,14.3l0,0L257.3,41.9z M360.4,55.9l4.1-11.7c1.9-0.2,3.8-0.3,5.7-0.3
				l0,0c2.1,0,4.2,0.1,6.2,0.3l0,0l4.6,11.7l-10.8,9.8L360.4,55.9z M355.7,53.7c-0.7-2.6-1.6-5.1-2.6-7.5l0,0
				c2.3-0.6,4.7-1.2,7.2-1.6l0,0l-3.3,9.4L355.7,53.7z M380.6,44.8c6.5,1.1,12.7,3.1,18.4,6l0,0l-14.6,3.4L380.6,44.8z M218.2,67.1
				c-0.3-7-1.7-13.7-4-20l0,0l2.5-2l10.1,9.4L222.4,67c-1.2,0.1-2.4,0.1-3.7,0.1l0,0C218.5,67.1,218.4,67.1,218.2,67.1 M134.2,53.1
				c3-2.1,5.9-4.4,8.5-7l0,0l2.6,11.1c-1.6,0.6-3.2,1.4-4.5,2.6l0,0L134.2,53.1z M203.8,55.9l6.8-7.4c0.1,0.4,0.3,0.7,0.4,1.1l0,0
				l0,0c1.9,5.7,3.1,11.6,3.4,17.9l0,0L203.8,55.9z M50.6,64.4c0.1-0.7,0.2-1.5,0.2-2.2l0,0c0-1.1-0.1-2.1-0.4-3.2l0,0l37.1-9.1
				L100,63.5l-12.9,12L50.6,64.4z M343.8,57.9l6.9-7.5c0.5,1.4,1,2.9,1.4,4.4l0,0c0.1,0.4,0.1,0.7,0.2,1.1l0,0
				c0.1,0.3,0.1,0.6,0.2,0.9l0,0l0.2,0c1,4.1,1.7,8.3,1.9,12.6l0,0L343.8,57.9z M104.8,56.1l1.9-5.4l15.6,4.9
				c-5.4,2.5-11.2,4.2-17.2,5.1l0,0C105.1,59.2,105,57.6,104.8,56.1 M26.6,62.2c0-5.7,4.6-10.2,10.2-10.2l0,0
				c5.6,0,10.2,4.6,10.2,10.2l0,0c0,5.6-4.6,10.2-10.2,10.2l0,0C31.1,72.4,26.6,67.8,26.6,62.2 M256.1,59.7c3.5-2.3,6.7-4.9,9.7-7.7
				l0,0l12.5,12.4c-0.3,0.5-0.6,0.9-0.8,1.4l0,0L256.1,59.7z M374.5,95.2L384.8,58l18-4.2l4.5,17.9l-28.2,26
				C377.7,96.6,376.2,95.7,374.5,95.2 M122.4,59.6c3-1.3,5.9-2.7,8.6-4.4l0,0l7.3,7.3c-0.3,0.5-0.6,0.9-0.8,1.4l0,0L122.4,59.6z
				 M407,55.6c5.3,3.7,10.1,8.2,14,13.3l0,0l-10.4,1.3L407,55.6z M230.1,56.3l15.6,4.9c-6,2.8-12.4,4.6-19.2,5.4l0,0L230.1,56.3z
				 M163.8,72.6c0.1-0.7,0.2-1.5,0.2-2.2l0,0c0-1.1-0.1-2.1-0.4-3.2l0,0l37.1-9.1l12.5,13.6l-12.9,12L163.8,72.6z M355.3,92.1
				c1.8-5.8,2.8-11.9,2.9-18.2l0,0l0.2-0.2l-0.2-0.2c0-0.4,0-0.9,0-1.3l0,0c0-4.3-0.4-8.4-1.2-12.5l0,0l8.4,35.5
				c-1.7,0.6-3.2,1.4-4.5,2.6l0,0L355.3,92.1z M303.8,74.5c0.1-0.7,0.2-1.5,0.2-2.2l0,0c0-1.1-0.1-2.1-0.4-3.2l0,0l37.1-9.1
				l12.5,13.6l-12.9,12L303.8,74.5z M139.7,70.3c0-5.7,4.6-10.2,10.2-10.2l0,0c5.6,0,10.2,4.6,10.2,10.2l0,0
				c0,5.6-4.6,10.2-10.2,10.2l0,0C144.3,80.6,139.7,76,139.7,70.3 M225,70.6c10.2-0.9,19.7-4.2,28.1-9.1l0,0v1.2l23.1,6.6
				c-0.2,0.9-0.3,1.9-0.3,2.9l0,0c0,0.9,0.1,1.7,0.2,2.6l0,0l-21.1,6c-0.3-0.2-0.5-0.4-0.8-0.5l0,0l-0.2-0.9l-0.9,0.2
				C244.7,74.7,235.2,71.6,225,70.6 M105,65.4c0-0.3,0.1-0.6,0.1-0.9l0,0c3.9-0.6,7.8-1.5,11.4-2.7l0,0l19.7,5.6
				c-0.2,0.9-0.3,1.9-0.3,2.9l0,0c0,0.9,0.1,1.7,0.2,2.6l0,0l-5.3,1.5l-0.2-0.6l-0.9,0.2C122.3,69.6,113.9,66.6,105,65.4
				 M279.7,72.3c0-5.7,4.6-10.2,10.2-10.2l0,0c5.6,0,10.2,4.6,10.2,10.2l0,0c0,5.6-4.6,10.2-10.2,10.2l0,0
				C284.3,82.5,279.7,77.9,279.7,72.3 M379.7,62.2l-8.9,32.3c-0.2,0-0.4,0-0.6,0l0,0c-0.3,0-0.6,0-0.9,0l0,0l-7.6-32.1l8.5,8.5
				L379.7,62.2z M449.4,63.5l11.3,1.7c-4.6,5.6-10.2,10.5-16.5,14.3l0,0L449.4,63.5z M48.6,69.7c0.4-0.6,0.7-1.1,1-1.7l0,0L81,77.6
				L69.4,81l1.9,13L48.6,69.7z M90.2,77.7l10.4-9.7c0,0.2,0,0.5,0,0.7l0,0c0.1,0,0.3,0,0.4,0l0,0c-0.6,5.9-2,11.6-4.1,16.9l0,0
				L90.2,77.7z M105.8,69.3c6.5,1.1,12.7,3.1,18.4,6l0,0l-14.6,3.4L105.8,69.3z M407.6,87.8l3.2-13.8l12.8-1.7
				c2.2,3.3,4.1,6.7,5.7,10.4l0,0l-8.5,9.2L407.6,87.8z M48.6,112.1l-7.3-36.7c1.8-0.6,3.4-1.6,4.8-2.8l0,0l25.7,27.4l-5.7,17.5
				L48.6,112.1z M214.8,91.8c1.9-5.6,3-11.5,3.3-17.7l0,0c0.2,0,0.4,0,0.6,0l0,0c2.1,0,4.2,0.1,6.2,0.3l0,0l4.6,11.7l-10.8,9.8
				L214.8,91.8z M103.9,74.7l2.3,5.7l-5.1,4.6C102.3,81.7,103.3,78.3,103.9,74.7 M229.2,75c6.5,1.1,12.7,3.1,18.4,6l0,0L233,84.4
				L229.2,75z M203.3,85.9l11-10.2c-0.5,6.3-2,12.4-4.2,18.1l0,0L203.3,85.9z M35.5,76.1c0.4,0,0.9,0.1,1.3,0.1l0,0
				c0.3,0,0.5,0,0.8,0l0,0l6.4,32l-9-8.4l-9.4,7.5L35.5,76.1z M161.7,77.9c0.4-0.6,0.7-1.1,1-1.7l0,0l31.5,9.6l-11.6,3.4l1.9,13
				L161.7,77.9z M134.8,77.2l2.6-0.7c0.1,0.3,0.3,0.6,0.5,0.9l0,0l-1.4,1.2C135.9,78.1,135.3,77.6,134.8,77.2 M343.3,87.8l11-10.2
				c-0.3,3.9-1,7.8-2,11.5l0,0l-0.2-0.2c-0.3,1.4-0.7,2.9-1.1,4.3l0,0l0,0c-0.3,0.9-0.6,1.7-0.9,2.6l0,0L343.3,87.8z M381.6,100.4
				L406,77.9l-2.9,12.5l11.4,3.5l-32,7.9C382.2,101.3,381.9,100.9,381.6,100.4 M301.7,79.8c0.4-0.6,0.7-1.1,1-1.7l0,0l31.5,9.6
				l-11.6,3.4l1.9,13L301.7,79.8z M99.7,119.7L110,82.5l18-4.2l4.5,17.9l-28.2,26C102.9,121.1,101.3,120.2,99.7,119.7 M259.1,83.6
				l18.2-5.2c0.1,0.3,0.3,0.6,0.5,0.9l0,0L266,89.4C263.8,87.3,261.5,85.4,259.1,83.6 M75.7,97.7l-2-14l13.3-3.9l8.4,9.8
				c-1.7,3.6-3.7,7-6,10.3l0,0L75.7,97.7z M132.2,80.1c5.3,3.7,10.1,8.2,14,13.3l0,0l-10.4,1.3L132.2,80.1z M139.5,80.9l0.7-0.6
				c1.4,1.3,3,2.4,4.8,3.1l0,0l-0.6,2C142.8,83.8,141.1,82.3,139.5,80.9 M162.5,120.5c-0.7-3.5-1.6-7-2.8-10.3l0,0l-5.3-26.6
				c1.8-0.6,3.4-1.6,4.8-2.8l0,0l25.7,27.4l-5.7,17.5L162.5,120.5z M432.8,81.3l5,1.6c-1.2,0.6-2.5,1.1-3.7,1.5l0,0
				C433.7,83.4,433.3,82.3,432.8,81.3 M268.6,92.1l11.5-9.8c1.4,1.3,3,2.4,4.8,3.1l0,0l-6.4,20.2C275.8,100.7,272.4,96.1,268.6,92.1
				 M301.8,122.2l-7.4-36.7c1.8-0.6,3.4-1.6,4.8-2.8l0,0l25.8,27.4l-5.7,17.5L301.8,122.2z M223.1,125.4l10.3-37.2l18-4.2l4.5,17.9
				l-28.2,26C226.3,126.7,224.7,125.9,223.1,125.4 M147.2,88.6l1.4-4.3c0.4,0,0.9,0.1,1.3,0.1l0,0c0.3,0,0.5,0,0.8,0l0,0l2.5,12.4
				C151.4,93.9,149.4,91.1,147.2,88.6 M255.6,85.7c5.3,3.7,10.1,8.2,14,13.3l0,0l-10.4,1.3L255.6,85.7z M280.9,110.4l7.7-24.2
				c0.4,0,0.9,0.1,1.3,0.1l0,0c0.3,0,0.5,0,0.8,0l0,0l6.4,32l-9.1-8.4l-5.5,4.5C282,112.9,281.5,111.7,280.9,110.4 M90.9,103.9
				c2.5-3.3,4.8-6.8,6.7-10.5l0,0l7.3-6.7L95.9,119c-0.2,0-0.4,0-0.6,0l0,0c-0.3,0-0.6,0-0.9,0l0,0L90.9,103.9z M188.8,105.9l-2-14
				l13.3-3.9l8.4,9.8c-1.7,3.6-3.7,7-6,10.3l0,0L188.8,105.9z M328.8,107.8l-2-14l13.3-3.9l8.3,9.8c-0.5,1.1-1.1,2.1-1.8,3.1l0,0
				c0,0.1,0,0.1-0.1,0.2l0,0l0.1,0c-1.3,2.4-2.7,4.8-4.3,7l0,0L328.8,107.8z M228.3,92.4l-8.9,32.3c-0.2,0-0.4,0-0.6,0l0,0
				c-0.3,0-0.6,0-0.9,0l0,0l-6.1-25.5c0.5-1.1,1.1-2.3,1.6-3.5l0,0l5.3,5.3L228.3,92.4z M352.1,100.5c0.7-1.4,1.3-2.9,1.8-4.4l0,0
				l4.6,4.6c-0.3,0.5-0.6,0.9-0.8,1.4l0,0L352.1,100.5z M132.8,112.3l3.2-13.8l12.8-1.7c2.2,3.3,4.1,6.7,5.7,10.4l0,0l-8.5,9.2
				L132.8,112.3z M359.9,108.5c0-5.7,4.6-10.2,10.2-10.2l0,0c5.6,0,10.2,4.6,10.2,10.2l0,0c0,5.6-4.6,10.2-10.2,10.2l0,0
				C364.5,118.7,359.9,114.2,359.9,108.5 M75.4,101.5l11.3,1.7c-4.7,5.6-10.2,10.5-16.5,14.3l0,0L75.4,101.5z M106.8,124.9
				l24.5-22.5l-2.9,12.5l11.4,3.5l-32,7.9C107.4,125.8,107.1,125.4,106.8,124.9 M256.2,118l3.2-13.8l12.8-1.7
				c2.2,3.3,4.1,6.7,5.7,10.4l0,0l-8.5,9.2L256.2,118z M350.5,103.9l6,1.7c-0.2,0.9-0.3,1.9-0.3,2.9l0,0c0,0.9,0.1,1.7,0.2,2.6l0,0
				l-13.1,3.7C346,111.4,348.4,107.8,350.5,103.9 M163.3,139.5c0.1-0.8,0.1-1.5,0.2-2.3l0,0c19.5-3.9,36-16.2,45.6-32.9l0,0l5,21.1
				c-1.7,0.6-3.2,1.4-4.5,2.6l0,0l-10.5-10.4c-0.8,0.9-1.7,1.9-2.6,2.8l0,0l10.5,10.4c-0.3,0.5-0.6,0.9-0.8,1.4l0,0l-17.3-4.9
				c0,0-0.1,0.1-0.1,0.1l0,0c-1.4,1.1-2.9,1.9-4.5,2.5l0,0l20.7,5.9c-0.2,0.9-0.3,1.9-0.3,2.9l0,0c0,0.9,0.1,1.7,0.2,2.6l0,0l-21,6
				C177.7,143.6,170.7,141,163.3,139.5 M28.7,126.2l-4.6-13l10.6-8.6l10.1,9.4l-4.4,12.5c-1.2,0.1-2.4,0.1-3.7,0.1l0,0
				C34.1,126.7,31.4,126.6,28.7,126.2 M79.4,115.5c3-2.4,5.9-5.1,8.5-8l0,0l2.9,12.3c-1.7,0.6-3.2,1.4-4.5,2.6l0,0L79.4,115.5z
				 M230.2,130.6l24.5-22.5l-2.9,12.5l11.4,3.5l-32,7.9C230.8,131.5,230.5,131,230.2,130.6 M188.5,109.6l11.3,1.7
				c-4.6,5.6-10.2,10.5-16.5,14.3l0,0L188.5,109.6z M149.3,118.6l6.9-7.5c2.2,6,3.5,12.4,3.7,19l0,0L149.3,118.6z M328.5,111.6
				l11.3,1.7c-4.6,5.6-10.2,10.5-16.5,14.3l0,0L328.5,111.6z M287,136.7c-0.2-6.5-1.3-12.8-3.2-18.7l0,0l4-3.2l10.1,9.4l-4.4,12.5
				c-1.2,0.1-2.4,0.1-3.7,0.1l0,0C289,136.8,288,136.8,287,136.7 M4.4,118l16.3-3.2l3.8,10.8C17.3,124.2,10.5,121.6,4.4,118
				 M48.2,115.9l15.6,4.9c-6,2.8-12.4,4.6-19.2,5.4l0,0L48.2,115.9z M272.6,124.3l6.9-7.5c2.2,6,3.5,12.4,3.7,19l0,0L272.6,124.3z
				 M68.7,122.5c2.7-1.4,5.2-3,7.6-4.7l0,0l7.4,7.4c-0.3,0.5-0.6,0.9-0.8,1.4l0,0L68.7,122.5z M109.2,135.3c0.1-0.7,0.2-1.5,0.2-2.2
				l0,0c0-1.1-0.1-2.1-0.4-3.2l0,0l37.1-9.1l12.5,13.6l-12.9,12L109.2,135.3z M85.1,133c0-5.7,4.6-10.2,10.2-10.2l0,0
				c5.6,0,10.2,4.6,10.2,10.2l0,0c0,5.6-4.6,10.2-10.2,10.2l0,0C89.7,143.3,85.1,138.7,85.1,133 M163.7,133c0-2.8-0.2-5.6-0.5-8.4
				l0,0l13.7,4.3c-4.2,1.9-8.6,3.4-13.2,4.4l0,0C163.7,133.2,163.7,133.1,163.7,133 M43.1,130.2c7.2-0.7,14.1-2.5,20.5-5.2l0,0
				l18.1,5.2c-0.2,0.9-0.3,1.9-0.3,2.9l0,0c0,0.9,0.1,1.7,0.2,2.6l0,0l-11.2,3.2C62.2,134.1,52.9,131.1,43.1,130.2 M301.3,126
				l15.6,4.9c-6,2.8-12.4,4.6-19.2,5.4l0,0L301.3,126z M232.6,140.9c0.1-0.7,0.2-1.5,0.2-2.2l0,0c0-1.1-0.1-2.1-0.4-3.2l0,0
				l37.1-9.1l12.5,13.6L269,152L232.6,140.9z M208.5,138.7c0-5.7,4.6-10.2,10.2-10.2l0,0c5.6,0,10.2,4.6,10.2,10.2l0,0
				c0,5.6-4.6,10.2-10.2,10.2l0,0C213.1,148.9,208.5,144.3,208.5,138.7 M27.1,145.7l4.1-11.7c1.9-0.2,3.8-0.3,5.7-0.3l0,0
				c2.1,0,4.2,0.1,6.2,0.3l0,0l4.6,11.7l-10.8,9.8L27.1,145.7z M9.2,139.9c5.5-2.6,11.5-4.5,17.7-5.5l0,0l-3.3,9.4L9.2,139.9z
				 M47.3,134.6c6.5,1.1,12.7,3.1,18.4,6l0,0L51,144L47.3,134.6z M148.7,148.6l11-10.2c-0.5,6.3-2,12.4-4.2,18.1l0,0L148.7,148.6z
				 M107.1,140.6c0.4-0.6,0.7-1.1,1-1.7l0,0l31.5,9.6l-11.6,3.4l1.9,13L107.1,140.6z M74.7,141.5l8.1-2.3c0.1,0.3,0.3,0.6,0.5,0.9
				l0,0l-4.8,4.1C77.2,143.2,76,142.3,74.7,141.5 M0.4,160.5l5.1-17.7l17.8,4.9l8.9,37.4c-1.7,0.6-3.2,1.4-4.5,2.6l0,0L0.4,160.5z
				 M81.4,146.6l4.2-3.5c1.4,1.3,3,2.4,4.8,3.1l0,0l-2.3,7.1C86,150.8,83.8,148.6,81.4,146.6 M162.2,147.2c0.3-1.3,0.5-2.6,0.7-4
				l0,0c5.6,1.1,11,3,15.9,5.5l0,0l-14.6,3.4L162.2,147.2z M107.2,182.9l-7.3-36.7c1.8-0.6,3.4-1.6,4.8-2.8l0,0l25.7,27.4l-5.7,17.5
				L107.2,182.9z M41.1,185l10.3-37.2l18-4.2l4.5,17.9l-28.2,26C44.3,186.3,42.8,185.5,41.1,185 M272.1,154.2l11-10.2
				c-0.5,6.3-2,12.4-4.2,18.1l0,0L272.1,154.2z M230.5,146.2c0.4-0.6,0.7-1.1,1-1.7l0,0l31.5,9.6l-11.6,3.4l1.9,13L230.5,146.2z
				 M188.3,149.9l17.9-5.1c0.1,0.3,0.3,0.6,0.5,0.9l0,0l-11.3,9.7C193.1,153.4,190.8,151.6,188.3,149.9 M73.7,145.3
				c5.3,3.7,10.1,8.2,14,13.3l0,0L77.3,160L73.7,145.3z M102.3,178.7c-2.4-8.1-6.3-15.6-11.3-22.1l0,0L94,147c0.4,0,0.9,0.1,1.3,0.1
				l0,0c0.3,0,0.5,0,0.8,0l0,0l6.4,32L102.3,178.7z M198.1,158l10.9-9.3c1.4,1.3,3,2.4,4.8,3.1l0,0l-5.9,18.5
				C205.1,165.8,201.8,161.7,198.1,158 M134.2,168.6l-2-14l13.3-3.9l8.4,9.8c-1.7,3.6-3.7,7-6,10.3l0,0L134.2,168.6z M154.3,193.1
				l10.3-37.2l18-4.2l4.5,17.9l-28.2,26C157.5,194.5,155.9,193.7,154.3,193.1 M46.3,152l-8.9,32.3c-0.2,0-0.4,0-0.6,0l0,0
				c-0.3,0-0.6,0-0.9,0l0,0l-7.6-32.1l8.5,8.5L46.3,152z M210.4,174.7l7-22c0.4,0,0.9,0.1,1.3,0.1l0,0c0.3,0,0.5,0,0.8,0l0,0l6.4,32
				l-9-8.4l-4.1,3.3C212,177.9,211.2,176.3,210.4,174.7 M186.8,153.5c5.3,3.7,10.1,8.2,14,13.3l0,0l-10.4,1.3L186.8,153.5z
				 M145.8,179c4.5-4.9,8.2-10.5,11.1-16.6l0,0l2.5-2.3l-8.9,32.3c-0.2,0-0.4,0-0.6,0l0,0c-0.3,0-0.6,0-0.9,0l0,0L145.8,179z
				 M74.2,177.6l3.2-13.8l12.8-1.7c2.2,3.3,4.1,6.7,5.7,10.4l0,0l-8.4,9.2L74.2,177.6z M48.2,190.2l24.5-22.5l-2.9,12.5l11.4,3.5
				l-32,7.9C48.8,191.1,48.5,190.6,48.2,190.2 M187.4,185.7l3.2-13.8l12.8-1.7c1,1.5,2,3.1,2.9,4.7l0,0l-0.4,1.3
				c0.8,1.8,1.5,3.7,2.2,5.5l0,0l-7.4,8.1L187.4,185.7z M133.9,172.3l11.3,1.7c-0.1,0.2-0.3,0.3-0.4,0.5l0,0l0,0
				c-1,1.1-2,2.2-3.1,3.2l0,0l0.1,0.3c-3.9,4-8.2,7.5-13,10.4l0,0L133.9,172.3z M161.4,198.3l24.5-22.5l-2.9,12.5l11.4,3.5l-32,7.9
				C162,199.2,161.7,198.8,161.4,198.3 M90.7,183.9l6.8-7.4c0.4,1.3,0.9,2.7,1.2,4l0,0l0.3,0.3c1,3.5,1.7,7.2,2,10.9l0,0l-0.3,0.7
				c0.1,0.8,0.1,1.7,0.2,2.5l0,0L90.7,183.9z M208.7,179.9c0.1,0.3,0.3,0.5,0.4,0.8l0,0l-1,1.1L208.7,179.9z M134.2,189.2
				c3-2.1,5.9-4.4,8.5-7l0,0l2.6,11.1c-1.6,0.6-3.2,1.4-4.5,2.6l0,0L134.2,189.2z M50.6,200.5c0.1-0.7,0.2-1.5,0.2-2.2l0,0
				c0-1.1-0.1-2.1-0.4-3.2l0,0l37.1-9.1l12.5,13.6l-12.9,12L50.6,200.5z M104.8,192.2l1.9-5.5l15.6,4.9c-5.4,2.5-11.2,4.2-17.2,5.1
				l0,0C105.1,195.2,105,193.7,104.8,192.2 M26.6,198.3c0-5.7,4.6-10.2,10.2-10.2l0,0c5.6,0,10.2,4.6,10.2,10.2l0,0
				c0,5.6-4.6,10.2-10.2,10.2l0,0C31.1,208.5,26.6,203.9,26.6,198.3 M122.4,195.7c3-1.3,5.9-2.7,8.6-4.4l0,0l7.3,7.3
				c-0.3,0.5-0.6,0.9-0.8,1.4l0,0L122.4,195.7z M139.7,206.4c0-5.7,4.6-10.2,10.2-10.2l0,0c5.6,0,10.2,4.6,10.2,10.2l0,0
				c0,5.6-4.6,10.2-10.2,10.2l0,0C144.3,216.7,139.7,212.1,139.7,206.4 M105,201.5c0-0.3,0.1-0.6,0.1-0.9l0,0
				c5-0.7,9.8-1.9,14.4-3.7l0,0c-0.7,0.4-1.4,0.9-2.1,1.3l0,0l18.8,5.4c-0.2,0.9-0.3,1.9-0.3,2.9l0,0c0,0.9,0.1,1.7,0.2,2.6l0,0
				l-5.3,1.5l-0.2-0.6l-0.9,0.2C122.3,205.7,113.9,202.7,105,201.5 M90.2,213.8l10.9-10.2c0,0.1,0,0.2,0,0.4l0,0
				c-0.6,6.2-2,12.1-4.1,17.7l0,0L90.2,213.8z M48.6,205.8c0.4-0.6,0.7-1.1,1-1.7l0,0l31.5,9.6l-11.6,3.4l1.9,13L48.6,205.8z
				 M105.8,205.4c6.5,1.1,12.7,3.1,18.4,6l0,0l-14.6,3.4L105.8,205.4z M48.6,248.2l-7.3-36.7c1.8-0.6,3.4-1.6,4.8-2.8l0,0l25.7,27.4
				l-5.7,17.5L48.6,248.2z M103.9,210.8l2.3,5.7l-5.1,4.6C102.3,217.8,103.3,214.3,103.9,210.8 M35.5,212.2c0.4,0,0.9,0.1,1.3,0.1
				l0,0c0.3,0,0.5,0,0.8,0l0,0l6.4,32l-9-8.4l-9.4,7.5L35.5,212.2z M134.7,213.3l2.6-0.7c0.1,0.3,0.3,0.6,0.5,0.9l0,0l-1.3,1.1
				C135.9,214.2,135.3,213.7,134.7,213.3 M75.7,233.8l-2-14l13.3-3.9l8.4,9.8c-1.7,3.6-3.7,7-6,10.3l0,0L75.7,233.8z M132.2,216.2
				c0.4,0.3,0.8,0.6,1.3,1l0,0l-0.9,0.7L132.2,216.2z M139.5,217l0.6-0.6c1.4,1.3,3,2.4,4.8,3.1l0,0l-0.6,2
				C142.8,219.9,141.2,218.4,139.5,217 M132.8,218.5c0.8,0.7,1.6,1.4,2.4,2.2l0,0l1.4-1.2c2.3,1.9,4.4,3.9,6.4,6.1l0,0l-1,3.1
				c0.3,0.4,0.5,0.8,0.8,1.2l0,0l-6.9,0.9L132.8,218.5z M90.9,240c2.5-3.3,4.8-6.8,6.7-10.5l0,0l7.3-6.7l-8.9,32.3
				c-0.2,0-0.4,0-0.6,0l0,0c-0.3,0-0.6,0-0.9,0l0,0L90.9,240z M75.4,237.6l11.3,1.7c-4.7,5.6-10.2,10.5-16.5,14.3l0,0L75.4,237.6z
				 M28.7,262.3l-4.6-13l10.6-8.6l10.1,9.4l-4.4,12.5c-1.2,0.1-2.4,0.1-3.7,0.1l0,0C34.1,262.8,31.4,262.7,28.7,262.3 M79.4,251.6
				c3-2.4,5.9-5.1,8.5-8l0,0l2.9,12.3c-1.7,0.6-3.2,1.4-4.5,2.6l0,0L79.4,251.6z M4.4,254.1l16.3-3.2l3.8,10.8
				C17.3,260.3,10.5,257.7,4.4,254.1 M48.2,252l15.6,4.9c-6,2.8-12.4,4.6-19.2,5.4l0,0L48.2,252z M68.7,258.6c2.7-1.4,5.2-3,7.6-4.7
				l0,0l7.4,7.4c-0.3,0.5-0.6,0.9-0.8,1.4l0,0L68.7,258.6z M27.1,281.8l4.1-11.7c1.9-0.2,3.8-0.3,5.7-0.3l0,0c2.1,0,4.2,0.1,6.2,0.3
				l0,0l4.6,11.7l-10.8,9.8L27.1,281.8z M9.2,276c5.5-2.6,11.5-4.5,17.7-5.5l0,0l-3.3,9.4L9.2,276z M47.3,270.7
				c6.5,1.1,12.7,3.1,18.4,6l0,0L51,280.1L47.3,270.7z"/>
		</defs>
		<clipPath id="SVGID_86_">
			<use xlink:href="#SVGID_85_"  style="overflow:visible;"/>
		</clipPath>
		
			<linearGradient id="path262_1_" gradientUnits="userSpaceOnUse" x1="185.894" y1="389.1362" x2="186.894" y2="389.1362" gradientTransform="matrix(1755.3608 0 0 -1755.3608 -327190.8438 683236.4375)">
			<stop  offset="0" style="stop-color:#FFC322"/>
			<stop  offset="9.134790e-02" style="stop-color:#FFC322"/>
			<stop  offset="0.48" style="stop-color:#EAAE20"/>
			<stop  offset="1" style="stop-color:#C77A3E"/>
		</linearGradient>
		<path id="path262" class="st42" d="M468.6,0l-7.1,7.7l-13.3-4.2l0.8-3.5h-3.9l-1.4,6.1l11.4,3.5l-32,7.9c-0.3-0.5-0.6-0.9-0.9-1.4
			l0,0L439.8,0h-5.6l-14.5,13.4c-1.3-1.1-2.9-1.9-4.5-2.5l0,0l3-10.9h-3.9l-2.8,10.2c-0.2,0-0.4,0-0.6,0l0,0c-0.3,0-0.6,0-0.9,0l0,0
			L407.5,0h-3.9l2.6,11c-1.7,0.6-3.2,1.4-4.5,2.6l0,0L391.2,3.1c-0.1,0.2-0.3,0.3-0.5,0.4l0,0c0.2-1.2,0.4-2.3,0.6-3.5l0,0h-3.8
			c-0.7,4.1-1.7,8.1-3.1,12l0,0l-6.6-8.1l3.8-3.9h-5.3l-1.6,1.6L368.8,0h-14.1l14.1,3.9L356.6,8l3,11.5L339.6,0h-5.4L361,26.2
			l-4.3,15.3c-1.7,0.3-3.4,0.8-5.1,1.3l0,0c-4.2-8.8-10.3-16.5-17.7-22.8l0,0l-4.7-17.5c0.7-0.3,1.3-0.6,2-1l0,0
			c0.7-0.4,1.3-0.9,1.9-1.5l0,0h-23.3L304,5.4c-2.6-0.5-5.2-0.9-7.8-1.2l0,0l-9.1,0l0.1-0.1l-0.2-0.2c0-0.4,0-0.9,0-1.3l0,0
			c0-0.9-0.1-1.7-0.1-2.6l0,0h-8.6l3.5,3.9l-12.9,12L232.6,4.8c0.1-0.7,0.2-1.5,0.2-2.2l0,0c0-0.9-0.1-1.7-0.3-2.6l0,0h-3.9
			c0.2,0.8,0.4,1.7,0.4,2.6l0,0c0,5.6-4.6,10.2-10.2,10.2l0,0c-5.6,0-10.2-4.6-10.2-10.2l0,0c0-0.9,0.2-1.8,0.4-2.6l0,0H205
			c-0.2,0.8-0.3,1.7-0.3,2.6l0,0c0,0.9,0.1,1.7,0.2,2.6l0,0l-21,6c-6.3-3.7-13.3-6.3-20.7-7.8l0,0c0.1-1.1,0.2-2.2,0.2-3.4l0,0h-7
			l-11,10.2L112,0h-6.9c-1.3,4.1-5.2,7.2-9.7,7.2l0,0c-4.6,0-8.4-3-9.7-7.2l0,0h-5.8l-7.7,2.2c1.3,0.9,2.6,1.9,3.8,2.8l0,0l6.9-2
			c0.1,0.3,0.3,0.6,0.5,0.9l0,0l-4.4,3.7c0.9,0.9,1.8,1.7,2.7,2.7l0,0l4-3.4c1.4,1.3,3,2.4,4.8,3.1l0,0l-2.3,7.1
			c-4.5-5.2-9.8-9.7-15.7-13.3l0,0l-0.2-0.9l-0.9,0.2c-2-1.2-4-2.2-6.1-3.1l0,0H54c4,1.1,8,2.6,11.6,4.4l0,0L51,7.9L47.9,0h-4.1
			l3.8,9.6l-10.8,9.8l-9.8-9.8L30.4,0h-4l-2.7,7.8l-14.5-4C12.5,2.2,15.9,1,19.5,0l0,0H8.6C7.2,0.7,5.8,1.3,4.4,2l0,0
			c0-0.3,0-0.5,0-0.8l0,0H2.2v2.1C1.4,3.8,0.7,4.3,0,4.7l0,0v4.5c0.4-0.3,0.7-0.5,1.1-0.8l0,0L0,12.2v32.4l4.3-1.3L1.5,30.8
			l23.7,23.5c-0.3,0.5-0.6,0.9-0.8,1.4l0,0L0,48.8v3.9l23.1,6.6c-0.2,0.9-0.3,1.9-0.3,2.9l0,0c0,0.9,0.1,1.7,0.2,2.6l0,0L0,71.3v3.9
			l24.2-6.9c0.1,0.3,0.3,0.6,0.5,0.9l0,0L0.3,90l3.2-9.8l-3.5-1v16l27-23.1c1.4,1.3,3,2.4,4.8,3.1l0,0L20.4,111l-18.1,3.6l-2.3-11
			v16.2c9,5.8,19.3,9.5,30.5,10.5l0,0c-9.6,0.9-18.6,3.8-26.7,8.2l0,0l-0.9-0.2l-0.3,0.9c-0.9,0.5-1.8,1.2-2.7,1.7l0,0v4.5
			c0.4-0.3,0.7-0.5,1.1-0.8l0,0L0,148.3v32.4l4.3-1.3l-2.8-12.5l23.7,23.5c-0.3,0.5-0.6,0.9-0.8,1.4l0,0l-24.4-7v3.9l23.1,6.6
			c-0.2,0.9-0.3,1.9-0.3,2.9l0,0c0,0.9,0.1,1.7,0.2,2.6l0,0l-23,6.6v3.9l24.2-6.9c0.1,0.3,0.3,0.6,0.5,0.9l0,0L0.3,226.1l3.2-9.8
			l-3.5-1v16l27-23.1c1.4,1.3,3,2.4,4.8,3.1l0,0l-11.3,35.7l-18.1,3.6l-2.3-11v16.2c9,5.8,19.3,9.5,30.5,10.5l0,0
			c-9.6,0.9-18.6,3.8-26.7,8.2l0,0l-0.9-0.2l-0.3,0.9c-0.9,0.5-1.8,1.2-2.7,1.7l0,0v4.5c0.4-0.3,0.7-0.5,1.1-0.8l0,0L0,284.4v32.4
			l4.3-1.3L1.5,303l21.3,21.1c0.8-0.9,1.7-1.9,2.5-2.8l0,0L0.4,296.6l5.1-17.7l17.8,4.9l7.5,31.7c1-1.1,2.1-2.1,3.1-3.2l0,0l-5.7-24
			l8.5,8.5l9.6-8.7l-4.7,17.1c1.7-1.6,3.4-3.1,5.2-4.6l0,0l4.6-16.8l18-4.2l0.6,2.4c0.1-0.1,0.2-0.2,0.3-0.2l0,0
			c1.7-1.3,3.4-2.5,5.1-3.8l0,0c-1-0.7-2-1.4-3-2l0,0l-0.2-0.9l-0.9,0.2c-8.4-4.9-17.9-8.1-28.1-9l0,0c7.2-0.7,14.1-2.5,20.5-5.2
			l0,0l18.1,5.2c0,0.1,0,0.1,0,0.2l0,0c1.4-0.4,2.8-0.7,4.2-1.1l0,0c1.5-3.8,5.2-6.5,9.5-6.5l0,0c1.8,0,3.4,0.5,4.8,1.3l0,0
			c1.1-0.8,2.3-1.6,3.4-2.3l0,0c-1.2-0.8-2.4-1.6-3.9-2l0,0l10.3-37.2l17.6-4.1c0.1,0.1,0.3,0.2,0.5,0.3l0,0l4.4,17.5l-24.3,22.4
			c6.6-4.5,13.3-9,20.1-13.4l0,0l3.1-2.8l-0.2,1c1.5-1,3-2,4.6-2.9l0,0l0.5-1.9l3.2-0.4c3.5-2.2,7-4.3,10.4-6.4l0,0
			c-0.8-1-1.6-2.1-2.5-3.1l0,0l1.4-4.3c0.4,0,0.9,0.1,1.3,0.1l0,0c0.3,0,0.5,0,0.8,0l0,0l1.2,6c1.1-0.7,2.3-1.4,3.4-2.1l0,0
			l-0.9-4.6c1.8-0.6,3.4-1.6,4.8-2.8l0,0l3.1,3.3c1.1-0.7,2.2-1.3,3.3-2l0,0l-4-4.2c0.4-0.6,0.7-1.1,1-1.7l0,0l8.8,2.7
			c1.5-0.9,3-1.7,4.5-2.6l0,0l-12.2-3.7c0.1-0.7,0.2-1.5,0.2-2.2l0,0c0-1.1-0.1-2.1-0.4-3.2l0,0l37.1-9.1l3.1,3.4
			c1.2-0.6,2.4-1.1,3.5-1.7l0,0l-3.4-3.8l5.6-6.1c0.1,0.3,0.2,0.6,0.3,0.9l0,0l1.4-1.1c0.8,2.4,1.4,4.8,2,7.3l0,0
			c1.2-0.6,2.3-1.1,3.5-1.7l0,0c-0.6-2.8-1.4-5.5-2.3-8.1l0,0l2.5-2l7.1,6.6c2-0.9,4.1-1.8,6.1-2.8l0,0l-6.6-33.1
			c1.8-0.6,3.4-1.6,4.8-2.8l0,0l24.5,26.1c1.7-0.7,3.3-1.4,4.9-2.1l0,0l-1.8-12.9l13.3-3.9l7.9,9.2c1.9-0.7,3.8-1.4,5.7-2.1l0,0
			c2.4-6.1,3.9-12.6,4.4-19.4l0,0c1-0.1,2.1-0.1,3.1-0.1l0,0c2.1,0,4.2,0.1,6.2,0.3l0,0l4.6,11.7l-1.4,1.3
			c5.4-1.9,10.8-3.8,16.2-5.7l0,0l-11.4,2.7l-3.7-9.4c6.3,1,12.4,3,17.9,5.8l0,0c1.7-0.6,3.3-1.1,5-1.6l0,0
			c-8.2-4.6-17.3-7.6-27.1-8.5l0,0c16.6-1.5,31.4-9,42.4-20.2l0,0l19-5.4c0.1,0.3,0.3,0.6,0.5,0.9l0,0l-19.4,16.6
			c0,0.5,0.1,1.1,0.1,1.6l0,0c0,1.1-0.1,2.2-0.1,3.3l0,0l21.7-18.6c1.4,1.3,3,2.4,4.8,3.1l0,0l-4.7,14.8c1.5-0.5,3-1.1,4.5-1.6l0,0
			l3.9-12.4c0.4,0,0.9,0.1,1.3,0.1l0,0c0.3,0,0.5,0,0.8,0l0,0l1.9,9.5c1.2-0.4,2.4-0.9,3.6-1.3l0,0l-1.8-8.9
			c1.8-0.6,3.4-1.6,4.8-2.8l0,0l7.2,7.7c1.3-0.5,2.5-1,3.8-1.5l0,0l-8.5-9c0.4-0.6,0.7-1.1,1-1.7l0,0l19,5.8
			c1.7-0.8,3.4-1.6,5.1-2.4l0,0l-23-7c0.1-0.7,0.2-1.5,0.2-2.2l0,0c0-1.1-0.1-2.1-0.4-3.2l0,0l37.1-9.1l7.7,8.4c1-0.8,2-1.5,3-2.3
			l0,0l-7.6-8.2l6.9-7.5c1.6,4.4,2.7,9.1,3.3,13.8l0,0c1.2-0.8,2.3-1.6,3.5-2.5l0,0c-0.5-3.4-1.3-6.8-2.4-10.1l0,0
			c25.1-9.7,43.1-33.8,43.8-62.1l0,0l0.2-0.2l-0.2-0.2c0-0.4,0-0.9,0-1.3l0,0c0-8.5-1.6-16.7-4.5-24.2l0,0L468.6,0z M308.4,6.5
			l6.5-6.1c1.5,1.2,3.1,2.1,4.9,2.6l0,0l-1.9,7C314.9,8.6,311.7,7.4,308.4,6.5 M148.7,12.5l11-10.2c-0.5,6.3-2,12.4-4.2,18.1l0,0
			L148.7,12.5z M464.7,9.8l6.9-7.5c2.2,6,3.5,12.4,3.7,19l0,0L464.7,9.8z M107.1,4.5c0.4-0.6,0.7-1.1,1-1.7l0,0l31.5,9.6L128,15.7
			l1.9,13L107.1,4.5z M325.6,3.4l3.4,12.8c-1.1-0.8-2.3-1.6-3.5-2.3l0,0l-0.2-0.9l-0.9,0.2c-0.9-0.6-1.9-1.1-2.9-1.6l0,0l2.2-8.1
			c0.1,0,0.2,0,0.2,0l0,0C324.5,3.5,325,3.5,325.6,3.4 M364.7,24l-3.5-13.5L374.6,6l8.2,10c-1.6,3.6-3.6,7.1-5.8,10.3l0,0L364.7,24z
			 M2.3,26.3C3.1,21.6,3.6,16.8,4,12l0,0l1.5-5.3l17.8,4.9L32.2,49c-1.7,0.6-3.2,1.4-4.5,2.6l0,0L2.3,26.3z M387.3,14.6
			c1-2.5,1.8-5,2.5-7.6l0,0l9.4,9.3c-0.3,0.5-0.6,0.9-0.8,1.4l0,0L387.3,14.6z M162.2,11.1c0.3-1.3,0.5-2.6,0.7-4l0,0
			c5.6,1.1,11,3,16,5.5l0,0L164.2,16L162.2,11.1z M107.2,46.8l-7.3-36.7c1.8-0.6,3.4-1.6,4.8-2.8l0,0l25.7,27.4l-5.7,17.5
			L107.2,46.8z M41.1,48.9l10.3-37.2l18-4.2l4.5,17.9l-28.2,26C44.3,50.2,42.8,49.4,41.1,48.9 M283.9,23.3
			c1.6-4.9,2.5-10.1,2.9-15.4l0,0c1.1-0.1,2.5-0.2,3.1-0.2l0,0c2.1,0,4.2,0.1,6.2,0.3l0,0l4.6,11.7L290,29.4L283.9,23.3z
			 M272.1,18.1l11-10.2c-0.5,6.3-2,12.4-4.2,18.1l0,0L272.1,18.1z M230.5,10.1c0.4-0.6,0.7-1.1,1-1.7l0,0L263,18l-11.6,3.4l1.9,13
			L230.5,10.1z M300.4,8.5c6.5,1.1,12.7,3.1,18.4,6l0,0L304.2,18L300.4,8.5z M188.3,13.8l17.9-5.1c0.1,0.3,0.3,0.6,0.5,0.9l0,0
			l-11.3,9.7C193.1,17.3,190.8,15.5,188.3,13.8 M73.7,9.2c5.3,3.7,10.1,8.2,14,13.3l0,0l-10.4,1.3L73.7,9.2z M102.3,42.6
			c-2.4-8.1-6.3-15.6-11.3-22.1l0,0l3.1-9.7c0.4,0,0.9,0.1,1.3,0.1l0,0c0.3,0,0.5,0,0.8,0l0,0l6.4,32L102.3,42.6z M424.7,26.4
			c0.1-0.7,0.2-1.5,0.2-2.2l0,0c0-1.1-0.1-2.1-0.4-3.2l0,0l37.1-9.1L474,25.5l-12.9,12L424.7,26.4z M198.1,21.9l10.9-9.3
			c1.4,1.3,3,2.4,4.8,3.1l0,0l-5.9,18.5C205.1,29.7,201.8,25.6,198.1,21.9 M230.6,52.5l-7.4-36.7c1.8-0.6,3.4-1.6,4.8-2.8l0,0
			l25.7,27.4L248,58L230.6,52.5z M400.6,24.2c0-5.7,4.6-10.2,10.2-10.2l0,0c5.6,0,10.2,4.6,10.2,10.2l0,0c0,5.6-4.6,10.2-10.2,10.2
			l0,0C405.2,34.5,400.6,29.9,400.6,24.2 M134.2,32.5l-2-14l13.3-3.9l8.4,9.8c-1.7,3.6-3.7,7-6,10.3l0,0L134.2,32.5z M154.3,57
			l10.3-37.2l18-4.2l4.5,17.9l-28.2,26C157.5,58.4,155.9,57.6,154.3,57 M46.3,15.9l-8.9,32.3c-0.2,0-0.4,0-0.6,0l0,0
			c-0.3,0-0.6,0-0.9,0l0,0l-7.6-32.1l8.5,8.5L46.3,15.9z M210.4,38.6l7-22c0.4,0,0.9,0.1,1.3,0.1l0,0c0.3,0,0.5,0,0.8,0l0,0l6.4,32
			l-9-8.4l-4.1,3.3C212,41.8,211.2,40.2,210.4,38.6 M186.8,17.4c5.3,3.7,10.1,8.2,14,13.3l0,0L190.5,32L186.8,17.4z M294.3,58.9
			l10.3-37.2l18-4.2l4.5,17.9l-28.2,26C297.5,60.3,295.9,59.5,294.3,58.9 M385.8,18.1l11.3,3.2c-0.2,0.9-0.3,1.9-0.3,2.9l0,0
			c0,0.9,0.1,1.7,0.2,2.6l0,0l-20.2,5.8C380.5,28.1,383.5,23.2,385.8,18.1 M0.4,24.4l1.8-6.2v7.9L0.4,24.4z M326.8,19.3
			c5.3,3.7,10.1,8.2,14,13.3l0,0L330.5,34L326.8,19.3z M257.6,38.1l-2-14l13.3-3.9l8.4,9.8c-1.7,3.6-3.7,7-6,10.3l0,0L257.6,38.1z
			 M145.8,42.9c4.5-4.9,8.2-10.5,11.1-16.6l0,0l2.5-2.3l-8.9,32.3c-0.2,0-0.4,0-0.6,0l0,0c-0.3,0-0.6,0-0.9,0l0,0L145.8,42.9z
			 M299.5,26l-8.9,32.3c-0.2,0-0.4,0-0.6,0l0,0c-0.3,0-0.6,0-0.9,0l0,0L282,28.5c0.2-0.4,0.3-0.9,0.5-1.3l0,0l7.5,7.5L299.5,26z
			 M74.2,41.5l3.2-13.8L90.3,26c2.2,3.3,4.1,6.7,5.7,10.4l0,0l-8.4,9.2L74.2,41.5z M364.5,27.8l10,1.9c-3.1,4-6.8,7.6-11,10.8l0,0
			c-0.9,0.1-1.8,0.2-2.7,0.3l0,0L364.5,27.8z M464.2,39.8l11-10.2c-0.5,6.3-2,12.4-4.2,18.1l0,0L464.2,39.8z M422.6,31.8
			c0.4-0.6,0.7-1.1,1-1.7l0,0l31.5,9.6L443.5,43l1.9,13L422.6,31.8z M371.6,38.4l26.6-8.1c0.1,0.3,0.3,0.6,0.5,0.9l0,0l-12.7,10.8
			c-3.1-0.7-6.3-1.3-9.6-1.6l0,0h-7.1C370.1,39.8,370.9,39.1,371.6,38.4 M48.2,54.1l24.5-22.5L69.7,44l11.4,3.5l-32,7.9
			C48.8,55,48.5,54.5,48.2,54.1 M268.5,49.4c4.3-4.6,8-9.7,10.9-15.3l0,0l5.9,25c-1.7,0.6-3.2,1.4-4.5,2.6l0,0L268.5,49.4z
			 M187.4,49.6l3.2-13.8l12.8-1.7c1,1.5,2,3.1,2.9,4.7l0,0l0,0.1c0.9,1.6,1.7,3.2,2.4,4.9l0,0l0-0.1c0.1,0.3,0.3,0.5,0.4,0.8l0,0
			l-8.4,9.2L187.4,49.6z M390.5,43.3l10.6-9c1.4,1.3,3,2.4,4.8,3.1l0,0l-3.5,11C398.6,46.2,394.6,44.6,390.5,43.3 M430.6,76.6
			c-2.8-5.3-6.3-10.1-10.3-14.5l0,0l-4.9-24.6c1.8-0.6,3.4-1.6,4.8-2.8l0,0l25.7,27.4l-5.7,17.5L430.6,76.6z M327.4,51.5l3.2-13.8
			l12.8-1.7c2.2,3.3,4.1,6.7,5.7,10.4l0,0l-8.5,9.2L327.4,51.5z M133.9,36.2l11.3,1.7c-3.9,4.8-8.6,8.9-13.7,12.4l0,0l-0.8-0.8
			c-0.5,0.4-1,0.8-1.5,1.2l0,0L133.9,36.2z M405.7,50.2L405.7,50.2l3.8-12c0.4,0,0.9,0.1,1.3,0.1l0,0c0.3,0,0.5,0,0.8,0l0,0
			l3.9,19.2C412.4,54.7,409.2,52.3,405.7,50.2 M161.4,62.2l24.5-22.5l-2.9,12.5l11.4,3.5l-32,7.9C162,63.1,161.7,62.7,161.4,62.2
			 M90.7,47.8l6.9-7.5c1.8,4.9,2.9,10,3.4,15.3l0,0l-0.3,0.8c0.1,0.8,0,1.6,0.1,2.4l0,0L90.7,47.8z M301.4,64.2l24.5-22.5l-2.9,12.5
			l11.4,3.5l-32,7.9C302,65.1,301.7,64.6,301.4,64.2 M449.7,59.8l-2-14l13.3-3.9l8.4,9.8c-1.7,3.6-3.7,7-6,10.3l0,0L449.7,59.8z
			 M257.3,41.9l11.3,1.7c-4.7,5.6-10.2,10.5-16.5,14.3l0,0L257.3,41.9z M360.4,55.9l4.1-11.7c1.9-0.2,3.8-0.3,5.7-0.3l0,0
			c2.1,0,4.2,0.1,6.2,0.3l0,0l4.6,11.7l-10.8,9.8L360.4,55.9z M355.7,53.7c-0.7-2.6-1.6-5.1-2.6-7.5l0,0c2.3-0.6,4.7-1.2,7.2-1.6
			l0,0l-3.3,9.4L355.7,53.7z M380.6,44.8c6.5,1.1,12.7,3.1,18.4,6l0,0l-14.6,3.4L380.6,44.8z M218.2,67.1c-0.3-7-1.7-13.7-4-20l0,0
			l2.5-2l10.1,9.4L222.4,67c-1.2,0.1-2.4,0.1-3.7,0.1l0,0C218.5,67.1,218.4,67.1,218.2,67.1 M134.2,53.1c3-2.1,5.9-4.4,8.5-7l0,0
			l2.6,11.1c-1.6,0.6-3.2,1.4-4.5,2.6l0,0L134.2,53.1z M203.8,55.9l6.8-7.4c0.1,0.4,0.3,0.7,0.4,1.1l0,0l0,0
			c1.9,5.7,3.1,11.6,3.4,17.9l0,0L203.8,55.9z M50.6,64.4c0.1-0.7,0.2-1.5,0.2-2.2l0,0c0-1.1-0.1-2.1-0.4-3.2l0,0l37.1-9.1L100,63.5
			l-12.9,12L50.6,64.4z M343.8,57.9l6.9-7.5c0.5,1.4,1,2.9,1.4,4.4l0,0c0.1,0.4,0.1,0.7,0.2,1.1l0,0c0.1,0.3,0.1,0.6,0.2,0.9l0,0
			l0.2,0c1,4.1,1.7,8.3,1.9,12.6l0,0L343.8,57.9z M104.8,56.1l1.9-5.4l15.6,4.9c-5.4,2.5-11.2,4.2-17.2,5.1l0,0
			C105.1,59.2,105,57.6,104.8,56.1 M26.6,62.2c0-5.7,4.6-10.2,10.2-10.2l0,0c5.6,0,10.2,4.6,10.2,10.2l0,0c0,5.6-4.6,10.2-10.2,10.2
			l0,0C31.1,72.4,26.6,67.8,26.6,62.2 M256.1,59.7c3.5-2.3,6.7-4.9,9.7-7.7l0,0l12.5,12.4c-0.3,0.5-0.6,0.9-0.8,1.4l0,0L256.1,59.7z
			 M374.5,95.2L384.8,58l18-4.2l4.5,17.9l-28.2,26C377.7,96.6,376.2,95.7,374.5,95.2 M122.4,59.6c3-1.3,5.9-2.7,8.6-4.4l0,0l7.3,7.3
			c-0.3,0.5-0.6,0.9-0.8,1.4l0,0L122.4,59.6z M407,55.6c5.3,3.7,10.1,8.2,14,13.3l0,0l-10.4,1.3L407,55.6z M230.1,56.3l15.6,4.9
			c-6,2.8-12.4,4.6-19.2,5.4l0,0L230.1,56.3z M163.8,72.6c0.1-0.7,0.2-1.5,0.2-2.2l0,0c0-1.1-0.1-2.1-0.4-3.2l0,0l37.1-9.1
			l12.5,13.6l-12.9,12L163.8,72.6z M355.3,92.1c1.8-5.8,2.8-11.9,2.9-18.2l0,0l0.2-0.2l-0.2-0.2c0-0.4,0-0.9,0-1.3l0,0
			c0-4.3-0.4-8.4-1.2-12.5l0,0l8.4,35.5c-1.7,0.6-3.2,1.4-4.5,2.6l0,0L355.3,92.1z M303.8,74.5c0.1-0.7,0.2-1.5,0.2-2.2l0,0
			c0-1.1-0.1-2.1-0.4-3.2l0,0l37.1-9.1l12.5,13.6l-12.9,12L303.8,74.5z M139.7,70.3c0-5.7,4.6-10.2,10.2-10.2l0,0
			c5.6,0,10.2,4.6,10.2,10.2l0,0c0,5.6-4.6,10.2-10.2,10.2l0,0C144.3,80.6,139.7,76,139.7,70.3 M225,70.6
			c10.2-0.9,19.7-4.2,28.1-9.1l0,0v1.2l23.1,6.6c-0.2,0.9-0.3,1.9-0.3,2.9l0,0c0,0.9,0.1,1.7,0.2,2.6l0,0l-21.1,6
			c-0.3-0.2-0.5-0.4-0.8-0.5l0,0l-0.2-0.9l-0.9,0.2C244.7,74.7,235.2,71.6,225,70.6 M105,65.4c0-0.3,0.1-0.6,0.1-0.9l0,0
			c3.9-0.6,7.8-1.5,11.4-2.7l0,0l19.7,5.6c-0.2,0.9-0.3,1.9-0.3,2.9l0,0c0,0.9,0.1,1.7,0.2,2.6l0,0l-5.3,1.5l-0.2-0.6l-0.9,0.2
			C122.3,69.6,113.9,66.6,105,65.4 M279.7,72.3c0-5.7,4.6-10.2,10.2-10.2l0,0c5.6,0,10.2,4.6,10.2,10.2l0,0
			c0,5.6-4.6,10.2-10.2,10.2l0,0C284.3,82.5,279.7,77.9,279.7,72.3 M379.7,62.2l-8.9,32.3c-0.2,0-0.4,0-0.6,0l0,0
			c-0.3,0-0.6,0-0.9,0l0,0l-7.6-32.1l8.5,8.5L379.7,62.2z M449.4,63.5l11.3,1.7c-4.6,5.6-10.2,10.5-16.5,14.3l0,0L449.4,63.5z
			 M48.6,69.7c0.4-0.6,0.7-1.1,1-1.7l0,0L81,77.6L69.4,81l1.9,13L48.6,69.7z M90.2,77.7l10.4-9.7c0,0.2,0,0.5,0,0.7l0,0
			c0.1,0,0.3,0,0.4,0l0,0c-0.6,5.9-2,11.6-4.1,16.9l0,0L90.2,77.7z M105.8,69.3c6.5,1.1,12.7,3.1,18.4,6l0,0l-14.6,3.4L105.8,69.3z
			 M407.6,87.8l3.2-13.8l12.8-1.7c2.2,3.3,4.1,6.7,5.7,10.4l0,0l-8.5,9.2L407.6,87.8z M48.6,112.1l-7.3-36.7
			c1.8-0.6,3.4-1.6,4.8-2.8l0,0l25.7,27.4l-5.7,17.5L48.6,112.1z M214.8,91.8c1.9-5.6,3-11.5,3.3-17.7l0,0c0.2,0,0.4,0,0.6,0l0,0
			c2.1,0,4.2,0.1,6.2,0.3l0,0l4.6,11.7l-10.8,9.8L214.8,91.8z M103.9,74.7l2.3,5.7l-5.1,4.6C102.3,81.7,103.3,78.3,103.9,74.7
			 M229.2,75c6.5,1.1,12.7,3.1,18.4,6l0,0L233,84.4L229.2,75z M203.3,85.9l11-10.2c-0.5,6.3-2,12.4-4.2,18.1l0,0L203.3,85.9z
			 M35.5,76.1c0.4,0,0.9,0.1,1.3,0.1l0,0c0.3,0,0.5,0,0.8,0l0,0l6.4,32l-9-8.4l-9.4,7.5L35.5,76.1z M161.7,77.9
			c0.4-0.6,0.7-1.1,1-1.7l0,0l31.5,9.6l-11.6,3.4l1.9,13L161.7,77.9z M134.8,77.2l2.6-0.7c0.1,0.3,0.3,0.6,0.5,0.9l0,0l-1.4,1.2
			C135.9,78.1,135.3,77.6,134.8,77.2 M343.3,87.8l11-10.2c-0.3,3.9-1,7.8-2,11.5l0,0l-0.2-0.2c-0.3,1.4-0.7,2.9-1.1,4.3l0,0l0,0
			c-0.3,0.9-0.6,1.7-0.9,2.6l0,0L343.3,87.8z M381.6,100.4L406,77.9l-2.9,12.5l11.4,3.5l-32,7.9
			C382.2,101.3,381.9,100.9,381.6,100.4 M301.7,79.8c0.4-0.6,0.7-1.1,1-1.7l0,0l31.5,9.6l-11.6,3.4l1.9,13L301.7,79.8z M99.7,119.7
			L110,82.5l18-4.2l4.5,17.9l-28.2,26C102.9,121.1,101.3,120.2,99.7,119.7 M259.1,83.6l18.2-5.2c0.1,0.3,0.3,0.6,0.5,0.9l0,0
			L266,89.4C263.8,87.3,261.5,85.4,259.1,83.6 M75.7,97.7l-2-14l13.3-3.9l8.4,9.8c-1.7,3.6-3.7,7-6,10.3l0,0L75.7,97.7z M132.2,80.1
			c5.3,3.7,10.1,8.2,14,13.3l0,0l-10.4,1.3L132.2,80.1z M139.5,80.9l0.7-0.6c1.4,1.3,3,2.4,4.8,3.1l0,0l-0.6,2
			C142.8,83.8,141.1,82.3,139.5,80.9 M162.5,120.5c-0.7-3.5-1.6-7-2.8-10.3l0,0l-5.3-26.6c1.8-0.6,3.4-1.6,4.8-2.8l0,0l25.7,27.4
			l-5.7,17.5L162.5,120.5z M432.8,81.3l5,1.6c-1.2,0.6-2.5,1.1-3.7,1.5l0,0C433.7,83.4,433.3,82.3,432.8,81.3 M268.6,92.1l11.5-9.8
			c1.4,1.3,3,2.4,4.8,3.1l0,0l-6.4,20.2C275.8,100.7,272.4,96.1,268.6,92.1 M301.8,122.2l-7.4-36.7c1.8-0.6,3.4-1.6,4.8-2.8l0,0
			l25.8,27.4l-5.7,17.5L301.8,122.2z M223.1,125.4l10.3-37.2l18-4.2l4.5,17.9l-28.2,26C226.3,126.7,224.7,125.9,223.1,125.4
			 M147.2,88.6l1.4-4.3c0.4,0,0.9,0.1,1.3,0.1l0,0c0.3,0,0.5,0,0.8,0l0,0l2.5,12.4C151.4,93.9,149.4,91.1,147.2,88.6 M255.6,85.7
			c5.3,3.7,10.1,8.2,14,13.3l0,0l-10.4,1.3L255.6,85.7z M280.9,110.4l7.7-24.2c0.4,0,0.9,0.1,1.3,0.1l0,0c0.3,0,0.5,0,0.8,0l0,0
			l6.4,32l-9.1-8.4l-5.5,4.5C282,112.9,281.5,111.7,280.9,110.4 M90.9,103.9c2.5-3.3,4.8-6.8,6.7-10.5l0,0l7.3-6.7L95.9,119
			c-0.2,0-0.4,0-0.6,0l0,0c-0.3,0-0.6,0-0.9,0l0,0L90.9,103.9z M188.8,105.9l-2-14l13.3-3.9l8.4,9.8c-1.7,3.6-3.7,7-6,10.3l0,0
			L188.8,105.9z M328.8,107.8l-2-14l13.3-3.9l8.3,9.8c-0.5,1.1-1.1,2.1-1.8,3.1l0,0c0,0.1,0,0.1-0.1,0.2l0,0l0.1,0
			c-1.3,2.4-2.7,4.8-4.3,7l0,0L328.8,107.8z M228.3,92.4l-8.9,32.3c-0.2,0-0.4,0-0.6,0l0,0c-0.3,0-0.6,0-0.9,0l0,0l-6.1-25.5
			c0.5-1.1,1.1-2.3,1.6-3.5l0,0l5.3,5.3L228.3,92.4z M352.1,100.5c0.7-1.4,1.3-2.9,1.8-4.4l0,0l4.6,4.6c-0.3,0.5-0.6,0.9-0.8,1.4
			l0,0L352.1,100.5z M132.8,112.3l3.2-13.8l12.8-1.7c2.2,3.3,4.1,6.7,5.7,10.4l0,0l-8.5,9.2L132.8,112.3z M359.9,108.5
			c0-5.7,4.6-10.2,10.2-10.2l0,0c5.6,0,10.2,4.6,10.2,10.2l0,0c0,5.6-4.6,10.2-10.2,10.2l0,0C364.5,118.7,359.9,114.2,359.9,108.5
			 M75.4,101.5l11.3,1.7c-4.7,5.6-10.2,10.5-16.5,14.3l0,0L75.4,101.5z M106.8,124.9l24.5-22.5l-2.9,12.5l11.4,3.5l-32,7.9
			C107.4,125.8,107.1,125.4,106.8,124.9 M256.2,118l3.2-13.8l12.8-1.7c2.2,3.3,4.1,6.7,5.7,10.4l0,0l-8.5,9.2L256.2,118z
			 M350.5,103.9l6,1.7c-0.2,0.9-0.3,1.9-0.3,2.9l0,0c0,0.9,0.1,1.7,0.2,2.6l0,0l-13.1,3.7C346,111.4,348.4,107.8,350.5,103.9
			 M163.3,139.5c0.1-0.8,0.1-1.5,0.2-2.3l0,0c19.5-3.9,36-16.2,45.6-32.9l0,0l5,21.1c-1.7,0.6-3.2,1.4-4.5,2.6l0,0l-10.5-10.4
			c-0.8,0.9-1.7,1.9-2.6,2.8l0,0l10.5,10.4c-0.3,0.5-0.6,0.9-0.8,1.4l0,0l-17.3-4.9c0,0-0.1,0.1-0.1,0.1l0,0
			c-1.4,1.1-2.9,1.9-4.5,2.5l0,0l20.7,5.9c-0.2,0.9-0.3,1.9-0.3,2.9l0,0c0,0.9,0.1,1.7,0.2,2.6l0,0l-21,6
			C177.7,143.6,170.7,141,163.3,139.5 M28.7,126.2l-4.6-13l10.6-8.6l10.1,9.4l-4.4,12.5c-1.2,0.1-2.4,0.1-3.7,0.1l0,0
			C34.1,126.7,31.4,126.6,28.7,126.2 M79.4,115.5c3-2.4,5.9-5.1,8.5-8l0,0l2.9,12.3c-1.7,0.6-3.2,1.4-4.5,2.6l0,0L79.4,115.5z
			 M230.2,130.6l24.5-22.5l-2.9,12.5l11.4,3.5l-32,7.9C230.8,131.5,230.5,131,230.2,130.6 M188.5,109.6l11.3,1.7
			c-4.6,5.6-10.2,10.5-16.5,14.3l0,0L188.5,109.6z M149.3,118.6l6.9-7.5c2.2,6,3.5,12.4,3.7,19l0,0L149.3,118.6z M328.5,111.6
			l11.3,1.7c-4.6,5.6-10.2,10.5-16.5,14.3l0,0L328.5,111.6z M287,136.7c-0.2-6.5-1.3-12.8-3.2-18.7l0,0l4-3.2l10.1,9.4l-4.4,12.5
			c-1.2,0.1-2.4,0.1-3.7,0.1l0,0C289,136.8,288,136.8,287,136.7 M4.4,118l16.3-3.2l3.8,10.8C17.3,124.2,10.5,121.6,4.4,118
			 M48.2,115.9l15.6,4.9c-6,2.8-12.4,4.6-19.2,5.4l0,0L48.2,115.9z M272.6,124.3l6.9-7.5c2.2,6,3.5,12.4,3.7,19l0,0L272.6,124.3z
			 M68.7,122.5c2.7-1.4,5.2-3,7.6-4.7l0,0l7.4,7.4c-0.3,0.5-0.6,0.9-0.8,1.4l0,0L68.7,122.5z M109.2,135.3c0.1-0.7,0.2-1.5,0.2-2.2
			l0,0c0-1.1-0.1-2.1-0.4-3.2l0,0l37.1-9.1l12.5,13.6l-12.9,12L109.2,135.3z M85.1,133c0-5.7,4.6-10.2,10.2-10.2l0,0
			c5.6,0,10.2,4.6,10.2,10.2l0,0c0,5.6-4.6,10.2-10.2,10.2l0,0C89.7,143.3,85.1,138.7,85.1,133 M163.7,133c0-2.8-0.2-5.6-0.5-8.4
			l0,0l13.7,4.3c-4.2,1.9-8.6,3.4-13.2,4.4l0,0C163.7,133.2,163.7,133.1,163.7,133 M43.1,130.2c7.2-0.7,14.1-2.5,20.5-5.2l0,0
			l18.1,5.2c-0.2,0.9-0.3,1.9-0.3,2.9l0,0c0,0.9,0.1,1.7,0.2,2.6l0,0l-11.2,3.2C62.2,134.1,52.9,131.1,43.1,130.2 M301.3,126
			l15.6,4.9c-6,2.8-12.4,4.6-19.2,5.4l0,0L301.3,126z M232.6,140.9c0.1-0.7,0.2-1.5,0.2-2.2l0,0c0-1.1-0.1-2.1-0.4-3.2l0,0l37.1-9.1
			l12.5,13.6L269,152L232.6,140.9z M208.5,138.7c0-5.7,4.6-10.2,10.2-10.2l0,0c5.6,0,10.2,4.6,10.2,10.2l0,0
			c0,5.6-4.6,10.2-10.2,10.2l0,0C213.1,148.9,208.5,144.3,208.5,138.7 M27.1,145.7l4.1-11.7c1.9-0.2,3.8-0.3,5.7-0.3l0,0
			c2.1,0,4.2,0.1,6.2,0.3l0,0l4.6,11.7l-10.8,9.8L27.1,145.7z M9.2,139.9c5.5-2.6,11.5-4.5,17.7-5.5l0,0l-3.3,9.4L9.2,139.9z
			 M47.3,134.6c6.5,1.1,12.7,3.1,18.4,6l0,0L51,144L47.3,134.6z M148.7,148.6l11-10.2c-0.5,6.3-2,12.4-4.2,18.1l0,0L148.7,148.6z
			 M107.1,140.6c0.4-0.6,0.7-1.1,1-1.7l0,0l31.5,9.6l-11.6,3.4l1.9,13L107.1,140.6z M74.7,141.5l8.1-2.3c0.1,0.3,0.3,0.6,0.5,0.9
			l0,0l-4.8,4.1C77.2,143.2,76,142.3,74.7,141.5 M0.4,160.5l5.1-17.7l17.8,4.9l8.9,37.4c-1.7,0.6-3.2,1.4-4.5,2.6l0,0L0.4,160.5z
			 M81.4,146.6l4.2-3.5c1.4,1.3,3,2.4,4.8,3.1l0,0l-2.3,7.1C86,150.8,83.8,148.6,81.4,146.6 M162.2,147.2c0.3-1.3,0.5-2.6,0.7-4l0,0
			c5.6,1.1,11,3,15.9,5.5l0,0l-14.6,3.4L162.2,147.2z M107.2,182.9l-7.3-36.7c1.8-0.6,3.4-1.6,4.8-2.8l0,0l25.7,27.4l-5.7,17.5
			L107.2,182.9z M41.1,185l10.3-37.2l18-4.2l4.5,17.9l-28.2,26C44.3,186.3,42.8,185.5,41.1,185 M272.1,154.2l11-10.2
			c-0.5,6.3-2,12.4-4.2,18.1l0,0L272.1,154.2z M230.5,146.2c0.4-0.6,0.7-1.1,1-1.7l0,0l31.5,9.6l-11.6,3.4l1.9,13L230.5,146.2z
			 M188.3,149.9l17.9-5.1c0.1,0.3,0.3,0.6,0.5,0.9l0,0l-11.3,9.7C193.1,153.4,190.8,151.6,188.3,149.9 M73.7,145.3
			c5.3,3.7,10.1,8.2,14,13.3l0,0L77.3,160L73.7,145.3z M102.3,178.7c-2.4-8.1-6.3-15.6-11.3-22.1l0,0L94,147c0.4,0,0.9,0.1,1.3,0.1
			l0,0c0.3,0,0.5,0,0.8,0l0,0l6.4,32L102.3,178.7z M198.1,158l10.9-9.3c1.4,1.3,3,2.4,4.8,3.1l0,0l-5.9,18.5
			C205.1,165.8,201.8,161.7,198.1,158 M134.2,168.6l-2-14l13.3-3.9l8.4,9.8c-1.7,3.6-3.7,7-6,10.3l0,0L134.2,168.6z M154.3,193.1
			l10.3-37.2l18-4.2l4.5,17.9l-28.2,26C157.5,194.5,155.9,193.7,154.3,193.1 M46.3,152l-8.9,32.3c-0.2,0-0.4,0-0.6,0l0,0
			c-0.3,0-0.6,0-0.9,0l0,0l-7.6-32.1l8.5,8.5L46.3,152z M210.4,174.7l7-22c0.4,0,0.9,0.1,1.3,0.1l0,0c0.3,0,0.5,0,0.8,0l0,0l6.4,32
			l-9-8.4l-4.1,3.3C212,177.9,211.2,176.3,210.4,174.7 M186.8,153.5c5.3,3.7,10.1,8.2,14,13.3l0,0l-10.4,1.3L186.8,153.5z
			 M145.8,179c4.5-4.9,8.2-10.5,11.1-16.6l0,0l2.5-2.3l-8.9,32.3c-0.2,0-0.4,0-0.6,0l0,0c-0.3,0-0.6,0-0.9,0l0,0L145.8,179z
			 M74.2,177.6l3.2-13.8l12.8-1.7c2.2,3.3,4.1,6.7,5.7,10.4l0,0l-8.4,9.2L74.2,177.6z M48.2,190.2l24.5-22.5l-2.9,12.5l11.4,3.5
			l-32,7.9C48.8,191.1,48.5,190.6,48.2,190.2 M187.4,185.7l3.2-13.8l12.8-1.7c1,1.5,2,3.1,2.9,4.7l0,0l-0.4,1.3
			c0.8,1.8,1.5,3.7,2.2,5.5l0,0l-7.4,8.1L187.4,185.7z M133.9,172.3l11.3,1.7c-0.1,0.2-0.3,0.3-0.4,0.5l0,0l0,0
			c-1,1.1-2,2.2-3.1,3.2l0,0l0.1,0.3c-3.9,4-8.2,7.5-13,10.4l0,0L133.9,172.3z M161.4,198.3l24.5-22.5l-2.9,12.5l11.4,3.5l-32,7.9
			C162,199.2,161.7,198.8,161.4,198.3 M90.7,183.9l6.8-7.4c0.4,1.3,0.9,2.7,1.2,4l0,0l0.3,0.3c1,3.5,1.7,7.2,2,10.9l0,0l-0.3,0.7
			c0.1,0.8,0.1,1.7,0.2,2.5l0,0L90.7,183.9z M208.7,179.9c0.1,0.3,0.3,0.5,0.4,0.8l0,0l-1,1.1L208.7,179.9z M134.2,189.2
			c3-2.1,5.9-4.4,8.5-7l0,0l2.6,11.1c-1.6,0.6-3.2,1.4-4.5,2.6l0,0L134.2,189.2z M50.6,200.5c0.1-0.7,0.2-1.5,0.2-2.2l0,0
			c0-1.1-0.1-2.1-0.4-3.2l0,0l37.1-9.1l12.5,13.6l-12.9,12L50.6,200.5z M104.8,192.2l1.9-5.5l15.6,4.9c-5.4,2.5-11.2,4.2-17.2,5.1
			l0,0C105.1,195.2,105,193.7,104.8,192.2 M26.6,198.3c0-5.7,4.6-10.2,10.2-10.2l0,0c5.6,0,10.2,4.6,10.2,10.2l0,0
			c0,5.6-4.6,10.2-10.2,10.2l0,0C31.1,208.5,26.6,203.9,26.6,198.3 M122.4,195.7c3-1.3,5.9-2.7,8.6-4.4l0,0l7.3,7.3
			c-0.3,0.5-0.6,0.9-0.8,1.4l0,0L122.4,195.7z M139.7,206.4c0-5.7,4.6-10.2,10.2-10.2l0,0c5.6,0,10.2,4.6,10.2,10.2l0,0
			c0,5.6-4.6,10.2-10.2,10.2l0,0C144.3,216.7,139.7,212.1,139.7,206.4 M105,201.5c0-0.3,0.1-0.6,0.1-0.9l0,0c5-0.7,9.8-1.9,14.4-3.7
			l0,0c-0.7,0.4-1.4,0.9-2.1,1.3l0,0l18.8,5.4c-0.2,0.9-0.3,1.9-0.3,2.9l0,0c0,0.9,0.1,1.7,0.2,2.6l0,0l-5.3,1.5l-0.2-0.6l-0.9,0.2
			C122.3,205.7,113.9,202.7,105,201.5 M90.2,213.8l10.9-10.2c0,0.1,0,0.2,0,0.4l0,0c-0.6,6.2-2,12.1-4.1,17.7l0,0L90.2,213.8z
			 M48.6,205.8c0.4-0.6,0.7-1.1,1-1.7l0,0l31.5,9.6l-11.6,3.4l1.9,13L48.6,205.8z M105.8,205.4c6.5,1.1,12.7,3.1,18.4,6l0,0
			l-14.6,3.4L105.8,205.4z M48.6,248.2l-7.3-36.7c1.8-0.6,3.4-1.6,4.8-2.8l0,0l25.7,27.4l-5.7,17.5L48.6,248.2z M103.9,210.8
			l2.3,5.7l-5.1,4.6C102.3,217.8,103.3,214.3,103.9,210.8 M35.5,212.2c0.4,0,0.9,0.1,1.3,0.1l0,0c0.3,0,0.5,0,0.8,0l0,0l6.4,32
			l-9-8.4l-9.4,7.5L35.5,212.2z M134.7,213.3l2.6-0.7c0.1,0.3,0.3,0.6,0.5,0.9l0,0l-1.3,1.1C135.9,214.2,135.3,213.7,134.7,213.3
			 M75.7,233.8l-2-14l13.3-3.9l8.4,9.8c-1.7,3.6-3.7,7-6,10.3l0,0L75.7,233.8z M132.2,216.2c0.4,0.3,0.8,0.6,1.3,1l0,0l-0.9,0.7
			L132.2,216.2z M139.5,217l0.6-0.6c1.4,1.3,3,2.4,4.8,3.1l0,0l-0.6,2C142.8,219.9,141.2,218.4,139.5,217 M132.8,218.5
			c0.8,0.7,1.6,1.4,2.4,2.2l0,0l1.4-1.2c2.3,1.9,4.4,3.9,6.4,6.1l0,0l-1,3.1c0.3,0.4,0.5,0.8,0.8,1.2l0,0l-6.9,0.9L132.8,218.5z
			 M90.9,240c2.5-3.3,4.8-6.8,6.7-10.5l0,0l7.3-6.7l-8.9,32.3c-0.2,0-0.4,0-0.6,0l0,0c-0.3,0-0.6,0-0.9,0l0,0L90.9,240z M75.4,237.6
			l11.3,1.7c-4.7,5.6-10.2,10.5-16.5,14.3l0,0L75.4,237.6z M28.7,262.3l-4.6-13l10.6-8.6l10.1,9.4l-4.4,12.5
			c-1.2,0.1-2.4,0.1-3.7,0.1l0,0C34.1,262.8,31.4,262.7,28.7,262.3 M79.4,251.6c3-2.4,5.9-5.1,8.5-8l0,0l2.9,12.3
			c-1.7,0.6-3.2,1.4-4.5,2.6l0,0L79.4,251.6z M4.4,254.1l16.3-3.2l3.8,10.8C17.3,260.3,10.5,257.7,4.4,254.1 M48.2,252l15.6,4.9
			c-6,2.8-12.4,4.6-19.2,5.4l0,0L48.2,252z M68.7,258.6c2.7-1.4,5.2-3,7.6-4.7l0,0l7.4,7.4c-0.3,0.5-0.6,0.9-0.8,1.4l0,0L68.7,258.6
			z M27.1,281.8l4.1-11.7c1.9-0.2,3.8-0.3,5.7-0.3l0,0c2.1,0,4.2,0.1,6.2,0.3l0,0l4.6,11.7l-10.8,9.8L27.1,281.8z M9.2,276
			c5.5-2.6,11.5-4.5,17.7-5.5l0,0l-3.3,9.4L9.2,276z M47.3,270.7c6.5,1.1,12.7,3.1,18.4,6l0,0L51,280.1L47.3,270.7z"/>
	</g>
	<g>
		<defs>
			<path id="SVGID_87_" d="M0,343.5v3.9l6.5-1.9c1-1.6,2.1-3.3,3.2-4.8l0,0L0,343.5z"/>
		</defs>
		<clipPath id="SVGID_88_">
			<use xlink:href="#SVGID_87_"  style="overflow:visible;"/>
		</clipPath>
		
			<linearGradient id="path286_1_" gradientUnits="userSpaceOnUse" x1="185.8941" y1="389.1361" x2="186.8941" y2="389.1361" gradientTransform="matrix(1755.5588 0 0 -1755.5588 -327227.75 683495.5)">
			<stop  offset="0" style="stop-color:#FFC322"/>
			<stop  offset="9.134790e-02" style="stop-color:#FFC322"/>
			<stop  offset="0.48" style="stop-color:#EAAE20"/>
			<stop  offset="1" style="stop-color:#C77A3E"/>
		</linearGradient>
		<path id="path286" class="st43" d="M0,343.5v3.9l6.5-1.9c1-1.6,2.1-3.3,3.2-4.8l0,0L0,343.5z"/>
	</g>
	<g>
		<defs>
			<path id="SVGID_89_" d="M501.3,0C408.2,176.4,119.7,133.2,0,345.4l0,0v55.2C130.9,168.7,463.3,241.9,522,0l0,0H501.3z"/>
		</defs>
		<clipPath id="SVGID_90_">
			<use xlink:href="#SVGID_89_"  style="overflow:visible;"/>
		</clipPath>
		
			<linearGradient id="path358_1_" gradientUnits="userSpaceOnUse" x1="185.8528" y1="388.6025" x2="186.8528" y2="388.6025" gradientTransform="matrix(-376.4331 607.3115 607.3115 376.4331 -165550.7656 -259340.2813)">
			<stop  offset="0" style="stop-color:#FFC322"/>
			<stop  offset="9.134790e-02" style="stop-color:#FFC322"/>
			<stop  offset="0.48" style="stop-color:#EAAE20"/>
			<stop  offset="1" style="stop-color:#C77A3E"/>
		</linearGradient>
		<path id="path358" class="st44" d="M501.3,0C408.2,176.4,119.7,133.2,0,345.4l0,0v55.2C130.9,168.7,463.3,241.9,522,0l0,0H501.3z"
			/>
	</g>
</g>
</svg>
