<?xml version="1.0" encoding="utf-8"?>
<!-- Generator: Adobe Illustrator 24.0.0, SVG Export Plug-In . SVG Version: 6.00 Build 0)  -->
<svg version="1.1" id="Layer_1" xmlns="http://www.w3.org/2000/svg" xmlns:xlink="http://www.w3.org/1999/xlink" x="0px" y="0px"
	 viewBox="0 0 74 74" style="enable-background:new 0 0 74 74;" xml:space="preserve">
<style type="text/css">
	.st0{fill:#4F1774;}
	.st1{fill:#FFFFFF;}
</style>
<path class="st0" d="M58,74H16C7.2,74,0,66.8,0,58V16C0,7.2,7.2,0,16,0h42c8.8,0,16,7.2,16,16v42C74,66.8,66.8,74,58,74z"/>
<path class="st1" d="M37.2,39.4c-0.9-1.6-1.6-3.4-1.9-5.4c-0.3-2-0.3-4.1-0.1-6.5c-0.9-0.8-1.6-1.3-2.5-1.7
	c-0.9-0.4-1.6-0.9-2.5-1.3c-1.3,1.9-2.5,3.6-3.9,5.5c-1.3,1.7-2.7,3.5-4.1,5c-1.4,1.5-2.8,2.9-4.1,3.9c-1.4,1.1-2.9,1.9-4.4,2.2
	c-1.1,0.3-2,0.3-2.9,0.3s-1.6-0.3-2.2-0.9c-0.6-0.3-1-0.9-1.4-1.4s-0.5-1-0.6-1.6c0-0.5,0-0.9,0.3-1.1c0.3-0.3,0.5-0.3,1-0.3
	c1.4,0.3,2.8,0.1,4.3-0.5c1.4-0.6,2.9-1.6,4.4-2.8c1.6-1.3,3-2.7,4.6-4.4c1.6-1.6,3-3.4,4.6-5.3c-1.3-0.1-2.5,0-3.6,0.3
	c-1.1,0.3-2.2,0.8-2.9,1.3s-1.6,1.1-2,1.7c-0.5,0.6-0.9,1.3-1,2c-0.1,0.6-0.3,1-0.8,1.1c-0.4,0.1-0.6,0-1-0.3
	c-0.3-0.3-0.8-0.8-1-1.4c-0.5-0.5-0.8-1.1-0.9-1.9c-0.1-0.8-0.1-1.6,0-2.2c0.1-0.8,0.5-1.6,1.1-2.2c0.8-0.9,1.6-1.6,2.7-2
	s2.2-0.8,3.5-0.9s2.7-0.1,4.1,0.1c1.6,0.3,2.9,0.6,4.4,1.1c1.6-1.9,3.3-3.8,4.9-5.5s3.3-3.3,4.9-4.6s3.3-2.2,4.9-2.8
	c1.6-0.5,3.3-0.6,4.9-0.1c0.8,0.3,1.1,0.6,1,1.4c-0.1,0.8-0.5,1.3-1.6,1.7c-0.6,0.3-1.3,0.8-1.7,1.4c-0.4,0.6-1.1,1.4-1.6,2.2
	c-0.5,0.9-1,1.7-1.6,2.9c-0.5,1-0.9,2.2-1.1,3.4c-0.3,1.4-0.6,2.8-0.9,4.3c-0.2,1.5-0.3,2.9-0.2,4.3c0,1.4,0.3,2.8,0.5,4.1
	s0.6,2.5,1.1,3.5s1,1.9,1.6,2.7s1.4,1.1,2.2,1.4c0.6,0.1,0.9,0.3,0.9,0.8s-0.3,0.6-0.6,1c-0.3,0.3-1,0.5-1.7,0.8
	C43.7,43,42.9,43.1,42,43c-0.9-0.1-1.6-0.3-2.5-0.9C38.6,41.2,37.9,40.6,37.2,39.4z M35.8,24.4c0.3-1.6,0.8-3,1.4-4.6
	c0.5-1.6,1.3-2.9,2-4.1c0.7-1.2,1.6-2.5,2.7-3.5c1-1.1,2.1-2,3.2-2.8c-1.1,0.3-2.2,0.8-3.2,1.6s-2.1,1.6-3.1,2.7s-2.2,2.4-3.2,3.8
	s-2.2,2.9-3.2,4.4c0.6,0.3,1.3,0.8,1.9,1.3C34.6,23.4,35.2,23.9,35.8,24.4z"/>
<path class="st1" d="M44.4,38.3c1-1.3,2-2.4,3-3.5c1-1,2-1.9,2.9-2.4c1-0.7,1.7-1,2.5-1.2c0.8-0.2,1.5-0.2,1.9,0.3
	c0.8,0.5,1,1.5,0.5,2.7c-0.4,1.3-1.5,2.5-3.2,4c-1.3,1-2.8,2.2-4.4,3c-0.7,1-1.2,2.2-1.6,3.3c-0.4,1.2-0.7,2-0.8,2.9
	c-0.2,1-0.2,1.6,0.2,2.2c0.2,0.7,0.5,1,1,1.3c0.7,0.4,1.3,0.4,2.2,0.2c0.7-0.3,1.5-0.7,2.2-1.2c0.8-0.7,1.5-1.3,2.2-2.2
	s1.5-1.9,2.2-2.9c0.8-1.3,1.6-2.7,2.4-4c0.8-1.3,1.6-2.5,2.4-3.7c0.8-1.2,1.7-2.2,2.5-3.2c1.2-1.5,2-2.2,2.8-2.8
	c0.5-0.4,1-0.7,1.5-0.7s0.7,0.2,0.8,0.3c0.2,0.2,0.2,0.5,0,1c-0.2,0.4-0.4,0.8-1,1.2c-1,1-2,2.4-3,4.2c-1,1.9-2,4-3,6.4
	c-1,2.4-2,4.8-3,7.4c-1,2.5-2.2,4.9-3.3,7.2c-1,1.9-2.2,3.6-3.3,4.9c-1.2,1.3-2.5,2.4-3.7,3.2c-1.3,0.8-2.7,1.2-3.9,1.3
	c-1.3,0.2-2.5-0.2-3.7-0.8c-1-0.5-1.9-1.2-2.2-2c-0.4-0.8-0.8-1.7-1-2.5s-0.2-1.7,0-2.4c0.2-0.8,0.4-1.3,0.7-1.9
	c0.3-0.4,0.5-0.7,1-0.5c0.3,0,0.5,0.4,0.7,1.2s0.4,1.5,1,2c0.4,0.5,1,0.8,1.6,1c0.5,0.2,1.2,0.3,2,0.2c0.7-0.2,1.5-0.3,2.2-0.7
	c0.8-0.4,1.6-1,2.4-1.7c0.8-0.8,1.6-1.7,2.4-2.7c0.8-1,1.5-1.9,2-2.8c0.5-1,1-1.7,1.2-2.4l0,0c-0.7,0.8-1.3,1.6-2.2,2.2
	c-1,0.8-1.9,1.3-2.9,1.9s-2,1-3,1c-1,0.1-2,0-2.8-0.4s-1.5-1-2-1.7s-1-1.7-1-2.8c-0.2-1.2,0-2.5,0.4-4c0.4-1.6,1.2-3.3,2.4-5.4"/>
</svg>
