<?xml version="1.0" encoding="utf-8"?>
<!-- Generator: Adobe Illustrator 24.0.0, SVG Export Plug-In . SVG Version: 6.00 Build 0)  -->
<svg version="1.1"
	 id="svg30313" inkscape:version="0.92.5 (2060ec1f9f, 2020-04-08)" sodipodi:docname="r-c.svg" xmlns:cc="http://creativecommons.org/ns#" xmlns:dc="http://purl.org/dc/elements/1.1/" xmlns:inkscape="http://www.inkscape.org/namespaces/inkscape" xmlns:rdf="http://www.w3.org/1999/02/22-rdf-syntax-ns#" xmlns:sodipodi="http://sodipodi.sourceforge.net/DTD/sodipodi-0.dtd" xmlns:svg="http://www.w3.org/2000/svg"
	 xmlns="http://www.w3.org/2000/svg" xmlns:xlink="http://www.w3.org/1999/xlink" x="0px" y="0px" viewBox="0 0 522 628.1"
	 style="enable-background:new 0 0 522 628.1;" xml:space="preserve">
<style type="text/css">
	.st0{clip-path:url(#SVGID_2_);fill:url(#path812_1_);}
	.st1{clip-path:url(#SVGID_4_);fill:url(#path836_1_);}
	.st2{clip-path:url(#SVGID_6_);fill:url(#path860_1_);}
	.st3{clip-path:url(#SVGID_8_);fill:url(#path884_1_);}
	.st4{clip-path:url(#SVGID_10_);fill:url(#path908_1_);}
	.st5{clip-path:url(#SVGID_12_);fill:url(#path932_1_);}
	.st6{clip-path:url(#SVGID_14_);fill:url(#path956_1_);}
	.st7{clip-path:url(#SVGID_16_);fill:url(#path980_1_);}
	.st8{clip-path:url(#SVGID_18_);fill:url(#path1004_1_);}
	.st9{clip-path:url(#SVGID_20_);fill:url(#path1028_1_);}
	.st10{clip-path:url(#SVGID_22_);fill:url(#path1052_1_);}
	.st11{clip-path:url(#SVGID_24_);fill:url(#path1076_1_);}
	.st12{clip-path:url(#SVGID_26_);fill:url(#path1100_1_);}
	.st13{clip-path:url(#SVGID_28_);fill:url(#path1124_1_);}
	.st14{clip-path:url(#SVGID_30_);fill:url(#path214_1_);}
	.st15{clip-path:url(#SVGID_32_);fill:url(#path1532_1_);}
	.st16{clip-path:url(#SVGID_34_);fill:url(#path1556_1_);}
	.st17{clip-path:url(#SVGID_36_);fill:url(#path1580_1_);}
	.st18{clip-path:url(#SVGID_38_);fill:url(#path1604_1_);}
	.st19{clip-path:url(#SVGID_40_);fill:url(#path1628_1_);}
	.st20{clip-path:url(#SVGID_42_);fill:url(#path1652_1_);}
	.st21{clip-path:url(#SVGID_44_);fill:url(#path1676_1_);}
	.st22{clip-path:url(#SVGID_46_);fill:url(#path310_1_);}
	.st23{clip-path:url(#SVGID_48_);fill:url(#path334_1_);}
	.st24{clip-path:url(#SVGID_50_);fill:url(#path1148_1_);}
	.st25{clip-path:url(#SVGID_52_);fill:url(#path1172_1_);}
	.st26{clip-path:url(#SVGID_54_);fill:url(#path1196_1_);}
	.st27{clip-path:url(#SVGID_56_);fill:url(#path1220_1_);}
	.st28{clip-path:url(#SVGID_58_);fill:url(#path1244_1_);}
	.st29{clip-path:url(#SVGID_60_);fill:url(#path1268_1_);}
	.st30{clip-path:url(#SVGID_62_);fill:url(#path1292_1_);}
	.st31{clip-path:url(#SVGID_64_);fill:url(#path1316_1_);}
	.st32{clip-path:url(#SVGID_66_);fill:url(#path1340_1_);}
	.st33{clip-path:url(#SVGID_68_);fill:url(#path1364_1_);}
	.st34{clip-path:url(#SVGID_70_);fill:url(#path1388_1_);}
	.st35{clip-path:url(#SVGID_72_);fill:url(#path1412_1_);}
	.st36{clip-path:url(#SVGID_74_);fill:url(#path1436_1_);}
	.st37{clip-path:url(#SVGID_76_);fill:url(#path1460_1_);}
	.st38{clip-path:url(#SVGID_78_);fill:url(#path1484_1_);}
	.st39{clip-path:url(#SVGID_80_);fill:url(#path1508_1_);}
	.st40{clip-path:url(#SVGID_82_);fill:url(#path190_1_);}
	.st41{clip-path:url(#SVGID_84_);fill:url(#path238_1_);}
	.st42{clip-path:url(#SVGID_86_);fill:url(#path262_1_);}
	.st43{clip-path:url(#SVGID_88_);fill:url(#path286_1_);}
	.st44{clip-path:url(#SVGID_90_);fill:url(#path358_1_);}
</style>
<sodipodi:namedview  bordercolor="#666666" borderopacity="1.0" id="base" inkscape:current-layer="layer1" inkscape:cx="535.09271" inkscape:cy="437.65843" inkscape:document-units="mm" inkscape:pageopacity="0.0" inkscape:pageshadow="2" inkscape:window-height="1025" inkscape:window-maximized="1" inkscape:window-width="1920" inkscape:window-x="0" inkscape:window-y="0" inkscape:zoom="0.7" pagecolor="#ffffff" showgrid="false" units="mm">
	</sodipodi:namedview>
<g>
	<g>
		<g>
			<g>
				<defs>
					<path id="SVGID_1_" d="M479.3,251c0,0-0.1,0-0.2,0.2l0,0c-0.1,0-0.3,0-0.4,0l0,0c-3.5,0.2-5.6,4.1-4.3,7.5l4.1,10.8l5-10.5l0,0
						c1.6-3.3-0.2-7.3-3.6-7.9l0,0C479.7,251,479.5,251,479.3,251"/>
				</defs>
				<clipPath id="SVGID_2_">
					<use xlink:href="#SVGID_1_"  style="overflow:visible;"/>
				</clipPath>
				
					<linearGradient id="path812_1_" gradientUnits="userSpaceOnUse" x1="371.6786" y1="0.2352" x2="372.6786" y2="0.2352" gradientTransform="matrix(-44.7175 1519.7367 1519.7367 44.7175 16747.3926 -564789.125)">
					<stop  offset="0" style="stop-color:#E9AC45"/>
					<stop  offset="9.134790e-02" style="stop-color:#E9AC45"/>
					<stop  offset="0.48" style="stop-color:#BC8735"/>
					<stop  offset="1" style="stop-color:#784E3D"/>
				</linearGradient>
				<path id="path812" class="st0" d="M479.3,251c0,0-0.1,0-0.2,0.2l0,0c-0.1,0-0.3,0-0.4,0l0,0c-3.5,0.2-5.6,4.1-4.3,7.5l4.1,10.8
					l5-10.5l0,0c1.6-3.3-0.2-7.3-3.6-7.9l0,0C479.7,251,479.5,251,479.3,251"/>
			</g>
		</g>
		<g>
			<g>
				<defs>
					<path id="SVGID_3_" d="M478.1,280.9c-0.1,0-0.1,0-0.3,0l0,0c-0.1,0-0.3,0-0.4,0l0,0c-3.4,0.3-5.5,4.3-4.2,7.6l4.2,10.8l5-10.5
						l0,0c1.5-3.2-0.3-7.3-3.7-7.8l0,0C478.5,280.9,478.3,280.9,478.1,280.9"/>
				</defs>
				<clipPath id="SVGID_4_">
					<use xlink:href="#SVGID_3_"  style="overflow:visible;"/>
				</clipPath>
				
					<linearGradient id="path836_1_" gradientUnits="userSpaceOnUse" x1="371.6786" y1="0.2353" x2="372.6786" y2="0.2353" gradientTransform="matrix(-44.7153 1519.6625 1519.6625 44.7153 16746.2285 -564761.5)">
					<stop  offset="0" style="stop-color:#E9AC45"/>
					<stop  offset="9.134790e-02" style="stop-color:#E9AC45"/>
					<stop  offset="0.48" style="stop-color:#BC8735"/>
					<stop  offset="1" style="stop-color:#784E3D"/>
				</linearGradient>
				<path id="path836" class="st1" d="M478.1,280.9c-0.1,0-0.1,0-0.3,0l0,0c-0.1,0-0.3,0-0.4,0l0,0c-3.4,0.3-5.5,4.3-4.2,7.6
					l4.2,10.8l5-10.5l0,0c1.5-3.2-0.3-7.3-3.7-7.8l0,0C478.5,280.9,478.3,280.9,478.1,280.9"/>
			</g>
		</g>
		<g>
			<g>
				<defs>
					<path id="SVGID_5_" d="M477.1,310.8c-0.1,0-0.1,0-0.2,0l0,0c-0.2,0-0.3,0-0.5,0l0,0c-3.5,0.3-5.5,4.3-4.2,7.6l4.3,10.8
						l4.9-10.5l0,0c1.5-3.2-0.3-7.3-3.7-7.8l0,0C477.5,310.8,477.3,310.8,477.1,310.8"/>
				</defs>
				<clipPath id="SVGID_6_">
					<use xlink:href="#SVGID_5_"  style="overflow:visible;"/>
				</clipPath>
				
					<linearGradient id="path860_1_" gradientUnits="userSpaceOnUse" x1="371.6786" y1="0.2353" x2="372.6786" y2="0.2353" gradientTransform="matrix(-44.7167 1519.7085 1519.7085 44.7167 16746.6504 -564778.625)">
					<stop  offset="0" style="stop-color:#E9AC45"/>
					<stop  offset="9.134790e-02" style="stop-color:#E9AC45"/>
					<stop  offset="0.48" style="stop-color:#BC8735"/>
					<stop  offset="1" style="stop-color:#784E3D"/>
				</linearGradient>
				<path id="path860" class="st2" d="M477.1,310.8c-0.1,0-0.1,0-0.2,0l0,0c-0.2,0-0.3,0-0.5,0l0,0c-3.5,0.3-5.5,4.3-4.2,7.6
					l4.3,10.8l4.9-10.5l0,0c1.5-3.2-0.3-7.3-3.7-7.8l0,0C477.5,310.8,477.3,310.8,477.1,310.8"/>
			</g>
		</g>
		<g>
			<g>
				<defs>
					<path id="SVGID_7_" d="M476.2,340.7c0,0,0,0-0.1,0l0,0c-0.1,0-0.3,0-0.5,0l0,0c-3.4,0.3-5.4,4.3-4.1,7.6l4.3,10.8l4.8-10.5l0,0
						c1.4-3.3-0.4-7.3-3.8-7.8l0,0C476.6,340.7,476.4,340.7,476.2,340.7"/>
				</defs>
				<clipPath id="SVGID_8_">
					<use xlink:href="#SVGID_7_"  style="overflow:visible;"/>
				</clipPath>
				
					<linearGradient id="path884_1_" gradientUnits="userSpaceOnUse" x1="371.6786" y1="0.2352" x2="372.6786" y2="0.2352" gradientTransform="matrix(-44.7194 1519.8013 1519.8013 44.7194 16747.75 -564813.1875)">
					<stop  offset="0" style="stop-color:#E9AC45"/>
					<stop  offset="9.134790e-02" style="stop-color:#E9AC45"/>
					<stop  offset="0.48" style="stop-color:#BC8735"/>
					<stop  offset="1" style="stop-color:#784E3D"/>
				</linearGradient>
				<path id="path884" class="st3" d="M476.2,340.7c0,0,0,0-0.1,0l0,0c-0.1,0-0.3,0-0.5,0l0,0c-3.4,0.3-5.4,4.3-4.1,7.6l4.3,10.8
					l4.8-10.5l0,0c1.4-3.3-0.4-7.3-3.8-7.8l0,0C476.6,340.7,476.4,340.7,476.2,340.7"/>
			</g>
		</g>
		<g>
			<g>
				<defs>
					<path id="SVGID_9_" d="M475.6,370.5L475.6,370.5L475.6,370.5c-0.3,0-0.5,0.1-0.6,0.2l0,0c-3.5,0.3-5.5,4.3-4.1,7.6l4.4,10.7
						l4.7-10.6l0,0c1.5-3.3-0.4-7.3-3.8-7.8l0,0C476,370.5,475.8,370.5,475.6,370.5"/>
				</defs>
				<clipPath id="SVGID_10_">
					<use xlink:href="#SVGID_9_"  style="overflow:visible;"/>
				</clipPath>
				
					<linearGradient id="path908_1_" gradientUnits="userSpaceOnUse" x1="371.6786" y1="0.2352" x2="372.6786" y2="0.2352" gradientTransform="matrix(-44.7207 1519.8455 1519.8455 44.7207 16748.4902 -564829.625)">
					<stop  offset="0" style="stop-color:#E9AC45"/>
					<stop  offset="9.134790e-02" style="stop-color:#E9AC45"/>
					<stop  offset="0.48" style="stop-color:#BC8735"/>
					<stop  offset="1" style="stop-color:#784E3D"/>
				</linearGradient>
				<path id="path908" class="st4" d="M475.6,370.5L475.6,370.5L475.6,370.5c-0.3,0-0.5,0.1-0.6,0.2l0,0c-3.5,0.3-5.5,4.3-4.1,7.6
					l4.4,10.7l4.7-10.6l0,0c1.5-3.3-0.4-7.3-3.8-7.8l0,0C476,370.5,475.8,370.5,475.6,370.5"/>
			</g>
		</g>
		<g>
			<g>
				<defs>
					<path id="SVGID_11_" d="M475.1,400.4L475.1,400.4L475.1,400.4c-0.2,0-0.4,0.1-0.8-0.1l0,0c-3.4,0.4-5.4,4.4-4,7.7l4.5,10.7
						l4.7-10.6l0,0c1.5-3.2-0.4-7.2-3.8-7.7l0,0C475.5,400.4,475.3,400.4,475.1,400.4"/>
				</defs>
				<clipPath id="SVGID_12_">
					<use xlink:href="#SVGID_11_"  style="overflow:visible;"/>
				</clipPath>
				
					<linearGradient id="path932_1_" gradientUnits="userSpaceOnUse" x1="371.6786" y1="0.2352" x2="372.6786" y2="0.2352" gradientTransform="matrix(-44.7166 1519.7054 1519.7054 44.7166 16747.3809 -564777.5)">
					<stop  offset="0" style="stop-color:#E9AC45"/>
					<stop  offset="9.134790e-02" style="stop-color:#E9AC45"/>
					<stop  offset="0.48" style="stop-color:#BC8735"/>
					<stop  offset="1" style="stop-color:#784E3D"/>
				</linearGradient>
				<path id="path932" class="st5" d="M475.1,400.4L475.1,400.4L475.1,400.4c-0.2,0-0.4,0.1-0.8-0.1l0,0c-3.4,0.4-5.4,4.4-4,7.7
					l4.5,10.7l4.7-10.6l0,0c1.5-3.2-0.4-7.2-3.8-7.7l0,0C475.5,400.4,475.3,400.4,475.1,400.4"/>
			</g>
		</g>
		<g>
			<g>
				<defs>
					<path id="SVGID_13_" d="M474.9,430.3L474.9,430.3L474.9,430.3c-0.3,0-0.5,0.1-0.7-0.1l0,0c-3.5,0.4-5.4,4.4-4,7.7l4.6,10.7
						l4.6-10.6l0,0c1.4-3.3-0.5-7.3-3.9-7.7l0,0C475.3,430.3,475.1,430.3,474.9,430.3"/>
				</defs>
				<clipPath id="SVGID_14_">
					<use xlink:href="#SVGID_13_"  style="overflow:visible;"/>
				</clipPath>
				
					<linearGradient id="path956_1_" gradientUnits="userSpaceOnUse" x1="371.6786" y1="0.2352" x2="372.6786" y2="0.2352" gradientTransform="matrix(-44.7184 1519.7672 1519.7672 44.7184 16748.75 -564800.4375)">
					<stop  offset="0" style="stop-color:#E9AC45"/>
					<stop  offset="9.134790e-02" style="stop-color:#E9AC45"/>
					<stop  offset="0.48" style="stop-color:#BC8735"/>
					<stop  offset="1" style="stop-color:#784E3D"/>
				</linearGradient>
				<path id="path956" class="st6" d="M474.9,430.3L474.9,430.3L474.9,430.3c-0.3,0-0.5,0.1-0.7-0.1l0,0c-3.5,0.4-5.4,4.4-4,7.7
					l4.6,10.7l4.6-10.6l0,0c1.4-3.3-0.5-7.3-3.9-7.7l0,0C475.3,430.3,475.1,430.3,474.9,430.3"/>
			</g>
		</g>
		<g>
			<g>
				<defs>
					<path id="SVGID_15_" d="M475.4,460.3c-0.2,0-0.4-0.1-0.6,0.1l0,0c-0.2,0-0.4,0-0.6,0l0,0c-3.4,0.4-5.3,4.4-3.9,7.7l4.6,10.6
						l4.5-10.7l0,0C480.7,464.7,478.8,460.7,475.4,460.3"/>
				</defs>
				<clipPath id="SVGID_16_">
					<use xlink:href="#SVGID_15_"  style="overflow:visible;"/>
				</clipPath>
				
					<linearGradient id="path980_1_" gradientUnits="userSpaceOnUse" x1="371.6786" y1="0.2353" x2="372.6786" y2="0.2353" gradientTransform="matrix(-44.7181 1519.7567 1519.7567 44.7181 16749.4668 -564796.5)">
					<stop  offset="0" style="stop-color:#E9AC45"/>
					<stop  offset="9.134790e-02" style="stop-color:#E9AC45"/>
					<stop  offset="0.48" style="stop-color:#BC8735"/>
					<stop  offset="1" style="stop-color:#784E3D"/>
				</linearGradient>
				<path id="path980" class="st7" d="M475.4,460.3c-0.2,0-0.4-0.1-0.6,0.1l0,0c-0.2,0-0.4,0-0.6,0l0,0c-3.4,0.4-5.3,4.4-3.9,7.7
					l4.6,10.6l4.5-10.7l0,0C480.7,464.7,478.8,460.7,475.4,460.3"/>
			</g>
		</g>
		<g>
			<g>
				<defs>
					<path id="SVGID_17_" d="M475.6,490.2c-0.2,0-0.4-0.1-0.7,0.1l0,0l0,0l0,0l0,0c-0.2,0-0.4,0-0.6,0l0,0c-3.5,0.4-5.4,4.4-3.9,7.7
						l4.7,10.6l4.5-10.7l0,0C481,494.6,479,490.6,475.6,490.2"/>
				</defs>
				<clipPath id="SVGID_18_">
					<use xlink:href="#SVGID_17_"  style="overflow:visible;"/>
				</clipPath>
				
					<linearGradient id="path1004_1_" gradientUnits="userSpaceOnUse" x1="371.6786" y1="0.2353" x2="372.6786" y2="0.2353" gradientTransform="matrix(-44.7171 1519.7239 1519.7239 44.7171 16750.1152 -564784.25)">
					<stop  offset="0" style="stop-color:#E9AC45"/>
					<stop  offset="9.134790e-02" style="stop-color:#E9AC45"/>
					<stop  offset="0.48" style="stop-color:#BC8735"/>
					<stop  offset="1" style="stop-color:#784E3D"/>
				</linearGradient>
				<path id="path1004" class="st8" d="M475.6,490.2c-0.2,0-0.4-0.1-0.7,0.1l0,0l0,0l0,0l0,0c-0.2,0-0.4,0-0.6,0l0,0
					c-3.5,0.4-5.4,4.4-3.9,7.7l4.7,10.6l4.5-10.7l0,0C481,494.6,479,490.6,475.6,490.2"/>
			</g>
		</g>
		<g>
			<g>
				<defs>
					<path id="SVGID_19_" d="M475.9,520.1c-0.2,0-0.4-0.1-0.6-0.1l0,0h-0.1l0,0c-0.2,0-0.4,0-0.6,0l0,0c-3.4,0.5-5.3,4.5-3.8,7.8
						l4.8,10.6l4.4-10.7l0,0C481.3,524.4,479.4,520.5,475.9,520.1"/>
				</defs>
				<clipPath id="SVGID_20_">
					<use xlink:href="#SVGID_19_"  style="overflow:visible;"/>
				</clipPath>
				
					<linearGradient id="path1028_1_" gradientUnits="userSpaceOnUse" x1="371.6786" y1="0.2353" x2="372.6786" y2="0.2353" gradientTransform="matrix(-44.7176 1519.7399 1519.7399 44.7176 16751.5508 -564790.1875)">
					<stop  offset="0" style="stop-color:#E9AC45"/>
					<stop  offset="9.134790e-02" style="stop-color:#E9AC45"/>
					<stop  offset="0.48" style="stop-color:#BC8735"/>
					<stop  offset="1" style="stop-color:#784E3D"/>
				</linearGradient>
				<path id="path1028" class="st9" d="M475.9,520.1c-0.2,0-0.4-0.1-0.6-0.1l0,0h-0.1l0,0c-0.2,0-0.4,0-0.6,0l0,0
					c-3.4,0.5-5.3,4.5-3.8,7.8l4.8,10.6l4.4-10.7l0,0C481.3,524.4,479.4,520.5,475.9,520.1"/>
			</g>
		</g>
		<g>
			<g>
				<defs>
					<path id="SVGID_21_" d="M476.4,550c-0.2,0-0.4-0.1-0.5-0.1l0,0h-0.1l0,0c-0.2,0.1-0.4,0.1-0.6,0.1l0,0
						c-3.5,0.5-5.3,4.5-3.8,7.8l4.8,10.6l4.3-10.8l0,0C481.9,554.3,479.9,550.3,476.4,550"/>
				</defs>
				<clipPath id="SVGID_22_">
					<use xlink:href="#SVGID_21_"  style="overflow:visible;"/>
				</clipPath>
				
					<linearGradient id="path1052_1_" gradientUnits="userSpaceOnUse" x1="371.6786" y1="0.2353" x2="372.6786" y2="0.2353" gradientTransform="matrix(-44.7183 1519.7618 1519.7618 44.7183 16753.1973 -564798.3125)">
					<stop  offset="0" style="stop-color:#E9AC45"/>
					<stop  offset="9.134790e-02" style="stop-color:#E9AC45"/>
					<stop  offset="0.48" style="stop-color:#BC8735"/>
					<stop  offset="1" style="stop-color:#784E3D"/>
				</linearGradient>
				<path id="path1052" class="st10" d="M476.4,550c-0.2,0-0.4-0.1-0.5-0.1l0,0h-0.1l0,0c-0.2,0.1-0.4,0.1-0.6,0.1l0,0
					c-3.5,0.5-5.3,4.5-3.8,7.8l4.8,10.6l4.3-10.8l0,0C481.9,554.3,479.9,550.3,476.4,550"/>
			</g>
		</g>
		<g>
			<g>
				<defs>
					<path id="SVGID_23_" d="M477.1,579.9c-0.2-0.1-0.3-0.1-0.5,0l0,0c-0.1,0-0.1,0-0.2,0l0,0c-0.2,0-0.4,0.1-0.6,0.1l0,0
						c-3.4,0.5-5.2,4.5-3.7,7.8l4.9,10.5l4.3-10.8l0,0C482.6,584.2,480.6,580.2,477.1,579.9"/>
				</defs>
				<clipPath id="SVGID_24_">
					<use xlink:href="#SVGID_23_"  style="overflow:visible;"/>
				</clipPath>
				
					<linearGradient id="path1076_1_" gradientUnits="userSpaceOnUse" x1="371.6786" y1="0.2353" x2="372.6786" y2="0.2353" gradientTransform="matrix(-44.7183 1519.7616 1519.7616 44.7183 16754.8535 -564798.1875)">
					<stop  offset="0" style="stop-color:#E9AC45"/>
					<stop  offset="9.134790e-02" style="stop-color:#E9AC45"/>
					<stop  offset="0.48" style="stop-color:#BC8735"/>
					<stop  offset="1" style="stop-color:#784E3D"/>
				</linearGradient>
				<path id="path1076" class="st11" d="M477.1,579.9c-0.2-0.1-0.3-0.1-0.5,0l0,0c-0.1,0-0.1,0-0.2,0l0,0c-0.2,0-0.4,0.1-0.6,0.1
					l0,0c-3.4,0.5-5.2,4.5-3.7,7.8l4.9,10.5l4.3-10.8l0,0C482.6,584.2,480.6,580.2,477.1,579.9"/>
			</g>
		</g>
		<g>
			<g>
				<defs>
					<path id="SVGID_25_" d="M478,609.7c-0.2,0-0.3,0-0.4,0l0,0c-0.1,0-0.1,0-0.2,0l0,0c-0.2,0-0.4,0.1-0.6,0.1l0,0
						c-3.4,0.5-5.2,4.6-3.7,7.8l4.9,10.5l4.2-10.8l0,0C483.5,613.9,481.5,610,478,609.7"/>
				</defs>
				<clipPath id="SVGID_26_">
					<use xlink:href="#SVGID_25_"  style="overflow:visible;"/>
				</clipPath>
				
					<linearGradient id="path1100_1_" gradientUnits="userSpaceOnUse" x1="371.6786" y1="0.2353" x2="372.6786" y2="0.2353" gradientTransform="matrix(-44.7159 1519.6818 1519.6818 44.7159 16755.7754 -564768.375)">
					<stop  offset="0" style="stop-color:#E9AC45"/>
					<stop  offset="9.134790e-02" style="stop-color:#E9AC45"/>
					<stop  offset="0.48" style="stop-color:#BC8735"/>
					<stop  offset="1" style="stop-color:#784E3D"/>
				</linearGradient>
				<path id="path1100" class="st12" d="M478,609.7c-0.2,0-0.3,0-0.4,0l0,0c-0.1,0-0.1,0-0.2,0l0,0c-0.2,0-0.4,0.1-0.6,0.1l0,0
					c-3.4,0.5-5.2,4.6-3.7,7.8l4.9,10.5l4.2-10.8l0,0C483.5,613.9,481.5,610,478,609.7"/>
			</g>
		</g>
		<g>
			<g>
				<defs>
					<path id="SVGID_27_" d="M477.2,627.5c13-0.1,12.9-20.2-0.1-20.2l0,0H477l0,0C464,607.4,464.2,627.6,477.2,627.5"/>
				</defs>
				<clipPath id="SVGID_28_">
					<use xlink:href="#SVGID_27_"  style="overflow:visible;"/>
				</clipPath>
				
					<linearGradient id="path1124_1_" gradientUnits="userSpaceOnUse" x1="371.6786" y1="0.2353" x2="372.6786" y2="0.2353" gradientTransform="matrix(-44.7176 1519.7378 1519.7378 44.7176 16756.0469 -564789.3125)">
					<stop  offset="0" style="stop-color:#E9AC45"/>
					<stop  offset="9.134790e-02" style="stop-color:#E9AC45"/>
					<stop  offset="0.48" style="stop-color:#BC8735"/>
					<stop  offset="1" style="stop-color:#784E3D"/>
				</linearGradient>
				<path id="path1124" class="st13" d="M477.2,627.5c13-0.1,12.9-20.2-0.1-20.2l0,0H477l0,0C464,607.4,464.2,627.6,477.2,627.5"/>
			</g>
		</g>
	</g>
	<g>
		<g>
			<g>
				<defs>
					<path id="SVGID_29_" d="M244.2,171.5c-1-1.9-1.8-3.8-2.5-5.9l-2.8,12l0,0c1.2,0.5,2.3,1.1,3.5,1.6L244.2,171.5"/>
				</defs>
				<clipPath id="SVGID_30_">
					<use xlink:href="#SVGID_29_"  style="overflow:visible;"/>
				</clipPath>
				
					<linearGradient id="path214_1_" gradientUnits="userSpaceOnUse" x1="370.9933" y1="-1.2939" x2="371.9933" y2="-1.2939" gradientTransform="matrix(-369.4579 0 0 369.4579 137518.2813 650.4604)">
					<stop  offset="0" style="stop-color:#FFC322"/>
					<stop  offset="9.134790e-02" style="stop-color:#FFC322"/>
					<stop  offset="0.48" style="stop-color:#EAAE20"/>
					<stop  offset="1" style="stop-color:#C77A3E"/>
				</linearGradient>
				<path id="path214" class="st14" d="M244.2,171.5c-1-1.9-1.8-3.8-2.5-5.9l-2.8,12l0,0c1.2,0.5,2.3,1.1,3.5,1.6L244.2,171.5"/>
			</g>
		</g>
		<g>
			<g>
				<defs>
					<path id="SVGID_31_" d="M218.8,140.6c-0.2,0-0.4,0-0.6,0l0,0c-0.2,0-0.4,0-0.6,0l0,0c-3.2,0.3-5.1,4.1-3.7,7.2l4.3,10l4.3-10
						l0,0C223.8,144.7,222,141,218.8,140.6"/>
				</defs>
				<clipPath id="SVGID_32_">
					<use xlink:href="#SVGID_31_"  style="overflow:visible;"/>
				</clipPath>
				
					<linearGradient id="path1532_1_" gradientUnits="userSpaceOnUse" x1="371.6576" y1="0.2505" x2="372.6576" y2="0.2505" gradientTransform="matrix(-41.9884 1426.9874 1426.9874 41.9884 15476.7441 -530582.5)">
					<stop  offset="0" style="stop-color:#E9AC45"/>
					<stop  offset="9.134790e-02" style="stop-color:#E9AC45"/>
					<stop  offset="0.48" style="stop-color:#BC8735"/>
					<stop  offset="1" style="stop-color:#784E3D"/>
				</linearGradient>
				<path id="path1532" class="st15" d="M218.8,140.6c-0.2,0-0.4,0-0.6,0l0,0c-0.2,0-0.4,0-0.6,0l0,0c-3.2,0.3-5.1,4.1-3.7,7.2
					l4.3,10l4.3-10l0,0C223.8,144.7,222,141,218.8,140.6"/>
			</g>
		</g>
		<g>
			<g>
				<defs>
					<path id="SVGID_33_" d="M218.9,168.7c-0.2,0-0.3-0.1-0.6-0.1l0,0l0,0l0,0l0,0c-0.2,0-0.4,0-0.6,0l0,0c-3.2,0.4-5,4.2-3.6,7.3
						l4.4,10l4.2-10l0,0C224,172.8,222.1,169.1,218.9,168.7"/>
				</defs>
				<clipPath id="SVGID_34_">
					<use xlink:href="#SVGID_33_"  style="overflow:visible;"/>
				</clipPath>
				
					<linearGradient id="path1556_1_" gradientUnits="userSpaceOnUse" x1="371.6576" y1="0.2506" x2="372.6576" y2="0.2506" gradientTransform="matrix(-41.9869 1426.9357 1426.9357 41.9869 15477.1621 -530563.1875)">
					<stop  offset="0" style="stop-color:#E9AC45"/>
					<stop  offset="9.134790e-02" style="stop-color:#E9AC45"/>
					<stop  offset="0.48" style="stop-color:#BC8735"/>
					<stop  offset="1" style="stop-color:#784E3D"/>
				</linearGradient>
				<path id="path1556" class="st16" d="M218.9,168.7c-0.2,0-0.3-0.1-0.6-0.1l0,0l0,0l0,0l0,0c-0.2,0-0.4,0-0.6,0l0,0
					c-3.2,0.4-5,4.2-3.6,7.3l4.4,10l4.2-10l0,0C224,172.8,222.1,169.1,218.9,168.7"/>
			</g>
		</g>
		<g>
			<g>
				<defs>
					<path id="SVGID_35_" d="M219.2,196.7c-0.1,0-0.3,0-0.5,0.1l0,0c-0.1,0-0.1,0-0.1,0l0,0c-0.2,0-0.4,0-0.6,0l0,0
						c-3.2,0.4-5,4.2-3.6,7.3l4.5,9.9l4.1-10.1l0,0C224.3,200.8,222.4,197,219.2,196.7"/>
				</defs>
				<clipPath id="SVGID_36_">
					<use xlink:href="#SVGID_35_"  style="overflow:visible;"/>
				</clipPath>
				
					<linearGradient id="path1580_1_" gradientUnits="userSpaceOnUse" x1="371.6576" y1="0.2506" x2="372.6576" y2="0.2506" gradientTransform="matrix(-41.9872 1426.9478 1426.9478 41.9872 15478.3916 -530567.625)">
					<stop  offset="0" style="stop-color:#E9AC45"/>
					<stop  offset="9.134790e-02" style="stop-color:#E9AC45"/>
					<stop  offset="0.48" style="stop-color:#BC8735"/>
					<stop  offset="1" style="stop-color:#784E3D"/>
				</linearGradient>
				<path id="path1580" class="st17" d="M219.2,196.7c-0.1,0-0.3,0-0.5,0.1l0,0c-0.1,0-0.1,0-0.1,0l0,0c-0.2,0-0.4,0-0.6,0l0,0
					c-3.2,0.4-5,4.2-3.6,7.3l4.5,9.9l4.1-10.1l0,0C224.3,200.8,222.4,197,219.2,196.7"/>
			</g>
		</g>
		<g>
			<g>
				<defs>
					<path id="SVGID_37_" d="M219.7,224.8c-0.2,0-0.3,0-0.5,0.1l0,0h-0.1l0,0c-0.2,0-0.4,0-0.6,0l0,0c-3.2,0.4-4.9,4.2-3.5,7.3
						l4.5,9.9l4.1-10.1l0,0C224.8,228.8,222.9,225.1,219.7,224.8"/>
				</defs>
				<clipPath id="SVGID_38_">
					<use xlink:href="#SVGID_37_"  style="overflow:visible;"/>
				</clipPath>
				
					<linearGradient id="path1604_1_" gradientUnits="userSpaceOnUse" x1="371.6576" y1="0.2506" x2="372.6576" y2="0.2506" gradientTransform="matrix(-41.9861 1426.9098 1426.9098 41.9861 15479.3301 -530553.5)">
					<stop  offset="0" style="stop-color:#E9AC45"/>
					<stop  offset="9.134790e-02" style="stop-color:#E9AC45"/>
					<stop  offset="0.48" style="stop-color:#BC8735"/>
					<stop  offset="1" style="stop-color:#784E3D"/>
				</linearGradient>
				<path id="path1604" class="st18" d="M219.7,224.8c-0.2,0-0.3,0-0.5,0.1l0,0h-0.1l0,0c-0.2,0-0.4,0-0.6,0l0,0
					c-3.2,0.4-4.9,4.2-3.5,7.3l4.5,9.9l4.1-10.1l0,0C224.8,228.8,222.9,225.1,219.7,224.8"/>
			</g>
		</g>
		<g>
			<g>
				<defs>
					<path id="SVGID_39_" d="M220.4,252.9c-0.2,0-0.3,0-0.5-0.1l0,0h-0.1l0,0c-0.2,0.1-0.4,0.1-0.6,0.1l0,0
						c-3.2,0.4-4.9,4.2-3.5,7.3l4.6,9.9l4-10.1l0,0C225.5,256.9,223.6,253.2,220.4,252.9"/>
				</defs>
				<clipPath id="SVGID_40_">
					<use xlink:href="#SVGID_39_"  style="overflow:visible;"/>
				</clipPath>
				
					<linearGradient id="path1628_1_" gradientUnits="userSpaceOnUse" x1="371.6576" y1="0.2506" x2="372.6576" y2="0.2506" gradientTransform="matrix(-41.9857 1426.8953 1426.8953 41.9857 15480.7188 -530548.0625)">
					<stop  offset="0" style="stop-color:#E9AC45"/>
					<stop  offset="9.134790e-02" style="stop-color:#E9AC45"/>
					<stop  offset="0.48" style="stop-color:#BC8735"/>
					<stop  offset="1" style="stop-color:#784E3D"/>
				</linearGradient>
				<path id="path1628" class="st19" d="M220.4,252.9c-0.2,0-0.3,0-0.5-0.1l0,0h-0.1l0,0c-0.2,0.1-0.4,0.1-0.6,0.1l0,0
					c-3.2,0.4-4.9,4.2-3.5,7.3l4.6,9.9l4-10.1l0,0C225.5,256.9,223.6,253.2,220.4,252.9"/>
			</g>
		</g>
		<g>
			<g>
				<defs>
					<path id="SVGID_41_" d="M221.2,280.9c-0.1,0-0.3,0-0.4-0.1l0,0c-0.1,0-0.1,0-0.2,0l0,0c-0.2,0-0.4,0.1-0.6,0.1l0,0
						c-3.3,0.5-4.9,4.4-3.5,7.4l4.6,9.8l4-10.1l0,0C226.4,284.9,224.4,281.2,221.2,280.9"/>
				</defs>
				<clipPath id="SVGID_42_">
					<use xlink:href="#SVGID_41_"  style="overflow:visible;"/>
				</clipPath>
				
					<linearGradient id="path1652_1_" gradientUnits="userSpaceOnUse" x1="371.6576" y1="0.2506" x2="372.6576" y2="0.2506" gradientTransform="matrix(-41.9865 1426.9208 1426.9208 41.9865 15482.6934 -530557.5)">
					<stop  offset="0" style="stop-color:#E9AC45"/>
					<stop  offset="9.134790e-02" style="stop-color:#E9AC45"/>
					<stop  offset="0.48" style="stop-color:#BC8735"/>
					<stop  offset="1" style="stop-color:#784E3D"/>
				</linearGradient>
				<path id="path1652" class="st20" d="M221.2,280.9c-0.1,0-0.3,0-0.4-0.1l0,0c-0.1,0-0.1,0-0.2,0l0,0c-0.2,0-0.4,0.1-0.6,0.1l0,0
					c-3.3,0.5-4.9,4.4-3.5,7.4l4.6,9.8l4-10.1l0,0C226.4,284.9,224.4,281.2,221.2,280.9"/>
			</g>
		</g>
		<g>
			<g>
				<defs>
					<path id="SVGID_43_" d="M220.5,297.7c12.2-0.1,12.1-19-0.1-19l0,0h-0.1l0,0C208.1,278.8,208.3,297.8,220.5,297.7"/>
				</defs>
				<clipPath id="SVGID_44_">
					<use xlink:href="#SVGID_43_"  style="overflow:visible;"/>
				</clipPath>
				
					<linearGradient id="path1676_1_" gradientUnits="userSpaceOnUse" x1="371.6576" y1="0.2506" x2="372.6576" y2="0.2506" gradientTransform="matrix(-41.9869 1426.936 1426.936 41.9869 15482.5195 -530563.1875)">
					<stop  offset="0" style="stop-color:#E9AC45"/>
					<stop  offset="9.134790e-02" style="stop-color:#E9AC45"/>
					<stop  offset="0.48" style="stop-color:#BC8735"/>
					<stop  offset="1" style="stop-color:#784E3D"/>
				</linearGradient>
				<path id="path1676" class="st21" d="M220.5,297.7c12.2-0.1,12.1-19-0.1-19l0,0h-0.1l0,0C208.1,278.8,208.3,297.8,220.5,297.7"/>
			</g>
		</g>
	</g>
	<g>
		<g>
			<g>
				<defs>
					<path id="SVGID_45_" d="M361.7,18.2c-0.1-0.3-0.2-0.6-0.3-1l-0.2,0.5L361.7,18.2"/>
				</defs>
				<clipPath id="SVGID_46_">
					<use xlink:href="#SVGID_45_"  style="overflow:visible;"/>
				</clipPath>
				
					<linearGradient id="path310_1_" gradientUnits="userSpaceOnUse" x1="371.7886" y1="-0.2717" x2="372.7886" y2="-0.2717" gradientTransform="matrix(-1759.1416 0 0 1759.1416 655432.625 495.7289)">
					<stop  offset="0" style="stop-color:#FFC322"/>
					<stop  offset="9.134790e-02" style="stop-color:#FFC322"/>
					<stop  offset="0.48" style="stop-color:#EAAE20"/>
					<stop  offset="1" style="stop-color:#C77A3E"/>
				</linearGradient>
				<path id="path310" class="st22" d="M361.7,18.2c-0.1-0.3-0.2-0.6-0.3-1l-0.2,0.5L361.7,18.2"/>
			</g>
		</g>
		<g>
			<g>
				<defs>
					<path id="SVGID_47_" d="M361.7,154.3c-0.1-0.3-0.2-0.6-0.3-1l-0.2,0.5L361.7,154.3"/>
				</defs>
				<clipPath id="SVGID_48_">
					<use xlink:href="#SVGID_47_"  style="overflow:visible;"/>
				</clipPath>
				
					<linearGradient id="path334_1_" gradientUnits="userSpaceOnUse" x1="371.7881" y1="-0.2723" x2="372.7881" y2="-0.2723" gradientTransform="matrix(-1755.3207 0 0 1755.3207 654009 631.8178)">
					<stop  offset="0" style="stop-color:#FFC322"/>
					<stop  offset="9.134790e-02" style="stop-color:#FFC322"/>
					<stop  offset="0.48" style="stop-color:#EAAE20"/>
					<stop  offset="1" style="stop-color:#C77A3E"/>
				</linearGradient>
				<path id="path334" class="st23" d="M361.7,154.3c-0.1-0.3-0.2-0.6-0.3-1l-0.2,0.5L361.7,154.3"/>
			</g>
		</g>
		<g>
			<g>
				<defs>
					<path id="SVGID_49_" d="M363.7,0.6c-0.1,0-0.2,0-0.4,0l0,0c-0.1,0-0.2,0-0.3,0l0,0c-3.5,0.2-5.6,4.1-4.4,7.5l4,10.9l5.2-10.4
						l0,0c1.6-3.2-0.1-7.3-3.5-7.9l0,0C364.1,0.6,363.9,0.6,363.7,0.6"/>
				</defs>
				<clipPath id="SVGID_50_">
					<use xlink:href="#SVGID_49_"  style="overflow:visible;"/>
				</clipPath>
				
					<linearGradient id="path1148_1_" gradientUnits="userSpaceOnUse" x1="371.6798" y1="0.2344" x2="372.6798" y2="0.2344" gradientTransform="matrix(-44.891 1525.6316 1525.6316 44.891 16694.4238 -567173.125)">
					<stop  offset="0" style="stop-color:#E9AC45"/>
					<stop  offset="9.134790e-02" style="stop-color:#E9AC45"/>
					<stop  offset="0.48" style="stop-color:#BC8735"/>
					<stop  offset="1" style="stop-color:#784E3D"/>
				</linearGradient>
				<path id="path1148" class="st24" d="M363.7,0.6c-0.1,0-0.2,0-0.4,0l0,0c-0.1,0-0.2,0-0.3,0l0,0c-3.5,0.2-5.6,4.1-4.4,7.5l4,10.9
					l5.2-10.4l0,0c1.6-3.2-0.1-7.3-3.5-7.9l0,0C364.1,0.6,363.9,0.6,363.7,0.6"/>
			</g>
		</g>
		<g>
			<g>
				<defs>
					<path id="SVGID_51_" d="M362.1,30.6c-0.1,0-0.2,0-0.3,0.1l0,0c-0.2,0-0.3,0-0.4,0l0,0c-3.4,0.2-5.6,4.1-4.3,7.5l4.1,10.9
						l5.1-10.5l0,0c1.6-3.2-0.2-7.3-3.6-7.9l0,0C362.5,30.6,362.3,30.6,362.1,30.6"/>
				</defs>
				<clipPath id="SVGID_52_">
					<use xlink:href="#SVGID_51_"  style="overflow:visible;"/>
				</clipPath>
				
					<linearGradient id="path1172_1_" gradientUnits="userSpaceOnUse" x1="371.6798" y1="0.2344" x2="372.6798" y2="0.2344" gradientTransform="matrix(-44.8886 1525.5498 1525.5498 44.8886 16692.8535 -567142.6875)">
					<stop  offset="0" style="stop-color:#E9AC45"/>
					<stop  offset="9.134790e-02" style="stop-color:#E9AC45"/>
					<stop  offset="0.48" style="stop-color:#BC8735"/>
					<stop  offset="1" style="stop-color:#784E3D"/>
				</linearGradient>
				<path id="path1172" class="st25" d="M362.1,30.6c-0.1,0-0.2,0-0.3,0.1l0,0c-0.2,0-0.3,0-0.4,0l0,0c-3.4,0.2-5.6,4.1-4.3,7.5
					l4.1,10.9l5.1-10.5l0,0c1.6-3.2-0.2-7.3-3.6-7.9l0,0C362.5,30.6,362.3,30.6,362.1,30.6"/>
			</g>
		</g>
		<g>
			<g>
				<defs>
					<path id="SVGID_53_" d="M360.6,60.6c0,0-0.1,0-0.2,0l0,0c-0.1,0-0.3,0-0.4,0l0,0c-3.5,0.3-5.6,4.2-4.3,7.6l4.1,10.9l5-10.5l0,0
						c1.6-3.2-0.2-7.3-3.6-7.9l0,0C361,60.6,360.8,60.6,360.6,60.6"/>
				</defs>
				<clipPath id="SVGID_54_">
					<use xlink:href="#SVGID_53_"  style="overflow:visible;"/>
				</clipPath>
				
					<linearGradient id="path1196_1_" gradientUnits="userSpaceOnUse" x1="371.6798" y1="0.2343" x2="372.6798" y2="0.2343" gradientTransform="matrix(-44.8889 1525.562 1525.562 44.8889 16692.4746 -567147.25)">
					<stop  offset="0" style="stop-color:#E9AC45"/>
					<stop  offset="9.134790e-02" style="stop-color:#E9AC45"/>
					<stop  offset="0.48" style="stop-color:#BC8735"/>
					<stop  offset="1" style="stop-color:#784E3D"/>
				</linearGradient>
				<path id="path1196" class="st26" d="M360.6,60.6c0,0-0.1,0-0.2,0l0,0c-0.1,0-0.3,0-0.4,0l0,0c-3.5,0.3-5.6,4.2-4.3,7.6l4.1,10.9
					l5-10.5l0,0c1.6-3.2-0.2-7.3-3.6-7.9l0,0C361,60.6,360.8,60.6,360.6,60.6"/>
			</g>
		</g>
		<g>
			<g>
				<defs>
					<path id="SVGID_55_" d="M359.4,90.5c-0.1,0-0.1,0-0.3,0l0,0c-0.1,0-0.3,0-0.4,0l0,0c-3.4,0.3-5.5,4.2-4.2,7.6l4.2,10.9l5-10.5
						l0,0c1.5-3.3-0.3-7.3-3.7-7.9l0,0C359.8,90.5,359.6,90.5,359.4,90.5"/>
				</defs>
				<clipPath id="SVGID_56_">
					<use xlink:href="#SVGID_55_"  style="overflow:visible;"/>
				</clipPath>
				
					<linearGradient id="path1220_1_" gradientUnits="userSpaceOnUse" x1="371.6798" y1="0.2344" x2="372.6798" y2="0.2344" gradientTransform="matrix(-44.8885 1525.549 1525.549 44.8885 16691.9805 -567142.375)">
					<stop  offset="0" style="stop-color:#E9AC45"/>
					<stop  offset="9.134790e-02" style="stop-color:#E9AC45"/>
					<stop  offset="0.48" style="stop-color:#BC8735"/>
					<stop  offset="1" style="stop-color:#784E3D"/>
				</linearGradient>
				<path id="path1220" class="st27" d="M359.4,90.5c-0.1,0-0.1,0-0.3,0l0,0c-0.1,0-0.3,0-0.4,0l0,0c-3.4,0.3-5.5,4.2-4.2,7.6
					l4.2,10.9l5-10.5l0,0c1.5-3.3-0.3-7.3-3.7-7.9l0,0C359.8,90.5,359.6,90.5,359.4,90.5"/>
			</g>
		</g>
		<g>
			<g>
				<defs>
					<path id="SVGID_57_" d="M358.4,120.5c-0.1,0-0.1,0-0.2,0.1l0,0c-0.2,0-0.3,0-0.5,0l0,0c-3.5,0.3-5.5,4.3-4.2,7.6l4.3,10.8
						l4.9-10.6l0,0c1.5-3.2-0.3-7.3-3.7-7.8l0,0C358.8,120.5,358.6,120.5,358.4,120.5"/>
				</defs>
				<clipPath id="SVGID_58_">
					<use xlink:href="#SVGID_57_"  style="overflow:visible;"/>
				</clipPath>
				
					<linearGradient id="path1244_1_" gradientUnits="userSpaceOnUse" x1="371.6798" y1="0.2344" x2="372.6798" y2="0.2344" gradientTransform="matrix(-44.8904 1525.6111 1525.6111 44.8904 16692.5391 -567165.5625)">
					<stop  offset="0" style="stop-color:#E9AC45"/>
					<stop  offset="9.134790e-02" style="stop-color:#E9AC45"/>
					<stop  offset="0.48" style="stop-color:#BC8735"/>
					<stop  offset="1" style="stop-color:#784E3D"/>
				</linearGradient>
				<path id="path1244" class="st28" d="M358.4,120.5c-0.1,0-0.1,0-0.2,0.1l0,0c-0.2,0-0.3,0-0.5,0l0,0c-3.5,0.3-5.5,4.3-4.2,7.6
					l4.3,10.8l4.9-10.6l0,0c1.5-3.2-0.3-7.3-3.7-7.8l0,0C358.8,120.5,358.6,120.5,358.4,120.5"/>
			</g>
		</g>
		<g>
			<g>
				<defs>
					<path id="SVGID_59_" d="M357.5,150.5c0,0,0,0-0.1,0.1l0,0c-0.2,0-0.3,0-0.5,0l0,0c-3.5,0.3-5.5,4.3-4.2,7.6l4.4,10.8l4.8-10.6
						l0,0c1.5-3.2-0.4-7.3-3.8-7.8l0,0C357.9,150.5,357.7,150.5,357.5,150.5"/>
				</defs>
				<clipPath id="SVGID_60_">
					<use xlink:href="#SVGID_59_"  style="overflow:visible;"/>
				</clipPath>
				
					<linearGradient id="path1268_1_" gradientUnits="userSpaceOnUse" x1="371.6798" y1="0.2343" x2="372.6798" y2="0.2343" gradientTransform="matrix(-44.8896 1525.5854 1525.5854 44.8896 16692.3613 -567156)">
					<stop  offset="0" style="stop-color:#E9AC45"/>
					<stop  offset="9.134790e-02" style="stop-color:#E9AC45"/>
					<stop  offset="0.48" style="stop-color:#BC8735"/>
					<stop  offset="1" style="stop-color:#784E3D"/>
				</linearGradient>
				<path id="path1268" class="st29" d="M357.5,150.5c0,0,0,0-0.1,0.1l0,0c-0.2,0-0.3,0-0.5,0l0,0c-3.5,0.3-5.5,4.3-4.2,7.6
					l4.4,10.8l4.8-10.6l0,0c1.5-3.2-0.4-7.3-3.8-7.8l0,0C357.9,150.5,357.7,150.5,357.5,150.5"/>
			</g>
		</g>
		<g>
			<g>
				<defs>
					<path id="SVGID_61_" d="M356.9,180.6C356.8,180.6,356.8,180.6,356.9,180.6L356.9,180.6c-0.3,0-0.5,0-0.7,0l0,0
						c-3.5,0.4-5.5,4.4-4.1,7.7l4.4,10.8l4.8-10.6l0,0c1.5-3.3-0.3-7.3-3.8-7.8l0,0C357.3,180.6,357.1,180.6,356.9,180.6"/>
				</defs>
				<clipPath id="SVGID_62_">
					<use xlink:href="#SVGID_61_"  style="overflow:visible;"/>
				</clipPath>
				
					<linearGradient id="path1292_1_" gradientUnits="userSpaceOnUse" x1="371.6798" y1="0.2343" x2="372.6798" y2="0.2343" gradientTransform="matrix(-44.8909 1525.6307 1525.6307 44.8909 16693.1113 -567172.8125)">
					<stop  offset="0" style="stop-color:#E9AC45"/>
					<stop  offset="9.134790e-02" style="stop-color:#E9AC45"/>
					<stop  offset="0.48" style="stop-color:#BC8735"/>
					<stop  offset="1" style="stop-color:#784E3D"/>
				</linearGradient>
				<path id="path1292" class="st30" d="M356.9,180.6C356.8,180.6,356.8,180.6,356.9,180.6L356.9,180.6c-0.3,0-0.5,0-0.7,0l0,0
					c-3.5,0.4-5.5,4.4-4.1,7.7l4.4,10.8l4.8-10.6l0,0c1.5-3.3-0.3-7.3-3.8-7.8l0,0C357.3,180.6,357.1,180.6,356.9,180.6"/>
			</g>
		</g>
		<g>
			<g>
				<defs>
					<path id="SVGID_63_" d="M356.4,210.6L356.4,210.6L356.4,210.6c-0.2,0-0.4,0-0.6,0l0,0c-3.5,0.4-5.5,4.4-4.1,7.7l4.5,10.7
						l4.7-10.6l0,0c1.4-3.3-0.4-7.3-3.9-7.8l0,0C356.8,210.6,356.6,210.6,356.4,210.6"/>
				</defs>
				<clipPath id="SVGID_64_">
					<use xlink:href="#SVGID_63_"  style="overflow:visible;"/>
				</clipPath>
				
					<linearGradient id="path1316_1_" gradientUnits="userSpaceOnUse" x1="371.6798" y1="0.2344" x2="372.6798" y2="0.2344" gradientTransform="matrix(-44.8867 1525.4868 1525.4868 44.8867 16692.0039 -567119.25)">
					<stop  offset="0" style="stop-color:#E9AC45"/>
					<stop  offset="9.134790e-02" style="stop-color:#E9AC45"/>
					<stop  offset="0.48" style="stop-color:#BC8735"/>
					<stop  offset="1" style="stop-color:#784E3D"/>
				</linearGradient>
				<path id="path1316" class="st31" d="M356.4,210.6L356.4,210.6L356.4,210.6c-0.2,0-0.4,0-0.6,0l0,0c-3.5,0.4-5.5,4.4-4.1,7.7
					l4.5,10.7l4.7-10.6l0,0c1.4-3.3-0.4-7.3-3.9-7.8l0,0C356.8,210.6,356.6,210.6,356.4,210.6"/>
			</g>
		</g>
		<g>
			<g>
				<defs>
					<path id="SVGID_65_" d="M356.2,240.6C356.1,240.6,356.1,240.6,356.2,240.6L356.2,240.6c-0.3,0-0.5,0-0.7,0l0,0
						c-3.5,0.4-5.4,4.4-4,7.7l4.6,10.7l4.6-10.7l0,0c1.4-3.2-0.4-7.3-3.9-7.7l0,0C356.6,240.6,356.4,240.6,356.2,240.6"/>
				</defs>
				<clipPath id="SVGID_66_">
					<use xlink:href="#SVGID_65_"  style="overflow:visible;"/>
				</clipPath>
				
					<linearGradient id="path1340_1_" gradientUnits="userSpaceOnUse" x1="371.6798" y1="0.2344" x2="372.6798" y2="0.2344" gradientTransform="matrix(-44.8886 1525.5499 1525.5499 44.8886 16693.3691 -567142.75)">
					<stop  offset="0" style="stop-color:#E9AC45"/>
					<stop  offset="9.134790e-02" style="stop-color:#E9AC45"/>
					<stop  offset="0.48" style="stop-color:#BC8735"/>
					<stop  offset="1" style="stop-color:#784E3D"/>
				</linearGradient>
				<path id="path1340" class="st32" d="M356.2,240.6C356.1,240.6,356.1,240.6,356.2,240.6L356.2,240.6c-0.3,0-0.5,0-0.7,0l0,0
					c-3.5,0.4-5.4,4.4-4,7.7l4.6,10.7l4.6-10.7l0,0c1.4-3.2-0.4-7.3-3.9-7.7l0,0C356.6,240.6,356.4,240.6,356.2,240.6"/>
			</g>
		</g>
		<g>
			<g>
				<defs>
					<path id="SVGID_67_" d="M356.7,270.6c-0.2,0-0.4,0-0.7,0l0,0c-0.2,0-0.4,0-0.6,0l0,0c-3.4,0.4-5.3,4.4-3.9,7.7l4.6,10.7
						l4.6-10.7l0,0C362.1,275,360.2,271,356.7,270.6"/>
				</defs>
				<clipPath id="SVGID_68_">
					<use xlink:href="#SVGID_67_"  style="overflow:visible;"/>
				</clipPath>
				
					<linearGradient id="path1364_1_" gradientUnits="userSpaceOnUse" x1="371.6798" y1="0.2344" x2="372.6798" y2="0.2344" gradientTransform="matrix(-44.8888 1525.5566 1525.5566 44.8888 16694.2324 -567145.1875)">
					<stop  offset="0" style="stop-color:#E9AC45"/>
					<stop  offset="9.134790e-02" style="stop-color:#E9AC45"/>
					<stop  offset="0.48" style="stop-color:#BC8735"/>
					<stop  offset="1" style="stop-color:#784E3D"/>
				</linearGradient>
				<path id="path1364" class="st33" d="M356.7,270.6c-0.2,0-0.4,0-0.7,0l0,0c-0.2,0-0.4,0-0.6,0l0,0c-3.4,0.4-5.3,4.4-3.9,7.7
					l4.6,10.7l4.6-10.7l0,0C362.1,275,360.2,271,356.7,270.6"/>
			</g>
		</g>
		<g>
			<g>
				<defs>
					<path id="SVGID_69_" d="M356.8,300.6c-0.2,0-0.4,0-0.7-0.1l0,0l0,0l0,0c-0.2,0-0.4,0-0.6,0l0,0c-3.5,0.5-5.4,4.5-3.9,7.8
						l4.7,10.7l4.5-10.7l0,0C362.2,305,360.3,301,356.8,300.6"/>
				</defs>
				<clipPath id="SVGID_70_">
					<use xlink:href="#SVGID_69_"  style="overflow:visible;"/>
				</clipPath>
				
					<linearGradient id="path1388_1_" gradientUnits="userSpaceOnUse" x1="371.6798" y1="0.2343" x2="372.6798" y2="0.2343" gradientTransform="matrix(-44.8874 1525.5101 1525.5101 44.8874 16694.8145 -567127.875)">
					<stop  offset="0" style="stop-color:#E9AC45"/>
					<stop  offset="9.134790e-02" style="stop-color:#E9AC45"/>
					<stop  offset="0.48" style="stop-color:#BC8735"/>
					<stop  offset="1" style="stop-color:#784E3D"/>
				</linearGradient>
				<path id="path1388" class="st34" d="M356.8,300.6c-0.2,0-0.4,0-0.7-0.1l0,0l0,0l0,0c-0.2,0-0.4,0-0.6,0l0,0
					c-3.5,0.5-5.4,4.5-3.9,7.8l4.7,10.7l4.5-10.7l0,0C362.2,305,360.3,301,356.8,300.6"/>
			</g>
		</g>
		<g>
			<g>
				<defs>
					<path id="SVGID_71_" d="M357.2,330.7c-0.2-0.1-0.4-0.1-0.6,0.1l0,0c-0.1,0-0.1,0-0.1,0l0,0c-0.2,0-0.4,0-0.6,0l0,0
						c-3.4,0.5-5.3,4.5-3.8,7.8l4.8,10.6l4.4-10.8l0,0C362.7,335.1,360.7,331.1,357.2,330.7"/>
				</defs>
				<clipPath id="SVGID_72_">
					<use xlink:href="#SVGID_71_"  style="overflow:visible;"/>
				</clipPath>
				
					<linearGradient id="path1412_1_" gradientUnits="userSpaceOnUse" x1="371.6798" y1="0.2344" x2="372.6798" y2="0.2344" gradientTransform="matrix(-44.8905 1525.6158 1525.6158 44.8905 16697.2051 -567167.1875)">
					<stop  offset="0" style="stop-color:#E9AC45"/>
					<stop  offset="9.134790e-02" style="stop-color:#E9AC45"/>
					<stop  offset="0.48" style="stop-color:#BC8735"/>
					<stop  offset="1" style="stop-color:#784E3D"/>
				</linearGradient>
				<path id="path1412" class="st35" d="M357.2,330.7c-0.2-0.1-0.4-0.1-0.6,0.1l0,0c-0.1,0-0.1,0-0.1,0l0,0c-0.2,0-0.4,0-0.6,0l0,0
					c-3.4,0.5-5.3,4.5-3.8,7.8l4.8,10.6l4.4-10.8l0,0C362.7,335.1,360.7,331.1,357.2,330.7"/>
			</g>
		</g>
		<g>
			<g>
				<defs>
					<path id="SVGID_73_" d="M357.7,360.7c-0.2-0.1-0.4-0.1-0.6-0.1l0,0H357l0,0c-0.2,0.1-0.4,0.1-0.6,0.1l0,0
						c-3.5,0.5-5.3,4.5-3.8,7.8l4.8,10.6l4.4-10.8l0,0C363.2,365,361.2,361,357.7,360.7"/>
				</defs>
				<clipPath id="SVGID_74_">
					<use xlink:href="#SVGID_73_"  style="overflow:visible;"/>
				</clipPath>
				
					<linearGradient id="path1436_1_" gradientUnits="userSpaceOnUse" x1="371.6798" y1="0.2344" x2="372.6798" y2="0.2344" gradientTransform="matrix(-44.8885 1525.5474 1525.5474 44.8885 16697.8477 -567141.625)">
					<stop  offset="0" style="stop-color:#E9AC45"/>
					<stop  offset="9.134790e-02" style="stop-color:#E9AC45"/>
					<stop  offset="0.48" style="stop-color:#BC8735"/>
					<stop  offset="1" style="stop-color:#784E3D"/>
				</linearGradient>
				<path id="path1436" class="st36" d="M357.7,360.7c-0.2-0.1-0.4-0.1-0.6-0.1l0,0H357l0,0c-0.2,0.1-0.4,0.1-0.6,0.1l0,0
					c-3.5,0.5-5.3,4.5-3.8,7.8l4.8,10.6l4.4-10.8l0,0C363.2,365,361.2,361,357.7,360.7"/>
			</g>
		</g>
		<g>
			<g>
				<defs>
					<path id="SVGID_75_" d="M358.4,390.7c-0.2,0-0.3-0.1-0.5-0.1l0,0c-0.1,0-0.1,0-0.2,0l0,0c-0.2,0-0.4,0.1-0.6,0.1l0,0
						c-3.4,0.5-5.2,4.5-3.7,7.8l4.9,10.6l4.3-10.8l0,0C363.9,395,361.9,391,358.4,390.7"/>
				</defs>
				<clipPath id="SVGID_76_">
					<use xlink:href="#SVGID_75_"  style="overflow:visible;"/>
				</clipPath>
				
					<linearGradient id="path1460_1_" gradientUnits="userSpaceOnUse" x1="371.6798" y1="0.2344" x2="372.6798" y2="0.2344" gradientTransform="matrix(-44.8881 1525.5338 1525.5338 44.8881 16699.3574 -567136.5625)">
					<stop  offset="0" style="stop-color:#E9AC45"/>
					<stop  offset="9.134790e-02" style="stop-color:#E9AC45"/>
					<stop  offset="0.48" style="stop-color:#BC8735"/>
					<stop  offset="1" style="stop-color:#784E3D"/>
				</linearGradient>
				<path id="path1460" class="st37" d="M358.4,390.7c-0.2,0-0.3-0.1-0.5-0.1l0,0c-0.1,0-0.1,0-0.2,0l0,0c-0.2,0-0.4,0.1-0.6,0.1
					l0,0c-3.4,0.5-5.2,4.5-3.7,7.8l4.9,10.6l4.3-10.8l0,0C363.9,395,361.9,391,358.4,390.7"/>
			</g>
		</g>
		<g>
			<g>
				<defs>
					<path id="SVGID_77_" d="M359.3,420.7c-0.2,0-0.3,0-0.5,0l0,0c-0.1,0-0.1,0-0.2,0l0,0c-0.2,0-0.4,0.1-0.6,0.1l0,0
						c-3.4,0.6-5.2,4.6-3.7,7.9l5,10.5l4.2-10.9l0,0C364.8,424.9,362.8,421,359.3,420.7"/>
				</defs>
				<clipPath id="SVGID_78_">
					<use xlink:href="#SVGID_77_"  style="overflow:visible;"/>
				</clipPath>
				
					<linearGradient id="path1484_1_" gradientUnits="userSpaceOnUse" x1="371.6798" y1="0.2344" x2="372.6798" y2="0.2344" gradientTransform="matrix(-44.8894 1525.5784 1525.5784 44.8894 16701.6426 -567153.0625)">
					<stop  offset="0" style="stop-color:#E9AC45"/>
					<stop  offset="9.134790e-02" style="stop-color:#E9AC45"/>
					<stop  offset="0.48" style="stop-color:#BC8735"/>
					<stop  offset="1" style="stop-color:#784E3D"/>
				</linearGradient>
				<path id="path1484" class="st38" d="M359.3,420.7c-0.2,0-0.3,0-0.5,0l0,0c-0.1,0-0.1,0-0.2,0l0,0c-0.2,0-0.4,0.1-0.6,0.1l0,0
					c-3.4,0.6-5.2,4.6-3.7,7.9l5,10.5l4.2-10.9l0,0C364.8,424.9,362.8,421,359.3,420.7"/>
			</g>
		</g>
		<g>
			<g>
				<defs>
					<path id="SVGID_79_" d="M358.5,438.5c13-0.1,12.9-20.3-0.1-20.3l0,0h-0.1l0,0C345.2,418.3,345.4,438.6,358.5,438.5"/>
				</defs>
				<clipPath id="SVGID_80_">
					<use xlink:href="#SVGID_79_"  style="overflow:visible;"/>
				</clipPath>
				
					<linearGradient id="path1508_1_" gradientUnits="userSpaceOnUse" x1="371.6798" y1="0.2344" x2="372.6798" y2="0.2344" gradientTransform="matrix(-44.8889 1525.5621 1525.5621 44.8889 16701.1152 -567147)">
					<stop  offset="0" style="stop-color:#E9AC45"/>
					<stop  offset="9.134790e-02" style="stop-color:#E9AC45"/>
					<stop  offset="0.48" style="stop-color:#BC8735"/>
					<stop  offset="1" style="stop-color:#784E3D"/>
				</linearGradient>
				<path id="path1508" class="st39" d="M358.5,438.5c13-0.1,12.9-20.3-0.1-20.3l0,0h-0.1l0,0C345.2,418.3,345.4,438.6,358.5,438.5"
					/>
			</g>
		</g>
	</g>
	<g>
		<g>
			<defs>
				<path id="SVGID_81_" d="M0,0L0,0c58.7,241.9,391.1,168.7,522,400.6V0L0,0z"/>
			</defs>
			<clipPath id="SVGID_82_">
				<use xlink:href="#SVGID_81_"  style="overflow:visible;"/>
			</clipPath>
			
				<linearGradient id="path190_1_" gradientUnits="userSpaceOnUse" x1="370.4367" y1="0.1733" x2="371.4367" y2="0.1733" gradientTransform="matrix(-201.5586 328.1189 328.1189 201.5586 75038.875 -121658.7734)">
				<stop  offset="0" style="stop-color:#EE2960"/>
				<stop  offset="8.226570e-02" style="stop-color:#EE2960"/>
				<stop  offset="1" style="stop-color:#7A1B58"/>
			</linearGradient>
			<path id="path190" class="st40" d="M0,0L0,0c58.7,241.9,391.1,168.7,522,400.6V0L0,0z"/>
		</g>
	</g>
	<g>
		<g>
			<defs>
				<path id="SVGID_83_" d="M522,321l-20.5,5.8l0,0c0.9,1.1,1.8,2.1,2.7,3.2l17.8-5.1V321z"/>
			</defs>
			<clipPath id="SVGID_84_">
				<use xlink:href="#SVGID_83_"  style="overflow:visible;"/>
			</clipPath>
			
				<linearGradient id="path238_1_" gradientUnits="userSpaceOnUse" x1="371.7881" y1="-0.2723" x2="372.7881" y2="-0.2723" gradientTransform="matrix(-1755.431 0 0 1755.431 654050.0625 803.5161)">
				<stop  offset="0" style="stop-color:#FFC322"/>
				<stop  offset="9.134790e-02" style="stop-color:#FFC322"/>
				<stop  offset="0.48" style="stop-color:#EAAE20"/>
				<stop  offset="1" style="stop-color:#C77A3E"/>
			</linearGradient>
			<path id="path238" class="st41" d="M522,321l-20.5,5.8l0,0c0.9,1.1,1.8,2.1,2.7,3.2l17.8-5.1V321z"/>
		</g>
	</g>
	<g>
		<g>
			<defs>
				<path id="SVGID_85_" d="M46.7,0.6L46.7,0.6c-2.9,7.5-4.5,15.7-4.5,24.2l0,0c0,0.4,0,0.9,0,1.3L42,26.3l0.2,0.2l0,0
					C42.9,54.8,60.9,78.9,86,88.6l0,0c-1.1,3.3-1.9,6.7-2.4,10.1l0,0c1.2,0.9,2.3,1.7,3.5,2.5l0,0c0.6-4.7,1.7-9.4,3.3-13.8l6.9,7.5
					l-7.6,8.2l0,0c1,0.8,2,1.5,3,2.3l7.7-8.4l37.1,9.1l0,0c-0.3,1.1-0.4,2.1-0.4,3.2l0,0c0,0.7,0.1,1.5,0.2,2.2l-23,7l0,0
					c1.7,0.8,3.4,1.6,5.1,2.4l19-5.8l0,0c0.3,0.6,0.6,1.1,1,1.7l-8.5,9l0,0c1.3,0.5,2.5,1,3.8,1.5l7.2-7.7l0,0
					c1.4,1.2,3,2.2,4.8,2.8l-1.8,8.9l0,0c1.2,0.4,2.4,0.9,3.6,1.3l1.9-9.5l0,0c0.3,0,0.5,0,0.8,0l0,0c0.4,0,0.9-0.1,1.3-0.1
					l3.9,12.4l0,0c1.5,0.5,3,1.1,4.5,1.6l-4.7-14.8l0,0c1.8-0.7,3.4-1.8,4.8-3.1l21.7,18.6l0,0c0-1.1-0.1-2.2-0.1-3.3l0,0
					c0-0.5,0.1-1.1,0.1-1.6l-19.4-16.6l0,0c0.2-0.3,0.4-0.6,0.5-0.9l19,5.4l0,0c11,11.2,25.8,18.7,42.4,20.2l0,0
					c-9.8,0.9-18.9,3.9-27.1,8.5l0,0c1.7,0.5,3.3,1,5,1.6l0,0c5.5-2.8,11.6-4.8,17.9-5.8l-3.7,9.4l-11.4-2.7l0,0
					c5.4,1.9,10.8,3.8,16.2,5.7l-1.4-1.3l4.6-11.7l0,0c2-0.2,4.1-0.3,6.2-0.3l0,0c1,0,2.1,0,3.1,0.1l0,0c0.5,6.8,2,13.3,4.4,19.4
					l0,0c1.9,0.7,3.8,1.4,5.7,2.1l7.9-9.2l13.3,3.9l-1.8,12.9l0,0c1.6,0.7,3.2,1.4,4.9,2.1l24.5-26.1l0,0c1.4,1.2,3,2.2,4.8,2.8
					l-6.6,33.1l0,0c2,1,4.1,1.9,6.1,2.8l7.1-6.6l2.5,2l0,0c-0.9,2.6-1.7,5.3-2.3,8.1l0,0c1.2,0.6,2.3,1.1,3.5,1.7l0,0
					c0.6-2.5,1.2-4.9,2-7.3l1.4,1.1l0,0c0.1-0.3,0.2-0.6,0.3-0.9l5.6,6.1l-3.4,3.8l0,0c1.1,0.6,2.3,1.1,3.5,1.7l3.1-3.4l37.1,9.1
					l0,0c-0.3,1.1-0.4,2.1-0.4,3.2l0,0c0,0.7,0.1,1.5,0.2,2.2l-12.2,3.7l0,0c1.5,0.9,3,1.7,4.5,2.6l8.8-2.7l0,0
					c0.3,0.6,0.6,1.1,1,1.7l-4,4.2l0,0c1.1,0.7,2.2,1.3,3.3,2l3.1-3.3l0,0c1.4,1.2,3,2.2,4.8,2.8l-0.9,4.6l0,0
					c1.1,0.7,2.3,1.4,3.4,2.1l1.2-6l0,0c0.3,0,0.5,0,0.8,0l0,0c0.4,0,0.9-0.1,1.3-0.1l1.4,4.3l0,0c-0.9,1-1.7,2.1-2.5,3.1l0,0
					c3.4,2.1,6.9,4.2,10.4,6.4l3.2,0.4l0.5,1.9l0,0c1.6,0.9,3.1,1.9,4.6,2.9l-0.2-1l3.1,2.8l0,0c6.8,4.4,13.5,8.9,20.1,13.4
					l-24.3-22.4l4.4-17.5l0,0c0.2-0.1,0.4-0.2,0.5-0.3l17.6,4.1l10.3,37.2l0,0c-1.5,0.4-2.7,1.2-3.9,2l0,0c1.1,0.7,2.3,1.5,3.4,2.3
					l0,0c1.4-0.8,3-1.3,4.8-1.3l0,0c4.3,0,8,2.7,9.5,6.5l0,0c1.4,0.4,2.8,0.7,4.2,1.1l0,0c0-0.1,0-0.1,0-0.2l18.1-5.2l0,0
					c6.4,2.7,13.3,4.5,20.5,5.2l0,0c-10.2,0.9-19.7,4.1-28.1,9l-0.9-0.2l-0.2,0.9l0,0c-1,0.6-2,1.3-3,2l0,0c1.7,1.3,3.4,2.5,5.1,3.8
					l0,0c0.1,0,0.2,0.1,0.3,0.2l0.6-2.4l18,4.2l4.6,16.8l0,0c1.8,1.5,3.5,3,5.2,4.6l-4.7-17.1l9.6,8.7l8.5-8.5l-5.7,24l0,0
					c1,1.1,2.1,2.1,3.1,3.2l7.5-31.7l17.8-4.9l5.1,17.7l-24.9,24.7l0,0c0.8,0.9,1.7,1.9,2.5,2.8l21.3-21.1l-2.8,12.5l4.3,1.3v-32.4
					l-1.1-3.8l0,0c0.4,0.3,0.7,0.5,1.1,0.8v-4.5l0,0c-0.9-0.5-1.8-1.2-2.7-1.7l-0.3-0.9l-0.9,0.2l0,0c-8.1-4.4-17.1-7.3-26.7-8.2
					l0,0c11.2-1,21.5-4.7,30.5-10.5v-16.2l-2.3,11l-18.1-3.6l-11.3-35.7l0,0c1.8-0.7,3.4-1.8,4.8-3.1l27,23.1v-16l-3.5,1l3.2,9.8
					l-24.4-20.8l0,0c0.2-0.3,0.4-0.6,0.5-0.9l24.2,6.9v-3.9l-23-6.6l0,0c0.1-0.9,0.2-1.7,0.2-2.6l0,0c0-1-0.1-2-0.3-2.9l23.1-6.6
					v-3.9l-24.4,7l0,0c-0.2-0.5-0.5-0.9-0.8-1.4l23.7-23.5l-2.8,12.5l4.3,1.3v-32.4l-1-3.7l0,0c0.4,0.3,0.7,0.5,1.1,0.8v-4.5l0,0
					c-0.9-0.5-1.8-1.2-2.7-1.7l-0.3-0.9l-0.9,0.2l0,0c-8.1-4.4-17.1-7.3-26.7-8.2l0,0c11.2-1,21.5-4.7,30.5-10.5v-16.2l-2.3,11
					l-18.1-3.6l-11.4-35.8l0,0c1.8-0.7,3.4-1.8,4.8-3.1l27,23.1v-16l-3.5,1l3.2,9.8l-24.4-20.8l0,0c0.2-0.3,0.4-0.6,0.5-0.9
					l24.2,6.9v-3.9l-23-6.5l0,0c0.1-0.9,0.2-1.7,0.2-2.6l0,0c0-1-0.1-2-0.3-2.9l23.1-6.6v-3.9l-24.4,6.9l0,0
					c-0.2-0.5-0.5-0.9-0.8-1.4l23.7-23.5l-2.8,12.5l4.3,1.3V12.2l-1.1-3.8l0,0c0.4,0.3,0.7,0.5,1.1,0.8V4.7l0,0
					c-0.7-0.4-1.4-0.9-2.2-1.4V1.2h-2.2l0,0c0,0.3,0,0.5,0,0.8l0,0c-1.4-0.7-2.8-1.3-4.2-2l-10.9,0l0,0c3.6,1,7,2.2,10.3,3.8
					l-14.5,4L495.6,0l-4,0l3.4,9.6l-9.8,9.8l-10.8-9.8l3.8-9.6h-4.1L471,7.9l-14.6-3.5l0,0C460,2.6,464,1.1,468,0l-11.3,0l0,0
					c-2.1,0.9-4.1,1.9-6.1,3.1l-0.9-0.2l-0.2,0.9l0,0c-5.9,3.6-11.2,8.1-15.7,13.3l-2.3-7.1l0,0c1.8-0.7,3.4-1.8,4.8-3.1l4,3.4l0,0
					c0.9-1,1.8-1.8,2.7-2.7l-4.4-3.7l0,0c0.2-0.3,0.4-0.6,0.5-0.9l6.9,2l0,0c1.2-0.9,2.5-1.9,3.8-2.8L442.1,0h-5.8l0,0
					c-1.3,4.2-5.1,7.2-9.7,7.2l0,0c-4.5,0-8.4-3.1-9.7-7.2L410,0l-33.4,10.2L365.6,0l-7,0l0,0c0,1.2,0.1,2.3,0.2,3.4l0,0
					c-7.4,1.5-14.4,4.1-20.7,7.8l-21-6l0,0c0.1-0.9,0.2-1.7,0.2-2.6l0,0c0-0.9-0.1-1.8-0.3-2.6h-4l0,0c0.2,0.8,0.4,1.7,0.4,2.6l0,0
					c0,5.6-4.6,10.2-10.2,10.2l0,0c-5.6,0-10.2-4.6-10.2-10.2l0,0c0-0.9,0.2-1.8,0.4-2.6h-3.9l0,0c-0.2,0.9-0.3,1.7-0.3,2.6l0,0
					c0,0.7,0.1,1.5,0.2,2.2l-36.3,11.1l-12.9-12l3.5-3.9l-8.6,0l0,0c0,0.9-0.1,1.7-0.1,2.6l0,0c0,0.4,0,0.9,0,1.3l-0.2,0.2l0.1,0.1
					h-9.1l0,0c-2.6,0.3-5.2,0.7-7.8,1.2L212.2,0l-23.3,0l0,0c0.6,0.6,1.2,1.1,1.9,1.5l0,0c0.7,0.4,1.3,0.7,2,1L188.1,20l0,0
					c-7.4,6.3-13.5,14-17.7,22.8l0,0c-1.7-0.5-3.4-1-5.1-1.3L161,26.2L187.8,0l-5.4,0l-20,19.5l3-11.5l-12.2-4.1L167.3,0l-14.1,0
					l-5.9,1.6L145.7,0l-5.3,0l3.8,3.9l-6.6,8.1l0,0c-1.4-3.9-2.4-7.9-3.1-12l-3.8,0l0,0c0.2,1.2,0.4,2.3,0.6,3.5l0,0
					c-0.2-0.1-0.4-0.2-0.5-0.4l-10.5,10.5l0,0c-1.3-1.2-2.8-2-4.5-2.6l2.6-11h-3.9L112,10.2l0,0c-0.3,0-0.6,0-0.9,0l0,0
					c-0.2,0-0.4,0-0.6,0L107.7,0h-3.9l3,10.9l0,0c-1.6,0.6-3.2,1.4-4.5,2.5L87.8,0h-5.6l17.6,16.1l0,0c-0.3,0.5-0.6,0.9-0.9,1.4
					l-32-7.9l11.4-3.5L76.9,0H73l0.8,3.5L60.5,7.7L53.4,0L46.7,0.6z M213.6,6.5c-3.3,0.9-6.5,2.1-9.5,3.5l-1.9-7l0,0
					c1.8-0.5,3.4-1.4,4.9-2.6L213.6,6.5 M366.5,20.4L366.5,20.4c-2.2-5.7-3.7-11.8-4.2-18.1l11,10.2L366.5,20.4z M46.7,21.3
					L46.7,21.3c0.2-6.6,1.5-13,3.7-19l6.9,7.5L46.7,21.3z M392.1,28.7l1.9-13l-11.6-3.3l31.5-9.6l0,0c0.3,0.6,0.6,1.1,1,1.7
					L392.1,28.7z M196.4,3.4c0.6,0.1,1.1,0.1,1.7,0.1l0,0c0,0,0.1,0,0.2,0l2.2,8.1l0,0c-1,0.5-2,1-2.9,1.6l-0.9-0.2l-0.2,0.9l0,0
					c-1.2,0.7-2.4,1.5-3.5,2.3L196.4,3.4 M145,26.3L145,26.3c-2.2-3.2-4.2-6.7-5.8-10.3l8.2-10l13.4,4.5L157.3,24L145,26.3z
					 M494.3,51.6L494.3,51.6c-1.3-1.2-2.8-2-4.5-2.6l8.9-37.4l17.8-4.9L518,12l0,0c0.4,4.8,0.9,9.6,1.7,14.3L494.3,51.6z
					 M123.6,17.7L123.6,17.7c-0.2-0.5-0.5-0.9-0.8-1.4l9.4-9.3l0,0c0.7,2.6,1.5,5.1,2.5,7.6L123.6,17.7z M357.8,16l-14.7-3.4l0,0
					c5-2.5,10.4-4.4,16-5.5l0,0c0.2,1.4,0.4,2.7,0.7,4L357.8,16z M397.3,52.2l-5.7-17.5l25.7-27.4l0,0c1.4,1.2,3,2.2,4.8,2.8
					l-7.3,36.7L397.3,52.2z M480.9,48.9c-1.7,0.5-3.2,1.3-4.6,2.5l-28.2-26l4.5-17.9l18,4.2L480.9,48.9 M232,29.4l-10.7-9.7L225.9,8
					l0,0c2-0.2,4.1-0.3,6.2-0.3l0,0c0.6,0,2,0.1,3.1,0.2l0,0c0.4,5.3,1.3,10.5,2.9,15.4L232,29.4z M243.1,26L243.1,26
					c-2.2-5.7-3.7-11.8-4.2-18.1l11,10.2L243.1,26z M268.7,34.4l1.9-13L259,18l31.5-9.6l0,0c0.3,0.6,0.6,1.1,1,1.7L268.7,34.4z
					 M217.8,18l-14.6-3.5l0,0c5.7-2.9,11.9-4.9,18.4-6L217.8,18z M333.7,13.8c-2.5,1.7-4.8,3.5-7.1,5.5l-11.3-9.7l0,0
					c0.2-0.3,0.4-0.6,0.5-0.9L333.7,13.8 M444.7,23.8l-10.4-1.3l0,0c3.9-5.1,8.7-9.6,14-13.3L444.7,23.8z M419.4,42.9l6.4-32l0,0
					c0.3,0,0.5,0,0.8,0l0,0c0.4,0,0.9-0.1,1.3-0.1l3.1,9.7l0,0c-5,6.5-8.9,14-11.3,22.1L419.4,42.9z M60.9,37.5L48,25.5l12.4-13.6
					L97.5,21l0,0c-0.3,1.1-0.4,2.1-0.4,3.2l0,0c0,0.7,0.1,1.5,0.2,2.2L60.9,37.5z M323.9,21.9c-3.7,3.7-7,7.8-9.8,12.3l-5.9-18.5
					l0,0c1.8-0.7,3.4-1.8,4.8-3.1L323.9,21.9 M274,58l-5.7-17.6L294,13l0,0c1.4,1.2,3,2.2,4.8,2.8l-7.4,36.7L274,58z M121.4,24.2
					c0,5.7-4.6,10.3-10.2,10.2l0,0c-5.6,0-10.2-4.6-10.2-10.2l0,0c0-5.6,4.6-10.2,10.2-10.2l0,0C116.8,14,121.4,18.5,121.4,24.2
					 M374.1,34.7L374.1,34.7c-2.3-3.3-4.3-6.7-6-10.3l8.4-9.8l13.3,3.9l-2,14L374.1,34.7z M367.7,57c-1.6,0.6-3.2,1.4-4.6,2.5
					l-28.2-26l4.5-17.9l18,4.2L367.7,57 M485.2,24.6l8.5-8.5l-7.6,32.1l0,0c-0.3,0-0.6,0-0.9,0l0,0c-0.2,0-0.4,0-0.6,0l-8.9-32.3
					L485.2,24.6z M311.6,38.6c-0.8,1.6-1.6,3.2-2.4,5l-4.1-3.3l-9,8.4l6.4-32l0,0c0.3,0,0.5,0,0.8,0l0,0c0.4,0,0.9-0.1,1.3-0.1
					L311.6,38.6 M331.5,32l-10.3-1.3l0,0c3.9-5.1,8.7-9.6,14-13.3L331.5,32z M227.7,58.9c-1.6,0.6-3.2,1.4-4.6,2.5l-28.2-26
					l4.5-17.9l18,4.2L227.7,58.9 M136.2,18.1c2.3,5.1,5.3,10,9,14.5L125,26.8l0,0c0.1-0.9,0.2-1.7,0.2-2.6l0,0c0-1-0.1-2-0.3-2.9
					L136.2,18.1 M519.8,26.1v-7.9l1.8,6.2L519.8,26.1z M191.5,34l-10.3-1.4l0,0c3.9-5.1,8.7-9.6,14-13.3L191.5,34z M250.7,40.3
					L250.7,40.3c-2.3-3.3-4.3-6.7-6-10.3l8.4-9.8l13.3,3.9l-2,14L250.7,40.3z M373,56.3L373,56.3c-0.3,0-0.6,0-0.9,0l0,0
					c-0.2,0-0.4,0-0.6,0L362.6,24l2.5,2.3l0,0c2.9,6.1,6.6,11.7,11.1,16.6L373,56.3z M232,34.7l7.5-7.5l0,0c0.2,0.4,0.3,0.9,0.5,1.3
					l-7.1,29.8l0,0c-0.3,0-0.6,0-0.9,0l0,0c-0.2,0-0.4,0-0.6,0L222.5,26L232,34.7z M434.4,45.6l-8.4-9.2l0,0
					c1.6-3.7,3.5-7.1,5.7-10.4l12.9,1.7l3.2,13.8L434.4,45.6z M161.2,40.8L161.2,40.8c-0.9-0.1-1.8-0.2-2.7-0.3l0,0
					c-4.2-3.2-7.9-6.8-11-10.8l10-1.9L161.2,40.8z M51,47.7L51,47.7c-2.2-5.7-3.7-11.8-4.2-18.1l11,10.2L51,47.7z M76.6,56l1.9-13
					l-11.6-3.3l31.5-9.6l0,0c0.3,0.6,0.6,1.1,1,1.7L76.6,56z M150.4,38.4c0.7,0.7,1.5,1.4,2.3,2h-7.1l0,0c-3.3,0.3-6.5,0.9-9.6,1.6
					l-12.7-10.8l0,0c0.2-0.3,0.4-0.6,0.5-0.9L150.4,38.4 M473.8,54.1c-0.3,0.4-0.6,0.9-0.9,1.3l-32-7.9l11.4-3.5l-3-12.4L473.8,54.1
					 M241.2,61.7L241.2,61.7c-1.3-1.2-2.8-2-4.5-2.6l5.9-25l0,0c2.9,5.6,6.6,10.7,10.9,15.3L241.2,61.7z M321.3,53.7l-8.4-9.2l0,0
					c0.1-0.3,0.3-0.5,0.4-0.8v0.1l0,0c0.7-1.7,1.5-3.3,2.4-4.9v-0.1l0,0c0.9-1.6,1.9-3.2,2.9-4.7l12.8,1.7l3.2,13.8L321.3,53.7z
					 M131.5,43.3c-4.1,1.3-8.1,2.9-11.9,5.1l-3.5-11l0,0c1.8-0.7,3.4-1.8,4.8-3.1L131.5,43.3 M81.8,79.6l-5.7-17.5l25.7-27.4l0,0
					c1.4,1.2,3,2.2,4.8,2.8l-4.9,24.6l0,0c-4,4.4-7.5,9.2-10.3,14.5L81.8,79.6z M181.4,55.6l-8.5-9.2l0,0c1.6-3.7,3.5-7.1,5.7-10.4
					l12.8,1.7l3.2,13.8L181.4,55.6z M392.8,50.7L392.8,50.7c-0.5-0.4-1-0.8-1.5-1.2l-0.8,0.8l0,0c-5.1-3.5-9.8-7.6-13.7-12.4
					l11.3-1.7L392.8,50.7z M116.3,50.2c-3.5,2.1-6.7,4.5-9.8,7.3l3.9-19.2l0,0c0.3,0,0.5,0,0.8,0l0,0c0.4,0,0.9-0.1,1.3-0.1
					L116.3,50.2L116.3,50.2 M360.6,62.2c-0.3,0.5-0.6,0.9-1,1.4l-32-7.9l11.4-3.5l-2.9-12.5L360.6,62.2 M421.2,58.8L421.2,58.8
					c0.1-0.8,0-1.6,0.1-2.4l-0.3-0.8l0,0c0.5-5.3,1.6-10.4,3.4-15.3l6.9,7.5L421.2,58.8z M220.6,64.2c-0.3,0.4-0.6,0.9-1,1.4
					l-32-7.9l11.4-3.5l-2.9-12.5L220.6,64.2 M58.6,62L58.6,62c-2.3-3.3-4.3-6.7-6-10.3l8.4-9.8l13.3,3.9l-2,14L58.6,62z M269.9,57.9
					L269.9,57.9c-6.3-3.8-11.8-8.7-16.5-14.3l11.3-1.7L269.9,57.9z M151.8,65.7L141,55.9l4.6-11.7l0,0c2-0.2,4.1-0.3,6.2-0.3l0,0
					c1.9,0,3.8,0.1,5.7,0.3l4.1,11.7L151.8,65.7z M165,54l-3.3-9.4l0,0c2.5,0.4,4.9,1,7.2,1.6l0,0c-1,2.4-1.9,4.9-2.6,7.5L165,54z
					 M137.6,54.2L123,50.8l0,0c5.7-2.9,11.9-4.9,18.4-6L137.6,54.2z M303.8,67.1c-0.2,0-0.3,0-0.5,0l0,0c-1.3,0-2.5,0-3.7-0.1
					l-4.4-12.5l10.1-9.4l2.5,2l0,0C305.5,53.4,304.1,60.1,303.8,67.1 M381.2,59.8L381.2,59.8c-1.3-1.2-2.9-2-4.5-2.6l2.6-11.1l0,0
					c2.6,2.6,5.5,4.9,8.5,7L381.2,59.8z M307.6,67.5L307.6,67.5c0.3-6.3,1.5-12.2,3.4-17.9l0,0l0,0c0.1-0.4,0.3-0.7,0.4-1.1l6.8,7.4
					L307.6,67.5z M434.9,75.5l-12.9-12l12.5-13.6l37.1,9.1l0,0c-0.3,1.1-0.4,2.1-0.4,3.2l0,0c0,0.7,0.1,1.5,0.2,2.2L434.9,75.5z
					 M167.4,69.4L167.4,69.4c0.2-4.3,0.9-8.5,1.9-12.6h0.2l0,0c0.1-0.3,0.1-0.6,0.2-0.9l0,0c0.1-0.4,0.1-0.7,0.2-1.1l0,0
					c0.4-1.5,0.9-3,1.4-4.4l6.9,7.5L167.4,69.4z M417.2,56.1c-0.2,1.5-0.3,3.1-0.3,4.6l0,0c-6-0.9-11.8-2.6-17.2-5.1l15.6-4.9
					L417.2,56.1 M495.4,62.2c0,5.6-4.5,10.2-10.2,10.2l0,0c-5.6,0-10.2-4.6-10.2-10.2l0,0c0-5.6,4.6-10.2,10.2-10.2l0,0
					C490.8,52,495.4,56.5,495.4,62.2 M244.5,65.8L244.5,65.8c-0.2-0.5-0.5-0.9-0.8-1.4L256.2,52l0,0c3,2.8,6.2,5.4,9.7,7.7
					L244.5,65.8z M147.5,95.2c-1.7,0.5-3.2,1.4-4.6,2.5l-28.2-26l4.5-17.9l18,4.2L147.5,95.2 M384.5,63.9L384.5,63.9
					c-0.2-0.5-0.5-0.9-0.8-1.4l7.3-7.3l0,0c2.7,1.7,5.6,3.1,8.6,4.4L384.5,63.9z M111.4,70.2L101,68.9l0,0c3.9-5.1,8.7-9.6,14-13.3
					L111.4,70.2z M295.5,66.6L295.5,66.6c-6.8-0.8-13.2-2.6-19.2-5.4l15.6-4.9L295.5,66.6z M321.7,83.7l-12.9-12l12.5-13.6l37.1,9.1
					l0,0c-0.3,1.1-0.4,2.1-0.4,3.2l0,0c0,0.7,0.1,1.5,0.2,2.2L321.7,83.7z M161.1,97.8L161.1,97.8c-1.3-1.2-2.8-2-4.5-2.6l8.4-35.5
					l0,0c-0.8,4.1-1.2,8.2-1.2,12.5l0,0c0,0.4,0,0.9,0,1.3l-0.2,0.2l0.2,0.2l0,0c0.1,6.3,1.1,12.4,2.9,18.2L161.1,97.8z M181.7,85.6
					l-12.9-12L181.3,60l37.1,9.1l0,0c-0.3,1.1-0.4,2.1-0.4,3.2l0,0c0,0.7,0.1,1.5,0.2,2.2L181.7,85.6z M382.3,70.3
					c0,5.7-4.6,10.3-10.2,10.2l0,0c-5.6,0-10.2-4.6-10.2-10.2l0,0c0-5.6,4.6-10.2,10.2-10.2l0,0C377.7,60.1,382.3,64.6,382.3,70.3
					 M297,70.6c-10.2,1-19.7,4.1-28.1,9l-0.9-0.2l-0.2,0.9l0,0c-0.3,0.1-0.5,0.3-0.8,0.5l-21.1-6l0,0c0.1-0.9,0.2-1.7,0.2-2.6l0,0
					c0-1-0.1-2-0.3-2.9l23.1-6.6v-1.2l0,0C277.3,66.4,286.8,69.7,297,70.6 M417,65.4c-8.9,1.2-17.3,4.2-24.7,8.6l-0.9-0.2l-0.2,0.6
					l-5.3-1.5l0,0c0.1-0.9,0.2-1.7,0.2-2.6l0,0c0-1-0.1-2-0.3-2.9l19.7-5.6l0,0c3.6,1.2,7.5,2.1,11.4,2.7l0,0
					C416.9,64.8,417,65.1,417,65.4 M242.3,72.3c0,5.6-4.6,10.2-10.2,10.2l0,0c-5.6,0-10.2-4.6-10.2-10.2l0,0
					c0-5.6,4.6-10.2,10.2-10.2l0,0C237.7,62.1,242.3,66.6,242.3,72.3 M151.8,70.9l8.5-8.5l-7.6,32.1l0,0c-0.3,0-0.6,0-0.9,0l0,0
					c-0.2,0-0.4,0-0.6,0l-8.9-32.3L151.8,70.9z M77.8,79.5L77.8,79.5c-6.3-3.8-11.9-8.7-16.5-14.3l11.3-1.7L77.8,79.5z M450.7,94
					l1.9-13L441,77.6l31.4-9.6l0,0c0.3,0.6,0.6,1.1,1,1.7L450.7,94z M425.1,85.6L425.1,85.6c-2.1-5.3-3.5-11-4.1-16.9l0,0
					c0.1,0,0.3,0,0.4,0l0,0c0-0.2,0-0.5,0-0.7l10.4,9.7L425.1,85.6z M412.4,78.7l-14.6-3.4l0,0c5.7-2.9,11.9-4.9,18.4-6L412.4,78.7z
					 M101.2,91.9l-8.5-9.2l0,0c1.6-3.7,3.5-7.1,5.7-10.4l12.8,1.7l3.2,13.8L101.2,91.9z M455.9,117.5l-5.7-17.5l25.7-27.4l0,0
					c1.4,1.2,3,2.2,4.8,2.8l-7.3,36.7L455.9,117.5z M303.3,95.9l-10.8-9.8l4.6-11.7l0,0c2-0.2,4.1-0.3,6.2-0.3l0,0
					c0.2,0,0.4,0,0.6,0l0,0c0.3,6.2,1.4,12.1,3.3,17.7L303.3,95.9z M418.1,74.7c0.6,3.6,1.6,7,2.8,10.3l-5.1-4.6L418.1,74.7
					 M289,84.4L274.4,81l0,0c5.7-2.9,11.9-4.9,18.4-6L289,84.4z M311.9,93.8L311.9,93.8c-2.2-5.7-3.7-11.8-4.2-18.1l11,10.2
					L311.9,93.8z M496.4,107.3l-9.4-7.5l-9,8.4l6.4-32l0,0c0.3,0,0.5,0,0.8,0l0,0c0.4,0,0.9-0.1,1.3-0.1L496.4,107.3z M337.5,102.2
					l1.9-13l-11.6-3.4l31.5-9.6l0,0c0.3,0.6,0.6,1.1,1,1.7L337.5,102.2z M387.2,77.2c-0.5,0.4-1.1,0.9-1.7,1.4l-1.4-1.2l0,0
					c0.2-0.3,0.4-0.6,0.5-0.9L387.2,77.2 M171.9,95.8L171.9,95.8c-0.3-0.9-0.6-1.7-0.9-2.6l0,0l0,0c-0.4-1.4-0.8-2.9-1.1-4.3
					l-0.2,0.2l0,0c-1-3.7-1.7-7.6-2-11.5l11,10.2L171.9,95.8z M140.4,100.4c-0.3,0.5-0.6,0.9-0.9,1.4l-32-7.9l11.4-3.5L116,77.9
					L140.4,100.4 M197.5,104.1l1.9-13l-11.6-3.4l31.5-9.6l0,0c0.3,0.6,0.6,1.1,1,1.7L197.5,104.1z M422.3,119.7
					c-1.6,0.5-3.2,1.4-4.6,2.5l-28.2-26l4.5-17.9l18,4.2L422.3,119.7 M262.9,83.6c-2.4,1.8-4.7,3.7-6.9,5.8l-11.8-10.1l0,0
					c0.2-0.3,0.4-0.6,0.5-0.9L262.9,83.6 M432.6,99.9L432.6,99.9c-2.3-3.3-4.3-6.7-6-10.3l8.4-9.8l13.3,3.9l-2,14L432.6,99.9z
					 M386.2,94.7l-10.4-1.3l0,0c3.9-5.1,8.7-9.6,14-13.3L386.2,94.7z M382.5,80.9c-1.6,1.4-3.3,2.9-4.9,4.5l-0.6-2l0,0
					c1.8-0.7,3.4-1.8,4.8-3.1L382.5,80.9 M342.8,125.7l-5.7-17.5l25.7-27.4l0,0c1.4,1.2,3,2.2,4.8,2.8l-5.3,26.6l0,0
					c-1.2,3.3-2.1,6.8-2.8,10.3L342.8,125.7z M89.2,81.3c-0.5,1-0.9,2.1-1.3,3.1l0,0c-1.2-0.4-2.5-0.9-3.7-1.5L89.2,81.3
					 M253.4,92.1c-3.8,4-7.2,8.6-9.9,13.5l-6.4-20.2l0,0c1.8-0.7,3.4-1.8,4.8-3.1L253.4,92.1 M202.7,127.6l-5.7-17.5l25.8-27.4l0,0
					c1.4,1.2,3,2.2,4.8,2.8l-7.4,36.7L202.7,127.6z M298.9,125.4c-1.6,0.5-3.2,1.3-4.6,2.5l-28.2-26l4.5-17.9l18,4.2L298.9,125.4
					 M374.8,88.6c-2.2,2.5-4.2,5.3-6,8.2l2.5-12.4l0,0c0.3,0,0.5,0,0.8,0l0,0c0.4,0,0.9-0.1,1.3-0.1L374.8,88.6 M262.8,100.3
					L252.4,99l0,0c3.9-5.1,8.7-9.6,14-13.3L262.8,100.3z M241.1,110.4c-0.6,1.3-1.1,2.5-1.6,4l-5.5-4.5l-9.1,8.4l6.4-32l0,0
					c0.3,0,0.5,0,0.8,0l0,0c0.4,0,0.9-0.1,1.3-0.1L241.1,110.4 M427.6,119L427.6,119c-0.3,0-0.6,0-0.9,0l0,0c-0.2,0-0.4,0-0.6,0
					l-9-32.3l7.3,6.7l0,0c1.9,3.7,4.2,7.2,6.7,10.5L427.6,119z M319.5,108.1L319.5,108.1c-2.3-3.3-4.3-6.7-6-10.3l8.4-9.8l13.3,3.9
					l-2,14L319.5,108.1z M179.7,110L179.7,110c-1.6-2.2-3-4.6-4.3-7h0.1l0,0c-0.1-0.1-0.1-0.1-0.1-0.2l0,0c-0.7-1-1.3-2-1.8-3.1
					l8.3-9.8l13.3,3.9l-2,14L179.7,110z M303.3,101l5.3-5.3l0,0c0.5,1.2,1.1,2.4,1.6,3.5l-6.1,25.5l0,0c-0.3,0-0.6,0-0.9,0l0,0
					c-0.2,0-0.4,0-0.6,0l-8.9-32.3L303.3,101z M164.3,102.1L164.3,102.1c-0.2-0.5-0.5-0.9-0.8-1.4l4.6-4.6l0,0
					c0.5,1.5,1.1,3,1.8,4.4L164.3,102.1z M376,116.4l-8.5-9.2l0,0c1.6-3.7,3.5-7.1,5.7-10.4l12.8,1.7l3.2,13.8L376,116.4z
					 M162.1,108.5c0,5.7-4.6,10.2-10.2,10.2l0,0c-5.6,0-10.2-4.6-10.2-10.2l0,0c0-5.6,4.6-10.2,10.2-10.2l0,0
					C157.5,98.3,162.1,102.8,162.1,108.5 M451.8,117.5L451.8,117.5c-6.3-3.8-11.8-8.7-16.5-14.3l11.3-1.7L451.8,117.5z M415.2,124.9
					c-0.3,0.5-0.6,0.9-1,1.4l-32-7.9l11.4-3.5l-2.9-12.5L415.2,124.9 M252.6,122.1l-8.5-9.2l0,0c1.6-3.7,3.5-7.1,5.7-10.4l12.8,1.7
					l3.2,13.8L252.6,122.1z M171.5,103.9c2.1,3.9,4.5,7.5,7.2,10.9l-13.1-3.7l0,0c0.1-0.9,0.2-1.7,0.2-2.6l0,0c0-1-0.1-2-0.3-2.9
					L171.5,103.9 M358.7,139.5c-7.4,1.5-14.4,4.1-20.6,7.8l-21-6l0,0c0.1-0.9,0.2-1.7,0.2-2.6l0,0c0-1-0.1-2-0.3-2.9l20.7-5.9l0,0
					c-1.6-0.6-3.1-1.4-4.5-2.5l0,0l-0.1-0.1l-17.3,4.9l0,0c-0.2-0.5-0.5-0.9-0.8-1.4l10.5-10.4l0,0c-0.9-0.9-1.8-1.9-2.6-2.8
					L312.4,128l0,0c-1.3-1.2-2.8-2-4.5-2.6l5-21.1l0,0c9.6,16.7,26.1,29,45.6,32.9l0,0C358.6,138,358.6,138.7,358.7,139.5
					 M493.3,126.2c-2.7,0.4-5.4,0.5-8,0.4l0,0c-1.3,0-2.5,0-3.7-0.1l-4.4-12.5l10.1-9.4l10.6,8.6L493.3,126.2 M435.7,122.4
					L435.7,122.4c-1.3-1.2-2.8-2-4.5-2.6l2.9-12.3l0,0c2.6,2.9,5.5,5.6,8.5,8L435.7,122.4z M291.8,130.6c-0.3,0.4-0.6,0.9-1,1.4
					l-32-7.9l11.4-3.5l-2.9-12.5L291.8,130.6 M338.7,125.6L338.7,125.6c-6.3-3.8-11.9-8.7-16.5-14.3l11.3-1.7L338.7,125.6z
					 M362.1,130.1L362.1,130.1c0.2-6.6,1.5-13,3.7-19l6.9,7.5L362.1,130.1z M198.7,127.6L198.7,127.6c-6.3-3.8-11.9-8.7-16.5-14.3
					l11.3-1.7L198.7,127.6z M235,136.7c-1,0.1-2,0.1-2.8,0.1l0,0c-1.3,0-2.5,0-3.7-0.1l-4.4-12.5l10.1-9.4l4,3.2l0,0
					C236.3,123.9,235.2,130.2,235,136.7 M517.6,118c-6.1,3.6-12.9,6.2-20.1,7.6l3.8-10.8L517.6,118 M477.4,126.2L477.4,126.2
					c-6.8-0.8-13.2-2.6-19.2-5.4l15.6-4.9L477.4,126.2z M238.8,135.8L238.8,135.8c0.2-6.6,1.5-13,3.7-19l6.9,7.5L238.8,135.8z
					 M439.1,126.6L439.1,126.6c-0.2-0.5-0.5-0.9-0.8-1.4l7.4-7.4l0,0c2.4,1.7,4.9,3.3,7.6,4.7L439.1,126.6z M376.3,146.4l-12.9-12
					l12.5-13.6l37.1,9.1l0,0c-0.3,1.1-0.4,2.1-0.4,3.2l0,0c0,0.7,0.1,1.5,0.2,2.2L376.3,146.4z M436.9,133c0,5.7-4.6,10.3-10.2,10.2
					l0,0c-5.6,0-10.2-4.6-10.2-10.2l0,0c0-5.6,4.6-10.2,10.2-10.2l0,0C432.3,122.8,436.9,127.3,436.9,133 M358.3,133
					c0,0.1,0,0.2,0,0.3l0,0c-4.6-1-9-2.5-13.2-4.4l13.7-4.3l0,0C358.5,127.4,358.3,130.2,358.3,133 M478.9,130.2
					c-9.8,0.9-19.1,3.9-27.3,8.7l-11.2-3.2l0,0c0.1-0.9,0.2-1.7,0.2-2.6l0,0c0-1-0.1-2-0.3-2.9l18.1-5.2l0,0
					C464.8,127.7,471.7,129.5,478.9,130.2 M224.3,136.3L224.3,136.3c-6.8-0.8-13.2-2.6-19.2-5.4l15.6-4.9L224.3,136.3z M253,152
					l-13-12l12.5-13.6l37.1,9.1l0,0c-0.3,1.1-0.4,2.1-0.4,3.2l0,0c0,0.7,0.1,1.5,0.2,2.2L253,152z M313.5,138.7
					c0,5.6-4.6,10.2-10.2,10.2l0,0c-5.6,0-10.2-4.6-10.2-10.2l0,0c0-5.6,4.6-10.2,10.2-10.2l0,0C308.9,128.5,313.5,133,313.5,138.7
					 M485.1,155.5l-10.8-9.8l4.6-11.7l0,0c2-0.2,4.1-0.3,6.2-0.3l0,0c1.9,0,3.8,0.1,5.7,0.3l4.1,11.7L485.1,155.5z M498.4,143.8
					l-3.3-9.4l0,0c6.2,1,12.2,2.9,17.7,5.5L498.4,143.8z M471,144l-14.7-3.4l0,0c5.7-2.9,11.9-4.9,18.4-6L471,144z M366.5,156.5
					L366.5,156.5c-2.2-5.7-3.7-11.8-4.2-18.1l11,10.2L366.5,156.5z M392.1,164.9l1.9-13l-11.6-3.4l31.5-9.6l0,0
					c0.3,0.6,0.6,1.1,1,1.7L392.1,164.9z M447.3,141.5c-1.3,0.8-2.5,1.7-3.8,2.7l-4.8-4.1l0,0c0.2-0.3,0.4-0.6,0.5-0.9L447.3,141.5
					 M494.3,187.7L494.3,187.7c-1.3-1.2-2.8-2-4.5-2.6l8.9-37.4l17.8-4.9l5.1,17.7L494.3,187.7z M440.6,146.6
					c-2.4,2-4.6,4.2-6.7,6.7l-2.3-7.1l0,0c1.8-0.7,3.4-1.8,4.8-3.1L440.6,146.6 M357.8,152.1l-14.6-3.4l0,0
					c4.9-2.5,10.3-4.4,15.9-5.5l0,0c0.2,1.4,0.4,2.7,0.7,4L357.8,152.1z M397.3,188.3l-5.7-17.5l25.7-27.4l0,0
					c1.4,1.2,3,2.2,4.8,2.8l-7.3,36.7L397.3,188.3z M480.9,185c-1.7,0.5-3.2,1.3-4.6,2.5l-28.2-26l4.5-17.9l18,4.2L480.9,185
					 M243.1,162.1L243.1,162.1c-2.2-5.7-3.7-11.8-4.2-18.1l11,10.2L243.1,162.1z M268.7,170.5l1.9-13l-11.6-3.4l31.5-9.6l0,0
					c0.3,0.6,0.6,1.1,1,1.7L268.7,170.5z M333.7,149.9c-2.5,1.7-4.8,3.5-7.1,5.5l-11.3-9.7l0,0c0.2-0.3,0.4-0.6,0.5-0.9L333.7,149.9
					 M444.7,160l-10.4-1.4l0,0c3.9-5.1,8.7-9.6,14-13.3L444.7,160z M419.5,179.1l6.4-32l0,0c0.3,0,0.5,0,0.8,0l0,0
					c0.4,0,0.9-0.1,1.3-0.1l3,9.6l0,0c-5,6.5-8.9,14-11.3,22.1L419.5,179.1z M323.9,158c-3.7,3.7-7,7.8-9.8,12.3l-5.9-18.5l0,0
					c1.8-0.7,3.4-1.8,4.8-3.1L323.9,158 M374.1,170.8L374.1,170.8c-2.3-3.3-4.3-6.7-6-10.3l8.4-9.8l13.3,3.9l-2,14L374.1,170.8z
					 M367.7,193.1c-1.6,0.6-3.2,1.4-4.6,2.5l-28.2-26l4.5-17.9l18,4.2L367.7,193.1 M485.2,160.7l8.5-8.5l-7.6,32.1l0,0
					c-0.3,0-0.6,0-0.9,0l0,0c-0.2,0-0.4,0-0.6,0l-8.9-32.3L485.2,160.7z M311.6,174.7c-0.8,1.6-1.6,3.2-2.4,5l-4.1-3.3l-9,8.4
					l6.4-32l0,0c0.3,0,0.5,0,0.8,0l0,0c0.4,0,0.9-0.1,1.3-0.1L311.6,174.7 M331.6,168.1l-10.4-1.3l0,0c3.9-5.1,8.7-9.6,14-13.3
					L331.6,168.1z M373,192.4L373,192.4c-0.3,0-0.6,0-0.9,0l0,0c-0.2,0-0.4,0-0.6,0l-8.9-32.3l2.5,2.3l0,0
					c2.9,6.1,6.6,11.7,11.1,16.6L373,192.4z M434.5,181.7l-8.4-9.2l0,0c1.6-3.7,3.5-7.1,5.7-10.4l12.8,1.7l3.2,13.8L434.5,181.7z
					 M473.8,190.2c-0.3,0.4-0.6,0.9-1,1.4l-32-7.9l11.4-3.5l-2.9-12.5L473.8,190.2 M321.3,189.8l-7.4-8.1l0,0
					c0.7-1.8,1.4-3.7,2.2-5.5l-0.4-1.3l0,0c0.9-1.6,1.9-3.2,2.9-4.7l12.8,1.7l3.2,13.8L321.3,189.8z M393.2,188.4L393.2,188.4
					c-4.8-2.9-9.1-6.4-13-10.4l0.1-0.3l0,0c-1.1-1-2.1-2.1-3.1-3.2l0,0l0,0c-0.1-0.2-0.3-0.3-0.4-0.5l11.3-1.7L393.2,188.4z
					 M360.6,198.3c-0.3,0.5-0.6,0.9-1,1.4l-32-7.9l11.4-3.5l-2.9-12.5L360.6,198.3 M421.1,194.9L421.1,194.9
					c0.1-0.8,0.1-1.7,0.2-2.5l-0.3-0.7l0,0c0.3-3.7,1-7.4,2-10.9l0.3-0.3l0,0c0.3-1.3,0.8-2.7,1.2-4l6.8,7.4L421.1,194.9z
					 M313.9,181.8l-1-1.1l0,0c0.1-0.3,0.3-0.5,0.4-0.8L313.9,181.8z M381.2,195.9L381.2,195.9c-1.3-1.2-2.9-2-4.5-2.6l2.6-11.1l0,0
					c2.6,2.6,5.5,4.9,8.5,7L381.2,195.9z M434.9,211.6l-12.9-12l12.5-13.6l37.1,9.1l0,0c-0.3,1.1-0.4,2.1-0.4,3.2l0,0
					c0,0.7,0.1,1.5,0.2,2.2L434.9,211.6z M417.2,192.2c-0.2,1.5-0.3,3-0.3,4.5l0,0c-6-0.9-11.8-2.6-17.2-5.1l15.6-4.9L417.2,192.2
					 M495.4,198.3c0,5.6-4.5,10.2-10.2,10.2l0,0c-5.6,0-10.2-4.6-10.2-10.2l0,0c0-5.6,4.6-10.2,10.2-10.2l0,0
					C490.8,188.1,495.4,192.6,495.4,198.3 M384.5,200L384.5,200c-0.2-0.5-0.5-0.9-0.8-1.4l7.3-7.3l0,0c2.7,1.7,5.6,3.1,8.6,4.4
					L384.5,200z M382.3,206.4c0,5.7-4.6,10.3-10.2,10.2l0,0c-5.6,0-10.2-4.6-10.2-10.2l0,0c0-5.6,4.6-10.2,10.2-10.2l0,0
					C377.7,196.2,382.3,200.7,382.3,206.4 M417,201.5c-8.9,1.2-17.3,4.2-24.7,8.7l-0.9-0.2l-0.2,0.6l-5.3-1.5l0,0
					c0.1-0.9,0.2-1.7,0.2-2.6l0,0c0-1-0.1-2-0.3-2.9l18.8-5.4l0,0c-0.7-0.4-1.4-0.9-2.1-1.3l0,0c4.6,1.8,9.4,3,14.4,3.7l0,0
					C416.9,200.9,417,201.2,417,201.5 M425,221.7L425,221.7c-2.1-5.6-3.5-11.5-4.1-17.7l0,0c0-0.2,0-0.3,0-0.4l10.9,10.2L425,221.7z
					 M450.6,230.1l1.9-13l-11.6-3.4l31.5-9.6l0,0c0.3,0.6,0.6,1.1,1,1.7L450.6,230.1z M412.4,214.8l-14.6-3.4l0,0
					c5.7-2.9,11.9-4.9,18.4-6L412.4,214.8z M455.9,253.6l-5.7-17.5l25.7-27.4l0,0c1.4,1.2,3,2.2,4.8,2.8l-7.3,36.7L455.9,253.6z
					 M418.1,210.8c0.6,3.5,1.6,7,2.8,10.3l-5.1-4.6L418.1,210.8 M496.4,243.4l-9.4-7.5l-9,8.4l6.4-32l0,0c0.3,0,0.5,0,0.8,0l0,0
					c0.4,0,0.9-0.1,1.3-0.1L496.4,243.4z M387.3,213.3c-0.6,0.4-1.2,0.9-1.8,1.3l-1.3-1.1l0,0c0.2-0.3,0.4-0.6,0.5-0.9L387.3,213.3
					 M432.6,236L432.6,236c-2.3-3.3-4.3-6.7-6-10.3l8.4-9.8l13.3,3.9l-2,14L432.6,236z M389.4,217.9l-0.9-0.7l0,0
					c0.5-0.4,0.9-0.7,1.3-1L389.4,217.9z M382.5,217c-1.7,1.4-3.3,2.9-4.8,4.5l-0.6-2l0,0c1.8-0.7,3.4-1.8,4.8-3.1L382.5,217
					 M386.1,230.8l-6.9-0.9l0,0c0.3-0.4,0.5-0.8,0.8-1.2l-1-3.1l0,0c2-2.2,4.1-4.2,6.4-6.1l1.4,1.2l0,0c0.8-0.8,1.6-1.5,2.4-2.2
					L386.1,230.8z M427.5,255.1L427.5,255.1c-0.3,0-0.6,0-0.9,0l0,0c-0.2,0-0.4,0-0.6,0l-8.9-32.3l7.3,6.7l0,0
					c1.9,3.7,4.2,7.2,6.7,10.5L427.5,255.1z M451.8,253.6L451.8,253.6c-6.3-3.8-11.8-8.7-16.5-14.3l11.3-1.7L451.8,253.6z
					 M493.3,262.3c-2.7,0.4-5.4,0.5-8,0.4l0,0c-1.3,0-2.5,0-3.7-0.1l-4.4-12.5l10.1-9.4l10.6,8.6L493.3,262.3 M435.7,258.5
					L435.7,258.5c-1.3-1.2-2.8-2-4.5-2.6l2.9-12.3l0,0c2.6,2.9,5.5,5.6,8.5,8L435.7,258.5z M517.6,254.1c-6.1,3.6-12.9,6.2-20.1,7.6
					l3.8-10.8L517.6,254.1 M477.4,262.3L477.4,262.3c-6.8-0.8-13.2-2.6-19.2-5.4l15.6-4.9L477.4,262.3z M439.1,262.7L439.1,262.7
					c-0.2-0.5-0.5-0.9-0.8-1.4l7.4-7.4l0,0c2.4,1.7,4.9,3.3,7.6,4.7L439.1,262.7z M485.1,291.6l-10.8-9.8l4.6-11.7l0,0
					c2-0.2,4.1-0.3,6.2-0.3l0,0c1.9,0,3.8,0.1,5.7,0.3l4.1,11.7L485.1,291.6z M498.4,279.9l-3.3-9.4l0,0c6.2,1,12.2,2.9,17.7,5.5
					L498.4,279.9z M471,280.1l-14.7-3.4l0,0c5.7-2.9,11.9-4.9,18.4-6L471,280.1z"/>
			</defs>
			<clipPath id="SVGID_86_">
				<use xlink:href="#SVGID_85_"  style="overflow:visible;"/>
			</clipPath>
			
				<linearGradient id="path262_1_" gradientUnits="userSpaceOnUse" x1="371.7881" y1="-0.2723" x2="372.7881" y2="-0.2723" gradientTransform="matrix(-1755.3608 0 0 1755.3608 654024 640.0701)">
				<stop  offset="0" style="stop-color:#FFC322"/>
				<stop  offset="9.134790e-02" style="stop-color:#FFC322"/>
				<stop  offset="0.48" style="stop-color:#EAAE20"/>
				<stop  offset="1" style="stop-color:#C77A3E"/>
			</linearGradient>
			<path id="path262" class="st42" d="M46.7,0.6L46.7,0.6c-2.9,7.5-4.5,15.7-4.5,24.2l0,0c0,0.4,0,0.9,0,1.3L42,26.3l0.2,0.2l0,0
				C42.9,54.8,60.9,78.9,86,88.6l0,0c-1.1,3.3-1.9,6.7-2.4,10.1l0,0c1.2,0.9,2.3,1.7,3.5,2.5l0,0c0.6-4.7,1.7-9.4,3.3-13.8l6.9,7.5
				l-7.6,8.2l0,0c1,0.8,2,1.5,3,2.3l7.7-8.4l37.1,9.1l0,0c-0.3,1.1-0.4,2.1-0.4,3.2l0,0c0,0.7,0.1,1.5,0.2,2.2l-23,7l0,0
				c1.7,0.8,3.4,1.6,5.1,2.4l19-5.8l0,0c0.3,0.6,0.6,1.1,1,1.7l-8.5,9l0,0c1.3,0.5,2.5,1,3.8,1.5l7.2-7.7l0,0c1.4,1.2,3,2.2,4.8,2.8
				l-1.8,8.9l0,0c1.2,0.4,2.4,0.9,3.6,1.3l1.9-9.5l0,0c0.3,0,0.5,0,0.8,0l0,0c0.4,0,0.9-0.1,1.3-0.1l3.9,12.4l0,0
				c1.5,0.5,3,1.1,4.5,1.6l-4.7-14.8l0,0c1.8-0.7,3.4-1.8,4.8-3.1l21.7,18.6l0,0c0-1.1-0.1-2.2-0.1-3.3l0,0c0-0.5,0.1-1.1,0.1-1.6
				l-19.4-16.6l0,0c0.2-0.3,0.4-0.6,0.5-0.9l19,5.4l0,0c11,11.2,25.8,18.7,42.4,20.2l0,0c-9.8,0.9-18.9,3.9-27.1,8.5l0,0
				c1.7,0.5,3.3,1,5,1.6l0,0c5.5-2.8,11.6-4.8,17.9-5.8l-3.7,9.4l-11.4-2.7l0,0c5.4,1.9,10.8,3.8,16.2,5.7l-1.4-1.3l4.6-11.7l0,0
				c2-0.2,4.1-0.3,6.2-0.3l0,0c1,0,2.1,0,3.1,0.1l0,0c0.5,6.8,2,13.3,4.4,19.4l0,0c1.9,0.7,3.8,1.4,5.7,2.1l7.9-9.2l13.3,3.9
				l-1.8,12.9l0,0c1.6,0.7,3.2,1.4,4.9,2.1l24.5-26.1l0,0c1.4,1.2,3,2.2,4.8,2.8l-6.6,33.1l0,0c2,1,4.1,1.9,6.1,2.8l7.1-6.6l2.5,2
				l0,0c-0.9,2.6-1.7,5.3-2.3,8.1l0,0c1.2,0.6,2.3,1.1,3.5,1.7l0,0c0.6-2.5,1.2-4.9,2-7.3l1.4,1.1l0,0c0.1-0.3,0.2-0.6,0.3-0.9
				l5.6,6.1l-3.4,3.8l0,0c1.1,0.6,2.3,1.1,3.5,1.7l3.1-3.4l37.1,9.1l0,0c-0.3,1.1-0.4,2.1-0.4,3.2l0,0c0,0.7,0.1,1.5,0.2,2.2
				l-12.2,3.7l0,0c1.5,0.9,3,1.7,4.5,2.6l8.8-2.7l0,0c0.3,0.6,0.6,1.1,1,1.7l-4,4.2l0,0c1.1,0.7,2.2,1.3,3.3,2l3.1-3.3l0,0
				c1.4,1.2,3,2.2,4.8,2.8l-0.9,4.6l0,0c1.1,0.7,2.3,1.4,3.4,2.1l1.2-6l0,0c0.3,0,0.5,0,0.8,0l0,0c0.4,0,0.9-0.1,1.3-0.1l1.4,4.3
				l0,0c-0.9,1-1.7,2.1-2.5,3.1l0,0c3.4,2.1,6.9,4.2,10.4,6.4l3.2,0.4l0.5,1.9l0,0c1.6,0.9,3.1,1.9,4.6,2.9l-0.2-1l3.1,2.8l0,0
				c6.8,4.4,13.5,8.9,20.1,13.4l-24.3-22.4l4.4-17.5l0,0c0.2-0.1,0.4-0.2,0.5-0.3l17.6,4.1l10.3,37.2l0,0c-1.5,0.4-2.7,1.2-3.9,2
				l0,0c1.1,0.7,2.3,1.5,3.4,2.3l0,0c1.4-0.8,3-1.3,4.8-1.3l0,0c4.3,0,8,2.7,9.5,6.5l0,0c1.4,0.4,2.8,0.7,4.2,1.1l0,0
				c0-0.1,0-0.1,0-0.2l18.1-5.2l0,0c6.4,2.7,13.3,4.5,20.5,5.2l0,0c-10.2,0.9-19.7,4.1-28.1,9l-0.9-0.2l-0.2,0.9l0,0
				c-1,0.6-2,1.3-3,2l0,0c1.7,1.3,3.4,2.5,5.1,3.8l0,0c0.1,0,0.2,0.1,0.3,0.2l0.6-2.4l18,4.2l4.6,16.8l0,0c1.8,1.5,3.5,3,5.2,4.6
				l-4.7-17.1l9.6,8.7l8.5-8.5l-5.7,24l0,0c1,1.1,2.1,2.1,3.1,3.2l7.5-31.7l17.8-4.9l5.1,17.7l-24.9,24.7l0,0
				c0.8,0.9,1.7,1.9,2.5,2.8l21.3-21.1l-2.8,12.5l4.3,1.3v-32.4l-1.1-3.8l0,0c0.4,0.3,0.7,0.5,1.1,0.8v-4.5l0,0
				c-0.9-0.5-1.8-1.2-2.7-1.7l-0.3-0.9l-0.9,0.2l0,0c-8.1-4.4-17.1-7.3-26.7-8.2l0,0c11.2-1,21.5-4.7,30.5-10.5v-16.2l-2.3,11
				l-18.1-3.6l-11.3-35.7l0,0c1.8-0.7,3.4-1.8,4.8-3.1l27,23.1v-16l-3.5,1l3.2,9.8l-24.4-20.8l0,0c0.2-0.3,0.4-0.6,0.5-0.9l24.2,6.9
				v-3.9l-23-6.6l0,0c0.1-0.9,0.2-1.7,0.2-2.6l0,0c0-1-0.1-2-0.3-2.9l23.1-6.6v-3.9l-24.4,7l0,0c-0.2-0.5-0.5-0.9-0.8-1.4l23.7-23.5
				l-2.8,12.5l4.3,1.3v-32.4l-1-3.7l0,0c0.4,0.3,0.7,0.5,1.1,0.8v-4.5l0,0c-0.9-0.5-1.8-1.2-2.7-1.7l-0.3-0.9l-0.9,0.2l0,0
				c-8.1-4.4-17.1-7.3-26.7-8.2l0,0c11.2-1,21.5-4.7,30.5-10.5v-16.2l-2.3,11l-18.1-3.6l-11.4-35.8l0,0c1.8-0.7,3.4-1.8,4.8-3.1
				l27,23.1v-16l-3.5,1l3.2,9.8l-24.4-20.8l0,0c0.2-0.3,0.4-0.6,0.5-0.9l24.2,6.9v-3.9l-23-6.5l0,0c0.1-0.9,0.2-1.7,0.2-2.6l0,0
				c0-1-0.1-2-0.3-2.9l23.1-6.6v-3.9l-24.4,6.9l0,0c-0.2-0.5-0.5-0.9-0.8-1.4l23.7-23.5l-2.8,12.5l4.3,1.3V12.2l-1.1-3.8l0,0
				c0.4,0.3,0.7,0.5,1.1,0.8V4.7l0,0c-0.7-0.4-1.4-0.9-2.2-1.4V1.2h-2.2l0,0c0,0.3,0,0.5,0,0.8l0,0c-1.4-0.7-2.8-1.3-4.2-2l-10.9,0
				l0,0c3.6,1,7,2.2,10.3,3.8l-14.5,4L495.6,0l-4,0l3.4,9.6l-9.8,9.8l-10.8-9.8l3.8-9.6h-4.1L471,7.9l-14.6-3.5l0,0
				C460,2.6,464,1.1,468,0l-11.3,0l0,0c-2.1,0.9-4.1,1.9-6.1,3.1l-0.9-0.2l-0.2,0.9l0,0c-5.9,3.6-11.2,8.1-15.7,13.3l-2.3-7.1l0,0
				c1.8-0.7,3.4-1.8,4.8-3.1l4,3.4l0,0c0.9-1,1.8-1.8,2.7-2.7l-4.4-3.7l0,0c0.2-0.3,0.4-0.6,0.5-0.9l6.9,2l0,0
				c1.2-0.9,2.5-1.9,3.8-2.8L442.1,0h-5.8l0,0c-1.3,4.2-5.1,7.2-9.7,7.2l0,0c-4.5,0-8.4-3.1-9.7-7.2L410,0l-33.4,10.2L365.6,0l-7,0
				l0,0c0,1.2,0.1,2.3,0.2,3.4l0,0c-7.4,1.5-14.4,4.1-20.7,7.8l-21-6l0,0c0.1-0.9,0.2-1.7,0.2-2.6l0,0c0-0.9-0.1-1.8-0.3-2.6h-4l0,0
				c0.2,0.8,0.4,1.7,0.4,2.6l0,0c0,5.6-4.6,10.2-10.2,10.2l0,0c-5.6,0-10.2-4.6-10.2-10.2l0,0c0-0.9,0.2-1.8,0.4-2.6h-3.9l0,0
				c-0.2,0.9-0.3,1.7-0.3,2.6l0,0c0,0.7,0.1,1.5,0.2,2.2l-36.3,11.1l-12.9-12l3.5-3.9l-8.6,0l0,0c0,0.9-0.1,1.7-0.1,2.6l0,0
				c0,0.4,0,0.9,0,1.3l-0.2,0.2l0.1,0.1h-9.1l0,0c-2.6,0.3-5.2,0.7-7.8,1.2L212.2,0l-23.3,0l0,0c0.6,0.6,1.2,1.1,1.9,1.5l0,0
				c0.7,0.4,1.3,0.7,2,1L188.1,20l0,0c-7.4,6.3-13.5,14-17.7,22.8l0,0c-1.7-0.5-3.4-1-5.1-1.3L161,26.2L187.8,0l-5.4,0l-20,19.5
				l3-11.5l-12.2-4.1L167.3,0l-14.1,0l-5.9,1.6L145.7,0l-5.3,0l3.8,3.9l-6.6,8.1l0,0c-1.4-3.9-2.4-7.9-3.1-12l-3.8,0l0,0
				c0.2,1.2,0.4,2.3,0.6,3.5l0,0c-0.2-0.1-0.4-0.2-0.5-0.4l-10.5,10.5l0,0c-1.3-1.2-2.8-2-4.5-2.6l2.6-11h-3.9L112,10.2l0,0
				c-0.3,0-0.6,0-0.9,0l0,0c-0.2,0-0.4,0-0.6,0L107.7,0h-3.9l3,10.9l0,0c-1.6,0.6-3.2,1.4-4.5,2.5L87.8,0h-5.6l17.6,16.1l0,0
				c-0.3,0.5-0.6,0.9-0.9,1.4l-32-7.9l11.4-3.5L76.9,0H73l0.8,3.5L60.5,7.7L53.4,0L46.7,0.6z M213.6,6.5c-3.3,0.9-6.5,2.1-9.5,3.5
				l-1.9-7l0,0c1.8-0.5,3.4-1.4,4.9-2.6L213.6,6.5 M366.5,20.4L366.5,20.4c-2.2-5.7-3.7-11.8-4.2-18.1l11,10.2L366.5,20.4z
				 M46.7,21.3L46.7,21.3c0.2-6.6,1.5-13,3.7-19l6.9,7.5L46.7,21.3z M392.1,28.7l1.9-13l-11.6-3.3l31.5-9.6l0,0
				c0.3,0.6,0.6,1.1,1,1.7L392.1,28.7z M196.4,3.4c0.6,0.1,1.1,0.1,1.7,0.1l0,0c0,0,0.1,0,0.2,0l2.2,8.1l0,0c-1,0.5-2,1-2.9,1.6
				l-0.9-0.2l-0.2,0.9l0,0c-1.2,0.7-2.4,1.5-3.5,2.3L196.4,3.4 M145,26.3L145,26.3c-2.2-3.2-4.2-6.7-5.8-10.3l8.2-10l13.4,4.5
				L157.3,24L145,26.3z M494.3,51.6L494.3,51.6c-1.3-1.2-2.8-2-4.5-2.6l8.9-37.4l17.8-4.9L518,12l0,0c0.4,4.8,0.9,9.6,1.7,14.3
				L494.3,51.6z M123.6,17.7L123.6,17.7c-0.2-0.5-0.5-0.9-0.8-1.4l9.4-9.3l0,0c0.7,2.6,1.5,5.1,2.5,7.6L123.6,17.7z M357.8,16
				l-14.7-3.4l0,0c5-2.5,10.4-4.4,16-5.5l0,0c0.2,1.4,0.4,2.7,0.7,4L357.8,16z M397.3,52.2l-5.7-17.5l25.7-27.4l0,0
				c1.4,1.2,3,2.2,4.8,2.8l-7.3,36.7L397.3,52.2z M480.9,48.9c-1.7,0.5-3.2,1.3-4.6,2.5l-28.2-26l4.5-17.9l18,4.2L480.9,48.9
				 M232,29.4l-10.7-9.7L225.9,8l0,0c2-0.2,4.1-0.3,6.2-0.3l0,0c0.6,0,2,0.1,3.1,0.2l0,0c0.4,5.3,1.3,10.5,2.9,15.4L232,29.4z
				 M243.1,26L243.1,26c-2.2-5.7-3.7-11.8-4.2-18.1l11,10.2L243.1,26z M268.7,34.4l1.9-13L259,18l31.5-9.6l0,0
				c0.3,0.6,0.6,1.1,1,1.7L268.7,34.4z M217.8,18l-14.6-3.5l0,0c5.7-2.9,11.9-4.9,18.4-6L217.8,18z M333.7,13.8
				c-2.5,1.7-4.8,3.5-7.1,5.5l-11.3-9.7l0,0c0.2-0.3,0.4-0.6,0.5-0.9L333.7,13.8 M444.7,23.8l-10.4-1.3l0,0c3.9-5.1,8.7-9.6,14-13.3
				L444.7,23.8z M419.4,42.9l6.4-32l0,0c0.3,0,0.5,0,0.8,0l0,0c0.4,0,0.9-0.1,1.3-0.1l3.1,9.7l0,0c-5,6.5-8.9,14-11.3,22.1
				L419.4,42.9z M60.9,37.5L48,25.5l12.4-13.6L97.5,21l0,0c-0.3,1.1-0.4,2.1-0.4,3.2l0,0c0,0.7,0.1,1.5,0.2,2.2L60.9,37.5z
				 M323.9,21.9c-3.7,3.7-7,7.8-9.8,12.3l-5.9-18.5l0,0c1.8-0.7,3.4-1.8,4.8-3.1L323.9,21.9 M274,58l-5.7-17.6L294,13l0,0
				c1.4,1.2,3,2.2,4.8,2.8l-7.4,36.7L274,58z M121.4,24.2c0,5.7-4.6,10.3-10.2,10.2l0,0c-5.6,0-10.2-4.6-10.2-10.2l0,0
				c0-5.6,4.6-10.2,10.2-10.2l0,0C116.8,14,121.4,18.5,121.4,24.2 M374.1,34.7L374.1,34.7c-2.3-3.3-4.3-6.7-6-10.3l8.4-9.8l13.3,3.9
				l-2,14L374.1,34.7z M367.7,57c-1.6,0.6-3.2,1.4-4.6,2.5l-28.2-26l4.5-17.9l18,4.2L367.7,57 M485.2,24.6l8.5-8.5l-7.6,32.1l0,0
				c-0.3,0-0.6,0-0.9,0l0,0c-0.2,0-0.4,0-0.6,0l-8.9-32.3L485.2,24.6z M311.6,38.6c-0.8,1.6-1.6,3.2-2.4,5l-4.1-3.3l-9,8.4l6.4-32
				l0,0c0.3,0,0.5,0,0.8,0l0,0c0.4,0,0.9-0.1,1.3-0.1L311.6,38.6 M331.5,32l-10.3-1.3l0,0c3.9-5.1,8.7-9.6,14-13.3L331.5,32z
				 M227.7,58.9c-1.6,0.6-3.2,1.4-4.6,2.5l-28.2-26l4.5-17.9l18,4.2L227.7,58.9 M136.2,18.1c2.3,5.1,5.3,10,9,14.5L125,26.8l0,0
				c0.1-0.9,0.2-1.7,0.2-2.6l0,0c0-1-0.1-2-0.3-2.9L136.2,18.1 M519.8,26.1v-7.9l1.8,6.2L519.8,26.1z M191.5,34l-10.3-1.4l0,0
				c3.9-5.1,8.7-9.6,14-13.3L191.5,34z M250.7,40.3L250.7,40.3c-2.3-3.3-4.3-6.7-6-10.3l8.4-9.8l13.3,3.9l-2,14L250.7,40.3z
				 M373,56.3L373,56.3c-0.3,0-0.6,0-0.9,0l0,0c-0.2,0-0.4,0-0.6,0L362.6,24l2.5,2.3l0,0c2.9,6.1,6.6,11.7,11.1,16.6L373,56.3z
				 M232,34.7l7.5-7.5l0,0c0.2,0.4,0.3,0.9,0.5,1.3l-7.1,29.8l0,0c-0.3,0-0.6,0-0.9,0l0,0c-0.2,0-0.4,0-0.6,0L222.5,26L232,34.7z
				 M434.4,45.6l-8.4-9.2l0,0c1.6-3.7,3.5-7.1,5.7-10.4l12.9,1.7l3.2,13.8L434.4,45.6z M161.2,40.8L161.2,40.8
				c-0.9-0.1-1.8-0.2-2.7-0.3l0,0c-4.2-3.2-7.9-6.8-11-10.8l10-1.9L161.2,40.8z M51,47.7L51,47.7c-2.2-5.7-3.7-11.8-4.2-18.1
				l11,10.2L51,47.7z M76.6,56l1.9-13l-11.6-3.3l31.5-9.6l0,0c0.3,0.6,0.6,1.1,1,1.7L76.6,56z M150.4,38.4c0.7,0.7,1.5,1.4,2.3,2
				h-7.1l0,0c-3.3,0.3-6.5,0.9-9.6,1.6l-12.7-10.8l0,0c0.2-0.3,0.4-0.6,0.5-0.9L150.4,38.4 M473.8,54.1c-0.3,0.4-0.6,0.9-0.9,1.3
				l-32-7.9l11.4-3.5l-3-12.4L473.8,54.1 M241.2,61.7L241.2,61.7c-1.3-1.2-2.8-2-4.5-2.6l5.9-25l0,0c2.9,5.6,6.6,10.7,10.9,15.3
				L241.2,61.7z M321.3,53.7l-8.4-9.2l0,0c0.1-0.3,0.3-0.5,0.4-0.8v0.1l0,0c0.7-1.7,1.5-3.3,2.4-4.9v-0.1l0,0
				c0.9-1.6,1.9-3.2,2.9-4.7l12.8,1.7l3.2,13.8L321.3,53.7z M131.5,43.3c-4.1,1.3-8.1,2.9-11.9,5.1l-3.5-11l0,0
				c1.8-0.7,3.4-1.8,4.8-3.1L131.5,43.3 M81.8,79.6l-5.7-17.5l25.7-27.4l0,0c1.4,1.2,3,2.2,4.8,2.8l-4.9,24.6l0,0
				c-4,4.4-7.5,9.2-10.3,14.5L81.8,79.6z M181.4,55.6l-8.5-9.2l0,0c1.6-3.7,3.5-7.1,5.7-10.4l12.8,1.7l3.2,13.8L181.4,55.6z
				 M392.8,50.7L392.8,50.7c-0.5-0.4-1-0.8-1.5-1.2l-0.8,0.8l0,0c-5.1-3.5-9.8-7.6-13.7-12.4l11.3-1.7L392.8,50.7z M116.3,50.2
				c-3.5,2.1-6.7,4.5-9.8,7.3l3.9-19.2l0,0c0.3,0,0.5,0,0.8,0l0,0c0.4,0,0.9-0.1,1.3-0.1L116.3,50.2L116.3,50.2 M360.6,62.2
				c-0.3,0.5-0.6,0.9-1,1.4l-32-7.9l11.4-3.5l-2.9-12.5L360.6,62.2 M421.2,58.8L421.2,58.8c0.1-0.8,0-1.6,0.1-2.4l-0.3-0.8l0,0
				c0.5-5.3,1.6-10.4,3.4-15.3l6.9,7.5L421.2,58.8z M220.6,64.2c-0.3,0.4-0.6,0.9-1,1.4l-32-7.9l11.4-3.5l-2.9-12.5L220.6,64.2
				 M58.6,62L58.6,62c-2.3-3.3-4.3-6.7-6-10.3l8.4-9.8l13.3,3.9l-2,14L58.6,62z M269.9,57.9L269.9,57.9c-6.3-3.8-11.8-8.7-16.5-14.3
				l11.3-1.7L269.9,57.9z M151.8,65.7L141,55.9l4.6-11.7l0,0c2-0.2,4.1-0.3,6.2-0.3l0,0c1.9,0,3.8,0.1,5.7,0.3l4.1,11.7L151.8,65.7z
				 M165,54l-3.3-9.4l0,0c2.5,0.4,4.9,1,7.2,1.6l0,0c-1,2.4-1.9,4.9-2.6,7.5L165,54z M137.6,54.2L123,50.8l0,0
				c5.7-2.9,11.9-4.9,18.4-6L137.6,54.2z M303.8,67.1c-0.2,0-0.3,0-0.5,0l0,0c-1.3,0-2.5,0-3.7-0.1l-4.4-12.5l10.1-9.4l2.5,2l0,0
				C305.5,53.4,304.1,60.1,303.8,67.1 M381.2,59.8L381.2,59.8c-1.3-1.2-2.9-2-4.5-2.6l2.6-11.1l0,0c2.6,2.6,5.5,4.9,8.5,7
				L381.2,59.8z M307.6,67.5L307.6,67.5c0.3-6.3,1.5-12.2,3.4-17.9l0,0l0,0c0.1-0.4,0.3-0.7,0.4-1.1l6.8,7.4L307.6,67.5z
				 M434.9,75.5l-12.9-12l12.5-13.6l37.1,9.1l0,0c-0.3,1.1-0.4,2.1-0.4,3.2l0,0c0,0.7,0.1,1.5,0.2,2.2L434.9,75.5z M167.4,69.4
				L167.4,69.4c0.2-4.3,0.9-8.5,1.9-12.6h0.2l0,0c0.1-0.3,0.1-0.6,0.2-0.9l0,0c0.1-0.4,0.1-0.7,0.2-1.1l0,0c0.4-1.5,0.9-3,1.4-4.4
				l6.9,7.5L167.4,69.4z M417.2,56.1c-0.2,1.5-0.3,3.1-0.3,4.6l0,0c-6-0.9-11.8-2.6-17.2-5.1l15.6-4.9L417.2,56.1 M495.4,62.2
				c0,5.6-4.5,10.2-10.2,10.2l0,0c-5.6,0-10.2-4.6-10.2-10.2l0,0c0-5.6,4.6-10.2,10.2-10.2l0,0C490.8,52,495.4,56.5,495.4,62.2
				 M244.5,65.8L244.5,65.8c-0.2-0.5-0.5-0.9-0.8-1.4L256.2,52l0,0c3,2.8,6.2,5.4,9.7,7.7L244.5,65.8z M147.5,95.2
				c-1.7,0.5-3.2,1.4-4.6,2.5l-28.2-26l4.5-17.9l18,4.2L147.5,95.2 M384.5,63.9L384.5,63.9c-0.2-0.5-0.5-0.9-0.8-1.4l7.3-7.3l0,0
				c2.7,1.7,5.6,3.1,8.6,4.4L384.5,63.9z M111.4,70.2L101,68.9l0,0c3.9-5.1,8.7-9.6,14-13.3L111.4,70.2z M295.5,66.6L295.5,66.6
				c-6.8-0.8-13.2-2.6-19.2-5.4l15.6-4.9L295.5,66.6z M321.7,83.7l-12.9-12l12.5-13.6l37.1,9.1l0,0c-0.3,1.1-0.4,2.1-0.4,3.2l0,0
				c0,0.7,0.1,1.5,0.2,2.2L321.7,83.7z M161.1,97.8L161.1,97.8c-1.3-1.2-2.8-2-4.5-2.6l8.4-35.5l0,0c-0.8,4.1-1.2,8.2-1.2,12.5l0,0
				c0,0.4,0,0.9,0,1.3l-0.2,0.2l0.2,0.2l0,0c0.1,6.3,1.1,12.4,2.9,18.2L161.1,97.8z M181.7,85.6l-12.9-12L181.3,60l37.1,9.1l0,0
				c-0.3,1.1-0.4,2.1-0.4,3.2l0,0c0,0.7,0.1,1.5,0.2,2.2L181.7,85.6z M382.3,70.3c0,5.7-4.6,10.3-10.2,10.2l0,0
				c-5.6,0-10.2-4.6-10.2-10.2l0,0c0-5.6,4.6-10.2,10.2-10.2l0,0C377.7,60.1,382.3,64.6,382.3,70.3 M297,70.6
				c-10.2,1-19.7,4.1-28.1,9l-0.9-0.2l-0.2,0.9l0,0c-0.3,0.1-0.5,0.3-0.8,0.5l-21.1-6l0,0c0.1-0.9,0.2-1.7,0.2-2.6l0,0
				c0-1-0.1-2-0.3-2.9l23.1-6.6v-1.2l0,0C277.3,66.4,286.8,69.7,297,70.6 M417,65.4c-8.9,1.2-17.3,4.2-24.7,8.6l-0.9-0.2l-0.2,0.6
				l-5.3-1.5l0,0c0.1-0.9,0.2-1.7,0.2-2.6l0,0c0-1-0.1-2-0.3-2.9l19.7-5.6l0,0c3.6,1.2,7.5,2.1,11.4,2.7l0,0
				C416.9,64.8,417,65.1,417,65.4 M242.3,72.3c0,5.6-4.6,10.2-10.2,10.2l0,0c-5.6,0-10.2-4.6-10.2-10.2l0,0
				c0-5.6,4.6-10.2,10.2-10.2l0,0C237.7,62.1,242.3,66.6,242.3,72.3 M151.8,70.9l8.5-8.5l-7.6,32.1l0,0c-0.3,0-0.6,0-0.9,0l0,0
				c-0.2,0-0.4,0-0.6,0l-8.9-32.3L151.8,70.9z M77.8,79.5L77.8,79.5c-6.3-3.8-11.9-8.7-16.5-14.3l11.3-1.7L77.8,79.5z M450.7,94
				l1.9-13L441,77.6l31.4-9.6l0,0c0.3,0.6,0.6,1.1,1,1.7L450.7,94z M425.1,85.6L425.1,85.6c-2.1-5.3-3.5-11-4.1-16.9l0,0
				c0.1,0,0.3,0,0.4,0l0,0c0-0.2,0-0.5,0-0.7l10.4,9.7L425.1,85.6z M412.4,78.7l-14.6-3.4l0,0c5.7-2.9,11.9-4.9,18.4-6L412.4,78.7z
				 M101.2,91.9l-8.5-9.2l0,0c1.6-3.7,3.5-7.1,5.7-10.4l12.8,1.7l3.2,13.8L101.2,91.9z M455.9,117.5l-5.7-17.5l25.7-27.4l0,0
				c1.4,1.2,3,2.2,4.8,2.8l-7.3,36.7L455.9,117.5z M303.3,95.9l-10.8-9.8l4.6-11.7l0,0c2-0.2,4.1-0.3,6.2-0.3l0,0c0.2,0,0.4,0,0.6,0
				l0,0c0.3,6.2,1.4,12.1,3.3,17.7L303.3,95.9z M418.1,74.7c0.6,3.6,1.6,7,2.8,10.3l-5.1-4.6L418.1,74.7 M289,84.4L274.4,81l0,0
				c5.7-2.9,11.9-4.9,18.4-6L289,84.4z M311.9,93.8L311.9,93.8c-2.2-5.7-3.7-11.8-4.2-18.1l11,10.2L311.9,93.8z M496.4,107.3
				l-9.4-7.5l-9,8.4l6.4-32l0,0c0.3,0,0.5,0,0.8,0l0,0c0.4,0,0.9-0.1,1.3-0.1L496.4,107.3z M337.5,102.2l1.9-13l-11.6-3.4l31.5-9.6
				l0,0c0.3,0.6,0.6,1.1,1,1.7L337.5,102.2z M387.2,77.2c-0.5,0.4-1.1,0.9-1.7,1.4l-1.4-1.2l0,0c0.2-0.3,0.4-0.6,0.5-0.9L387.2,77.2
				 M171.9,95.8L171.9,95.8c-0.3-0.9-0.6-1.7-0.9-2.6l0,0l0,0c-0.4-1.4-0.8-2.9-1.1-4.3l-0.2,0.2l0,0c-1-3.7-1.7-7.6-2-11.5l11,10.2
				L171.9,95.8z M140.4,100.4c-0.3,0.5-0.6,0.9-0.9,1.4l-32-7.9l11.4-3.5L116,77.9L140.4,100.4 M197.5,104.1l1.9-13l-11.6-3.4
				l31.5-9.6l0,0c0.3,0.6,0.6,1.1,1,1.7L197.5,104.1z M422.3,119.7c-1.6,0.5-3.2,1.4-4.6,2.5l-28.2-26l4.5-17.9l18,4.2L422.3,119.7
				 M262.9,83.6c-2.4,1.8-4.7,3.7-6.9,5.8l-11.8-10.1l0,0c0.2-0.3,0.4-0.6,0.5-0.9L262.9,83.6 M432.6,99.9L432.6,99.9
				c-2.3-3.3-4.3-6.7-6-10.3l8.4-9.8l13.3,3.9l-2,14L432.6,99.9z M386.2,94.7l-10.4-1.3l0,0c3.9-5.1,8.7-9.6,14-13.3L386.2,94.7z
				 M382.5,80.9c-1.6,1.4-3.3,2.9-4.9,4.5l-0.6-2l0,0c1.8-0.7,3.4-1.8,4.8-3.1L382.5,80.9 M342.8,125.7l-5.7-17.5l25.7-27.4l0,0
				c1.4,1.2,3,2.2,4.8,2.8l-5.3,26.6l0,0c-1.2,3.3-2.1,6.8-2.8,10.3L342.8,125.7z M89.2,81.3c-0.5,1-0.9,2.1-1.3,3.1l0,0
				c-1.2-0.4-2.5-0.9-3.7-1.5L89.2,81.3 M253.4,92.1c-3.8,4-7.2,8.6-9.9,13.5l-6.4-20.2l0,0c1.8-0.7,3.4-1.8,4.8-3.1L253.4,92.1
				 M202.7,127.6l-5.7-17.5l25.8-27.4l0,0c1.4,1.2,3,2.2,4.8,2.8l-7.4,36.7L202.7,127.6z M298.9,125.4c-1.6,0.5-3.2,1.3-4.6,2.5
				l-28.2-26l4.5-17.9l18,4.2L298.9,125.4 M374.8,88.6c-2.2,2.5-4.2,5.3-6,8.2l2.5-12.4l0,0c0.3,0,0.5,0,0.8,0l0,0
				c0.4,0,0.9-0.1,1.3-0.1L374.8,88.6 M262.8,100.3L252.4,99l0,0c3.9-5.1,8.7-9.6,14-13.3L262.8,100.3z M241.1,110.4
				c-0.6,1.3-1.1,2.5-1.6,4l-5.5-4.5l-9.1,8.4l6.4-32l0,0c0.3,0,0.5,0,0.8,0l0,0c0.4,0,0.9-0.1,1.3-0.1L241.1,110.4 M427.6,119
				L427.6,119c-0.3,0-0.6,0-0.9,0l0,0c-0.2,0-0.4,0-0.6,0l-9-32.3l7.3,6.7l0,0c1.9,3.7,4.2,7.2,6.7,10.5L427.6,119z M319.5,108.1
				L319.5,108.1c-2.3-3.3-4.3-6.7-6-10.3l8.4-9.8l13.3,3.9l-2,14L319.5,108.1z M179.7,110L179.7,110c-1.6-2.2-3-4.6-4.3-7h0.1l0,0
				c-0.1-0.1-0.1-0.1-0.1-0.2l0,0c-0.7-1-1.3-2-1.8-3.1l8.3-9.8l13.3,3.9l-2,14L179.7,110z M303.3,101l5.3-5.3l0,0
				c0.5,1.2,1.1,2.4,1.6,3.5l-6.1,25.5l0,0c-0.3,0-0.6,0-0.9,0l0,0c-0.2,0-0.4,0-0.6,0l-8.9-32.3L303.3,101z M164.3,102.1
				L164.3,102.1c-0.2-0.5-0.5-0.9-0.8-1.4l4.6-4.6l0,0c0.5,1.5,1.1,3,1.8,4.4L164.3,102.1z M376,116.4l-8.5-9.2l0,0
				c1.6-3.7,3.5-7.1,5.7-10.4l12.8,1.7l3.2,13.8L376,116.4z M162.1,108.5c0,5.7-4.6,10.2-10.2,10.2l0,0c-5.6,0-10.2-4.6-10.2-10.2
				l0,0c0-5.6,4.6-10.2,10.2-10.2l0,0C157.5,98.3,162.1,102.8,162.1,108.5 M451.8,117.5L451.8,117.5c-6.3-3.8-11.8-8.7-16.5-14.3
				l11.3-1.7L451.8,117.5z M415.2,124.9c-0.3,0.5-0.6,0.9-1,1.4l-32-7.9l11.4-3.5l-2.9-12.5L415.2,124.9 M252.6,122.1l-8.5-9.2l0,0
				c1.6-3.7,3.5-7.1,5.7-10.4l12.8,1.7l3.2,13.8L252.6,122.1z M171.5,103.9c2.1,3.9,4.5,7.5,7.2,10.9l-13.1-3.7l0,0
				c0.1-0.9,0.2-1.7,0.2-2.6l0,0c0-1-0.1-2-0.3-2.9L171.5,103.9 M358.7,139.5c-7.4,1.5-14.4,4.1-20.6,7.8l-21-6l0,0
				c0.1-0.9,0.2-1.7,0.2-2.6l0,0c0-1-0.1-2-0.3-2.9l20.7-5.9l0,0c-1.6-0.6-3.1-1.4-4.5-2.5l0,0l-0.1-0.1l-17.3,4.9l0,0
				c-0.2-0.5-0.5-0.9-0.8-1.4l10.5-10.4l0,0c-0.9-0.9-1.8-1.9-2.6-2.8L312.4,128l0,0c-1.3-1.2-2.8-2-4.5-2.6l5-21.1l0,0
				c9.6,16.7,26.1,29,45.6,32.9l0,0C358.6,138,358.6,138.7,358.7,139.5 M493.3,126.2c-2.7,0.4-5.4,0.5-8,0.4l0,0
				c-1.3,0-2.5,0-3.7-0.1l-4.4-12.5l10.1-9.4l10.6,8.6L493.3,126.2 M435.7,122.4L435.7,122.4c-1.3-1.2-2.8-2-4.5-2.6l2.9-12.3l0,0
				c2.6,2.9,5.5,5.6,8.5,8L435.7,122.4z M291.8,130.6c-0.3,0.4-0.6,0.9-1,1.4l-32-7.9l11.4-3.5l-2.9-12.5L291.8,130.6 M338.7,125.6
				L338.7,125.6c-6.3-3.8-11.9-8.7-16.5-14.3l11.3-1.7L338.7,125.6z M362.1,130.1L362.1,130.1c0.2-6.6,1.5-13,3.7-19l6.9,7.5
				L362.1,130.1z M198.7,127.6L198.7,127.6c-6.3-3.8-11.9-8.7-16.5-14.3l11.3-1.7L198.7,127.6z M235,136.7c-1,0.1-2,0.1-2.8,0.1l0,0
				c-1.3,0-2.5,0-3.7-0.1l-4.4-12.5l10.1-9.4l4,3.2l0,0C236.3,123.9,235.2,130.2,235,136.7 M517.6,118c-6.1,3.6-12.9,6.2-20.1,7.6
				l3.8-10.8L517.6,118 M477.4,126.2L477.4,126.2c-6.8-0.8-13.2-2.6-19.2-5.4l15.6-4.9L477.4,126.2z M238.8,135.8L238.8,135.8
				c0.2-6.6,1.5-13,3.7-19l6.9,7.5L238.8,135.8z M439.1,126.6L439.1,126.6c-0.2-0.5-0.5-0.9-0.8-1.4l7.4-7.4l0,0
				c2.4,1.7,4.9,3.3,7.6,4.7L439.1,126.6z M376.3,146.4l-12.9-12l12.5-13.6l37.1,9.1l0,0c-0.3,1.1-0.4,2.1-0.4,3.2l0,0
				c0,0.7,0.1,1.5,0.2,2.2L376.3,146.4z M436.9,133c0,5.7-4.6,10.3-10.2,10.2l0,0c-5.6,0-10.2-4.6-10.2-10.2l0,0
				c0-5.6,4.6-10.2,10.2-10.2l0,0C432.3,122.8,436.9,127.3,436.9,133 M358.3,133c0,0.1,0,0.2,0,0.3l0,0c-4.6-1-9-2.5-13.2-4.4
				l13.7-4.3l0,0C358.5,127.4,358.3,130.2,358.3,133 M478.9,130.2c-9.8,0.9-19.1,3.9-27.3,8.7l-11.2-3.2l0,0
				c0.1-0.9,0.2-1.7,0.2-2.6l0,0c0-1-0.1-2-0.3-2.9l18.1-5.2l0,0C464.8,127.7,471.7,129.5,478.9,130.2 M224.3,136.3L224.3,136.3
				c-6.8-0.8-13.2-2.6-19.2-5.4l15.6-4.9L224.3,136.3z M253,152l-13-12l12.5-13.6l37.1,9.1l0,0c-0.3,1.1-0.4,2.1-0.4,3.2l0,0
				c0,0.7,0.1,1.5,0.2,2.2L253,152z M313.5,138.7c0,5.6-4.6,10.2-10.2,10.2l0,0c-5.6,0-10.2-4.6-10.2-10.2l0,0
				c0-5.6,4.6-10.2,10.2-10.2l0,0C308.9,128.5,313.5,133,313.5,138.7 M485.1,155.5l-10.8-9.8l4.6-11.7l0,0c2-0.2,4.1-0.3,6.2-0.3
				l0,0c1.9,0,3.8,0.1,5.7,0.3l4.1,11.7L485.1,155.5z M498.4,143.8l-3.3-9.4l0,0c6.2,1,12.2,2.9,17.7,5.5L498.4,143.8z M471,144
				l-14.7-3.4l0,0c5.7-2.9,11.9-4.9,18.4-6L471,144z M366.5,156.5L366.5,156.5c-2.2-5.7-3.7-11.8-4.2-18.1l11,10.2L366.5,156.5z
				 M392.1,164.9l1.9-13l-11.6-3.4l31.5-9.6l0,0c0.3,0.6,0.6,1.1,1,1.7L392.1,164.9z M447.3,141.5c-1.3,0.8-2.5,1.7-3.8,2.7
				l-4.8-4.1l0,0c0.2-0.3,0.4-0.6,0.5-0.9L447.3,141.5 M494.3,187.7L494.3,187.7c-1.3-1.2-2.8-2-4.5-2.6l8.9-37.4l17.8-4.9l5.1,17.7
				L494.3,187.7z M440.6,146.6c-2.4,2-4.6,4.2-6.7,6.7l-2.3-7.1l0,0c1.8-0.7,3.4-1.8,4.8-3.1L440.6,146.6 M357.8,152.1l-14.6-3.4
				l0,0c4.9-2.5,10.3-4.4,15.9-5.5l0,0c0.2,1.4,0.4,2.7,0.7,4L357.8,152.1z M397.3,188.3l-5.7-17.5l25.7-27.4l0,0
				c1.4,1.2,3,2.2,4.8,2.8l-7.3,36.7L397.3,188.3z M480.9,185c-1.7,0.5-3.2,1.3-4.6,2.5l-28.2-26l4.5-17.9l18,4.2L480.9,185
				 M243.1,162.1L243.1,162.1c-2.2-5.7-3.7-11.8-4.2-18.1l11,10.2L243.1,162.1z M268.7,170.5l1.9-13l-11.6-3.4l31.5-9.6l0,0
				c0.3,0.6,0.6,1.1,1,1.7L268.7,170.5z M333.7,149.9c-2.5,1.7-4.8,3.5-7.1,5.5l-11.3-9.7l0,0c0.2-0.3,0.4-0.6,0.5-0.9L333.7,149.9
				 M444.7,160l-10.4-1.4l0,0c3.9-5.1,8.7-9.6,14-13.3L444.7,160z M419.5,179.1l6.4-32l0,0c0.3,0,0.5,0,0.8,0l0,0
				c0.4,0,0.9-0.1,1.3-0.1l3,9.6l0,0c-5,6.5-8.9,14-11.3,22.1L419.5,179.1z M323.9,158c-3.7,3.7-7,7.8-9.8,12.3l-5.9-18.5l0,0
				c1.8-0.7,3.4-1.8,4.8-3.1L323.9,158 M374.1,170.8L374.1,170.8c-2.3-3.3-4.3-6.7-6-10.3l8.4-9.8l13.3,3.9l-2,14L374.1,170.8z
				 M367.7,193.1c-1.6,0.6-3.2,1.4-4.6,2.5l-28.2-26l4.5-17.9l18,4.2L367.7,193.1 M485.2,160.7l8.5-8.5l-7.6,32.1l0,0
				c-0.3,0-0.6,0-0.9,0l0,0c-0.2,0-0.4,0-0.6,0l-8.9-32.3L485.2,160.7z M311.6,174.7c-0.8,1.6-1.6,3.2-2.4,5l-4.1-3.3l-9,8.4l6.4-32
				l0,0c0.3,0,0.5,0,0.8,0l0,0c0.4,0,0.9-0.1,1.3-0.1L311.6,174.7 M331.6,168.1l-10.4-1.3l0,0c3.9-5.1,8.7-9.6,14-13.3L331.6,168.1z
				 M373,192.4L373,192.4c-0.3,0-0.6,0-0.9,0l0,0c-0.2,0-0.4,0-0.6,0l-8.9-32.3l2.5,2.3l0,0c2.9,6.1,6.6,11.7,11.1,16.6L373,192.4z
				 M434.5,181.7l-8.4-9.2l0,0c1.6-3.7,3.5-7.1,5.7-10.4l12.8,1.7l3.2,13.8L434.5,181.7z M473.8,190.2c-0.3,0.4-0.6,0.9-1,1.4
				l-32-7.9l11.4-3.5l-2.9-12.5L473.8,190.2 M321.3,189.8l-7.4-8.1l0,0c0.7-1.8,1.4-3.7,2.2-5.5l-0.4-1.3l0,0
				c0.9-1.6,1.9-3.2,2.9-4.7l12.8,1.7l3.2,13.8L321.3,189.8z M393.2,188.4L393.2,188.4c-4.8-2.9-9.1-6.4-13-10.4l0.1-0.3l0,0
				c-1.1-1-2.1-2.1-3.1-3.2l0,0l0,0c-0.1-0.2-0.3-0.3-0.4-0.5l11.3-1.7L393.2,188.4z M360.6,198.3c-0.3,0.5-0.6,0.9-1,1.4l-32-7.9
				l11.4-3.5l-2.9-12.5L360.6,198.3 M421.1,194.9L421.1,194.9c0.1-0.8,0.1-1.7,0.2-2.5l-0.3-0.7l0,0c0.3-3.7,1-7.4,2-10.9l0.3-0.3
				l0,0c0.3-1.3,0.8-2.7,1.2-4l6.8,7.4L421.1,194.9z M313.9,181.8l-1-1.1l0,0c0.1-0.3,0.3-0.5,0.4-0.8L313.9,181.8z M381.2,195.9
				L381.2,195.9c-1.3-1.2-2.9-2-4.5-2.6l2.6-11.1l0,0c2.6,2.6,5.5,4.9,8.5,7L381.2,195.9z M434.9,211.6l-12.9-12l12.5-13.6l37.1,9.1
				l0,0c-0.3,1.1-0.4,2.1-0.4,3.2l0,0c0,0.7,0.1,1.5,0.2,2.2L434.9,211.6z M417.2,192.2c-0.2,1.5-0.3,3-0.3,4.5l0,0
				c-6-0.9-11.8-2.6-17.2-5.1l15.6-4.9L417.2,192.2 M495.4,198.3c0,5.6-4.5,10.2-10.2,10.2l0,0c-5.6,0-10.2-4.6-10.2-10.2l0,0
				c0-5.6,4.6-10.2,10.2-10.2l0,0C490.8,188.1,495.4,192.6,495.4,198.3 M384.5,200L384.5,200c-0.2-0.5-0.5-0.9-0.8-1.4l7.3-7.3l0,0
				c2.7,1.7,5.6,3.1,8.6,4.4L384.5,200z M382.3,206.4c0,5.7-4.6,10.3-10.2,10.2l0,0c-5.6,0-10.2-4.6-10.2-10.2l0,0
				c0-5.6,4.6-10.2,10.2-10.2l0,0C377.7,196.2,382.3,200.7,382.3,206.4 M417,201.5c-8.9,1.2-17.3,4.2-24.7,8.7l-0.9-0.2l-0.2,0.6
				l-5.3-1.5l0,0c0.1-0.9,0.2-1.7,0.2-2.6l0,0c0-1-0.1-2-0.3-2.9l18.8-5.4l0,0c-0.7-0.4-1.4-0.9-2.1-1.3l0,0c4.6,1.8,9.4,3,14.4,3.7
				l0,0C416.9,200.9,417,201.2,417,201.5 M425,221.7L425,221.7c-2.1-5.6-3.5-11.5-4.1-17.7l0,0c0-0.2,0-0.3,0-0.4l10.9,10.2
				L425,221.7z M450.6,230.1l1.9-13l-11.6-3.4l31.5-9.6l0,0c0.3,0.6,0.6,1.1,1,1.7L450.6,230.1z M412.4,214.8l-14.6-3.4l0,0
				c5.7-2.9,11.9-4.9,18.4-6L412.4,214.8z M455.9,253.6l-5.7-17.5l25.7-27.4l0,0c1.4,1.2,3,2.2,4.8,2.8l-7.3,36.7L455.9,253.6z
				 M418.1,210.8c0.6,3.5,1.6,7,2.8,10.3l-5.1-4.6L418.1,210.8 M496.4,243.4l-9.4-7.5l-9,8.4l6.4-32l0,0c0.3,0,0.5,0,0.8,0l0,0
				c0.4,0,0.9-0.1,1.3-0.1L496.4,243.4z M387.3,213.3c-0.6,0.4-1.2,0.9-1.8,1.3l-1.3-1.1l0,0c0.2-0.3,0.4-0.6,0.5-0.9L387.3,213.3
				 M432.6,236L432.6,236c-2.3-3.3-4.3-6.7-6-10.3l8.4-9.8l13.3,3.9l-2,14L432.6,236z M389.4,217.9l-0.9-0.7l0,0
				c0.5-0.4,0.9-0.7,1.3-1L389.4,217.9z M382.5,217c-1.7,1.4-3.3,2.9-4.8,4.5l-0.6-2l0,0c1.8-0.7,3.4-1.8,4.8-3.1L382.5,217
				 M386.1,230.8l-6.9-0.9l0,0c0.3-0.4,0.5-0.8,0.8-1.2l-1-3.1l0,0c2-2.2,4.1-4.2,6.4-6.1l1.4,1.2l0,0c0.8-0.8,1.6-1.5,2.4-2.2
				L386.1,230.8z M427.5,255.1L427.5,255.1c-0.3,0-0.6,0-0.9,0l0,0c-0.2,0-0.4,0-0.6,0l-8.9-32.3l7.3,6.7l0,0
				c1.9,3.7,4.2,7.2,6.7,10.5L427.5,255.1z M451.8,253.6L451.8,253.6c-6.3-3.8-11.8-8.7-16.5-14.3l11.3-1.7L451.8,253.6z
				 M493.3,262.3c-2.7,0.4-5.4,0.5-8,0.4l0,0c-1.3,0-2.5,0-3.7-0.1l-4.4-12.5l10.1-9.4l10.6,8.6L493.3,262.3 M435.7,258.5
				L435.7,258.5c-1.3-1.2-2.8-2-4.5-2.6l2.9-12.3l0,0c2.6,2.9,5.5,5.6,8.5,8L435.7,258.5z M517.6,254.1c-6.1,3.6-12.9,6.2-20.1,7.6
				l3.8-10.8L517.6,254.1 M477.4,262.3L477.4,262.3c-6.8-0.8-13.2-2.6-19.2-5.4l15.6-4.9L477.4,262.3z M439.1,262.7L439.1,262.7
				c-0.2-0.5-0.5-0.9-0.8-1.4l7.4-7.4l0,0c2.4,1.7,4.9,3.3,7.6,4.7L439.1,262.7z M485.1,291.6l-10.8-9.8l4.6-11.7l0,0
				c2-0.2,4.1-0.3,6.2-0.3l0,0c1.9,0,3.8,0.1,5.7,0.3l4.1,11.7L485.1,291.6z M498.4,279.9l-3.3-9.4l0,0c6.2,1,12.2,2.9,17.7,5.5
				L498.4,279.9z M471,280.1l-14.7-3.4l0,0c5.7-2.9,11.9-4.9,18.4-6L471,280.1z"/>
		</g>
	</g>
	<g>
		<g>
			<defs>
				<path id="SVGID_87_" d="M512.3,340.7L512.3,340.7c1.1,1.5,2.2,3.2,3.2,4.8l6.5,1.9v-3.9L512.3,340.7z"/>
			</defs>
			<clipPath id="SVGID_88_">
				<use xlink:href="#SVGID_87_"  style="overflow:visible;"/>
			</clipPath>
			
				<linearGradient id="path286_1_" gradientUnits="userSpaceOnUse" x1="371.7882" y1="-0.2723" x2="372.7882" y2="-0.2723" gradientTransform="matrix(-1755.5588 0 0 1755.5588 654097.6875 822.1114)">
				<stop  offset="0" style="stop-color:#FFC322"/>
				<stop  offset="9.134790e-02" style="stop-color:#FFC322"/>
				<stop  offset="0.48" style="stop-color:#EAAE20"/>
				<stop  offset="1" style="stop-color:#C77A3E"/>
			</linearGradient>
			<path id="path286" class="st43" d="M512.3,340.7L512.3,340.7c1.1,1.5,2.2,3.2,3.2,4.8l6.5,1.9v-3.9L512.3,340.7z"/>
		</g>
	</g>
	<g>
		<g>
			<defs>
				<path id="SVGID_89_" d="M0,0L0,0c58.7,241.9,391.1,168.7,522,400.6v-55.2l0,0C402.3,133.2,113.8,176.4,20.7,0L0,0z"/>
			</defs>
			<clipPath id="SVGID_90_">
				<use xlink:href="#SVGID_89_"  style="overflow:visible;"/>
			</clipPath>
			
				<linearGradient id="path358_1_" gradientUnits="userSpaceOnUse" x1="371.7056" y1="0.7949" x2="372.7056" y2="0.7949" gradientTransform="matrix(376.4331 607.3115 607.3115 -376.4331 -140373.9688 -225628.75)">
				<stop  offset="0" style="stop-color:#FFC322"/>
				<stop  offset="9.134790e-02" style="stop-color:#FFC322"/>
				<stop  offset="0.48" style="stop-color:#EAAE20"/>
				<stop  offset="1" style="stop-color:#C77A3E"/>
			</linearGradient>
			<path id="path358" class="st44" d="M0,0L0,0c58.7,241.9,391.1,168.7,522,400.6v-55.2l0,0C402.3,133.2,113.8,176.4,20.7,0L0,0z"/>
		</g>
	</g>
</g>
</svg>
