<?xml version="1.0" encoding="utf-8"?>
<!-- Generator: Adobe Illustrator 24.0.0, SVG Export Plug-In . SVG Version: 6.00 Build 0)  -->
<svg version="1.1" xmlns="http://www.w3.org/2000/svg" xmlns:xlink="http://www.w3.org/1999/xlink" x="0px" y="0px"
	 viewBox="0 0 750 500" style="enable-background:new 0 0 750 500;" xml:space="preserve">
<style type="text/css">
	.st0{display:none;}
	.st1{display:inline;}
	.st2{fill:#577AF8;}
	.st3{opacity:0.9;fill:#FFFFFF;enable-background:new    ;}
	.st4{fill:#F0F0F0;}
	.st5{fill:#EBEBEB;}
	.st6{fill:#F5F5F5;}
	.st7{fill:#FAFAFA;}
	.st8{opacity:0.5;}
	.st9{fill:#5D238A;}
	.st10{opacity:0.4;fill:#FFFFFF;}
	.st11{opacity:0.6;fill:#FFFFFF;}
	.st12{opacity:0.2;}
	.st13{opacity:0.2;fill:#FFFFFF;}
	.st14{fill:#4F1774;}
	.st15{fill:#EDDE38;}
	.st16{fill:#E6C232;}
	.st17{fill:#CBD9E3;}
	.st18{fill:#BBCBD7;}
	.st19{clip-path:url(#SVGID_2_);}
	.st20{fill:#3C0059;}
	.st21{fill:url(#SVGID_3_);}
	.st22{fill:#A5BECE;}
	.st23{fill:url(#SVGID_4_);}
	.st24{fill:#BA6B51;}
	.st25{fill:url(#SVGID_5_);}
	.st26{fill:url(#SVGID_6_);}
	.st27{fill:#A2C8D0;}
	.st28{fill:url(#SVGID_7_);}
	.st29{fill:url(#SVGID_8_);}
	.st30{fill:url(#SVGID_9_);}
	.st31{fill:url(#SVGID_10_);}
	.st32{fill:url(#SVGID_11_);}
	.st33{fill:url(#SVGID_12_);}
	.st34{fill:url(#SVGID_13_);}
	.st35{fill:url(#SVGID_14_);}
	.st36{fill:url(#SVGID_15_);}
	.st37{fill:url(#SVGID_16_);}
	.st38{fill:url(#SVGID_17_);}
	.st39{fill:url(#SVGID_18_);}
	.st40{fill:url(#SVGID_19_);}
	.st41{fill:url(#SVGID_20_);}
	.st42{fill:url(#SVGID_21_);}
	.st43{fill:url(#SVGID_22_);}
	.st44{fill:url(#SVGID_23_);}
	.st45{fill:url(#SVGID_24_);}
	.st46{fill:url(#SVGID_25_);}
	.st47{opacity:0.29;fill:#F4FAFF;}
</style>
<g id="Background_Complete">
</g>
<g id="Background_Simple" class="st0">
	<g class="st1">
		<path class="st2" d="M263.5,85.94c53.1-21.32,90.38,30.07,100.44,66.06c10.06,35.99,34.92,46.08,57.81,33.25
			c22.88-12.83,61.86-66.21,111.05-22.23C582,207,513.73,316.45,408.53,328.24c-58.85,6.6-143.53-16.17-173.21-103.66
			C217.64,172.45,221.01,103,263.5,85.94z"/>
		<path class="st3" d="M263.5,85.94c53.1-21.32,90.38,30.07,100.44,66.06c10.06,35.99,34.92,46.08,57.81,33.25
			c22.88-12.83,61.86-66.21,111.05-22.23C582,207,513.73,316.45,408.53,328.24c-58.85,6.6-143.53-16.17-173.21-103.66
			C217.64,172.45,221.01,103,263.5,85.94z"/>
	</g>
</g>
<g id="Shadow_1_">
</g>
<g id="Flowers">
	<g>
		<polygon class="st4" points="105.43,177.57 106.56,177.57 106.56,168.31 106,167.22 105.43,168.31 		"/>
		<polygon class="st4" points="211.35,279.88 212.48,279.88 212.48,272.75 211.92,271.91 211.35,272.75 		"/>
		<path class="st5" d="M123.27,413.81l-5.77-221.87c4.54-5.43-2.8-10.61-11.39-15.74c-11.37,5.36-16.03,11.02-11.16,17.31
			l-7.34,220.3H123.27z"/>
		<path class="st4" d="M86.11,351.52h39.08c1.16-2.38,1.57-4.6,0-6.35H86.11C84.6,347.28,84.6,349.4,86.11,351.52z"/>
		<path class="st4" d="M86.11,288.9h39.08c1.16-2.38,1.57-4.6,0-6.35H86.11C84.6,284.67,84.6,286.78,86.11,288.9z"/>
		<path class="st4" d="M88.59,199.21h34.11c1.01-2.38,1.37-4.6,0-6.35H88.59C87.27,194.97,87.27,197.09,88.59,199.21z"/>
		<path class="st4" d="M218.2,289.24l2.1,118.54h-20.46l4.72-118.54c-1.34-3.4,1.46-7,7.34-10.75
			C218.01,283.52,219.32,286.82,218.2,289.24z"/>
		<path class="st4" d="M199.85,347.2h22.55c0.67-1.53,0.91-2.94,0-4.07h-22.55C198.97,344.49,198.97,345.84,199.85,347.2z"/>
		<path class="st4" d="M202.14,305.1h17.96c0.53-1.53,0.72-2.94,0-4.07h-17.96C201.44,302.39,201.44,303.75,202.14,305.1z"/>
		<path class="st4" d="M202.14,291.73h17.96c0.53-0.9,0.72-1.74,0-2.41h-17.96C201.44,290.12,201.44,290.93,202.14,291.73z"/>
		<path class="st4" d="M86.11,220.84h39.08c1.16-2.38,1.57-4.6,0-6.35H86.11C84.6,216.61,84.6,218.73,86.11,220.84z"/>
		<polygon class="st4" points="642.89,177.57 641.76,177.57 641.76,168.31 642.33,167.22 642.89,168.31 		"/>
		<polygon class="st4" points="536.97,279.88 535.84,279.88 535.84,272.75 536.4,271.91 536.97,272.75 		"/>
		<polygon class="st4" points="451.22,248.41 450.09,248.41 450.09,236.48 450.65,235.08 451.22,236.48 		"/>
		<path class="st4" d="M476.55,282.55h-51.94c-1.54-3.99-2.09-7.7,0-10.64h51.94C478.56,275.46,478.56,279,476.55,282.55z"/>
		<path class="st4" d="M460.09,252.52l-9.44-5.77l-9.44,5.77c-10.04,5.16-12.97,13.3-12.59,22.82v22.29h22.03h22.03v-22.29
			C473.07,265.82,470.14,257.68,460.09,252.52z"/>
		<path class="st5" d="M625.06,413.81l5.77-221.87c-4.54-5.43,2.8-10.61,11.39-15.74c11.37,5.36,16.03,11.02,11.16,17.31l7.34,220.3
			H625.06z"/>
		<path class="st4" d="M662.21,351.52h-39.08c-1.16-2.38-1.57-4.6,0-6.35h39.08C663.73,347.28,663.73,349.4,662.21,351.52z"/>
		<path class="st4" d="M662.21,288.9h-39.08c-1.16-2.38-1.57-4.6,0-6.35h39.08C663.73,284.67,663.73,286.78,662.21,288.9z"/>
		<path class="st4" d="M662.21,220.84h-39.08c-1.16-2.38-1.57-4.6,0-6.35h39.08C663.73,216.61,663.73,218.73,662.21,220.84z"/>
		<path class="st4" d="M659.73,199.21h-34.11c-1.01-2.38-1.37-4.6,0-6.35h34.11C661.05,194.97,661.05,197.09,659.73,199.21z"/>
		<path class="st4" d="M530.12,289.24l-2.1,118.54h20.46l-4.72-118.54c1.34-3.4-1.46-7-7.34-10.75
			C530.31,283.52,529,286.82,530.12,289.24z"/>
		<path class="st4" d="M548.48,347.2h-22.55c-0.67-1.53-0.91-2.94,0-4.07h22.55C549.35,344.49,549.35,345.84,548.48,347.2z"/>
		<path class="st4" d="M546.18,305.1h-17.96c-0.53-1.53-0.72-2.94,0-4.07h17.96C546.88,302.39,546.88,303.75,546.18,305.1z"/>
		<path class="st4" d="M546.18,291.73h-17.96c-0.53-0.9-0.72-1.74,0-2.41h17.96C546.88,290.12,546.88,290.93,546.18,291.73z"/>
		<polygon class="st4" points="297.1,248.41 298.23,248.41 298.23,236.48 297.67,235.08 297.1,236.48 		"/>
		<path class="st6" d="M271.77,282.55h51.94c1.54-3.99,2.09-7.7,0-10.64h-51.94C269.76,275.46,269.76,279,271.77,282.55z"/>
		<path class="st6" d="M288.23,252.52l9.44-5.77l9.44,5.77c10.04,5.16,12.97,13.3,12.59,22.82v22.29h-22.03h-22.03v-22.29
			C275.25,265.82,278.18,257.68,288.23,252.52z"/>
		<path class="st4" d="M484.03,295.2h-47.99v-43.27c8.01-31.64-3.62-57.27-39.34-75.53l-20.89-15.74l-20.89,15.74
			c-35.72,18.26-47.35,43.89-39.34,75.53v43.27h-47.99l-32.26,6.29v106.22H375.8h140.48V301.5L484.03,295.2z"/>
		<g>
			<polygon class="st4" points="373.14,163.99 375.18,163.99 375.18,130.79 374.16,126.9 373.14,130.79 			"/>
			<path class="st4" d="M377.52,149.13c0,2.04-1.65,3.69-3.69,3.69c-2.04,0-3.69-1.65-3.69-3.69c0-2.04,1.65-3.69,3.69-3.69
				C375.87,145.44,377.52,147.1,377.52,149.13z"/>
			<path class="st4" d="M370.65,154.41c0-1.9,1.54-3.44,3.44-3.44c1.9,0,3.44,1.54,3.44,3.44s-1.54,3.44-3.44,3.44
				C372.19,157.85,370.65,156.31,370.65,154.41z"/>
			<path class="st4" d="M371.21,138.19c0,1.74,1.41,3.16,3.16,3.16s3.16-1.41,3.16-3.16c0-1.74-1.41-3.16-3.16-3.16
				S371.21,136.44,371.21,138.19z"/>
		</g>
		<path class="st5" d="M407.64,358.61c0.37-24.32-8.26-39.87-33.04-46.42c-24.78,6.55-32.65,22.16-32.9,46.42l0,49.17h32.47h1.02
			h32.46V358.61z"/>
		<path class="st5" d="M471.76,388.24c0.16-9.67-3.56-15.85-14.22-18.45c-10.66,2.6-14.05,8.81-14.16,18.45l0,19.54h13.97h0.44
			h13.97V388.24z"/>
		<path class="st5" d="M471.76,338.64c0.16-9.67-3.56-15.85-14.22-18.45c-10.66,2.6-14.05,8.81-14.16,18.45l0,19.54h13.97h0.44
			h13.97V338.64z"/>
		<path class="st5" d="M307.32,388.24c0.16-9.67-3.56-15.85-14.22-18.45c-10.66,2.6-14.05,8.81-14.16,18.45l0,19.54h13.97h0.44
			h13.97V388.24z"/>
		<path class="st5" d="M307.32,338.64c0.16-9.67-3.56-15.85-14.22-18.45c-10.66,2.6-14.05,8.81-14.16,18.45l0,19.54h13.97h0.44
			h13.97V338.64z"/>
		<path class="st5" d="M505.2,338.64c0.09-9.67-2.03-15.85-8.11-18.45c-6.08,2.6-8.01,8.81-8.07,18.45l0,19.54l15.69,1.7
			L505.2,338.64z"/>
		<path class="st5" d="M505.2,390.3c0.09-9.67-2.03-15.85-8.11-18.45c-6.08,2.6-8.01,8.81-8.07,18.45l0,19.54l15.69,1.7L505.2,390.3
			z"/>
		<path class="st5" d="M245.38,338.64c-0.09-9.67,2.03-15.85,8.11-18.45c6.08,2.6,8.01,8.81,8.07,18.45l0,19.54l-15.69,1.7
			L245.38,338.64z"/>
		<path class="st5" d="M245.38,390.3c-0.09-9.67,2.03-15.85,8.11-18.45c6.08,2.6,8.01,8.81,8.07,18.45l0,19.54l-15.69,1.7
			L245.38,390.3z"/>
		<rect x="81.46" y="407.78" class="st4" width="587.66" height="43.1"/>
	</g>
	
		<ellipse transform="matrix(0.7071 -0.7071 0.7071 0.7071 75.4423 345.2817)" class="st7" cx="454.51" cy="81.57" rx="21.5" ry="21.5"/>
	<path class="st6" d="M667.49,142.43L667.49,142.43c-1.04-5.21-5.54-9.01-10.85-9.16l-30.72-0.87l0.94-2.22
		c2.01-4.75,0.76-10.25-3.11-13.66c-2.49-2.19-5.78-3.26-9.08-2.93l-12.51,1.23c-1.24-10.11-9.84-17.94-20.29-17.94
		c-4.45,0-8.56,1.44-11.92,3.85l-1.33-3.28c-0.29-0.73-0.64-1.42-1.03-2.1c-2.85-8.02-10.49-13.77-19.48-13.77
		c-11.43,0-20.7,9.27-20.7,20.7c0,3.42,0.84,6.64,2.31,9.48l-0.03,0.29l-4.97-1.56c-4.05-1.28-8.47-0.58-11.94,1.88l0,0
		c-4.31,3.06-6.44,8.34-5.48,13.54l0.69,3.74l-4.75,2.19c-3.57,1.64-6.16,4.89-6.96,8.74c-0.77,3.69,0.18,7.53,2.58,10.43l0.75,0.91
		c2.38,2.88,5.93,4.53,9.66,4.5l145.59,0c2.3,0,4.57-0.55,6.62-1.59v0C666.04,152.48,668.49,147.43,667.49,142.43z"/>
	<path class="st6" d="M326.99,118.4c0-6.65-5.04-12.12-11.51-12.8v-0.07h-32.81l0.12-0.65c2.57-3.09,4.12-7.07,4.12-11.4
		c0-9.86-8-17.86-17.86-17.86c-3.26,0-6.31,0.89-8.94,2.41c-1.91-10.34-9.64-18.61-19.68-21.32c-2.06-0.68-4.2-0.99-6.34-0.93
		c-0.26-0.01-0.51-0.04-0.76-0.04c-14.08,0-25.66,10.67-27.1,24.37l-1.79,2.7l-12.02-5.37c-4.7-2.1-10.1-1.92-14.65,0.47
		c-4.04,2.13-7.03,5.81-8.3,10.19l-1.66,5.74c-1.64-5.73-6.91-9.92-13.17-9.92c-7.57,0-13.71,6.14-13.71,13.71
		c0,1.41,0.21,2.77,0.61,4.06c0.11,1,0.35,1.99,0.75,2.94l1.36,3.2l-26.57-0.38c-5.31,0.16-9.81,3.96-10.85,9.17l0,0
		c-1,5.01,1.45,10.07,6,12.39l0.67,0.34c1.61,0.82,3.38,1.25,5.19,1.25l149.88,0.56v0.06h44.79c0.45,0.05,0.9,0.07,1.36,0.07
		s0.91-0.03,1.36-0.07h0.02v0C321.95,130.52,326.99,125.05,326.99,118.4z"/>
	<g class="st8">
		<g>
			<g>
				<path class="st9" d="M633.51,265.08c0,0-5.93-19.49-1.23-23.24c4.69-3.75,4.57,17.56,4.57,17.56s3.87-21.04,8.99-19.73
					c5.12,1.32-2.48,19.7-2.48,19.7s4.51-10.32,9.06-6.45s-16.76,23.18-16.76,23.18s-15.55-13.38-13.94-17.52
					C623.32,254.45,633.51,265.08,633.51,265.08z"/>
				<path class="st10" d="M633.51,265.08c0,0-5.93-19.49-1.23-23.24c4.69-3.75,4.57,17.56,4.57,17.56s3.87-21.04,8.99-19.73
					c5.12,1.32-2.48,19.7-2.48,19.7s4.51-10.32,9.06-6.45s-16.76,23.18-16.76,23.18s-15.55-13.38-13.94-17.52
					C623.32,254.45,633.51,265.08,633.51,265.08z"/>
			</g>
			<g>
				<path class="st9" d="M591.07,262.66c0,0,5.93-19.49,1.23-23.24c-4.69-3.75-4.57,17.56-4.57,17.56s-3.87-21.05-8.99-19.73
					c-5.12,1.32,2.48,19.7,2.48,19.7s-4.51-10.32-9.06-6.45c-4.55,3.87,16.76,23.18,16.76,23.18s15.55-13.38,13.94-17.52
					C601.25,252.03,591.07,262.66,591.07,262.66z"/>
				<path class="st10" d="M591.07,262.66c0,0,5.93-19.49,1.23-23.24c-4.69-3.75-4.57,17.56-4.57,17.56s-3.87-21.05-8.99-19.73
					c-5.12,1.32,2.48,19.7,2.48,19.7s-4.51-10.32-9.06-6.45c-4.55,3.87,16.76,23.18,16.76,23.18s15.55-13.38,13.94-17.52
					C601.25,252.03,591.07,262.66,591.07,262.66z"/>
			</g>
			<path class="st9" d="M573.76,293.44c0,0-19.22-6.74-19.47-12.75c-0.25-6,16.86,6.7,16.86,6.7s-14.69-15.56-10.6-18.91
				c4.09-3.35,14.42,13.65,14.42,13.65s-5.66-9.74,0.15-11.12c5.81-1.38,8.79,27.23,8.79,27.23s-19.99,4.63-22.37,0.88
				C559.16,295.36,573.76,293.44,573.76,293.44z"/>
			<path class="st9" d="M651.44,293.44c0,0,19.22-6.74,19.47-12.75s-16.86,6.7-16.86,6.7s14.69-15.56,10.6-18.91
				c-4.09-3.35-14.42,13.65-14.42,13.65s5.66-9.74-0.15-11.12c-5.81-1.38-8.79,27.23-8.79,27.23s19.99,4.63,22.37,0.88
				C666.04,295.36,651.44,293.44,651.44,293.44z"/>
			<g>
				<path class="st9" d="M584.35,300.53c0,0-15.02-4.53-5.21-18.96c0,0-7.49-21.75,12.17-18.45c0,0,3.22-19,21.44-5.26
					c0,0,17.48-17.01,18.66,6.19c0,0,21.77-2.17,12.61,18.29c0,0,10.48,12.79-3.98,16.9L584.35,300.53z"/>
				<path class="st11" d="M584.35,300.53c0,0-15.02-4.53-5.21-18.96c0,0-7.49-21.75,12.17-18.45c0,0,3.22-19,21.44-5.26
					c0,0,17.48-17.01,18.66,6.19c0,0,21.77-2.17,12.61,18.29c0,0,10.48,12.79-3.98,16.9L584.35,300.53z"/>
			</g>
			<g>
				<path class="st9" d="M642.31,301.04c0,1.2-0.96,2.17-2.16,2.17h-8.67c-1.43,0-2.6,1.15-2.6,2.58v0.04h1.99
					c2.32,0,4.19,1.94,4.09,4.27c-0.04,1.09-0.55,2.05-1.31,2.75c-0.81,0.72-1.91,1.17-3.04,1.17h-1.68c-0.03,0-0.04,0.01-0.04,0.03
					v3.75c0,5.07-2.25,9.6-5.79,12.67c0.04,0.06,0.07,0.12,0.12,0.19c0.16,0.3,0.25,0.64,0.25,1c0,1.2-0.98,2.17-2.17,2.17h-0.15
					c0,1.24,0.71,2.38,1.83,2.91l0.64,0.31c0.01,0,0.01,0,0.01,0.01h1.29c0.69,0,1.26,0.55,1.26,1.24c0,0.68-0.56,1.24-1.26,1.24
					h-1.29c0,0,0,0-0.01,0l-0.64,0.31c-1.12,0.55-1.83,1.67-1.83,2.91v0.77c0,0,0.01,0.01,0.01,0.03c1.82,1.36,3.01,3.5,3.01,5.94
					c0,1.98-0.8,3.78-2.08,5.11c-0.27,0.31-0.59,0.59-0.93,0.84c0,0-0.01,0.01-0.01,0.03v54.27c0,0.01,0.01,0.01,0.01,0.03
					c0.13,0.1,0.27,0.21,0.4,0.34c1.6,1.34,2.61,3.34,2.61,5.6c0,2.08-0.87,3.96-2.26,5.32c-0.49,0.47-0.77,1.14-0.77,1.82
					c0,1,0.58,1.91,1.48,2.35l0.99,0.47c0.01,0,0.01,0,0.01,0.01h1.29c0.69,0,1.26,0.55,1.26,1.24c0,0.28-0.12,0.52-0.27,0.72h0.89
					v1.57h2.23v9.02c0.24,0.24,0.46,0.47,0.68,0.72c2.81,3.16,4.52,7.3,4.53,11.85c0,0.03-0.03,0.04-0.04,0.04h-44.21
					c-0.03,0-0.04-0.01-0.04-0.04c0.02-4.55,1.73-8.69,4.52-11.85c0.22-0.25,0.44-0.49,0.68-0.72v-9.02h2.25v-1.57h0.89
					c-0.16-0.21-0.27-0.44-0.27-0.72c0-0.69,0.56-1.24,1.24-1.24h1.28c0.01-0.01,0.01-0.01,0.01-0.01l1-0.47
					c0.9-0.44,1.46-1.34,1.46-2.35c0-0.68-0.27-1.34-0.75-1.82c-1.39-1.36-2.26-3.23-2.26-5.32c0-2.26,1-4.25,2.6-5.6
					c0.13-0.13,0.27-0.24,0.4-0.34c0.01-0.01,0.01-0.03,0.01-0.03V355.5c0-0.01,0-0.03-0.01-0.03c-0.34-0.25-0.65-0.53-0.93-0.84
					c-1.29-1.33-2.07-3.13-2.07-5.11c0-2.44,1.18-4.58,3-5.94c0.01-0.01,0.01-0.03,0.01-0.03v-0.77c0-1.24-0.71-2.36-1.83-2.91
					l-0.63-0.31c0,0,0,0-0.01,0h-1.28c-0.68,0-1.24-0.56-1.24-1.24c0-0.69,0.56-1.24,1.24-1.24h1.28c0.01-0.01,0.01-0.01,0.01-0.01
					l0.63-0.31c1.12-0.53,1.83-1.67,1.83-2.91h-0.15c-1.2,0-2.16-0.97-2.16-2.17c0-0.37,0.09-0.71,0.25-1
					c0.03-0.07,0.06-0.13,0.1-0.19c-3.55-3.07-5.79-7.61-5.79-12.67v-3.78h-1.99c-1.11,0-2.13-0.44-2.85-1.17
					c-0.8-0.78-1.28-1.89-1.23-3.12c0.09-2.23,2.11-3.9,4.36-3.9h1.68c0.01,0,0.03-0.01,0.03-0.04c0-1.43-1.15-2.58-2.58-2.58h-8.67
					c-1.2,0-2.17-0.97-2.17-2.17c0-1.2,0.98-2.17,2.17-2.17h56.14C641.35,298.87,642.31,299.85,642.31,301.04z"/>
				<path class="st10" d="M642.31,301.04c0,1.2-0.96,2.17-2.16,2.17h-8.67c-1.43,0-2.6,1.15-2.6,2.58v0.04h1.99
					c2.32,0,4.19,1.94,4.09,4.27c-0.04,1.09-0.55,2.05-1.31,2.75c-0.81,0.72-1.91,1.17-3.04,1.17h-1.68c-0.03,0-0.04,0.01-0.04,0.03
					v3.75c0,5.07-2.25,9.6-5.79,12.67c0.04,0.06,0.07,0.12,0.12,0.19c0.16,0.3,0.25,0.64,0.25,1c0,1.2-0.98,2.17-2.17,2.17h-0.15
					c0,1.24,0.71,2.38,1.83,2.91l0.64,0.31c0.01,0,0.01,0,0.01,0.01h1.29c0.69,0,1.26,0.55,1.26,1.24c0,0.68-0.56,1.24-1.26,1.24
					h-1.29c0,0,0,0-0.01,0l-0.64,0.31c-1.12,0.55-1.83,1.67-1.83,2.91v0.77c0,0,0.01,0.01,0.01,0.03c1.82,1.36,3.01,3.5,3.01,5.94
					c0,1.98-0.8,3.78-2.08,5.11c-0.27,0.31-0.59,0.59-0.93,0.84c0,0-0.01,0.01-0.01,0.03v54.27c0,0.01,0.01,0.01,0.01,0.03
					c0.13,0.1,0.27,0.21,0.4,0.34c1.6,1.34,2.61,3.34,2.61,5.6c0,2.08-0.87,3.96-2.26,5.32c-0.49,0.47-0.77,1.14-0.77,1.82
					c0,1,0.58,1.91,1.48,2.35l0.99,0.47c0.01,0,0.01,0,0.01,0.01h1.29c0.69,0,1.26,0.55,1.26,1.24c0,0.28-0.12,0.52-0.27,0.72h0.89
					v1.57h2.23v9.02c0.24,0.24,0.46,0.47,0.68,0.72c2.81,3.16,4.52,7.3,4.53,11.85c0,0.03-0.03,0.04-0.04,0.04h-44.21
					c-0.03,0-0.04-0.01-0.04-0.04c0.02-4.55,1.73-8.69,4.52-11.85c0.22-0.25,0.44-0.49,0.68-0.72v-9.02h2.25v-1.57h0.89
					c-0.16-0.21-0.27-0.44-0.27-0.72c0-0.69,0.56-1.24,1.24-1.24h1.28c0.01-0.01,0.01-0.01,0.01-0.01l1-0.47
					c0.9-0.44,1.46-1.34,1.46-2.35c0-0.68-0.27-1.34-0.75-1.82c-1.39-1.36-2.26-3.23-2.26-5.32c0-2.26,1-4.25,2.6-5.6
					c0.13-0.13,0.27-0.24,0.4-0.34c0.01-0.01,0.01-0.03,0.01-0.03V355.5c0-0.01,0-0.03-0.01-0.03c-0.34-0.25-0.65-0.53-0.93-0.84
					c-1.29-1.33-2.07-3.13-2.07-5.11c0-2.44,1.18-4.58,3-5.94c0.01-0.01,0.01-0.03,0.01-0.03v-0.77c0-1.24-0.71-2.36-1.83-2.91
					l-0.63-0.31c0,0,0,0-0.01,0h-1.28c-0.68,0-1.24-0.56-1.24-1.24c0-0.69,0.56-1.24,1.24-1.24h1.28c0.01-0.01,0.01-0.01,0.01-0.01
					l0.63-0.31c1.12-0.53,1.83-1.67,1.83-2.91h-0.15c-1.2,0-2.16-0.97-2.16-2.17c0-0.37,0.09-0.71,0.25-1
					c0.03-0.07,0.06-0.13,0.1-0.19c-3.55-3.07-5.79-7.61-5.79-12.67v-3.78h-1.99c-1.11,0-2.13-0.44-2.85-1.17
					c-0.8-0.78-1.28-1.89-1.23-3.12c0.09-2.23,2.11-3.9,4.36-3.9h1.68c0.01,0,0.03-0.01,0.03-0.04c0-1.43-1.15-2.58-2.58-2.58h-8.67
					c-1.2,0-2.17-0.97-2.17-2.17c0-1.2,0.98-2.17,2.17-2.17h56.14C641.35,298.87,642.31,299.85,642.31,301.04z"/>
				<path class="st12" d="M595.26,314.12v3.69c0,5.07,2.25,9.6,5.79,12.67c-0.04,0.06-0.07,0.12-0.1,0.19h22.26
					c-0.04-0.07-0.07-0.13-0.12-0.19c3.54-3.07,5.79-7.61,5.79-12.67v-3.69H595.26z"/>
				<path class="st12" d="M621.14,355.5v54.27c0,0.01,0.01,0.01,0.01,0.03c0.13,0.1,0.27,0.21,0.4,0.34h-18.97
					c0.13-0.13,0.27-0.24,0.4-0.34c0.01-0.01,0.01-0.03,0.01-0.03V355.5c0-0.01,0-0.03-0.01-0.03c-0.34-0.25-0.65-0.53-0.93-0.84
					h20.03c-0.27,0.31-0.59,0.59-0.93,0.84C621.15,355.47,621.14,355.49,621.14,355.5z"/>
				<path class="st12" d="M629.69,438.99h-35.24c0.22-0.25,0.44-0.49,0.68-0.72v-9.02h33.88v9.02
					C629.25,438.5,629.47,438.74,629.69,438.99z"/>
			</g>
			<g>
				<path class="st9" d="M641.23,276.97c0,0-3.47-9.97,0.05-9.99c3.53-0.01,3.08,9.99,3.08,9.99s3.89-9.34,6.45-7.97
					c2.56,1.37-3.02,9.11-3.02,9.11s9.54-0.55,10.2,1.49c0.66,2.05-9.14,2.28-9.14,2.28s9.58,3.45,9.17,5.32
					c-0.41,1.86-9.22-0.93-9.22-0.93s4.28,5.62,2.58,6.56c-1.7,0.94-5.85-4.72-5.85-4.72s2.39,7.93-1.17,7.93
					c-3.56,0-2.04-7.18-2.04-7.18s-3.58,5.51-6.53,4.16c-2.96-1.35,3.62-7.95,3.62-7.95s-6.55,4.27-7.87,1.2
					c-1.32-3.07,7.87-4.76,7.87-4.76s-6.61-1.9-6.58-6.43C632.86,270.55,641.23,276.97,641.23,276.97z"/>
				<path class="st13" d="M641.23,276.97c0,0-3.47-9.97,0.05-9.99c3.53-0.01,3.08,9.99,3.08,9.99s3.89-9.34,6.45-7.97
					c2.56,1.37-3.02,9.11-3.02,9.11s9.54-0.55,10.2,1.49c0.66,2.05-9.14,2.28-9.14,2.28s9.58,3.45,9.17,5.32
					c-0.41,1.86-9.22-0.93-9.22-0.93s4.28,5.62,2.58,6.56c-1.7,0.94-5.85-4.72-5.85-4.72s2.39,7.93-1.17,7.93
					c-3.56,0-2.04-7.18-2.04-7.18s-3.58,5.51-6.53,4.16c-2.96-1.35,3.62-7.95,3.62-7.95s-6.55,4.27-7.87,1.2
					c-1.32-3.07,7.87-4.76,7.87-4.76s-6.61-1.9-6.58-6.43C632.86,270.55,641.23,276.97,641.23,276.97z"/>
				<path class="st10" d="M646.76,282.34c0,1.51-1.23,2.74-2.74,2.74c-1.51,0-2.74-1.23-2.74-2.74c0-1.51,1.23-2.74,2.74-2.74
					C645.53,279.6,646.76,280.83,646.76,282.34z"/>
			</g>
			<g>
				<path class="st9" d="M582.14,286.81c0,0,3.88,9.82,0.36,9.98c-3.52,0.16-3.49-9.85-3.49-9.85s-3.5,9.49-6.11,8.23
					c-2.61-1.26,2.64-9.22,2.64-9.22s-9.51,0.94-10.25-1.07c-0.74-2.02,9.04-2.66,9.04-2.66s-9.72-3.06-9.38-4.93
					c0.33-1.88,9.25,0.54,9.25,0.54s-4.51-5.44-2.85-6.45c1.66-1.01,6.04,4.48,6.04,4.48s-2.72-7.83,0.84-7.97
					c3.56-0.15,2.33,7.09,2.33,7.09s3.35-5.65,6.35-4.42c3.01,1.23-3.29,8.09-3.29,8.09s6.37-4.53,7.82-1.52
					c1.45,3.01-7.67,5.08-7.67,5.08s6.68,1.63,6.84,6.16C590.77,292.88,582.14,286.81,582.14,286.81z"/>
				<path class="st13" d="M582.14,286.81c0,0,3.88,9.82,0.36,9.98c-3.52,0.16-3.49-9.85-3.49-9.85s-3.5,9.49-6.11,8.23
					c-2.61-1.26,2.64-9.22,2.64-9.22s-9.51,0.94-10.25-1.07c-0.74-2.02,9.04-2.66,9.04-2.66s-9.72-3.06-9.38-4.93
					c0.33-1.88,9.25,0.54,9.25,0.54s-4.51-5.44-2.85-6.45c1.66-1.01,6.04,4.48,6.04,4.48s-2.72-7.83,0.84-7.97
					c3.56-0.15,2.33,7.09,2.33,7.09s3.35-5.65,6.35-4.42c3.01,1.23-3.29,8.09-3.29,8.09s6.37-4.53,7.82-1.52
					c1.45,3.01-7.67,5.08-7.67,5.08s6.68,1.63,6.84,6.16C590.77,292.88,582.14,286.81,582.14,286.81z"/>
				<path class="st10" d="M576.4,281.68c-0.06-1.51,1.11-2.79,2.62-2.85c1.51-0.06,2.79,1.11,2.85,2.62
					c0.06,1.51-1.11,2.79-2.62,2.85C577.74,284.36,576.46,283.19,576.4,281.68z"/>
			</g>
			<g>
				<path class="st9" d="M610.28,253.11c0,0-3.07-8.82,0.05-8.83c3.12-0.01,2.72,8.83,2.72,8.83s3.44-8.26,5.7-7.05
					c2.26,1.21-2.67,8.06-2.67,8.06s8.44-0.49,9.02,1.32c0.58,1.81-8.09,2.02-8.09,2.02s8.48,3.05,8.12,4.7
					c-0.36,1.65-8.16-0.82-8.16-0.82s3.79,4.97,2.28,5.81c-1.5,0.84-5.17-4.18-5.17-4.18s2.12,7.02-1.03,7.02
					c-3.15,0-1.8-6.35-1.8-6.35s-3.16,4.87-5.78,3.68c-2.61-1.19,3.2-7.03,3.2-7.03s-5.79,3.77-6.96,1.06
					c-1.17-2.71,6.96-4.21,6.96-4.21s-5.84-1.68-5.82-5.69C602.88,247.43,610.28,253.11,610.28,253.11z"/>
				<path class="st13" d="M610.28,253.11c0,0-3.07-8.82,0.05-8.83c3.12-0.01,2.72,8.83,2.72,8.83s3.44-8.26,5.7-7.05
					c2.26,1.21-2.67,8.06-2.67,8.06s8.44-0.49,9.02,1.32c0.58,1.81-8.09,2.02-8.09,2.02s8.48,3.05,8.12,4.7
					c-0.36,1.65-8.16-0.82-8.16-0.82s3.79,4.97,2.28,5.81c-1.5,0.84-5.17-4.18-5.17-4.18s2.12,7.02-1.03,7.02
					c-3.15,0-1.8-6.35-1.8-6.35s-3.16,4.87-5.78,3.68c-2.61-1.19,3.2-7.03,3.2-7.03s-5.79,3.77-6.96,1.06
					c-1.17-2.71,6.96-4.21,6.96-4.21s-5.84-1.68-5.82-5.69C602.88,247.43,610.28,253.11,610.28,253.11z"/>
				<path class="st10" d="M615.17,257.86c0,1.34-1.08,2.42-2.42,2.42c-1.34,0-2.42-1.08-2.42-2.42c0-1.34,1.08-2.42,2.42-2.42
					C614.08,255.44,615.17,256.52,615.17,257.86z"/>
			</g>
			<g>
				<path class="st9" d="M631.17,256.62c0,0-2.8-8.05,0.04-8.06c2.85-0.01,2.48,8.06,2.48,8.06s3.14-7.54,5.2-6.43
					c2.06,1.1-2.44,7.35-2.44,7.35s7.7-0.44,8.23,1.21c0.53,1.65-7.38,1.84-7.38,1.84s7.73,2.79,7.4,4.29
					c-0.33,1.5-7.44-0.75-7.44-0.75s3.45,4.53,2.08,5.3c-1.37,0.76-4.72-3.81-4.72-3.81s1.93,6.4-0.94,6.4
					c-2.87,0-1.64-5.79-1.64-5.79s-2.88,4.44-5.27,3.35c-2.38-1.09,2.92-6.41,2.92-6.41s-5.28,3.44-6.35,0.97
					c-1.07-2.48,6.35-3.84,6.35-3.84s-5.33-1.53-5.31-5.19C624.42,251.44,631.17,256.62,631.17,256.62z"/>
				<path class="st10" d="M635.63,260.94c0,1.22-0.99,2.21-2.21,2.21s-2.21-0.99-2.21-2.21c0-1.22,0.99-2.21,2.21-2.21
					S635.63,259.72,635.63,260.94z"/>
			</g>
			<g>
				<path class="st9" d="M586.61,263.28c0,0-8.16-0.9-6.99-3.37c1.17-2.48,8.03,1.18,8.03,1.18s-5.25-5.85-3.44-7.19
					c1.81-1.34,5.38,5.16,5.38,5.16s2.8-6.88,4.46-6.65s-1.45,7.17-1.45,7.17s5.62-5.57,6.79-4.66s-3.73,6.16-3.73,6.16
					s5.37-1.12,5.47,0.39c0.09,1.51-5.27,2.52-5.27,2.52s6.36,0.97,5.17,3.47c-1.19,2.5-5.71-0.97-5.71-0.97s2.67,4.35,0.73,5.97
					c-1.93,1.62-4.37-5.2-4.37-5.2s0.8,6.02-1.79,5.92c-2.59-0.1-0.7-7.11-0.7-7.11s-3.54,4-6.71,2.46
					C579.31,267,586.61,263.28,586.61,263.28z"/>
				<path class="st10" d="M592.22,261.2c1.06,0.51,1.51,1.77,1,2.83c-0.51,1.06-1.77,1.51-2.83,1c-1.06-0.51-1.51-1.77-1-2.83
					C589.89,261.14,591.16,260.69,592.22,261.2z"/>
			</g>
			<g>
				<path class="st9" d="M615.39,278.93c0,0,9.05-12.12,11.89-7.94c2.84,4.17-9.38,11.66-9.38,11.66s14.2-2.87,14.63,1.26
					c0.43,4.13-13.23,3.71-13.23,3.71s8.3,10.88,6.4,13.3c-1.9,2.42-10.04-9.02-10.04-9.02s3.58,14.14,1.04,15.14
					c-2.54,1.01-6.29-11.68-6.29-11.68s-3.24,9.58-5.72,8.32c-2.48-1.26,0.92-10.72,0.92-10.72s-7.49,9.2-10.35,4.97
					c-2.85-4.23,6.88-8.17,6.88-8.17s-9.4,0.17-10.16-4.42c-0.77-4.59,12.34-2.07,12.34-2.07s-10.31-4.35-7.73-8.38
					c2.58-4.03,11.95,5.53,11.95,5.53s-3.04-9.36,2.36-12.96C616.31,263.86,615.39,278.93,615.39,278.93z"/>
				<path class="st10" d="M613.45,289.79c-1.79,1.21-4.23,0.74-5.44-1.05s-0.74-4.23,1.05-5.44c1.79-1.21,4.23-0.74,5.44,1.05
					C615.72,286.14,615.25,288.58,613.45,289.79z"/>
			</g>
		</g>
		<g>
			<g>
				<path class="st9" d="M111.42,265.08c0,0,5.93-19.49,1.23-23.24c-4.69-3.75-4.57,17.56-4.57,17.56s-3.87-21.04-8.99-19.73
					c-5.12,1.32,2.48,19.7,2.48,19.7s-4.51-10.32-9.06-6.45s16.76,23.18,16.76,23.18s15.55-13.38,13.94-17.52
					C121.61,254.45,111.42,265.08,111.42,265.08z"/>
				<path class="st10" d="M111.42,265.08c0,0,5.93-19.49,1.23-23.24c-4.69-3.75-4.57,17.56-4.57,17.56s-3.87-21.04-8.99-19.73
					c-5.12,1.32,2.48,19.7,2.48,19.7s-4.51-10.32-9.06-6.45s16.76,23.18,16.76,23.18s15.55-13.38,13.94-17.52
					C121.61,254.45,111.42,265.08,111.42,265.08z"/>
			</g>
			<g>
				<path class="st9" d="M153.87,262.66c0,0-5.93-19.49-1.23-23.24c4.69-3.75,4.57,17.56,4.57,17.56s3.87-21.05,8.99-19.73
					c5.12,1.32-2.48,19.7-2.48,19.7s4.51-10.32,9.06-6.45c4.55,3.87-16.76,23.18-16.76,23.18s-15.55-13.38-13.94-17.52
					C143.68,252.03,153.87,262.66,153.87,262.66z"/>
				<path class="st10" d="M153.87,262.66c0,0-5.93-19.49-1.23-23.24c4.69-3.75,4.57,17.56,4.57,17.56s3.87-21.05,8.99-19.73
					c5.12,1.32-2.48,19.7-2.48,19.7s4.51-10.32,9.06-6.45c4.55,3.87-16.76,23.18-16.76,23.18s-15.55-13.38-13.94-17.52
					C143.68,252.03,153.87,262.66,153.87,262.66z"/>
			</g>
			<path class="st9" d="M171.18,293.44c0,0,19.22-6.74,19.47-12.75c0.25-6-16.86,6.7-16.86,6.7s14.69-15.56,10.6-18.91
				c-4.09-3.35-14.42,13.65-14.42,13.65s5.66-9.74-0.15-11.12c-5.81-1.38-8.79,27.23-8.79,27.23s19.99,4.63,22.37,0.88
				C185.77,295.36,171.18,293.44,171.18,293.44z"/>
			<path class="st9" d="M93.49,293.44c0,0-19.22-6.74-19.47-12.75s16.86,6.7,16.86,6.7s-14.69-15.56-10.6-18.91
				c4.09-3.35,14.42,13.65,14.42,13.65s-5.66-9.74,0.15-11.12c5.81-1.38,8.79,27.23,8.79,27.23s-19.99,4.63-22.37,0.88
				C78.9,295.36,93.49,293.44,93.49,293.44z"/>
			<g>
				<path class="st9" d="M160.59,300.53c0,0,15.02-4.53,5.21-18.96c0,0,7.49-21.75-12.17-18.45c0,0-3.22-19-21.44-5.26
					c0,0-17.48-17.01-18.66,6.19c0,0-21.77-2.17-12.61,18.29c0,0-10.48,12.79,3.98,16.9L160.59,300.53z"/>
				<path class="st11" d="M160.59,300.53c0,0,15.02-4.53,5.21-18.96c0,0,7.49-21.75-12.17-18.45c0,0-3.22-19-21.44-5.26
					c0,0-17.48-17.01-18.66,6.19c0,0-21.77-2.17-12.61,18.29c0,0-10.48,12.79,3.98,16.9L160.59,300.53z"/>
			</g>
			<g>
				<path class="st9" d="M102.63,301.04c0,1.2,0.96,2.17,2.16,2.17h8.67c1.43,0,2.6,1.15,2.6,2.58v0.04h-1.99
					c-2.32,0-4.19,1.94-4.09,4.27c0.04,1.09,0.55,2.05,1.31,2.75c0.81,0.72,1.91,1.17,3.04,1.17h1.68c0.03,0,0.04,0.01,0.04,0.03
					v3.75c0,5.07,2.25,9.6,5.79,12.67c-0.04,0.06-0.07,0.12-0.12,0.19c-0.16,0.3-0.25,0.64-0.25,1c0,1.2,0.98,2.17,2.17,2.17h0.15
					c0,1.24-0.71,2.38-1.83,2.91l-0.64,0.31c-0.01,0-0.01,0-0.01,0.01h-1.29c-0.69,0-1.26,0.55-1.26,1.24
					c0,0.68,0.56,1.24,1.26,1.24h1.29c0,0,0,0,0.01,0l0.64,0.31c1.12,0.55,1.83,1.67,1.83,2.91v0.77c0,0-0.01,0.01-0.01,0.03
					c-1.82,1.36-3.01,3.5-3.01,5.94c0,1.98,0.8,3.78,2.08,5.11c0.27,0.31,0.59,0.59,0.93,0.84c0,0,0.01,0.01,0.01,0.03v54.27
					c0,0.01-0.01,0.01-0.01,0.03c-0.13,0.1-0.27,0.21-0.4,0.34c-1.6,1.34-2.61,3.34-2.61,5.6c0,2.08,0.87,3.96,2.26,5.32
					c0.49,0.47,0.77,1.14,0.77,1.82c0,1-0.58,1.91-1.48,2.35l-0.99,0.47c-0.01,0-0.01,0-0.01,0.01h-1.29
					c-0.69,0-1.26,0.55-1.26,1.24c0,0.28,0.12,0.52,0.27,0.72h-0.89v1.57h-2.23v9.02c-0.24,0.24-0.46,0.47-0.68,0.72
					c-2.81,3.16-4.52,7.3-4.53,11.85c0,0.03,0.03,0.04,0.04,0.04h44.21c0.03,0,0.04-0.01,0.04-0.04c-0.02-4.55-1.73-8.69-4.52-11.85
					c-0.22-0.25-0.44-0.49-0.68-0.72v-9.02h-2.25v-1.57h-0.89c0.16-0.21,0.27-0.44,0.27-0.72c0-0.69-0.56-1.24-1.24-1.24h-1.28
					c-0.01-0.01-0.01-0.01-0.01-0.01l-1-0.47c-0.9-0.44-1.46-1.34-1.46-2.35c0-0.68,0.27-1.34,0.75-1.82
					c1.39-1.36,2.26-3.23,2.26-5.32c0-2.26-1-4.25-2.6-5.6c-0.13-0.13-0.27-0.24-0.4-0.34c-0.01-0.01-0.01-0.03-0.01-0.03V355.5
					c0-0.01,0-0.03,0.01-0.03c0.34-0.25,0.65-0.53,0.93-0.84c1.29-1.33,2.07-3.13,2.07-5.11c0-2.44-1.18-4.58-3-5.94
					c-0.01-0.01-0.01-0.03-0.01-0.03v-0.77c0-1.24,0.71-2.36,1.83-2.91l0.63-0.31c0,0,0,0,0.01,0h1.28c0.68,0,1.24-0.56,1.24-1.24
					c0-0.69-0.56-1.24-1.24-1.24h-1.28c-0.01-0.01-0.01-0.01-0.01-0.01l-0.63-0.31c-1.12-0.53-1.83-1.67-1.83-2.91h0.15
					c1.2,0,2.16-0.97,2.16-2.17c0-0.37-0.09-0.71-0.25-1c-0.03-0.07-0.06-0.13-0.1-0.19c3.55-3.07,5.79-7.61,5.79-12.67v-3.78h1.99
					c1.11,0,2.13-0.44,2.85-1.17c0.8-0.78,1.28-1.89,1.23-3.12c-0.09-2.23-2.11-3.9-4.36-3.9h-1.68c-0.01,0-0.03-0.01-0.03-0.04
					c0-1.43,1.15-2.58,2.58-2.58h8.67c1.2,0,2.17-0.97,2.17-2.17c0-1.2-0.98-2.17-2.17-2.17h-56.14
					C103.59,298.87,102.63,299.85,102.63,301.04z"/>
				<path class="st10" d="M102.63,301.04c0,1.2,0.96,2.17,2.16,2.17h8.67c1.43,0,2.6,1.15,2.6,2.58v0.04h-1.99
					c-2.32,0-4.19,1.94-4.09,4.27c0.04,1.09,0.55,2.05,1.31,2.75c0.81,0.72,1.91,1.17,3.04,1.17h1.68c0.03,0,0.04,0.01,0.04,0.03
					v3.75c0,5.07,2.25,9.6,5.79,12.67c-0.04,0.06-0.07,0.12-0.12,0.19c-0.16,0.3-0.25,0.64-0.25,1c0,1.2,0.98,2.17,2.17,2.17h0.15
					c0,1.24-0.71,2.38-1.83,2.91l-0.64,0.31c-0.01,0-0.01,0-0.01,0.01h-1.29c-0.69,0-1.26,0.55-1.26,1.24
					c0,0.68,0.56,1.24,1.26,1.24h1.29c0,0,0,0,0.01,0l0.64,0.31c1.12,0.55,1.83,1.67,1.83,2.91v0.77c0,0-0.01,0.01-0.01,0.03
					c-1.82,1.36-3.01,3.5-3.01,5.94c0,1.98,0.8,3.78,2.08,5.11c0.27,0.31,0.59,0.59,0.93,0.84c0,0,0.01,0.01,0.01,0.03v54.27
					c0,0.01-0.01,0.01-0.01,0.03c-0.13,0.1-0.27,0.21-0.4,0.34c-1.6,1.34-2.61,3.34-2.61,5.6c0,2.08,0.87,3.96,2.26,5.32
					c0.49,0.47,0.77,1.14,0.77,1.82c0,1-0.58,1.91-1.48,2.35l-0.99,0.47c-0.01,0-0.01,0-0.01,0.01h-1.29
					c-0.69,0-1.26,0.55-1.26,1.24c0,0.28,0.12,0.52,0.27,0.72h-0.89v1.57h-2.23v9.02c-0.24,0.24-0.46,0.47-0.68,0.72
					c-2.81,3.16-4.52,7.3-4.53,11.85c0,0.03,0.03,0.04,0.04,0.04h44.21c0.03,0,0.04-0.01,0.04-0.04c-0.02-4.55-1.73-8.69-4.52-11.85
					c-0.22-0.25-0.44-0.49-0.68-0.72v-9.02h-2.25v-1.57h-0.89c0.16-0.21,0.27-0.44,0.27-0.72c0-0.69-0.56-1.24-1.24-1.24h-1.28
					c-0.01-0.01-0.01-0.01-0.01-0.01l-1-0.47c-0.9-0.44-1.46-1.34-1.46-2.35c0-0.68,0.27-1.34,0.75-1.82
					c1.39-1.36,2.26-3.23,2.26-5.32c0-2.26-1-4.25-2.6-5.6c-0.13-0.13-0.27-0.24-0.4-0.34c-0.01-0.01-0.01-0.03-0.01-0.03V355.5
					c0-0.01,0-0.03,0.01-0.03c0.34-0.25,0.65-0.53,0.93-0.84c1.29-1.33,2.07-3.13,2.07-5.11c0-2.44-1.18-4.58-3-5.94
					c-0.01-0.01-0.01-0.03-0.01-0.03v-0.77c0-1.24,0.71-2.36,1.83-2.91l0.63-0.31c0,0,0,0,0.01,0h1.28c0.68,0,1.24-0.56,1.24-1.24
					c0-0.69-0.56-1.24-1.24-1.24h-1.28c-0.01-0.01-0.01-0.01-0.01-0.01l-0.63-0.31c-1.12-0.53-1.83-1.67-1.83-2.91h0.15
					c1.2,0,2.16-0.97,2.16-2.17c0-0.37-0.09-0.71-0.25-1c-0.03-0.07-0.06-0.13-0.1-0.19c3.55-3.07,5.79-7.61,5.79-12.67v-3.78h1.99
					c1.11,0,2.13-0.44,2.85-1.17c0.8-0.78,1.28-1.89,1.23-3.12c-0.09-2.23-2.11-3.9-4.36-3.9h-1.68c-0.01,0-0.03-0.01-0.03-0.04
					c0-1.43,1.15-2.58,2.58-2.58h8.67c1.2,0,2.17-0.97,2.17-2.17c0-1.2-0.98-2.17-2.17-2.17h-56.14
					C103.59,298.87,102.63,299.85,102.63,301.04z"/>
				<path class="st12" d="M149.67,314.12v3.69c0,5.07-2.25,9.6-5.79,12.67c0.04,0.06,0.07,0.12,0.1,0.19h-22.26
					c0.04-0.07,0.07-0.13,0.12-0.19c-3.54-3.07-5.79-7.61-5.79-12.67v-3.69H149.67z"/>
				<path class="st12" d="M123.79,355.5v54.27c0,0.01-0.01,0.01-0.01,0.03c-0.13,0.1-0.27,0.21-0.4,0.34h18.97
					c-0.13-0.13-0.27-0.24-0.4-0.34c-0.01-0.01-0.01-0.03-0.01-0.03V355.5c0-0.01,0-0.03,0.01-0.03c0.34-0.25,0.65-0.53,0.93-0.84
					h-20.03c0.27,0.31,0.59,0.59,0.93,0.84C123.78,355.47,123.79,355.49,123.79,355.5z"/>
				<path class="st12" d="M115.24,438.99h35.24c-0.22-0.25-0.44-0.49-0.68-0.72v-9.02h-33.88v9.02
					C115.68,438.5,115.46,438.74,115.24,438.99z"/>
			</g>
			<g>
				<path class="st9" d="M103.7,276.97c0,0,3.47-9.97-0.05-9.99c-3.53-0.01-3.08,9.99-3.08,9.99s-3.89-9.34-6.45-7.97
					c-2.56,1.37,3.02,9.11,3.02,9.11s-9.54-0.55-10.2,1.49c-0.66,2.05,9.14,2.28,9.14,2.28s-9.58,3.45-9.17,5.32
					c0.41,1.86,9.22-0.93,9.22-0.93s-4.28,5.62-2.58,6.56c1.7,0.94,5.85-4.72,5.85-4.72s-2.39,7.93,1.17,7.93
					c3.56,0,2.04-7.18,2.04-7.18s3.58,5.51,6.53,4.16c2.96-1.35-3.62-7.95-3.62-7.95s6.55,4.27,7.87,1.2
					c1.32-3.07-7.87-4.76-7.87-4.76s6.61-1.9,6.58-6.43C112.07,270.55,103.7,276.97,103.7,276.97z"/>
				<path class="st13" d="M103.7,276.97c0,0,3.47-9.97-0.05-9.99c-3.53-0.01-3.08,9.99-3.08,9.99s-3.89-9.34-6.45-7.97
					c-2.56,1.37,3.02,9.11,3.02,9.11s-9.54-0.55-10.2,1.49c-0.66,2.05,9.14,2.28,9.14,2.28s-9.58,3.45-9.17,5.32
					c0.41,1.86,9.22-0.93,9.22-0.93s-4.28,5.62-2.58,6.56c1.7,0.94,5.85-4.72,5.85-4.72s-2.39,7.93,1.17,7.93
					c3.56,0,2.04-7.18,2.04-7.18s3.58,5.51,6.53,4.16c2.96-1.35-3.62-7.95-3.62-7.95s6.55,4.27,7.87,1.2
					c1.32-3.07-7.87-4.76-7.87-4.76s6.61-1.9,6.58-6.43C112.07,270.55,103.7,276.97,103.7,276.97z"/>
				<path class="st10" d="M98.18,282.34c0,1.51,1.23,2.74,2.74,2.74c1.51,0,2.74-1.23,2.74-2.74c0-1.51-1.23-2.74-2.74-2.74
					C99.4,279.6,98.18,280.83,98.18,282.34z"/>
			</g>
			<g>
				<path class="st9" d="M162.79,286.81c0,0-3.88,9.82-0.36,9.98c3.52,0.16,3.49-9.85,3.49-9.85s3.5,9.49,6.11,8.23
					c2.61-1.26-2.64-9.22-2.64-9.22s9.51,0.94,10.25-1.07c0.74-2.02-9.04-2.66-9.04-2.66s9.72-3.06,9.38-4.93
					c-0.33-1.88-9.25,0.54-9.25,0.54s4.51-5.44,2.85-6.45c-1.66-1.01-6.04,4.48-6.04,4.48s2.72-7.83-0.84-7.97
					c-3.56-0.15-2.33,7.09-2.33,7.09s-3.35-5.65-6.35-4.42c-3.01,1.23,3.29,8.09,3.29,8.09s-6.37-4.53-7.82-1.52
					c-1.45,3.01,7.67,5.08,7.67,5.08s-6.68,1.63-6.84,6.16C154.17,292.88,162.79,286.81,162.79,286.81z"/>
				<path class="st13" d="M162.79,286.81c0,0-3.88,9.82-0.36,9.98c3.52,0.16,3.49-9.85,3.49-9.85s3.5,9.49,6.11,8.23
					c2.61-1.26-2.64-9.22-2.64-9.22s9.51,0.94,10.25-1.07c0.74-2.02-9.04-2.66-9.04-2.66s9.72-3.06,9.38-4.93
					c-0.33-1.88-9.25,0.54-9.25,0.54s4.51-5.44,2.85-6.45c-1.66-1.01-6.04,4.48-6.04,4.48s2.72-7.83-0.84-7.97
					c-3.56-0.15-2.33,7.09-2.33,7.09s-3.35-5.65-6.35-4.42c-3.01,1.23,3.29,8.09,3.29,8.09s-6.37-4.53-7.82-1.52
					c-1.45,3.01,7.67,5.08,7.67,5.08s-6.68,1.63-6.84,6.16C154.17,292.88,162.79,286.81,162.79,286.81z"/>
				<path class="st10" d="M168.53,281.68c0.06-1.51-1.11-2.79-2.62-2.85c-1.51-0.06-2.79,1.11-2.85,2.62
					c-0.06,1.51,1.11,2.79,2.62,2.85C167.2,284.36,168.47,283.19,168.53,281.68z"/>
			</g>
			<g>
				<path class="st9" d="M134.65,253.11c0,0,3.07-8.82-0.05-8.83c-3.12-0.01-2.72,8.83-2.72,8.83s-3.44-8.26-5.7-7.05
					c-2.26,1.21,2.67,8.06,2.67,8.06s-8.44-0.49-9.02,1.32c-0.58,1.81,8.09,2.02,8.09,2.02s-8.48,3.05-8.12,4.7
					c0.36,1.65,8.16-0.82,8.16-0.82s-3.79,4.97-2.28,5.81c1.5,0.84,5.17-4.18,5.17-4.18s-2.12,7.02,1.03,7.02s1.8-6.35,1.8-6.35
					s3.16,4.87,5.78,3.68c2.61-1.19-3.2-7.03-3.2-7.03s5.79,3.77,6.96,1.06c1.17-2.71-6.96-4.21-6.96-4.21s5.84-1.68,5.82-5.69
					C142.05,247.43,134.65,253.11,134.65,253.11z"/>
				<path class="st13" d="M134.65,253.11c0,0,3.07-8.82-0.05-8.83c-3.12-0.01-2.72,8.83-2.72,8.83s-3.44-8.26-5.7-7.05
					c-2.26,1.21,2.67,8.06,2.67,8.06s-8.44-0.49-9.02,1.32c-0.58,1.81,8.09,2.02,8.09,2.02s-8.48,3.05-8.12,4.7
					c0.36,1.65,8.16-0.82,8.16-0.82s-3.79,4.97-2.28,5.81c1.5,0.84,5.17-4.18,5.17-4.18s-2.12,7.02,1.03,7.02s1.8-6.35,1.8-6.35
					s3.16,4.87,5.78,3.68c2.61-1.19-3.2-7.03-3.2-7.03s5.79,3.77,6.96,1.06c1.17-2.71-6.96-4.21-6.96-4.21s5.84-1.68,5.82-5.69
					C142.05,247.43,134.65,253.11,134.65,253.11z"/>
				<path class="st10" d="M129.76,257.86c0,1.34,1.08,2.42,2.42,2.42c1.34,0,2.42-1.08,2.42-2.42c0-1.34-1.08-2.42-2.42-2.42
					C130.85,255.44,129.76,256.52,129.76,257.86z"/>
			</g>
			<g>
				<path class="st9" d="M113.76,256.62c0,0,2.8-8.05-0.04-8.06c-2.85-0.01-2.48,8.06-2.48,8.06s-3.14-7.54-5.2-6.43
					c-2.06,1.1,2.44,7.35,2.44,7.35s-7.7-0.44-8.23,1.21c-0.53,1.65,7.38,1.84,7.38,1.84s-7.73,2.79-7.4,4.29
					c0.33,1.5,7.44-0.75,7.44-0.75s-3.45,4.53-2.08,5.3c1.37,0.76,4.72-3.81,4.72-3.81s-1.93,6.4,0.94,6.4s1.64-5.79,1.64-5.79
					s2.88,4.44,5.27,3.35s-2.92-6.41-2.92-6.41s5.28,3.44,6.35,0.97s-6.35-3.84-6.35-3.84s5.33-1.53,5.31-5.19
					C120.51,251.44,113.76,256.62,113.76,256.62z"/>
				<path class="st10" d="M109.31,260.94c0,1.22,0.99,2.21,2.21,2.21c1.22,0,2.21-0.99,2.21-2.21c0-1.22-0.99-2.21-2.21-2.21
					C110.29,258.74,109.31,259.72,109.31,260.94z"/>
			</g>
			<g>
				<path class="st9" d="M158.32,263.28c0,0,8.16-0.9,6.99-3.37c-1.17-2.48-8.03,1.18-8.03,1.18s5.25-5.85,3.44-7.19
					c-1.81-1.34-5.38,5.16-5.38,5.16s-2.8-6.88-4.46-6.65c-1.65,0.22,1.45,7.17,1.45,7.17s-5.62-5.57-6.79-4.66s3.73,6.16,3.73,6.16
					s-5.37-1.12-5.47,0.39c-0.09,1.51,5.27,2.52,5.27,2.52s-6.36,0.97-5.17,3.47c1.19,2.5,5.71-0.97,5.71-0.97s-2.67,4.35-0.73,5.97
					c1.93,1.62,4.37-5.2,4.37-5.2s-0.8,6.02,1.79,5.92c2.59-0.1,0.7-7.11,0.7-7.11s3.54,4,6.71,2.46
					C165.62,267,158.32,263.28,158.32,263.28z"/>
				<path class="st10" d="M152.71,261.2c-1.06,0.51-1.51,1.77-1,2.83c0.51,1.06,1.77,1.51,2.83,1c1.06-0.51,1.51-1.77,1-2.83
					C155.04,261.14,153.77,260.69,152.71,261.2z"/>
			</g>
			<g>
				<path class="st9" d="M129.54,278.93c0,0-9.05-12.12-11.89-7.94c-2.84,4.17,9.38,11.66,9.38,11.66s-14.2-2.87-14.63,1.26
					c-0.43,4.13,13.23,3.71,13.23,3.71s-8.3,10.88-6.4,13.3c1.9,2.42,10.04-9.02,10.04-9.02s-3.58,14.14-1.04,15.14
					c2.54,1.01,6.29-11.68,6.29-11.68s3.24,9.58,5.72,8.32c2.48-1.26-0.92-10.72-0.92-10.72s7.49,9.2,10.35,4.97
					c2.85-4.23-6.88-8.17-6.88-8.17s9.4,0.17,10.16-4.42c0.77-4.59-12.34-2.07-12.34-2.07s10.31-4.35,7.73-8.38
					c-2.58-4.03-11.95,5.53-11.95,5.53s3.04-9.36-2.36-12.96C128.62,263.86,129.54,278.93,129.54,278.93z"/>
				<path class="st10" d="M131.48,289.79c1.79,1.21,4.23,0.74,5.44-1.05s0.74-4.23-1.05-5.44c-1.79-1.21-4.23-0.74-5.44,1.05
					C129.21,286.14,129.68,288.58,131.48,289.79z"/>
			</g>
		</g>
	</g>
	<g>
		<path class="st14" d="M518.41,224.64c-6.48-50.28-48.31-34.64-48.31-34.64s16.49-48.05-25.33-62.57
			c-16.91-5.87-34.64-9.97-51.08-17.1c-5.93-2.57-11.77-5.7-16.48-10.18c-2.15-2.04-4.03-4.34-5.55-6.88c-1.2-2-1.86-4.65-3.44-6.38
			c-3.4,5.06-5.36,9.5-9.95,13.71c-4.82,4.42-10.75,7.5-16.75,10.05c-16.24,6.9-33.66,10.99-50.32,16.78
			C249.4,141.96,265.89,190,265.89,190s-41.83-15.64-48.31,34.64c-6.48,50.28,18.26,194.98,18.26,194.98
			c20.61,11.98,47.98,14.04,71.5,15.61c12.14,0.81,24.32,1.13,36.49,1.11c26.38-0.04,53.04,0.65,79.18-0.77
			c25.21-1.37,55.01-3.09,77.13-15.95C500.15,419.62,524.89,274.92,518.41,224.64z"/>
		<g>
			<path class="st15" d="M520.89,300.34c3.17-21.11,10.77-40.23,15.96-51.49c-2.78-0.71-5.9-0.15-8.44,1.27
				c-3.25,1.81-5.69,4.78-7.73,7.88c-5.3,8.06-8.75,17.82-16.62,23.4c-4.97,3.52-11.12,4.9-16.61,7.55
				c-14.03,6.77-23.12,22.62-21.87,38.15c0.83,10.33,5.76,20.61,3.26,30.67c-2.49,10.02-11.58,16.74-17.93,24.88
				c-10.6,13.6-13.62,32.76-7.7,48.96c0,0,24.69,0.33,47.51-4.66c1.73-15.67,15.7-40.5,20.13-52.31
				C515.86,361.24,515.86,333.86,520.89,300.34z"/>
			<path class="st16" d="M533.54,371.42c-1.68-6.05-4.73-12.25-3.05-18.29c1.83-6.55,8.46-10.29,14.16-14
				c5.5-3.58,10.76-7.89,13.87-13.67c3.11-5.78,3.68-13.27,0.04-18.73c-2.91-4.35-7.97-6.83-11.17-10.97
				c-6.79-8.81-3.13-21.31-2.88-32.43c0.12-5.13-1.03-11.01-5.46-13.6c-0.69-0.41-1.44-0.68-2.2-0.88
				c-5.19,11.26-12.79,30.37-15.96,51.49c-5.03,33.52-5.03,60.9-10.06,74.3c-4.43,11.82-18.4,36.64-20.13,52.31
				c11.28-2.47,17.33-4.82,29.62-11.53C534.44,407.74,537.84,386.9,533.54,371.42z"/>
		</g>
		<g>
			<path class="st17" d="M274.74,362.48c-1.55-2.25-3.34-4.35-4.51-6.82c-3.78-7.99,0.69-19.26-0.51-28.09
				c-0.97-7.14-3.84-14.26-9.23-19.05c-10.34-9.18-26.5-7.8-31.32-23.18c-1.15-3.67-1.31-7.58-2.1-11.35
				c-0.79-3.77-2.38-7.63-5.56-9.8c-3.02-2.07-7.07-2.2-10.52-0.9c1.09,11.92,3.79,31.36,10.45,49.91
				c10.61,29.61,22.91,74.86,22.91,76.54c0,1.24,1.02,24.24,1.55,36.16c12.86,2.2,25.88,3.15,25.88,3.15
				c5.25-10.42,9.48-21.53,10.62-33.14C283.54,384.28,281.37,372.08,274.74,362.48z"/>
			<path class="st18" d="M221.44,313.19c-6.65-18.56-9.35-37.99-10.45-49.91c-0.43,0.16-0.86,0.35-1.27,0.55
				c-3.68,1.86-6.43,5.23-8.28,8.92c-1.68,3.35-2.72,7.04-2.87,10.78c-0.53,13.73,5.44,23.2-4.27,35.15
				c-6.6,8.12-6.9,17.68-2.13,27.05c4.13,8.11,10.78,14.62,15.91,22.15c2.17,3.19,4.1,6.66,4.7,10.46
				c1.04,6.6-2.33,12.69-0.46,19.25c1.69,5.93,5.05,12.63,9.56,16.85c6.33,5.93,15.35,10.39,23.93,11.32
				c0.11-11.97-1.45-24.03-1.45-36.03C244.35,388.06,232.06,342.8,221.44,313.19z"/>
		</g>
		<g>
			<defs>
				<path id="SVGID_1_" d="M516.75,227.16c-6.41-50.28-47.77-34.64-47.77-34.64c3.53-10.41,8.89-18.8,9.16-30.39
					c0.28-11.67-3.17-23.5-10.19-32.89c-12.22-16.33-34.56-24.36-54.38-19.53c-14.43,3.51-25.04,3.92-36.45-7.04
					c-2.12-2.04-3.98-4.34-5.49-6.88c-1.19-2-1.84-4.65-3.4-6.38c-3.36,5.06-5.3,9.5-9.84,13.71c-4.77,4.42-10.63,7.5-16.56,10.05
					c-16.06,6.9-33.28,10.99-49.76,16.78c-41.36,14.53-25.05,62.57-25.05,62.57s-41.36-15.64-47.77,34.64
					c-6.41,50.28,18.06,194.98,18.06,194.98c20.38,11.98,47.45,14.04,70.71,15.61c12.01,0.81,24.05,1.13,36.09,1.11
					c26.09-0.04,52.45,0.65,78.31-0.77c24.94-1.37,54.4-3.09,76.27-15.95C498.69,422.13,523.16,277.44,516.75,227.16z"/>
			</defs>
			<clipPath id="SVGID_2_">
				<use xlink:href="#SVGID_1_"  style="overflow:visible;"/>
			</clipPath>
			<g class="st19">
				<g>
					<path class="st20" d="M252.35,270.36c0,0,0.74,40.78,2.98,56.99c2.23,16.2-19.55,107.82-19.55,107.82l57.54,8.38l-2.79-75.98
						l-15.08-93.86v-12.85L252.35,270.36z"/>
					<linearGradient id="SVGID_3_" gradientUnits="userSpaceOnUse" x1="252.3468" y1="379.3025" x2="275.8604" y2="379.3025">
						<stop  offset="0" style="stop-color:#5CA1A5"/>
						<stop  offset="1" style="stop-color:#B8DCE8"/>
					</linearGradient>
					<path class="st21" d="M253.84,317.66c0,0,2.61,17.88,4.84,24.95c2.23,7.08,6.33,55.5,6.33,55.5s-2.23,38.36-2.61,39.85
						c-0.37,1.49,11.55,2.98,11.55,2.98s2.23-43.58,1.86-54.01C275.45,376.51,256.45,329.95,253.84,317.66z"/>
					<path class="st14" d="M246.61,436.75c0.9-5.07,2.45-13.08,4.63-22.25c3.72-15.64,4.84-35.01,4.1-59.59
						c-0.15-4.87-0.47-8.88-0.9-12.2c-4.09,31.19-18.66,92.47-18.66,92.47L246.61,436.75z"/>
				</g>
				<g>
					<path class="st22" d="M337.92,136.37c0,0,27.46,0.84,36.79,24.3c6.26,15.75,2.07,43.02-2.59,59.78
						c-4.19,15.07-16.04,51.96-23.3,54.75c-6.22-10.61-14.53-34.08-14.53-34.08l21.76-33.52l6.74-35.76l-3.11-18.44L337.92,136.37z"
						/>
					<path class="st20" d="M363.34,195.31c0,0,16.2,40.78-7.82,82.68c-20.11-20.67-29.61-34.64-29.61-34.64l1.12-20.67l29.61-35.76
						L363.34,195.31z"/>
					<polygon class="st20" points="302.45,173.24 322.56,196.43 303.29,255.37 290.16,247.55 					"/>
				</g>
				<g>
					<linearGradient id="SVGID_4_" gradientUnits="userSpaceOnUse" x1="401.8934" y1="219.776" x2="449.1917" y2="219.776">
						<stop  offset="0" style="stop-color:#F0C68C"/>
						<stop  offset="1" style="stop-color:#DC9270"/>
					</linearGradient>
					<path class="st23" d="M419.77,185.26l-17.88,71.51c0,0,21.34,5.3,46.93-10.06c2.79-1.68-11.17-64.81-11.17-64.81L419.77,185.26
						z"/>
					<path class="st24" d="M437.65,181.9l-17.88,3.35l-8.07,32.3c0.99-0.06,1.99-0.32,2.94-0.62c6.8-2.16,12.79-6.44,17.75-11.56
						c3.01-3.11,5.67-6.52,8.14-10.08C438.88,187.45,437.65,181.9,437.65,181.9z"/>
				</g>
				<g>
					<g>
						<path class="st22" d="M403.36,140.93c0,0-17.19,16.52-10.16,36.91c5.35,15.51,17.65,6.95,17.65,6.95l6.95-40.65L403.36,140.93
							z"/>
						<path class="st22" d="M392.29,160.05c0.65-0.79,0.46-2-0.06-2.88c-0.53-0.88-1.33-1.56-1.94-2.38c-1.94-2.6-1.68-6.39,0-9.17
							c1.67-2.78,4.51-4.67,7.47-5.99c3.16-1.4,6.56-2.25,10.01-2.49c0.48-0.03,1.01-0.04,1.39,0.26c0.65,0.51,0.47,1.52,0.22,2.31
							c-2.55,8.19-5.1,16.38-7.65,24.58L392.29,160.05z"/>
					</g>
					<g>
						<g>
							
								<linearGradient id="SVGID_5_" gradientUnits="userSpaceOnUse" x1="445.7356" y1="-337.6303" x2="496.616" y2="-357.326" gradientTransform="matrix(0.9922 -0.1634 0.17 1.0322 7.6187 612.1043)">
								<stop  offset="0" style="stop-color:#F0C68C"/>
								<stop  offset="1" style="stop-color:#DC9270"/>
							</linearGradient>
							<path class="st25" d="M409.16,152.67c-3.58,2-8.43,5.24-11.5,7.4c-2.55,12.38-7.23,38.17,5.18,45.25
								c7.56,4.32,34.43-8.52,42.69-32.85C445.53,172.48,424.47,159.38,409.16,152.67z"/>
							<linearGradient id="SVGID_6_" gradientUnits="userSpaceOnUse" x1="415.5543" y1="198.1135" x2="444.978" y2="180.9808">
								<stop  offset="0" style="stop-color:#F0C68C"/>
								<stop  offset="1" style="stop-color:#DC9270"/>
							</linearGradient>
							<path class="st26" d="M435.68,186.21c0,0,6.36,4.77,13.01-0.31c6.65-5.09,0.74-13.21-5.89-10.85L435.68,186.21z"/>
						</g>
						<path class="st20" d="M425.92,160.86c0,0,8.19,12.66,9.31,16.02c1.12,3.35-2.23,10.8-2.23,10.8l12.54-15.2L425.92,160.86z"/>
					</g>
					<path class="st17" d="M449.92,119.87c18.9,8.01,26.49,26.37,16.97,39.52c-27.65-21.01-69.12-30.96-69.12-30.96
						s9.4-15.48,38.15-12.16C441.09,116.86,445.78,118.11,449.92,119.87"/>
					<path class="st18" d="M400.42,147.09c0,0,37.98,22.47,44.93,30.49c6.95,8.02,6.95,8.02,6.95,8.02s11.23-11.77,17.65-22.47
						c6.42-10.7-10.7-25.68-20.33-29.96c-11.59-5.15-51.7-18.24-58.33-1.01C388.47,139.51,393.9,144.62,400.42,147.09z"/>
				</g>
				<g>
					<g>
						<path class="st27" d="M393.51,250.06c0,0-10.06,1.12-40.78,41.9c-26.82,42.46-31.29,53.63-31.29,53.63l44.14,7.26
							L393.51,250.06z"/>
						<linearGradient id="SVGID_7_" gradientUnits="userSpaceOnUse" x1="379.537" y1="472.7394" x2="476.7469" y2="250.9443">
							<stop  offset="0" style="stop-color:#5CA1A5"/>
							<stop  offset="1" style="stop-color:#B8DCE8"/>
						</linearGradient>
						<path class="st28" d="M357.2,326.04c0,0,14.53-54.19,29.05-70.39c14.53-16.2,40.22-17.88,52.52-20.11
							c12.29-2.23,50.84,0,55.87,40.22s-8.94,163.13-8.94,163.13l-139.67,11.73L357.2,326.04z"/>
					</g>
					<g>
						<path class="st15" d="M413.63,208.72c0,0-17.88,9.5-24.58,19c-6.7,9.5-3.91,12.85-3.91,12.85s-4.47,6.15-10.06,13.97
							c-5.59,7.82-11.17,48.6-11.73,50.28c-0.56,1.68-3.91,87.71-3.91,87.71l-1.68,21.79l21.23,1.12c0,0,7.82-104.47,15.08-139.11
							c7.26-34.64,15.64-50.28,15.64-50.28L413.63,208.72z"/>
						<linearGradient id="SVGID_8_" gradientUnits="userSpaceOnUse" x1="351.0677" y1="415.9968" x2="429.562" y2="181.8219">
							<stop  offset="0" style="stop-color:#D77223"/>
							<stop  offset="1" style="stop-color:#EDDE38"/>
						</linearGradient>
						<path class="st29" d="M407.81,230.12c-20.88,14.2-36.08,45.36-41.61,58.01c-1.56,8.8-2.62,15.99-2.85,16.68
							c-0.56,1.68-3.91,87.71-3.91,87.71l-0.45,5.84l1.57,7.57l18.44,9.5c0,0,7.82-104.47,15.08-139.11
							C399.22,251.78,404.92,236.78,407.81,230.12z"/>
					</g>
					<linearGradient id="SVGID_9_" gradientUnits="userSpaceOnUse" x1="477.9506" y1="207.1508" x2="404.764" y2="245.1408">
						<stop  offset="0" style="stop-color:#5CA1A5"/>
						<stop  offset="1" style="stop-color:#B8DCE8"/>
					</linearGradient>
					<path class="st30" d="M397.98,227.71c0,0,40.78-11.73,56.43-10.61c1.12,17.88,1.68,22.35,1.68,22.35s-34.64,5.03-55.31,8.38
						L397.98,227.71z"/>
					<g>
						<path class="st15" d="M477.56,245.29c2.37-2.33,3.87-4.71,3.87-7.04c0-3.75-2.07-7.24-4.69-9.92
							c-2.96-3.04-6.7-5.32-10.76-6.56c-1.01-0.31-2.11-0.6-2.8-1.39c-0.73-0.84-0.84-2.03-1.08-3.12
							c-1.02-4.53-4.83-7.89-8.77-10.35c-3.94-2.46-8.28-4.43-11.53-7.75c-13.21,33.03-39.11,60.22-49.4,94.5
							c-1.68,5.59-16.76,56.43-17.32,66.48c-0.56,10.06-2.23,56.43-2.23,56.43l43.58,18.44c0,0,1.68-77.66,2.23-96.09
							c0.56-18.44,31.29-76.54,31.29-76.54C455.49,258.84,470.45,252.29,477.56,245.29z"/>
						<linearGradient id="SVGID_10_" gradientUnits="userSpaceOnUse" x1="380.4064" y1="441.22" x2="470.3685" y2="172.8328">
							<stop  offset="0" style="stop-color:#DB8A27"/>
							<stop  offset="1" style="stop-color:#EDDE38"/>
						</linearGradient>
						<path class="st31" d="M437.65,253.97c-2.79-5.59,10.06-25.7,10.06-25.7s-7.82,3.35-30.17,35.2
							c-16.17,23.04-32.92,65.96-40.95,87.94c-0.86,3.86-1.41,6.93-1.51,8.71c-0.56,10.06-2.23,56.43-2.23,56.43l43.58,18.44
							c0,0,6.7-82.13,7.26-100.56c0.56-18.44,26.26-72.07,26.26-72.07c5.55-3.51,20.51-10.06,27.62-17.07
							c2.37-2.33,3.87-4.71,3.87-7.04c0-3.75-2.07-7.24-4.69-9.92C449.34,228.37,440.44,259.56,437.65,253.97z"/>
					</g>
				</g>
				<path class="st15" d="M351.39,231.58c-0.36,0-0.71,0.03-1.06,0.08c0.51-0.99,0.81-2.15,0.81-3.39c0-3.23-1.98-5.91-4.56-6.39
					c1.08-1.18,1.77-2.89,1.77-4.78c0-3.58-2.42-6.48-5.4-6.48c-2.98,0-5.4,2.9-5.4,6.48c0,3.23,1.98,5.91,4.56,6.39
					c-1.08,1.18-1.77,2.89-1.77,4.78c0,3.32,2.08,6.05,4.77,6.43c-1.61,1.93-2.6,4.59-2.6,7.54c0,5.89,3.98,10.66,8.88,10.66
					c4.9,0,8.88-4.77,8.88-10.66C360.27,236.36,356.3,231.58,351.39,231.58z"/>
				<g>
					<linearGradient id="SVGID_11_" gradientUnits="userSpaceOnUse" x1="339.8725" y1="282.3035" x2="316.4081" y2="215.8208">
						<stop  offset="0" style="stop-color:#F0C68C"/>
						<stop  offset="1" style="stop-color:#DC9270"/>
					</linearGradient>
					<path class="st32" d="M341,206.48l3.35,75.98c0,0-30.73-11.17-44.14-33.52c19.55-50.84,25.14-69.28,25.14-69.28L341,206.48z"/>
					<path class="st24" d="M341,206.48l-15.64-26.82c0,0-1.55,5.1-5.85,17.31c0.11,0.9,0.23,1.8,0.38,2.69
						c1.35,7.91,4.63,15.62,10.16,21.43c2.67,2.8,5.9,5.17,9.6,6.28c0.74,0.22,1.51,0.37,2.28,0.48L341,206.48z"/>
				</g>
				<g>
					<linearGradient id="SVGID_12_" gradientUnits="userSpaceOnUse" x1="261.9094" y1="312.3146" x2="377.137" y2="312.3146">
						<stop  offset="7.626490e-03" style="stop-color:#A20278"/>
						<stop  offset="1" style="stop-color:#C66BB3"/>
					</linearGradient>
					<path class="st33" d="M328.15,383.03c19.72,0.92,38.68,1.08,48.86-4.77c0.19-23.36,0.22-44.83-0.25-48.87
						c-1.12-9.5-6.15-40.78-12.29-53.63c-2.75-5.76-14.16-14.79-18.47-19.76c-8.36,9.8-26.07,4.75-35.1-1.43
						c-4.5-3.07-7.22-4.73-9.74-9.54l-12.66-3.91c0,0-20.86,16.57-23.09,29.98c-2.23,13.41-4.28,42.09-3.17,43.76
						c1.12,1.68,19.55,55.87,22.35,62.57c0.62,1.5,0.91,3.38,0.97,5.86C293.66,382.87,310.75,382.22,328.15,383.03z"/>
					<linearGradient id="SVGID_13_" gradientUnits="userSpaceOnUse" x1="301.7687" y1="449.9057" x2="344.2282" y2="397.7624">
						<stop  offset="0" style="stop-color:#F0C68C"/>
						<stop  offset="1" style="stop-color:#DC9270"/>
					</linearGradient>
					<path class="st34" d="M282.34,438.89c34.64,22.35,93.86,6.15,93.86,6.15s0.55-35.13,0.81-66.78
						c-10.18,5.84-29.14,5.68-48.86,4.77c-17.4-0.81-34.49-0.15-42.6,0.27C285.76,391.91,283.2,407.64,282.34,438.89z"/>
				</g>
				<g>
					<linearGradient id="SVGID_14_" gradientUnits="userSpaceOnUse" x1="301.6108" y1="265.0777" x2="358.9048" y2="265.0777">
						<stop  offset="0" style="stop-color:#D77223"/>
						<stop  offset="1" style="stop-color:#EDDE38"/>
					</linearGradient>
					<path class="st35" d="M301.61,245.03c0,0,17.88,15.64,27.38,16.2c9.5,0.56,17.01-5.24,17.01-5.24s7.85,7.19,11.76,11.94
						c3.91,4.75-2.23,15.08-17.6,17.04c-15.36,1.96-28.77-16.76-33.24-22.07C302.45,257.6,301.61,245.03,301.61,245.03z"/>
					<linearGradient id="SVGID_15_" gradientUnits="userSpaceOnUse" x1="346.5844" y1="284.5601" x2="364.7414" y2="284.5601">
						<stop  offset="0" style="stop-color:#D77223"/>
						<stop  offset="1" style="stop-color:#EDDE38"/>
					</linearGradient>
					<ellipse class="st36" cx="355.66" cy="284.56" rx="9.08" ry="9.92"/>
				</g>
				<g>
					<linearGradient id="SVGID_16_" gradientUnits="userSpaceOnUse" x1="371.7486" y1="211.459" x2="333.3693" y2="164.3073">
						<stop  offset="0" style="stop-color:#F0C68C"/>
						<stop  offset="1" style="stop-color:#DC9270"/>
					</linearGradient>
					<path class="st37" d="M369.49,177.43c0,0-0.14,25.4-8.94,35.76c-8.01,9.42-26.05-7.62-32.38-12.45
						c-2.76-2.11-7.33-6.23-7.4-10.07c-0.06-3.01,2.8-7.81,3.77-10.73c2.45-7.35,4.76-14.74,7.29-22.06l33.13,1.04
						C364.97,158.92,370.01,166.56,369.49,177.43z"/>
					<g>
						<path class="st20" d="M346.58,141.12c0,0,7.82,6.7,10.61,19l11.17,9.22c0,0,3.74-3.56,0-12.57
							C363.62,145.31,346.58,141.12,346.58,141.12z"/>
						<path class="st20" d="M358.32,161.23c0,0-15.56,3.33-15.64,3.35c-2.3,0.49-3.76,6.28-4.54,8c-1.75,3.87-3.57,7.7-5.47,11.5
							c0.57-4,1.14-8.01,1.71-12.01c-4.01,2.13-7.71,5.37-9.04,9.72c-0.62,2.04-0.69,4.2-1.18,6.28c-0.48,2.07-1.51,4.19-3.41,5.17
							c-3.33,1.72-6.13-1.92-8.05-4.1c-3.67-4.16-6.57-9.35-6.34-15.05c0.56-13.97,6.7-19.55,12.85-25.7
							c6.15-6.15,21.23-11.73,28.49-6.15C354.96,147.82,358.32,161.23,358.32,161.23z"/>
					</g>
					<g>
						
							<linearGradient id="SVGID_17_" gradientUnits="userSpaceOnUse" x1="405.3689" y1="885.4908" x2="417.4643" y2="885.4908" gradientTransform="matrix(0.9774 0.2112 -0.2112 0.9774 111.3272 -772.6847)">
							<stop  offset="0" style="stop-color:#F0C68C"/>
							<stop  offset="1" style="stop-color:#DC9270"/>
						</linearGradient>
						<path class="st38" d="M324.77,189.81c0,0-5.8-1.77-4.06-12.2c1.74-10.44,12.07-8.2,13.51-5.32L324.77,189.81z"/>
						<path class="st15" d="M325.91,193.64c0-5.86-3.13-10.61-6.98-10.61s-6.98,4.75-6.98,10.61c0,2.07,0.4,4,1.07,5.63
							c-2.8,0.36-4.98,3.21-4.98,6.66c0,1.67,0.51,3.19,1.35,4.36c-2.09,0.97-3.58,3.4-3.58,6.25c0,1.88,0.65,3.58,1.69,4.8
							c-2.61,1.86-4.37,5.26-4.37,9.17c0,5.89,3.98,10.66,8.88,10.66c4.9,0,8.88-4.77,8.88-10.66c0-4.31-2.13-8.01-5.2-9.69
							c0.8-1.16,1.29-2.65,1.29-4.28c0-1.67-0.51-3.19-1.35-4.36c2.09-0.97,3.58-3.4,3.58-6.25c0-0.58-0.07-1.14-0.18-1.68
							C322.84,204.17,325.91,199.45,325.91,193.64z"/>
					</g>
					<g>
						<path class="st15" d="M356.71,160.22c-2.98-14.37-10.3-18.62-10.37-18.66l0.48-0.87c0.32,0.18,7.78,4.47,10.86,19.33
							L356.71,160.22z"/>
						<path class="st15" d="M360.55,166.54c0,3.78-1.5,6.84-3.35,6.84c-1.85,0-3.35-3.06-3.35-6.84c0-3.78,1.5-6.84,3.35-6.84
							C359.05,159.7,360.55,162.76,360.55,166.54z"/>
					</g>
				</g>
				<path class="st18" d="M346.58,141.12c0,0-25.14,2.23-39.11,32.96c-5.59,29.05-7.26,74.86-7.26,74.86l-31.29,5.59
					c0,0,0-53.07,16.76-86.6C302.45,134.42,329.27,126.59,346.58,141.12z"/>
				<g>
					<path class="st20" d="M288.48,241.12c0,0,16.76,3.35,25.7,11.73c5.23,4.9,10.6,9.69,16.07,14.33
						c11.11,9.43,15.14,25.07,20.5,38.06c4.23,10.26,8.61,20.49,12.6,30.85c2.79,7.26,5.59,111.18,5.59,111.18
						s-17.32,4.47-42.46,3.35c2.79-96.65-1.12-124.03-3.35-136.88c-2.23-12.85-10.06-35.76-15.64-40.78
						c-5.59-5.03-12.85-8.94-21.79-8.94c-8.94,0-22.91,2.79-27.93,4.47c-5.03,1.68-5.03,1.68-5.03,1.68S273.4,246.71,288.48,241.12z
						"/>
					<linearGradient id="SVGID_18_" gradientUnits="userSpaceOnUse" x1="246.3949" y1="351.727" x2="345.8394" y2="351.727">
						<stop  offset="0" style="stop-color:#5CA1A5"/>
						<stop  offset="1" style="stop-color:#B8DCE8"/>
					</linearGradient>
					<path class="st39" d="M344.35,409.66c-0.74-18.25,1.49-46.56,1.49-46.56s-3.35-33.52-12.29-60.34
						c-8.94-26.82-14.9-37.99-33.52-46.93c-10.99-5.27-23.79-3.03-32.75-0.22c-8.22,7.37-14.56,14.56-14.56,14.56s0,0,5.03-1.68
						c5.03-1.68,19-4.47,27.93-4.47c8.94,0,16.2,3.91,21.79,8.94c5.59,5.03,13.41,27.93,15.64,40.78
						c2.23,12.85,6.15,40.22,3.35,136.88c6.99,0.31,13.37,0.19,18.94-0.15C345.28,442.77,344.93,423.85,344.35,409.66z"/>
					<path class="st14" d="M288.48,241.12c-5.46,2.02-11.64,6.39-17.32,11.13c11.22-1.11,29.25-0.51,41.53,11.78
						c19,18.99,28.44,35.88,38.06,41.22c-5.35-12.99-9.39-28.63-20.5-38.06c-5.47-4.64-10.84-9.43-16.07-14.33
						C305.24,244.47,288.48,241.12,288.48,241.12z"/>
				</g>
				<g>
					<g>
						<linearGradient id="SVGID_19_" gradientUnits="userSpaceOnUse" x1="407.3836" y1="326.9908" x2="314.6432" y2="372.8025">
							<stop  offset="0" style="stop-color:#F0C68C"/>
							<stop  offset="1" style="stop-color:#DC9270"/>
						</linearGradient>
						<path class="st40" d="M329.82,345.97l4.47,10.8l55.12-42.46c0,0,0.37-13.04,0-14.53c3.35,2.23,2.98,5.59,2.98,5.59
							s8.19-14.15,12.66-18.99c4.47-4.84,8.94,2.23,8.94,2.23l-6.33,14.15l7.82-8.57c0,0-0.37,6.7-8.19,13.78
							c0,0,2.23,13.04-4.1,17.13c-6.33,4.1-6.33,4.1-6.33,4.1s-17.51,36.87-28.31,50.65c-10.8,13.78-25.7,24.95-36.87,21.97
							c-8.28-3.29-25.73-11.11-36.5-33.89L329.82,345.97z"/>
						<g>
							<linearGradient id="SVGID_20_" gradientUnits="userSpaceOnUse" x1="365.8587" y1="334.9808" x2="397.424" y2="334.9808">
								<stop  offset="7.626490e-03" style="stop-color:#A20278"/>
								<stop  offset="1" style="stop-color:#C66BB3"/>
							</linearGradient>
							<path class="st41" d="M383.46,317.66l13.97,13.13c0,0-7.64,14.8-10.99,21.51l-20.58-21.51L383.46,317.66z"/>
							<linearGradient id="SVGID_21_" gradientUnits="userSpaceOnUse" x1="360.9237" y1="344.3387" x2="386.4367" y2="344.3387">
								<stop  offset="0" style="stop-color:#D77223"/>
								<stop  offset="1" style="stop-color:#EDDE38"/>
							</linearGradient>
							<polygon class="st42" points="365.86,330.79 386.44,352.3 383.46,357.89 360.92,334.98 							"/>
							<linearGradient id="SVGID_22_" gradientUnits="userSpaceOnUse" x1="382.7122" y1="323.7206" x2="399.6588" y2="323.7206">
								<stop  offset="0" style="stop-color:#D77223"/>
								<stop  offset="1" style="stop-color:#EDDE38"/>
							</linearGradient>
							<polygon class="st43" points="386.26,314.87 399.66,328.56 397.52,332.57 382.71,317.88 							"/>
						</g>
						<g>
							<path class="st20" d="M406.76,288.15c0.65-0.98,1.41-1.91,2-2.91c0.3-0.51-0.44-1.13-0.84-0.65
								c-0.73,0.87-1.31,1.9-1.91,2.87c-0.62,1-1.21,2.02-1.78,3.05c-0.57,1.03-1.13,2.07-1.6,3.16c-0.47,1.09-0.87,2.21-1.34,3.3
								c-0.04,0.1,0.1,0.19,0.15,0.09c0.51-1.05,1.15-2.06,1.76-3.05c0.59-0.98,1.15-1.97,1.74-2.95
								C405.52,290.07,406.13,289.1,406.76,288.15z"/>
							<path class="st20" d="M409.52,289.09c0.51-0.95,1.1-1.91,1.46-2.92c0.2-0.55-0.65-1.08-1.02-0.6
								c-0.66,0.85-1.14,1.87-1.61,2.83c-0.51,1.03-1.02,2.06-1.48,3.11c-0.43,0.99-0.83,1.99-1.23,3c-0.2,0.51-0.41,1.02-0.6,1.54
								c-0.19,0.54-0.27,0.97-0.32,1.52c0,0.05,0.06,0.07,0.09,0.04c0.36-0.42,0.63-0.78,0.89-1.28c0.24-0.46,0.47-0.92,0.71-1.38
								c0.51-0.98,1.04-1.95,1.56-2.93C408.49,291.06,408.99,290.07,409.52,289.09z"/>
							<path class="st20" d="M409.42,297.66c0.46-1,0.88-2.01,1.34-3.01c0.45-0.97,0.87-1.94,1.31-2.91
								c0.22-0.48,0.44-0.97,0.67-1.45c0.23-0.48,0.57-0.99,0.65-1.52c0.09-0.55-0.58-1.12-1.04-0.6c-0.39,0.44-0.57,1.02-0.81,1.55
								c-0.22,0.49-0.43,0.98-0.64,1.47c-0.43,0.99-0.85,1.99-1.22,3.01c-0.38,1.03-0.77,2.07-1.09,3.12
								c-0.15,0.51-0.28,1.02-0.42,1.54c-0.15,0.59-0.19,1.21-0.39,1.78c-0.03,0.08,0.11,0.12,0.13,0.04
								c0.19-0.56,0.55-1.05,0.81-1.59C408.96,298.61,409.2,298.14,409.42,297.66z"/>
							<path class="st20" d="M415.71,295.86c-0.17-0.27-0.48-0.33-0.75-0.2c-0.5,0.24-0.59,0.88-0.75,1.37
								c-0.17,0.49-0.35,0.98-0.55,1.46c-0.43,1.02-0.95,1.99-1.5,2.94c-1.1,1.89-2.46,3.65-3.91,5.27
								c-0.14,0.16,0.04,0.44,0.23,0.3c1.9-1.3,3.45-2.95,4.74-4.86c0.63-0.94,1.17-1.94,1.63-2.97c0.24-0.53,0.46-1.07,0.66-1.62
								C415.71,297.03,416.05,296.39,415.71,295.86z"/>
							<path class="st20" d="M394.22,301.68c-0.18-0.07-0.35,0-0.46,0.15c-0.24,0.31-0.47,0.62-0.67,0.96
								c-0.19,0.31-0.34,0.64-0.49,0.97c-0.16,0.33-0.33,0.66-0.45,1.01c-0.12,0.37-0.26,0.73-0.41,1.1
								c-0.08,0.18,0.15,0.32,0.27,0.16c0.23-0.32,0.46-0.62,0.72-0.92c0.25-0.29,0.44-0.62,0.65-0.93
								c0.21-0.32,0.42-0.62,0.59-0.96c0.18-0.35,0.33-0.72,0.47-1.09C394.5,301.95,394.37,301.74,394.22,301.68z"/>
							<path class="st20" d="M334.79,355.46c-0.01-0.12-0.01-0.25-0.03-0.37c-0.12-0.96-1.38-0.97-1.5,0
								c-0.01,0.08-0.01,0.17-0.02,0.25c-0.29,0.29-0.52,0.7-0.73,1.01c-1.05,1.58-2.07,3.19-3.03,4.82
								c-0.95,1.59-1.85,3.21-2.68,4.87c-0.41,0.81-0.8,1.62-1.15,2.45c-0.18,0.43-0.37,0.87-0.53,1.31c-0.18,0.49-0.21,1-0.37,1.5
								c-0.04,0.13,0.15,0.2,0.21,0.09c0.39-0.65,0.9-1.21,1.29-1.88c0.38-0.66,0.77-1.31,1.14-1.97c0.69-1.25,1.41-2.48,2.14-3.7
								c0.73-1.22,1.49-2.43,2.27-3.62c0.42-0.63,0.84-1.27,1.28-1.89c0.06-0.08,0.12-0.17,0.18-0.25c0,0.05,0,0.1,0.01,0.14
								c0.03,1.01,0.07,2.01,0.14,3.01c0.14,2.04,0.43,4.1,0.45,6.15c0,0.2,0.31,0.2,0.31,0c0.02-2.05,0.31-4.1,0.45-6.15
								c0.07-1,0.11-2.01,0.14-3.01c0.02-0.58,0.06-1.18,0.06-1.78C334.98,356.12,334.96,355.75,334.79,355.46z"/>
						</g>
					</g>
					<linearGradient id="SVGID_23_" gradientUnits="userSpaceOnUse" x1="261.4966" y1="293.5154" x2="332.3829" y2="346.9584">
						<stop  offset="7.626490e-03" style="stop-color:#A20278"/>
						<stop  offset="1" style="stop-color:#C66BB3"/>
					</linearGradient>
					<path class="st44" d="M267.25,265.89c0,0-13.41,9.31-11.73,33.33c1.68,24.02,28.49,61.45,41.34,75.42
						c18.99-12.29,37.99-22.91,37.99-22.91s-8.94-34.64-18.44-61.45C306.92,263.47,281.41,256.95,267.25,265.89z"/>
				</g>
				<g>
					<linearGradient id="SVGID_24_" gradientUnits="userSpaceOnUse" x1="299.4353" y1="412.569" x2="345.8544" y2="400.6016">
						<stop  offset="0" style="stop-color:#F0C68C"/>
						<stop  offset="1" style="stop-color:#DC9270"/>
					</linearGradient>
					<path class="st45" d="M328.15,399.79l-11.17,2.23c0,0-18.44-6.7-18.99-3.35c-0.56,3.35,7.26,6.7,7.26,6.7
						s-12.85,9.5-17.88,10.61c-9.53,2.12,4.21,9.98,8.38,11.17c7.82,2.23,20.67-9.5,20.67-9.5l11.73-1.68V399.79z"/>
					<g>
						<path class="st20" d="M297.85,414.86c-3.7,1.87-7.55,3.42-11.51,4.63c-0.97,0.3-0.56,1.83,0.42,1.53
							c4.09-1.26,8.07-2.86,11.89-4.79C299.56,415.77,298.76,414.4,297.85,414.86z"/>
						<path class="st20" d="M300.41,417.79c-3.41,2.12-7.03,3.87-10.82,5.19c-0.96,0.34-0.55,1.87,0.42,1.53
							c3.92-1.37,7.68-3.16,11.2-5.35C302.08,418.62,301.28,417.25,300.41,417.79z"/>
						<path class="st20" d="M303.51,420.89c-3.1,1.99-6.41,3.62-9.88,4.84c-0.96,0.34-0.55,1.87,0.42,1.53
							c3.6-1.26,7.05-2.94,10.26-5C305.17,421.71,304.38,420.33,303.51,420.89z"/>
					</g>
					<path class="st20" d="M324.16,416.19c-1.25-0.21-2.7,0.1-3.96,0.2c-1.17,0.09-2.34,0.15-3.51,0.28
						c-1.15,0.14-1.75,0.73-2.51,1.54c-0.84,0.9-1.69,1.79-2.59,2.63c-3.67,3.46-8.4,6.4-13.6,6.45c-0.03,0-0.03,0.04,0,0.05
						c2.47,0.42,4.52,0.29,6.89-0.53c2.19-0.76,4.14-1.84,6-3.21c0.93-0.69,1.82-1.42,2.68-2.19c0.85-0.76,1.74-1.95,2.75-2.47
						c1.04-0.53,2.68-0.38,3.83-0.48c1.34-0.11,2.9-0.03,4.17-0.46C325.31,417.66,325.21,416.37,324.16,416.19z"/>
					
						<linearGradient id="SVGID_25_" gradientUnits="userSpaceOnUse" x1="279.64" y1="475.8835" x2="465.6781" y2="301.5777" gradientTransform="matrix(1 -3.400000e-03 3.400000e-03 1 -1.2387 13.0993)">
						<stop  offset="0" style="stop-color:#5CA1A5"/>
						<stop  offset="1" style="stop-color:#B8DCE8"/>
					</linearGradient>
					<path class="st46" d="M487.65,256.14c-5.99-9.14-15.32-14.01-28.75-6.39c-18.93,10.74-28.18,48.23-34.16,73.41
						c-5.98,25.18-9.23,40.84-9.23,40.84l-92.51,35.24l1.24,19.55c0,0,60.37,4.64,98.3-4.55c27.75-6.72,45.01-36.12,58.13-59.04
						c8.1-14.14,11.81-33.22,14.04-49.26C497,289.43,497.13,270.61,487.65,256.14z"/>
					<path class="st47" d="M458.9,249.75c-18.93,10.74-28.18,48.23-34.16,73.41c-5.98,25.18-9.23,40.84-9.23,40.84l-92.51,35.24
						l0.58,9.05c16.82-4.42,84.49-22.41,100.12-29.73c-2.79-7.26-2.79-7.26-2.79-7.26c7.82,1.68,12.29,2.79,12.29,2.79
						c18.95-33.28,49.15-106.92,39.86-128.01C468.95,245.67,464.25,246.71,458.9,249.75z"/>
				</g>
			</g>
		</g>
	</g>
</g>
<g id="Character_2">
</g>
<g id="Character_1">
</g>
</svg>
